G04 DipTrace 3.2.0.1*
G04 Bottom.gbr*
%MOIN*%
G04 #@! TF.FileFunction,Copper,L2,Bot*
G04 #@! TF.Part,Single*
G04 #@! TA.AperFunction,Conductor*
%ADD14C,0.011811*%
G04 #@! TA.AperFunction,CopperBalancing*
%ADD15C,0.025*%
G04 #@! TA.AperFunction,ComponentPad*
%ADD23R,0.059055X0.059055*%
%ADD24C,0.059055*%
%ADD37C,0.048*%
G04 #@! TA.AperFunction,ViaPad*
%ADD38C,0.03937*%
%FSLAX26Y26*%
G04*
G70*
G90*
G75*
G01*
G04 Bottom*
%LPD*%
X1468701Y1249685D2*
D14*
Y1313638D1*
X1494292Y1339229D1*
X1715709D1*
X1755075Y1378595D1*
X1822788D1*
X2074757D1*
X2100347Y1404185D1*
Y1778276D1*
X2125937Y1803866D1*
X2285866D1*
X2311457Y1829457D1*
Y2005438D1*
X2262244Y2054651D1*
X1812302Y1429717D2*
X2074756D1*
Y1829059D1*
X2100348Y1854651D1*
X2262244D1*
X1318701Y888236D2*
Y1120488D1*
X1344292Y1146079D1*
X1482481D1*
X1508071Y1171669D1*
Y1286075D1*
X1533662Y1311666D1*
X1822784D1*
X1850343Y1339225D1*
X2060977D1*
X2133694D1*
X2159285Y1364816D1*
Y1651692D1*
X2262244Y1754651D1*
X1533662Y1038929D2*
Y1260485D1*
X1559252Y1286075D1*
X2041295D1*
X2236650D1*
X2262244Y1311669D1*
Y1654651D1*
X1206126Y1998407D2*
X1131320Y2073213D1*
X1006453D1*
X824906Y1891666D1*
X2337257Y892273D2*
Y994873D1*
X2311666Y1020465D1*
X2269087D1*
X2243496Y1046056D1*
Y1117249D1*
X824906Y1891666D2*
X889866D1*
Y1519516D1*
X915457Y1493925D1*
X883961Y1462429D1*
Y1167434D1*
X1466099Y618394D2*
Y824926D1*
X1527756Y886583D1*
X2362244Y1954651D2*
Y1854651D1*
X824906Y817302D2*
X524906D1*
X883961Y1167434D2*
X824906D1*
Y817302D1*
X915457Y1493925D2*
X1166905D1*
X1281108Y1379722D1*
X824906Y817302D2*
X898024Y817303D1*
X1527756Y886583D2*
X1644807D1*
X2362244Y1754651D2*
Y1654651D1*
Y1854651D2*
Y1754651D1*
Y2054651D2*
X2411457Y2005438D1*
Y1071883D1*
X2385866Y1046292D1*
X2318299D1*
X2292709Y1071882D1*
Y1140874D1*
X2267118Y1166465D1*
X2206095D1*
X2180504Y1140874D1*
Y1068040D1*
X1481087Y1829457D2*
X1631059D1*
X1775547Y1973945D1*
X1924255D1*
X1993533Y1904667D1*
X1631059Y1829457D2*
X1656650Y1803866D1*
Y1507921D1*
X1803533Y1904667D2*
Y1555330D1*
X1822788Y1536075D1*
X824906Y617302D2*
X1087209Y879605D1*
Y1285878D1*
Y1323478D1*
X1436118D1*
Y1360974D1*
X1549829D1*
X1574827Y1385971D1*
X1589032D1*
Y1378599D1*
X2237257Y892273D2*
X2237256Y981095D1*
X1939252Y1134134D2*
X1731060D1*
Y1092252D1*
X1939252Y891492D2*
Y1046591D1*
X1770370Y761040D2*
Y934520D1*
X1695988Y1008902D1*
X1759366Y1220394D2*
X2317902D1*
X2343496Y1194800D1*
Y1117249D1*
X2035386Y1475445D2*
X1785083D1*
X1759492Y1501036D1*
Y1639898D1*
X1276142Y1917256D2*
X1187277D1*
X1106126Y1998407D1*
X1168701Y1246508D2*
X1400197D1*
X1901670Y1173504D2*
X1648878D1*
X1623285Y1147911D1*
Y1025150D1*
X1597694Y999559D1*
X1483662D1*
X1458071Y1025150D1*
Y1119079D1*
X1390091D1*
X1358071Y1087059D1*
X1379331Y1033910D2*
X1387357Y1025884D1*
Y529811D1*
X1976835Y1175370D2*
X2062162Y1090043D1*
Y506190D1*
X2036571Y480599D1*
X1362161D1*
X1336571Y506189D1*
Y723788D1*
X1229331Y831028D1*
X1168701Y866524D2*
Y648467D1*
X1287357Y529811D1*
X1426729Y756662D2*
Y590439D1*
X1487357Y529811D1*
X1535457Y796032D2*
X1587357Y744132D1*
Y529811D1*
X1424843Y1079753D2*
Y945402D1*
X1444292Y925953D1*
X1661764D1*
X1687357Y900360D1*
Y529811D1*
D38*
X1468701Y1249685D3*
X1822788Y1378595D3*
X1812302Y1429717D3*
X1318701Y888236D3*
X2060977Y1339225D3*
X1533662Y1038929D3*
X2041295Y1286075D3*
X898024Y817303D3*
X1644807Y886583D3*
X883961Y1167434D3*
X1466099Y618394D3*
X1527756Y886583D3*
X1281108Y1379722D3*
X824906Y1891666D3*
X2180504Y1068040D3*
X1481087Y1829457D3*
X1656650Y1507921D3*
X1822788Y1536075D3*
X1087209Y1285878D3*
X1589032Y1378599D3*
X2237256Y981095D3*
X1731060Y1092252D3*
X1939252Y1134134D3*
Y1046591D3*
Y891492D3*
X1695988Y1008902D3*
X1770370Y761040D3*
X1759366Y1220394D3*
X1759492Y1639898D3*
X2035386Y1475445D3*
X1276142Y1917256D3*
X1400197Y1246508D3*
X1168701D3*
X1358071Y1087059D3*
X1901670Y1173504D3*
X1379331Y1033910D3*
X1229331Y831028D3*
X1976835Y1175370D3*
X1168701Y866524D3*
X1426729Y756662D3*
X1535457Y796032D3*
X1424843Y1079753D3*
X448089Y2132867D2*
D15*
X1226082D1*
X2048559D2*
X2465306D1*
X448089Y2107999D2*
X998899D1*
X1138895D2*
X1226082D1*
X2044504D2*
X2235073D1*
X2289414D2*
X2300957D1*
X2423513D2*
X2465306D1*
X448089Y2083130D2*
X964163D1*
X1173631D2*
X1226082D1*
X1425789D2*
X1448923D1*
X1525799D2*
X1548932D1*
X1625772D2*
X1648941D1*
X1725781D2*
X1748914D1*
X1825790D2*
X1848924D1*
X1925800D2*
X1948933D1*
X2025773D2*
X2208340D1*
X2423513D2*
X2465306D1*
X448089Y2058261D2*
X939295D1*
X1198499D2*
X2201091D1*
X2423513D2*
X2465306D1*
X448089Y2033392D2*
X914428D1*
X1018863D2*
X1044867D1*
X1255842D2*
X2204931D1*
X2435714D2*
X2465306D1*
X448089Y2008524D2*
X889560D1*
X993995D2*
X1044867D1*
X1266535D2*
X1766713D1*
X1933084D2*
X2223303D1*
X2448991D2*
X2465306D1*
X448089Y1983655D2*
X864692D1*
X969127D2*
X1044867D1*
X1265531D2*
X1733054D1*
X1966743D2*
X2208627D1*
X2449099D2*
X2465306D1*
X448089Y1958786D2*
X839824D1*
X944224D2*
X1044867D1*
X1304537D2*
X1708186D1*
X1991611D2*
X2201127D1*
X2449099D2*
X2465306D1*
X448089Y1933917D2*
X797732D1*
X919356D2*
X1118393D1*
X1324668D2*
X1683318D1*
X1850515D2*
X1912080D1*
X2040521D2*
X2204751D1*
X2449099D2*
X2465306D1*
X448089Y1909049D2*
X776668D1*
X922908D2*
X1143261D1*
X1326893D2*
X1658450D1*
X1859091D2*
X1936947D1*
X2049098D2*
X2222657D1*
X2449099D2*
X2465306D1*
X448089Y1884180D2*
X725139D1*
X927502D2*
X1172866D1*
X1314692D2*
X1633583D1*
X1737982D2*
X1751893D1*
X1855180D2*
X1941900D1*
X2045186D2*
X2078762D1*
X2449099D2*
X2465306D1*
X448089Y1859311D2*
X707053D1*
X927502D2*
X1439808D1*
X1713114D2*
X1765888D1*
X1841185D2*
X1963143D1*
X2023943D2*
X2052782D1*
X2449099D2*
X2465306D1*
X448089Y1834442D2*
X705761D1*
X806572D2*
X852204D1*
X927502D2*
X1429904D1*
X1688246D2*
X1765888D1*
X1841185D2*
X2037531D1*
X2449099D2*
X2465306D1*
X448089Y1809573D2*
X719289D1*
X793008D2*
X852204D1*
X927502D2*
X1433887D1*
X1693844D2*
X1765888D1*
X1841185D2*
X2037100D1*
X2449099D2*
X2465306D1*
X448089Y1784705D2*
X852204D1*
X927502D2*
X1458791D1*
X1503371D2*
X1619014D1*
X1694311D2*
X1765888D1*
X1841185D2*
X2037100D1*
X2449099D2*
X2465306D1*
X448089Y1759836D2*
X852204D1*
X927502D2*
X1619014D1*
X1694311D2*
X1765888D1*
X1841185D2*
X2037100D1*
X2137983D2*
X2201199D1*
X2449099D2*
X2465306D1*
X448089Y1734967D2*
X852204D1*
X927502D2*
X1619014D1*
X1694311D2*
X1765888D1*
X1841185D2*
X2037100D1*
X2137983D2*
X2190362D1*
X2449099D2*
X2465306D1*
X448089Y1710098D2*
X852204D1*
X927502D2*
X1619014D1*
X1694311D2*
X1765888D1*
X1841185D2*
X2037100D1*
X2137983D2*
X2165494D1*
X2449099D2*
X2465306D1*
X448089Y1685230D2*
X852204D1*
X927502D2*
X1619014D1*
X1694311D2*
X1738580D1*
X1841185D2*
X2037100D1*
X2449099D2*
X2465306D1*
X448089Y1660361D2*
X852204D1*
X927502D2*
X1619014D1*
X1694311D2*
X1712528D1*
X1841185D2*
X2037100D1*
X2449099D2*
X2465306D1*
X448089Y1635492D2*
X852204D1*
X927502D2*
X1619014D1*
X1694311D2*
X1708258D1*
X1841185D2*
X2037100D1*
X2449099D2*
X2465306D1*
X448089Y1610623D2*
X852204D1*
X927502D2*
X1619014D1*
X1694311D2*
X1717767D1*
X1841185D2*
X2037100D1*
X2196941D2*
X2220791D1*
X2303696D2*
X2320801D1*
X2449099D2*
X2465306D1*
X448089Y1585755D2*
X712830D1*
X799467D2*
X852204D1*
X927502D2*
X1619014D1*
X1694311D2*
X1721822D1*
X1841185D2*
X2037100D1*
X2196941D2*
X2224595D1*
X2299892D2*
X2373802D1*
X2449099D2*
X2465306D1*
X448089Y1560886D2*
X700091D1*
X812206D2*
X852204D1*
X927502D2*
X1619014D1*
X1694311D2*
X1721822D1*
X1867452D2*
X2037100D1*
X2196941D2*
X2224595D1*
X2299892D2*
X2373802D1*
X2449099D2*
X2465306D1*
X448089Y1536017D2*
X700414D1*
X811883D2*
X852204D1*
X927502D2*
X1614097D1*
X1699227D2*
X1721822D1*
X1874234D2*
X2037100D1*
X2196941D2*
X2224595D1*
X2299892D2*
X2373802D1*
X2449099D2*
X2465306D1*
X448089Y1511148D2*
X714122D1*
X798211D2*
X853209D1*
X1201908D2*
X1605306D1*
X1707983D2*
X1721822D1*
X1867380D2*
X1999422D1*
X2196941D2*
X2224595D1*
X2299892D2*
X2373802D1*
X2449099D2*
X2465306D1*
X448089Y1486280D2*
X855649D1*
X1226776D2*
X1610258D1*
X1703031D2*
X1725087D1*
X2196941D2*
X2224595D1*
X2299892D2*
X2373802D1*
X2449099D2*
X2465306D1*
X448089Y1461411D2*
X846319D1*
X1251643D2*
X1638929D1*
X1674359D2*
X1746905D1*
X2196941D2*
X2224595D1*
X2299892D2*
X2373802D1*
X2449099D2*
X2465306D1*
X448089Y1436542D2*
X846319D1*
X921617D2*
X1172076D1*
X1276511D2*
X1761330D1*
X2196941D2*
X2224595D1*
X2299892D2*
X2373802D1*
X2449099D2*
X2465306D1*
X448089Y1411673D2*
X846319D1*
X921617D2*
X1196944D1*
X1320685D2*
X1548358D1*
X1627602D2*
X1740661D1*
X2196941D2*
X2224595D1*
X2299892D2*
X2373802D1*
X2449099D2*
X2465306D1*
X448089Y1386804D2*
X846319D1*
X921617D2*
X1221812D1*
X1332024D2*
X1409773D1*
X1639767D2*
X1711057D1*
X2196941D2*
X2224595D1*
X2299892D2*
X2373802D1*
X2449099D2*
X2465306D1*
X448089Y1361936D2*
X846319D1*
X921617D2*
X1233007D1*
X1329189D2*
X1398469D1*
X2196833D2*
X2224595D1*
X2299892D2*
X2373802D1*
X2449099D2*
X2465306D1*
X448089Y1337067D2*
X846319D1*
X921617D2*
X1052295D1*
X2183735D2*
X2224595D1*
X2299892D2*
X2373802D1*
X2449099D2*
X2465306D1*
X448089Y1312198D2*
X846319D1*
X921617D2*
X1043467D1*
X2299892D2*
X2373802D1*
X2449099D2*
X2465306D1*
X448089Y1287329D2*
X846319D1*
X921617D2*
X1035788D1*
X1198176D2*
X1370731D1*
X2290096D2*
X2373802D1*
X2449099D2*
X2465306D1*
X448089Y1262461D2*
X846319D1*
X921617D2*
X1041745D1*
X2265264D2*
X2373802D1*
X2449099D2*
X2465306D1*
X448089Y1237592D2*
X846319D1*
X921617D2*
X1049567D1*
X1571300D2*
X1711057D1*
X2352929D2*
X2373802D1*
X2449099D2*
X2465306D1*
X448089Y1212723D2*
X846319D1*
X921617D2*
X1049567D1*
X1571300D2*
X1708545D1*
X2449099D2*
X2465306D1*
X448089Y1187854D2*
X793785D1*
X930946D2*
X1049567D1*
X1124865D2*
X1470417D1*
X1571300D2*
X1611011D1*
X2449099D2*
X2465306D1*
X448089Y1162986D2*
X787254D1*
X935181D2*
X1049567D1*
X1124865D2*
X1308974D1*
X1571300D2*
X1589014D1*
X2041418D2*
X2150674D1*
X2449099D2*
X2465306D1*
X448089Y1138117D2*
X787254D1*
X925636D2*
X1049567D1*
X1124865D2*
X1285793D1*
X1571300D2*
X1585641D1*
X1665711D2*
X1693617D1*
X2066286D2*
X2142851D1*
X2449099D2*
X2465306D1*
X448089Y1113248D2*
X787254D1*
X862551D2*
X1049567D1*
X1124865D2*
X1281056D1*
X1571300D2*
X1585641D1*
X1660938D2*
X1684359D1*
X2091082D2*
X2142851D1*
X2449099D2*
X2465306D1*
X448089Y1088379D2*
X787254D1*
X862551D2*
X1049567D1*
X1124865D2*
X1281056D1*
X1571300D2*
X1585641D1*
X1660938D2*
X1679766D1*
X1782335D2*
X1911290D1*
X1967210D2*
X2011622D1*
X2099802D2*
X2133485D1*
X2449099D2*
X2465306D1*
X448089Y1063510D2*
X787254D1*
X862551D2*
X1049567D1*
X1124865D2*
X1281056D1*
X1660938D2*
X1688952D1*
X1773148D2*
X1890836D1*
X1987664D2*
X2024505D1*
X2099802D2*
X2129287D1*
X2448094D2*
X2465306D1*
X448089Y1038642D2*
X787254D1*
X862551D2*
X1049567D1*
X1124865D2*
X1281056D1*
X1737336D2*
X1888468D1*
X1990032D2*
X2024505D1*
X2099802D2*
X2138904D1*
X2430439D2*
X2465306D1*
X448089Y1013773D2*
X787254D1*
X862551D2*
X1049567D1*
X1124865D2*
X1281056D1*
X1747168D2*
X1900453D1*
X1978047D2*
X2024505D1*
X2099802D2*
X2198328D1*
X2401732D2*
X2465306D1*
X448089Y988904D2*
X787254D1*
X862551D2*
X1049567D1*
X1124865D2*
X1281056D1*
X1639264D2*
X1648833D1*
X1768196D2*
X1901602D1*
X1976899D2*
X2024505D1*
X2099802D2*
X2186450D1*
X2374926D2*
X2465306D1*
X448089Y964035D2*
X787254D1*
X862551D2*
X1049567D1*
X1124865D2*
X1281056D1*
X1462499D2*
X1673952D1*
X1793064D2*
X1901602D1*
X1976899D2*
X2024505D1*
X2099802D2*
X2188890D1*
X2374926D2*
X2465306D1*
X448089Y939167D2*
X787254D1*
X862551D2*
X1049567D1*
X1124865D2*
X1281056D1*
X1700770D2*
X1713497D1*
X1807705D2*
X1901602D1*
X1976899D2*
X2024505D1*
X2099802D2*
X2175972D1*
X2375177D2*
X2465306D1*
X448089Y914298D2*
X787254D1*
X862551D2*
X1049567D1*
X1124865D2*
X1155605D1*
X1181777D2*
X1274777D1*
X1722121D2*
X1732731D1*
X1808028D2*
X1893456D1*
X1985044D2*
X2024505D1*
X2099802D2*
X2175972D1*
X2394268D2*
X2465306D1*
X448089Y889429D2*
X787254D1*
X862551D2*
X1044831D1*
X1214431D2*
X1267277D1*
X1425000D2*
X1476410D1*
X1725028D2*
X1732729D1*
X1808028D2*
X1887858D1*
X1990642D2*
X2024505D1*
X2099802D2*
X2175972D1*
X2398466D2*
X2465306D1*
X448089Y864560D2*
X487478D1*
X562344D2*
X787254D1*
X862551D2*
X882814D1*
X913220D2*
X1019963D1*
X1425000D2*
X1453516D1*
X1725028D2*
X1732729D1*
X1808028D2*
X1895896D1*
X1982604D2*
X2024505D1*
X2099802D2*
X2175972D1*
X2391576D2*
X2465306D1*
X448089Y839692D2*
X468064D1*
X944044D2*
X995095D1*
X1099494D2*
X1125283D1*
X1279992D2*
X1310051D1*
X1327369D2*
X1349703D1*
X1560068D2*
X1628308D1*
X1725028D2*
X1732729D1*
X1808028D2*
X2024505D1*
X2099802D2*
X2175972D1*
X2298529D2*
X2308492D1*
X2366027D2*
X2465306D1*
X448089Y814823D2*
X463686D1*
X949391D2*
X970228D1*
X1074627D2*
X1131060D1*
X1297755D2*
X1349703D1*
X1583142D2*
X1649695D1*
X1725028D2*
X1732729D1*
X1808028D2*
X2024505D1*
X2099802D2*
X2465306D1*
X448089Y789954D2*
X470397D1*
X1049759D2*
X1131060D1*
X1322622D2*
X1349703D1*
X1593763D2*
X1649695D1*
X1812334D2*
X2024505D1*
X2099802D2*
X2465306D1*
X448089Y765085D2*
X488195D1*
X561626D2*
X788187D1*
X861618D2*
X920492D1*
X1024891D2*
X1131060D1*
X1206358D2*
X1243055D1*
X1618093D2*
X1649695D1*
X1821628D2*
X2024505D1*
X2099802D2*
X2465306D1*
X448089Y740217D2*
X468280D1*
X581542D2*
X768271D1*
X881534D2*
X895588D1*
X1000023D2*
X1131060D1*
X1206358D2*
X1267923D1*
X1503766D2*
X1539064D1*
X1625018D2*
X1649695D1*
X1817142D2*
X2024505D1*
X2099802D2*
X2465306D1*
X448089Y715348D2*
X463650D1*
X586135D2*
X763678D1*
X975156D2*
X1131060D1*
X1206358D2*
X1292790D1*
X1503766D2*
X1549721D1*
X1625018D2*
X1649695D1*
X1725028D2*
X1750350D1*
X1790373D2*
X2024505D1*
X2099802D2*
X2465306D1*
X448089Y690479D2*
X470110D1*
X579712D2*
X770101D1*
X950288D2*
X1131060D1*
X1206358D2*
X1298927D1*
X1503766D2*
X1549721D1*
X1625018D2*
X1649695D1*
X1725028D2*
X2024505D1*
X2099802D2*
X2465306D1*
X448089Y665610D2*
X488913D1*
X560873D2*
X763642D1*
X925420D2*
X1131060D1*
X1206358D2*
X1298927D1*
X1503766D2*
X1549721D1*
X1625018D2*
X1649695D1*
X1725028D2*
X2024505D1*
X2099802D2*
X2465306D1*
X448089Y640741D2*
X468495D1*
X581291D2*
X763642D1*
X900553D2*
X1131922D1*
X1228642D2*
X1298927D1*
X1512127D2*
X1549721D1*
X1625018D2*
X1649695D1*
X1725028D2*
X2024505D1*
X2099802D2*
X2465306D1*
X448089Y615873D2*
X463650D1*
X586171D2*
X763642D1*
X886199D2*
X1149074D1*
X1253509D2*
X1298927D1*
X1517473D2*
X1549721D1*
X1625018D2*
X1649695D1*
X1725028D2*
X2024505D1*
X2099802D2*
X2465306D1*
X448089Y591004D2*
X469858D1*
X579963D2*
X763642D1*
X886199D2*
X1173942D1*
X1278377D2*
X1298927D1*
X1509148D2*
X1549721D1*
X1625018D2*
X1649695D1*
X1725028D2*
X2024505D1*
X2099802D2*
X2465306D1*
X448089Y566135D2*
X493470D1*
X556316D2*
X763642D1*
X886199D2*
X1198810D1*
X2099802D2*
X2465306D1*
X448089Y541266D2*
X1223678D1*
X2099802D2*
X2465306D1*
X448089Y516398D2*
X1226082D1*
X2099802D2*
X2465306D1*
X448089Y491529D2*
X1226082D1*
X2096608D2*
X2465306D1*
X448089Y466660D2*
X1323902D1*
X2074863D2*
X2465306D1*
X804934Y1840581D2*
X803733Y1832997D1*
X801360Y1825694D1*
X797875Y1818852D1*
X793361Y1812640D1*
X787932Y1807211D1*
X781720Y1802698D1*
X774878Y1799212D1*
X767575Y1796839D1*
X759991Y1795638D1*
X752313D1*
X744729Y1796839D1*
X737426Y1799212D1*
X730585Y1802698D1*
X724373Y1807211D1*
X718943Y1812640D1*
X714430Y1818852D1*
X710944Y1825694D1*
X708571Y1832997D1*
X707370Y1840581D1*
Y1848259D1*
X708571Y1855843D1*
X710944Y1863146D1*
X714430Y1869987D1*
X718943Y1876199D1*
X724373Y1881629D1*
X730585Y1886142D1*
X737426Y1889628D1*
X744729Y1892001D1*
X752313Y1893202D1*
X759991D1*
X767575Y1892001D1*
X774878Y1889628D1*
X776037Y1889094D1*
X776124Y1895505D1*
X777325Y1903089D1*
X779698Y1910392D1*
X783183Y1917233D1*
X787697Y1923445D1*
X793126Y1928875D1*
X799338Y1933388D1*
X806180Y1936874D1*
X813483Y1939247D1*
X821067Y1940448D1*
X824081Y1940566D1*
X983622Y2099944D1*
X988085Y2103186D1*
X993000Y2105690D1*
X998246Y2107395D1*
X1003695Y2108258D1*
X1061571Y2108366D1*
X1134078Y2108258D1*
X1139526Y2107395D1*
X1144773Y2105690D1*
X1149688Y2103186D1*
X1154150Y2099944D1*
X1195152Y2059096D1*
X1197664Y2056584D1*
X1206126Y2057182D1*
X1215321Y2056459D1*
X1224289Y2054306D1*
X1232810Y2050776D1*
X1240673Y2045957D1*
X1247687Y2039967D1*
X1253676Y2032954D1*
X1258495Y2025090D1*
X1262025Y2016569D1*
X1264178Y2007601D1*
X1264902Y1998407D1*
X1264178Y1989212D1*
X1262025Y1980244D1*
X1258495Y1971723D1*
X1253676Y1963859D1*
X1248262Y1957468D1*
X1253927Y1960856D1*
X1261021Y1963794D1*
X1268487Y1965586D1*
X1276142Y1966189D1*
X1283797Y1965586D1*
X1291263Y1963794D1*
X1298357Y1960856D1*
X1304904Y1956844D1*
X1310743Y1951857D1*
X1315729Y1946018D1*
X1319741Y1939471D1*
X1322680Y1932377D1*
X1324472Y1924911D1*
X1325075Y1917256D1*
X1324472Y1909601D1*
X1322680Y1902135D1*
X1319741Y1895041D1*
X1315729Y1888494D1*
X1310743Y1882655D1*
X1304904Y1877668D1*
X1298357Y1873656D1*
X1291263Y1870718D1*
X1283797Y1868925D1*
X1276142Y1868323D1*
X1268487Y1868925D1*
X1261021Y1870718D1*
X1253927Y1873656D1*
X1247380Y1877668D1*
X1242147Y1882095D1*
X1184519Y1882211D1*
X1179071Y1883074D1*
X1173824Y1884778D1*
X1168909Y1887282D1*
X1164447Y1890525D1*
X1123445Y1931373D1*
X1115199Y1939619D1*
X1047350Y1939631D1*
Y2038061D1*
X1021048Y2038059D1*
X905887Y1922932D1*
X910529Y1920106D1*
X914723Y1916523D1*
X918306Y1912329D1*
X921188Y1907625D1*
X923299Y1902529D1*
X924587Y1897165D1*
X925019Y1891666D1*
Y1534080D1*
X930024Y1529073D1*
X1169663Y1528970D1*
X1175111Y1528107D1*
X1180357Y1526402D1*
X1185272Y1523898D1*
X1189735Y1520656D1*
X1230736Y1479808D1*
X1281916Y1428628D1*
X1288762Y1428052D1*
X1296229Y1426260D1*
X1303323Y1423321D1*
X1309870Y1419309D1*
X1315709Y1414323D1*
X1320695Y1408484D1*
X1324707Y1401937D1*
X1327646Y1394843D1*
X1329438Y1387377D1*
X1330041Y1379722D1*
X1329438Y1372067D1*
X1327646Y1364601D1*
X1325229Y1358638D1*
X1400944Y1358631D1*
X1401397Y1366473D1*
X1402684Y1371837D1*
X1404795Y1376933D1*
X1407678Y1381637D1*
X1411260Y1385831D1*
X1415455Y1389414D1*
X1420158Y1392296D1*
X1425254Y1394407D1*
X1430618Y1395695D1*
X1436118Y1396127D1*
X1535266D1*
X1551996Y1412702D1*
X1556459Y1415945D1*
X1563464Y1420321D1*
X1570306Y1423807D1*
X1577609Y1426180D1*
X1585193Y1427381D1*
X1592871D1*
X1600455Y1426180D1*
X1607758Y1423807D1*
X1614599Y1420321D1*
X1620811Y1415808D1*
X1626241Y1410378D1*
X1630754Y1404166D1*
X1634240Y1397325D1*
X1636613Y1390022D1*
X1637814Y1382438D1*
X1637770Y1374387D1*
X1701164Y1374382D1*
X1732244Y1405326D1*
X1736707Y1408568D1*
X1741622Y1411073D1*
X1746868Y1412777D1*
X1752317Y1413640D1*
X1766019Y1413748D1*
X1763971Y1422062D1*
X1763369Y1429717D1*
X1763971Y1437371D1*
X1765764Y1444838D1*
X1766133Y1445837D1*
X1762252Y1448714D1*
X1734634Y1476179D1*
X1731052Y1480373D1*
X1728170Y1485076D1*
X1726059Y1490173D1*
X1724771Y1495537D1*
X1724338Y1501036D1*
Y1605854D1*
X1719904Y1611136D1*
X1715892Y1617683D1*
X1712954Y1624777D1*
X1711161Y1632243D1*
X1710559Y1639898D1*
X1711161Y1647553D1*
X1712954Y1655019D1*
X1715892Y1662113D1*
X1719904Y1668660D1*
X1724891Y1674499D1*
X1730730Y1679486D1*
X1737277Y1683498D1*
X1744371Y1686436D1*
X1751837Y1688228D1*
X1759492Y1688831D1*
X1767147Y1688228D1*
X1768368Y1687985D1*
X1768379Y1864687D1*
X1763043Y1870085D1*
X1758131Y1876845D1*
X1754338Y1884290D1*
X1751756Y1892236D1*
X1750593Y1899272D1*
X1680766Y1829449D1*
X1685090Y1824529D1*
X1687972Y1819825D1*
X1690083Y1814729D1*
X1691371Y1809365D1*
X1691803Y1803855D1*
Y1541947D1*
X1696237Y1536683D1*
X1700249Y1530136D1*
X1703188Y1523042D1*
X1704980Y1515576D1*
X1705583Y1507921D1*
X1704980Y1500266D1*
X1703188Y1492800D1*
X1700249Y1485706D1*
X1696237Y1479159D1*
X1691251Y1473320D1*
X1685412Y1468333D1*
X1678865Y1464321D1*
X1671771Y1461383D1*
X1664305Y1459590D1*
X1656650Y1458988D1*
X1648995Y1459590D1*
X1641529Y1461383D1*
X1634435Y1464321D1*
X1627888Y1468333D1*
X1622049Y1473320D1*
X1617062Y1479159D1*
X1613050Y1485706D1*
X1610112Y1492800D1*
X1608319Y1500266D1*
X1607717Y1507921D1*
X1608319Y1515576D1*
X1610112Y1523042D1*
X1613050Y1530136D1*
X1617062Y1536683D1*
X1621489Y1541916D1*
X1621496Y1789289D1*
X1616492Y1794309D1*
X1515117Y1794303D1*
X1509849Y1789869D1*
X1503302Y1785857D1*
X1496208Y1782919D1*
X1488742Y1781126D1*
X1481087Y1780524D1*
X1473432Y1781126D1*
X1465966Y1782919D1*
X1458872Y1785857D1*
X1452325Y1789869D1*
X1446486Y1794856D1*
X1441499Y1800695D1*
X1437487Y1807242D1*
X1434549Y1814336D1*
X1432756Y1821802D1*
X1432154Y1829457D1*
X1432756Y1837112D1*
X1434549Y1844578D1*
X1437487Y1851672D1*
X1441499Y1858219D1*
X1446486Y1864058D1*
X1452325Y1869045D1*
X1458872Y1873057D1*
X1465966Y1875995D1*
X1473432Y1877787D1*
X1481087Y1878390D1*
X1488742Y1877787D1*
X1496208Y1875995D1*
X1503302Y1873057D1*
X1509849Y1869045D1*
X1515082Y1864618D1*
X1616478Y1864610D1*
X1752716Y2000676D1*
X1757179Y2003918D1*
X1762094Y2006423D1*
X1767340Y2008127D1*
X1772789Y2008990D1*
X1830665Y2009099D1*
X1927013Y2008990D1*
X1932461Y2008127D1*
X1937707Y2006423D1*
X1942622Y2003918D1*
X1947085Y2000676D1*
X1988086Y1959828D1*
X1990091Y1957823D1*
X1997711Y1957751D1*
X2005963Y1956443D1*
X2013910Y1953861D1*
X2021355Y1950068D1*
X2028115Y1945157D1*
X2034023Y1939248D1*
X2038934Y1932489D1*
X2042728Y1925044D1*
X2045310Y1917097D1*
X2046617Y1908844D1*
Y1900489D1*
X2045310Y1892236D1*
X2042728Y1884290D1*
X2038934Y1876845D1*
X2034023Y1870085D1*
X2028115Y1864177D1*
X2021355Y1859265D1*
X2013910Y1855472D1*
X2005963Y1852890D1*
X1997711Y1851583D1*
X1989355D1*
X1981102Y1852890D1*
X1973156Y1855472D1*
X1965711Y1859265D1*
X1958951Y1864177D1*
X1953043Y1870085D1*
X1948131Y1876845D1*
X1944338Y1884290D1*
X1941756Y1892236D1*
X1940449Y1900489D1*
X1940419Y1908077D1*
X1909681Y1938804D1*
X1844412Y1938791D1*
X1848934Y1932489D1*
X1852728Y1925044D1*
X1855310Y1917097D1*
X1856617Y1908844D1*
Y1900489D1*
X1855310Y1892236D1*
X1852728Y1884290D1*
X1848934Y1876845D1*
X1844023Y1870085D1*
X1838678Y1864698D1*
X1838686Y1582319D1*
X1845003Y1579675D1*
X1851550Y1575663D1*
X1857389Y1570676D1*
X1862375Y1564837D1*
X1866387Y1558290D1*
X1869326Y1551196D1*
X1871118Y1543730D1*
X1871721Y1536075D1*
X1871118Y1528420D1*
X1869326Y1520954D1*
X1866387Y1513860D1*
X1864561Y1510599D1*
X2001357Y1510598D1*
X2006624Y1515033D1*
X2013171Y1519045D1*
X2020265Y1521983D1*
X2027731Y1523775D1*
X2035386Y1524378D1*
X2039598Y1524183D1*
X2039711Y1831817D1*
X2040574Y1837265D1*
X2042278Y1842512D1*
X2044782Y1847427D1*
X2048025Y1851889D1*
X2075491Y1879508D1*
X2079685Y1883091D1*
X2084388Y1885973D1*
X2089485Y1888084D1*
X2094849Y1889372D1*
X2100348Y1889804D1*
X2215141D1*
X2220683Y1896212D1*
X2227697Y1902201D1*
X2231369Y1904655D1*
X2224072Y1909958D1*
X2217551Y1916479D1*
X2212130Y1923941D1*
X2207943Y1932158D1*
X2205092Y1940930D1*
X2203650Y1950039D1*
Y1959262D1*
X2205092Y1968372D1*
X2207943Y1977143D1*
X2212130Y1985361D1*
X2217551Y1992823D1*
X2224072Y1999344D1*
X2231369Y2004655D1*
X2224072Y2009958D1*
X2217551Y2016479D1*
X2212130Y2023941D1*
X2207943Y2032158D1*
X2205092Y2040930D1*
X2203650Y2050039D1*
Y2059262D1*
X2205092Y2068372D1*
X2207943Y2077143D1*
X2212130Y2085361D1*
X2217551Y2092823D1*
X2224072Y2099344D1*
X2231534Y2104765D1*
X2239752Y2108952D1*
X2248523Y2111803D1*
X2257633Y2113245D1*
X2266856D1*
X2275965Y2111803D1*
X2284737Y2108952D1*
X2292954Y2104765D1*
X2300416Y2099344D1*
X2303474Y2096517D1*
X2303469Y2113426D1*
X2421020D1*
Y2045569D1*
X2438188Y2028269D1*
X2441430Y2023806D1*
X2443934Y2018891D1*
X2445639Y2013645D1*
X2446502Y2008196D1*
X2446610Y1950320D1*
X2446502Y1069125D1*
X2445639Y1063676D1*
X2443934Y1058430D1*
X2441430Y1053515D1*
X2438188Y1049052D1*
X2410723Y1021434D1*
X2406529Y1017852D1*
X2401825Y1014970D1*
X2396729Y1012859D1*
X2391365Y1011571D1*
X2385866Y1011138D1*
X2368390D1*
X2370690Y1005736D1*
X2371978Y1000373D1*
X2372410Y994863D1*
X2372411Y939361D1*
X2378818Y933834D1*
X2384808Y926820D1*
X2389627Y918957D1*
X2393156Y910436D1*
X2395309Y901467D1*
X2396033Y892273D1*
X2395309Y883078D1*
X2393156Y874110D1*
X2389627Y865589D1*
X2384808Y857726D1*
X2378818Y850712D1*
X2371805Y844723D1*
X2363941Y839904D1*
X2355420Y836374D1*
X2346452Y834221D1*
X2337257Y833497D1*
X2328063Y834221D1*
X2319095Y836374D1*
X2310574Y839904D1*
X2302710Y844723D1*
X2296028Y850406D1*
X2296033Y833497D1*
X2178482D1*
Y951049D1*
X2198613D1*
X2195533Y955527D1*
X2192048Y962369D1*
X2189675Y969672D1*
X2188474Y977256D1*
Y984934D1*
X2189675Y992518D1*
X2192048Y999821D1*
X2195533Y1006662D1*
X2200047Y1012874D1*
X2205476Y1018304D1*
X2211688Y1022817D1*
X2215436Y1024877D1*
X2212169Y1030106D1*
X2206071Y1026318D1*
X2199230Y1022832D1*
X2191927Y1020459D1*
X2184343Y1019258D1*
X2176665D1*
X2169081Y1020459D1*
X2161778Y1022832D1*
X2154936Y1026318D1*
X2148724Y1030831D1*
X2143295Y1036260D1*
X2138781Y1042472D1*
X2135296Y1049314D1*
X2132923Y1056617D1*
X2131722Y1064201D1*
Y1071879D1*
X2132923Y1079463D1*
X2135296Y1086766D1*
X2138781Y1093607D1*
X2143295Y1099819D1*
X2145343Y1102035D1*
X2145459Y1143632D1*
X2146321Y1149080D1*
X2148026Y1154327D1*
X2150530Y1159242D1*
X2153773Y1163704D1*
X2175157Y1185242D1*
X2024764Y1185240D1*
X2025617Y1179209D1*
X2025735Y1176195D1*
X2088893Y1112873D1*
X2092135Y1108411D1*
X2094640Y1103496D1*
X2096344Y1098249D1*
X2097207Y1092801D1*
X2097315Y1034925D1*
X2097207Y503432D1*
X2096344Y497983D1*
X2094640Y492737D1*
X2092135Y487822D1*
X2088893Y483359D1*
X2061428Y455741D1*
X2057234Y452159D1*
X2052530Y449277D1*
X2047434Y447166D1*
X2042070Y445878D1*
X2036571Y445445D1*
X1359403Y445554D1*
X1353954Y446416D1*
X1348708Y448121D1*
X1343793Y450625D1*
X1339330Y453868D1*
X1322003Y471042D1*
X1228581Y471035D1*
Y538892D1*
X1141970Y625637D1*
X1138727Y630100D1*
X1136223Y635015D1*
X1134519Y640261D1*
X1133656Y645709D1*
X1133547Y703585D1*
Y832517D1*
X1129113Y837762D1*
X1125101Y844309D1*
X1122163Y851403D1*
X1120370Y858869D1*
X1119774Y866359D1*
X1117182Y861237D1*
X1113940Y856775D1*
X1073092Y815773D1*
X883675Y626357D1*
X883681Y558526D1*
X766130D1*
Y676077D1*
X783031D1*
X777355Y682754D1*
X772536Y690618D1*
X769007Y699139D1*
X766854Y708107D1*
X766130Y717302D1*
X766854Y726496D1*
X769007Y735464D1*
X772536Y743985D1*
X777355Y751849D1*
X783345Y758862D1*
X790358Y764852D1*
X794030Y767306D1*
X786734Y772609D1*
X780212Y779130D1*
X777835Y782146D1*
X572030Y782148D1*
X566466Y775741D1*
X559453Y769751D1*
X555781Y767298D1*
X563077Y761995D1*
X569599Y755474D1*
X575020Y748012D1*
X579207Y739794D1*
X582057Y731023D1*
X583500Y721913D1*
Y712690D1*
X582057Y703581D1*
X579207Y694809D1*
X575020Y686592D1*
X569599Y679130D1*
X563077Y672609D1*
X555781Y667298D1*
X563077Y661995D1*
X569599Y655474D1*
X575020Y648012D1*
X579207Y639794D1*
X582057Y631023D1*
X583500Y621913D1*
Y612690D1*
X582057Y603581D1*
X579207Y594809D1*
X575020Y586592D1*
X569599Y579130D1*
X563077Y572609D1*
X555616Y567187D1*
X547398Y563000D1*
X538626Y560150D1*
X529517Y558707D1*
X520294D1*
X511185Y560150D1*
X502413Y563000D1*
X494195Y567187D1*
X486734Y572609D1*
X480212Y579130D1*
X474791Y586592D1*
X470604Y594809D1*
X467754Y603581D1*
X466311Y612690D1*
Y621913D1*
X467754Y631023D1*
X470604Y639794D1*
X474791Y648012D1*
X480212Y655474D1*
X486734Y661995D1*
X494030Y667306D1*
X486734Y672609D1*
X480212Y679130D1*
X474791Y686592D1*
X470604Y694809D1*
X467754Y703581D1*
X466311Y712690D1*
Y721913D1*
X467754Y731023D1*
X470604Y739794D1*
X474791Y748012D1*
X480212Y755474D1*
X486734Y761995D1*
X494030Y767306D1*
X486734Y772609D1*
X480212Y779130D1*
X474791Y786592D1*
X470604Y794809D1*
X467754Y803581D1*
X466311Y812690D1*
Y821913D1*
X467754Y831023D1*
X470604Y839794D1*
X474791Y848012D1*
X480212Y855474D1*
X486734Y861995D1*
X494195Y867416D1*
X502413Y871603D1*
X511185Y874453D1*
X520294Y875896D1*
X529517D1*
X538626Y874453D1*
X547398Y871603D1*
X555616Y867416D1*
X563077Y861995D1*
X569599Y855474D1*
X571976Y852458D1*
X777781Y852456D1*
X783345Y858862D1*
X789749Y864372D1*
X789860Y1170192D1*
X790723Y1175641D1*
X792428Y1180887D1*
X794932Y1185802D1*
X798174Y1190265D1*
X802075Y1194165D1*
X806538Y1197408D1*
X811453Y1199912D1*
X816699Y1201617D1*
X822147Y1202479D1*
X848840Y1202588D1*
X848916Y1465187D1*
X849778Y1470635D1*
X851483Y1475882D1*
X853987Y1480797D1*
X857230Y1485259D1*
X865726Y1493909D1*
X861426Y1498853D1*
X858544Y1503556D1*
X856433Y1508653D1*
X855145Y1514017D1*
X854713Y1519527D1*
X854712Y1852844D1*
X850473Y1849944D1*
X843632Y1846458D1*
X836329Y1844085D1*
X828745Y1842884D1*
X821067D1*
X813483Y1844085D1*
X806180Y1846458D1*
X805021Y1846992D1*
X804934Y1840581D1*
X810822Y1544842D2*
X809476Y1536343D1*
X806816Y1528159D1*
X802910Y1520491D1*
X797852Y1513530D1*
X791767Y1507445D1*
X784805Y1502387D1*
X777138Y1498480D1*
X768954Y1495821D1*
X760455Y1494475D1*
X751850D1*
X743350Y1495821D1*
X735166Y1498480D1*
X727499Y1502387D1*
X720537Y1507445D1*
X714453Y1513530D1*
X709395Y1520491D1*
X705488Y1528159D1*
X702829Y1536343D1*
X701483Y1544842D1*
Y1553447D1*
X702829Y1561946D1*
X705488Y1570130D1*
X709395Y1577797D1*
X714453Y1584759D1*
X720537Y1590844D1*
X727499Y1595902D1*
X735166Y1599809D1*
X743350Y1602468D1*
X751850Y1603814D1*
X760455D1*
X768954Y1602468D1*
X777138Y1599809D1*
X784805Y1595902D1*
X791767Y1590844D1*
X797852Y1584759D1*
X802910Y1577797D1*
X806816Y1570130D1*
X809476Y1561946D1*
X810822Y1553447D1*
Y1544842D1*
X1278281Y588587D2*
X1301390D1*
X1301417Y709257D1*
X1228563Y782081D1*
X1221676Y782697D1*
X1214210Y784490D1*
X1207116Y787428D1*
X1203855Y789254D1*
X1203854Y663025D1*
X1278282Y588601D1*
X1503108Y586390D2*
X1509849Y584113D1*
X1518067Y579925D1*
X1525529Y574504D1*
X1532050Y567983D1*
X1537361Y560686D1*
X1542664Y567983D1*
X1549185Y574504D1*
X1552201Y576882D1*
X1552203Y729578D1*
X1534664Y747110D1*
X1527802Y747701D1*
X1520336Y749494D1*
X1513242Y752432D1*
X1506695Y756444D1*
X1501242Y761074D1*
X1501252Y652431D1*
X1505686Y647156D1*
X1509698Y640609D1*
X1512637Y633515D1*
X1514429Y626049D1*
X1515032Y618394D1*
X1514429Y610739D1*
X1512637Y603273D1*
X1509698Y596179D1*
X1505686Y589632D1*
X1503135Y586427D1*
X1622513Y576882D2*
X1628918Y571372D1*
X1634907Y564358D1*
X1637361Y560686D1*
X1642664Y567983D1*
X1649185Y574504D1*
X1652201Y576882D1*
X1652203Y838236D1*
X1644807Y837650D1*
X1637152Y838252D1*
X1629686Y840045D1*
X1622592Y842983D1*
X1616045Y846995D1*
X1610812Y851422D1*
X1561807Y851429D1*
X1556518Y846995D1*
X1549685Y842851D1*
X1557672Y839632D1*
X1564219Y835620D1*
X1570058Y830633D1*
X1575044Y824794D1*
X1579056Y818247D1*
X1581995Y811153D1*
X1583787Y803687D1*
X1584357Y796857D1*
X1614088Y766962D1*
X1617330Y762499D1*
X1619835Y757584D1*
X1621539Y752338D1*
X1622402Y746890D1*
X1622511Y689014D1*
Y576947D1*
X1722513Y576882D2*
X1728918Y571372D1*
X1734907Y564358D1*
X1737361Y560686D1*
X1742664Y567983D1*
X1749185Y574504D1*
X1756647Y579925D1*
X1764865Y584113D1*
X1773636Y586963D1*
X1782745Y588405D1*
X1791968D1*
X1801078Y586963D1*
X1809849Y584113D1*
X1818067Y579925D1*
X1825529Y574504D1*
X1832050Y567983D1*
X1837361Y560686D1*
X1842664Y567983D1*
X1849185Y574504D1*
X1856647Y579925D1*
X1864865Y584113D1*
X1873636Y586963D1*
X1882745Y588405D1*
X1891968D1*
X1901078Y586963D1*
X1909849Y584113D1*
X1918067Y579925D1*
X1925529Y574504D1*
X1932050Y567983D1*
X1937361Y560686D1*
X1942664Y567983D1*
X1949185Y574504D1*
X1956647Y579925D1*
X1964865Y584113D1*
X1973636Y586963D1*
X1982745Y588405D1*
X1991968D1*
X2001078Y586963D1*
X2009849Y584113D1*
X2018067Y579925D1*
X2025529Y574504D1*
X2026998Y573146D1*
X2027008Y1075492D1*
X1985212Y1117278D1*
X1982851Y1111919D1*
X1978839Y1105372D1*
X1973853Y1099533D1*
X1968014Y1094546D1*
X1961099Y1090364D1*
X1968014Y1086179D1*
X1973853Y1081192D1*
X1978839Y1075353D1*
X1982851Y1068806D1*
X1985790Y1061712D1*
X1987582Y1054246D1*
X1988185Y1046591D1*
X1987582Y1038936D1*
X1985790Y1031470D1*
X1982851Y1024376D1*
X1978839Y1017829D1*
X1974413Y1012596D1*
X1974405Y925553D1*
X1978839Y920254D1*
X1982851Y913707D1*
X1985790Y906613D1*
X1987582Y899147D1*
X1988185Y891492D1*
X1987582Y883837D1*
X1985790Y876371D1*
X1982851Y869277D1*
X1978839Y862730D1*
X1973853Y856891D1*
X1968014Y851904D1*
X1961467Y847892D1*
X1954373Y844954D1*
X1946907Y843161D1*
X1939252Y842559D1*
X1931597Y843161D1*
X1924131Y844954D1*
X1917037Y847892D1*
X1910490Y851904D1*
X1904651Y856891D1*
X1899664Y862730D1*
X1895652Y869277D1*
X1892714Y876371D1*
X1890921Y883837D1*
X1890319Y891492D1*
X1890921Y899147D1*
X1892714Y906613D1*
X1895652Y913707D1*
X1899664Y920254D1*
X1904091Y925487D1*
X1904098Y1012529D1*
X1899664Y1017829D1*
X1895652Y1024376D1*
X1892714Y1031470D1*
X1890921Y1038936D1*
X1890319Y1046591D1*
X1890921Y1054246D1*
X1892714Y1061712D1*
X1895652Y1068806D1*
X1899664Y1075353D1*
X1904651Y1081192D1*
X1910490Y1086179D1*
X1917405Y1090360D1*
X1910490Y1094546D1*
X1905257Y1098973D1*
X1779531Y1098980D1*
X1779993Y1092252D1*
X1779391Y1084597D1*
X1777598Y1077131D1*
X1774660Y1070037D1*
X1770648Y1063490D1*
X1765661Y1057651D1*
X1759823Y1052664D1*
X1753276Y1048652D1*
X1746182Y1045714D1*
X1738715Y1043921D1*
X1730745Y1043331D1*
X1735575Y1037664D1*
X1739587Y1031117D1*
X1742526Y1024023D1*
X1744318Y1016557D1*
X1744888Y1009727D1*
X1797101Y957350D1*
X1800343Y952888D1*
X1802848Y947973D1*
X1804552Y942726D1*
X1805415Y937278D1*
X1805523Y879402D1*
Y795110D1*
X1809957Y789802D1*
X1813969Y783255D1*
X1816908Y776161D1*
X1818700Y768695D1*
X1819303Y761040D1*
X1818700Y753385D1*
X1816908Y745919D1*
X1813969Y738825D1*
X1809957Y732278D1*
X1804971Y726439D1*
X1799132Y721452D1*
X1792585Y717440D1*
X1785491Y714502D1*
X1778025Y712709D1*
X1770370Y712107D1*
X1762715Y712709D1*
X1755249Y714502D1*
X1748155Y717440D1*
X1741608Y721452D1*
X1735769Y726439D1*
X1730782Y732278D1*
X1726770Y738825D1*
X1723832Y745919D1*
X1722511Y751015D1*
Y576935D1*
X2204101Y1746226D2*
X2203469Y1754651D1*
X2204192Y1763845D1*
X2205185Y1768701D1*
X2140499Y1768712D1*
X2135494Y1763708D1*
X2135500Y1677621D1*
X2204079Y1746200D1*
X2376295Y1597592D2*
X2366856Y1596057D1*
X2357633D1*
X2348523Y1597499D1*
X2339752Y1600349D1*
X2331534Y1604536D1*
X2324072Y1609958D1*
X2317551Y1616479D1*
X2312240Y1623776D1*
X2306937Y1616479D1*
X2300416Y1609958D1*
X2297400Y1607580D1*
X2297289Y1308911D1*
X2296426Y1303463D1*
X2294722Y1298216D1*
X2292217Y1293301D1*
X2288975Y1288839D1*
X2261507Y1261217D1*
X2257313Y1257635D1*
X2255008Y1256096D1*
X2255429Y1255548D1*
X2320660Y1255439D1*
X2326108Y1254576D1*
X2331355Y1252872D1*
X2336270Y1250367D1*
X2340732Y1247125D1*
X2368353Y1219657D1*
X2371936Y1215462D1*
X2374818Y1210759D1*
X2375978Y1208242D1*
X2376303Y1209678D1*
Y1597550D1*
X2227088Y1607580D2*
X2220683Y1613090D1*
X2214694Y1620103D1*
X2209875Y1627967D1*
X2206345Y1636488D1*
X2204192Y1645456D1*
X2204042Y1646727D1*
X2194461Y1637153D1*
X2194330Y1362058D1*
X2193467Y1356609D1*
X2191763Y1351363D1*
X2189258Y1346448D1*
X2186016Y1341985D1*
X2165391Y1321207D1*
X2222115Y1321229D1*
X2227093Y1326233D1*
X2227091Y1607534D1*
X855781Y767306D2*
X863077Y761995D1*
X869599Y755474D1*
X875020Y748012D1*
X879207Y739794D1*
X882057Y731023D1*
X883108Y725225D1*
X1052037Y894148D1*
X1052055Y1251832D1*
X1047621Y1257116D1*
X1043609Y1263663D1*
X1040671Y1270757D1*
X1038878Y1278223D1*
X1038276Y1285878D1*
X1038878Y1293533D1*
X1040671Y1300999D1*
X1043609Y1308093D1*
X1047621Y1314640D1*
X1052048Y1319873D1*
X1052164Y1326236D1*
X1053027Y1331684D1*
X1054731Y1336930D1*
X1057235Y1341845D1*
X1060478Y1346308D1*
X1064378Y1350209D1*
X1068841Y1353451D1*
X1073756Y1355955D1*
X1079002Y1357660D1*
X1084451Y1358523D1*
X1142327Y1358631D1*
X1236953D1*
X1234569Y1364601D1*
X1232777Y1372067D1*
X1232207Y1378897D1*
X1152344Y1458771D1*
X930033D1*
X919127Y1447880D1*
X919114Y1201443D1*
X923548Y1196196D1*
X927560Y1189649D1*
X930499Y1182555D1*
X932291Y1175089D1*
X932894Y1167434D1*
X932291Y1159779D1*
X930499Y1152313D1*
X927560Y1145219D1*
X923548Y1138672D1*
X918562Y1132833D1*
X912723Y1127846D1*
X906176Y1123834D1*
X899082Y1120896D1*
X891616Y1119104D1*
X883961Y1118501D1*
X876306Y1119104D1*
X868840Y1120896D1*
X861746Y1123834D1*
X860056Y1124780D1*
X860059Y864392D1*
X866466Y858862D1*
X868681Y856466D1*
X875809Y860903D1*
X882903Y863841D1*
X890369Y865633D1*
X898024Y866236D1*
X905679Y865633D1*
X913145Y863841D1*
X920239Y860903D1*
X926786Y856891D1*
X932625Y851904D1*
X937611Y846065D1*
X941623Y839518D1*
X944562Y832424D1*
X946354Y824958D1*
X946957Y817303D1*
X946354Y809648D1*
X944562Y802182D1*
X941623Y795088D1*
X937611Y788541D1*
X932625Y782702D1*
X926786Y777715D1*
X920239Y773703D1*
X913145Y770765D1*
X905679Y768972D1*
X898024Y768370D1*
X890369Y768972D1*
X882903Y770765D1*
X875809Y773703D1*
X868731Y778133D1*
X863077Y772609D1*
X855781Y767298D1*
X1346133Y2087763D2*
Y2070867D1*
X1228581D1*
Y2157743D1*
X445574Y2157736D1*
X445571Y444171D1*
X2467812Y444193D1*
X2467815Y2157758D1*
X2038975Y2157736D1*
X2041659Y2152135D1*
X2044509Y2143364D1*
X2045951Y2134255D1*
Y2125032D1*
X2044509Y2115922D1*
X2041659Y2107151D1*
X2037471Y2098933D1*
X2032050Y2091471D1*
X2025529Y2084950D1*
X2018067Y2079529D1*
X2009849Y2075341D1*
X2001078Y2072491D1*
X1991968Y2071049D1*
X1982745D1*
X1973636Y2072491D1*
X1964865Y2075341D1*
X1956647Y2079529D1*
X1949185Y2084950D1*
X1942664Y2091471D1*
X1937353Y2098768D1*
X1932050Y2091471D1*
X1925529Y2084950D1*
X1918067Y2079529D1*
X1909849Y2075341D1*
X1901078Y2072491D1*
X1891968Y2071049D1*
X1882745D1*
X1873636Y2072491D1*
X1864865Y2075341D1*
X1856647Y2079529D1*
X1849185Y2084950D1*
X1842664Y2091471D1*
X1837353Y2098768D1*
X1832050Y2091471D1*
X1825529Y2084950D1*
X1818067Y2079529D1*
X1809849Y2075341D1*
X1801078Y2072491D1*
X1791968Y2071049D1*
X1782745D1*
X1773636Y2072491D1*
X1764865Y2075341D1*
X1756647Y2079529D1*
X1749185Y2084950D1*
X1742664Y2091471D1*
X1737353Y2098768D1*
X1732050Y2091471D1*
X1725529Y2084950D1*
X1718067Y2079529D1*
X1709849Y2075341D1*
X1701078Y2072491D1*
X1691968Y2071049D1*
X1682745D1*
X1673636Y2072491D1*
X1664865Y2075341D1*
X1656647Y2079529D1*
X1649185Y2084950D1*
X1642664Y2091471D1*
X1637353Y2098768D1*
X1632050Y2091471D1*
X1625529Y2084950D1*
X1618067Y2079529D1*
X1609849Y2075341D1*
X1601078Y2072491D1*
X1591968Y2071049D1*
X1582745D1*
X1573636Y2072491D1*
X1564865Y2075341D1*
X1556647Y2079529D1*
X1549185Y2084950D1*
X1542664Y2091471D1*
X1537353Y2098768D1*
X1532050Y2091471D1*
X1525529Y2084950D1*
X1518067Y2079529D1*
X1509849Y2075341D1*
X1501078Y2072491D1*
X1491968Y2071049D1*
X1482745D1*
X1473636Y2072491D1*
X1464865Y2075341D1*
X1456647Y2079529D1*
X1449185Y2084950D1*
X1442664Y2091471D1*
X1437353Y2098768D1*
X1432050Y2091471D1*
X1425529Y2084950D1*
X1418067Y2079529D1*
X1409849Y2075341D1*
X1401078Y2072491D1*
X1391968Y2071049D1*
X1382745D1*
X1373636Y2072491D1*
X1364865Y2075341D1*
X1356647Y2079529D1*
X1349185Y2084950D1*
X1346127Y2087776D1*
X1472913Y1200947D2*
X1464862Y1200903D1*
X1457278Y1202104D1*
X1449975Y1204477D1*
X1443133Y1207963D1*
X1436921Y1212476D1*
X1436095Y1213240D1*
X1431976Y1209299D1*
X1425764Y1204786D1*
X1418923Y1201300D1*
X1411620Y1198927D1*
X1404036Y1197726D1*
X1396358D1*
X1388774Y1198927D1*
X1381471Y1201300D1*
X1374629Y1204786D1*
X1368417Y1209299D1*
X1366202Y1211347D1*
X1202726Y1211354D1*
X1197463Y1206920D1*
X1190916Y1202908D1*
X1183822Y1199970D1*
X1176356Y1198177D1*
X1168701Y1197575D1*
X1161046Y1198177D1*
X1153580Y1199970D1*
X1146486Y1202908D1*
X1139939Y1206920D1*
X1134100Y1211907D1*
X1129113Y1217746D1*
X1125101Y1224293D1*
X1122362Y1230760D1*
Y882217D1*
X1125101Y888739D1*
X1129113Y895286D1*
X1134100Y901125D1*
X1139939Y906112D1*
X1146486Y910124D1*
X1153580Y913062D1*
X1161046Y914854D1*
X1168701Y915457D1*
X1176356Y914854D1*
X1183822Y913062D1*
X1190916Y910124D1*
X1197463Y906112D1*
X1203302Y901125D1*
X1208288Y895286D1*
X1212300Y888739D1*
X1215239Y881645D1*
X1216221Y878164D1*
X1221676Y879358D1*
X1229331Y879961D1*
X1236986Y879358D1*
X1244452Y877566D1*
X1251546Y874628D1*
X1258093Y870616D1*
X1263932Y865629D1*
X1268918Y859790D1*
X1272930Y853243D1*
X1275869Y846149D1*
X1277661Y838683D1*
X1278231Y831853D1*
X1352208Y757866D1*
X1352203Y852589D1*
X1347463Y848648D1*
X1340916Y844636D1*
X1333822Y841698D1*
X1326356Y839905D1*
X1318701Y839303D1*
X1311046Y839905D1*
X1303580Y841698D1*
X1296486Y844636D1*
X1289939Y848648D1*
X1284100Y853635D1*
X1279113Y859474D1*
X1275101Y866021D1*
X1272163Y873115D1*
X1270370Y880581D1*
X1269768Y888236D1*
X1270370Y895891D1*
X1272163Y903357D1*
X1275101Y910451D1*
X1279113Y916998D1*
X1283540Y922231D1*
X1283656Y1123246D1*
X1284519Y1128694D1*
X1286223Y1133941D1*
X1288727Y1138856D1*
X1291970Y1143318D1*
X1319434Y1170936D1*
X1323629Y1174519D1*
X1328332Y1177401D1*
X1333429Y1179512D1*
X1338793Y1180800D1*
X1344292Y1181232D1*
X1467913D1*
X1472924Y1186237D1*
X1472917Y1200914D1*
X1582444Y1035090D2*
X1582400Y1034717D1*
X1588137Y1039717D1*
X1588240Y1150669D1*
X1589102Y1156117D1*
X1590807Y1161364D1*
X1593311Y1166279D1*
X1596554Y1170741D1*
X1624020Y1198361D1*
X1628215Y1201944D1*
X1632918Y1204826D1*
X1638015Y1206937D1*
X1643379Y1208225D1*
X1648889Y1208657D1*
X1711855D1*
X1710584Y1216555D1*
Y1224233D1*
X1711785Y1231817D1*
X1714158Y1239120D1*
X1717644Y1245961D1*
X1721163Y1250912D1*
X1573831Y1250921D1*
X1568809Y1245917D1*
X1568815Y1072990D1*
X1573249Y1067691D1*
X1577261Y1061144D1*
X1580200Y1054050D1*
X1581992Y1046584D1*
X1582595Y1038929D1*
X1582444Y1035090D1*
X1478855Y887408D2*
X1479018Y890795D1*
X1441534Y890908D1*
X1436085Y891771D1*
X1430839Y893475D1*
X1425924Y895979D1*
X1423621Y897520D1*
X1422511Y897275D1*
Y805447D1*
X1430941Y805400D1*
X1431053Y827684D1*
X1431916Y833132D1*
X1433621Y838379D1*
X1436125Y843294D1*
X1439368Y847756D1*
X1478820Y887362D1*
X1696286Y1057838D2*
X1691473Y1063490D1*
X1687461Y1070037D1*
X1684522Y1077131D1*
X1682730Y1084597D1*
X1682127Y1092252D1*
X1682730Y1099907D1*
X1684522Y1107373D1*
X1687461Y1114467D1*
X1691473Y1121014D1*
X1695899Y1126247D1*
X1696016Y1136903D1*
X1690384Y1138350D1*
X1663435D1*
X1658435Y1133346D1*
X1658438Y1040294D1*
X1664208Y1046111D1*
X1670420Y1050624D1*
X1677262Y1054110D1*
X1684565Y1056483D1*
X1692149Y1057684D1*
X1696303Y1057823D1*
X1695163Y960001D2*
X1688333Y960571D1*
X1680867Y962364D1*
X1673773Y965302D1*
X1667226Y969314D1*
X1661387Y974301D1*
X1656400Y980140D1*
X1652388Y986687D1*
X1649450Y993781D1*
X1647894Y1000055D1*
X1620524Y972828D1*
X1616061Y969585D1*
X1611146Y967081D1*
X1605900Y965377D1*
X1600452Y964514D1*
X1542576Y964405D1*
X1480904Y964514D1*
X1475455Y965377D1*
X1470209Y967081D1*
X1465294Y969585D1*
X1460823Y972835D1*
X1459996Y969517D1*
Y961084D1*
X1664522Y960998D1*
X1669970Y960135D1*
X1675216Y958431D1*
X1680132Y955926D1*
X1684594Y952684D1*
X1712214Y925217D1*
X1715797Y921022D1*
X1718679Y916319D1*
X1720790Y911223D1*
X1722078Y905859D1*
X1722511Y900360D1*
Y771212D1*
X1723832Y776161D1*
X1726770Y783255D1*
X1730782Y789802D1*
X1735209Y795035D1*
X1735216Y919971D1*
X1695196Y959979D1*
X1366202Y1281669D2*
X1371435Y1286096D1*
X1374800Y1288325D1*
X1194268Y1288230D1*
X1200480Y1283717D1*
X1202696Y1281669D1*
X1366171Y1281661D1*
D23*
X1287357Y529811D3*
D24*
X1387357D3*
X1487357D3*
X1587357D3*
X1687357D3*
X1787357D3*
X1887357D3*
X1987357D3*
D23*
X2362244Y2054651D3*
D24*
X2262244D3*
X2362244Y1954651D3*
X2262244D3*
X2362244Y1854651D3*
X2262244D3*
X2362244Y1754651D3*
X2262244D3*
X2362244Y1654651D3*
X2262244D3*
D23*
X2237257Y892273D3*
D24*
X2337257D3*
D23*
X2343496Y1117249D3*
D24*
X2243496D3*
D23*
X1106126Y1998407D3*
D24*
X1206126D3*
D23*
X824906Y617302D3*
D24*
Y717302D3*
Y817302D3*
X524906D3*
Y717302D3*
Y617302D3*
D37*
X1993533Y1904667D3*
X1803533D3*
D23*
X1287357Y2129643D3*
D24*
X1387357D3*
X1487357D3*
X1587357D3*
X1687357D3*
X1787357D3*
X1887357D3*
X1987357D3*
M02*
