M48
INCH
T01C0.0197
T02C0.032
T03C0.0354
T04C0.0394
T05C0.0512
%
T01
X+014687Y+012497
X+014002Y+012465
X+013581Y+010871
X+013793Y+010339
X+014248Y+010798
X+015337Y+010389
X+015278Y+008866
X+015355Y+007960
X+014267Y+007567
X+014661Y+006184
X+013187Y+008882
X+012293Y+008310
X+011687Y+008665
X+008980Y+008173
X+008840Y+011674
X+010872Y+012859
X+011687Y+012465
X+012811Y+013797
X+015890Y+013786
X+016566Y+015079
X+017595Y+016399
X+018228Y+015361
X+018123Y+014297
X+018228Y+013786
X+017594Y+012204
X+017311Y+010923
X+016960Y+010089
X+016448Y+008866
X+017704Y+007610
X+019393Y+008915
X+019393Y+010466
X+019393Y+011341
X+019017Y+011735
X+019768Y+011754
X+020413Y+012861
X+020610Y+013392
X+020354Y+014754
X+021805Y+010680
X+022373Y+009811
X+014811Y+018295
X+012761Y+019173
X+008249Y+018917
T02
X+019935Y+019047
X+018035Y+019047
T03
X+012874Y+005298
X+013874Y+005298
X+014874Y+005298
X+015874Y+005298
X+016874Y+005298
X+017874Y+005298
X+018874Y+005298
X+019874Y+005298
X+022373Y+008923
X+023373Y+008923
X+023435Y+011172
X+022435Y+011172
X+022622Y+016547
X+023622Y+016547
X+023622Y+017547
X+022622Y+017547
X+022622Y+018547
X+023622Y+018547
X+023622Y+019547
X+022622Y+019547
X+022622Y+020547
X+023622Y+020547
X+019874Y+021296
X+018874Y+021296
X+017874Y+021296
X+016874Y+021296
X+015874Y+021296
X+014874Y+021296
X+013874Y+021296
X+012874Y+021296
X+012061Y+019984
X+011061Y+019984
X+008249Y+008173
X+008249Y+007173
X+008249Y+006173
X+005249Y+006173
X+005249Y+007173
X+005249Y+008173
T04
X+007562Y+018444
T05
X+007562Y+015491
T00
M30
