G04 DipTrace 3.2.0.1*
G04 Top.gbr*
%MOIN*%
G04 #@! TF.FileFunction,Copper,L1,Top*
G04 #@! TF.Part,Single*
%AMOUTLINE0*
4,1,4,
0.051181,0.072047,
0.051181,-0.072047,
-0.051181,-0.072047,
-0.051181,0.072047,
0.051181,0.072047,
0*%
%AMOUTLINE3*
4,1,4,
0.051181,0.069685,
0.051181,-0.069685,
-0.051181,-0.069685,
-0.051181,0.069685,
0.051181,0.069685,
0*%
%AMOUTLINE6*
4,1,4,
0.033465,-0.070866,
-0.033465,-0.070866,
-0.033465,0.070866,
0.033465,0.070866,
0.033465,-0.070866,
0*%
%AMOUTLINE9*
4,1,4,
-0.033465,-0.070866,
0.033465,-0.070866,
0.033465,0.070866,
-0.033465,0.070866,
-0.033465,-0.070866,
0*%
%AMOUTLINE12*
4,1,10,
0.100394,0.019685,
0.033465,0.019685,
0.009843,0.043307,
-0.076772,0.043307,
-0.100394,0.019685,
-0.100394,-0.019685,
-0.076772,-0.043307,
0.009843,-0.043307,
0.033465,-0.019685,
0.100394,-0.019685,
0.100394,0.019685,
0*%
G04 #@! TA.AperFunction,Conductor*
%ADD14C,0.011811*%
G04 #@! TA.AperFunction,CopperBalancing*
%ADD15C,0.025*%
%ADD17R,0.059055X0.051181*%
%ADD18R,0.051181X0.059055*%
%ADD20R,0.061995X0.081995*%
%ADD22R,0.031496X0.062992*%
G04 #@! TA.AperFunction,ComponentPad*
%ADD23R,0.059055X0.059055*%
%ADD24C,0.059055*%
%ADD25R,0.043307X0.03937*%
%ADD26R,0.03937X0.043307*%
%ADD27R,0.07874X0.023622*%
%ADD29R,0.059055X0.03937*%
%ADD31R,0.025591X0.041339*%
%ADD33R,0.043307X0.023622*%
%ADD35R,0.023622X0.043307*%
%ADD36R,0.023622X0.07874*%
G04 #@! TA.AperFunction,ComponentPad*
%ADD37C,0.048*%
G04 #@! TA.AperFunction,ViaPad*
%ADD38C,0.03937*%
%ADD80OUTLINE0*%
%ADD83OUTLINE3*%
%ADD86OUTLINE6*%
%ADD89OUTLINE9*%
%ADD92OUTLINE12*%
%FSLAX26Y26*%
G04*
G70*
G90*
G75*
G01*
G04 Top*
%LPD*%
X1822788Y1378595D2*
D14*
Y1286073D1*
X1749951D1*
X1468701Y1249685D2*
Y1173672D1*
X1362349Y1417407D2*
X1493585D1*
Y1423467D1*
X1749951Y1436073D2*
X1812302D1*
Y1429717D1*
X1493585Y1423467D2*
X1624760D1*
X1637366Y1436073D1*
X1749951D1*
X1318701Y888236D2*
Y961073D1*
X2060977Y1339225D2*
X2057825Y1336073D1*
X1962550D1*
X1533662Y1038929D2*
X1418701D1*
Y961073D1*
X1962550Y1286073D2*
X2041295Y1286075D1*
X618677Y1223488D2*
Y1357014D1*
X644272Y1382609D1*
X756152D1*
Y1280326D1*
X781744Y1254735D1*
X949892D1*
X1893354Y1660942D2*
Y1586073D1*
X1962550D1*
X2337257Y892273D2*
Y815478D1*
X2051590Y529811D1*
X1987357D1*
X1206126Y1998407D2*
X1289921D1*
X1315512Y1972816D1*
Y1654693D1*
X1368598D1*
X1466099Y618394D2*
X1350193D1*
X1326098Y642488D1*
X1274858D1*
X1362349Y1492210D2*
X1281108D1*
Y1379722D1*
X1835486Y829780D2*
Y869154D1*
X1816019D1*
X1730406Y954767D1*
X1755996Y980357D1*
Y1027292D1*
X1824895D1*
Y1092252D1*
X2243496Y1117249D2*
X2193512D1*
X2176107Y1134654D1*
Y1135997D1*
X2130829D1*
X824906Y817302D2*
X872433Y864829D1*
Y1048318D1*
X831094D1*
X1281108Y1379722D2*
X1256110Y1404719D1*
Y1467213D1*
X1210209Y1513114D1*
Y1517207D1*
X1199866D1*
X949892Y1179932D2*
X883961D1*
Y1167434D1*
X1527756Y886583D2*
Y935481D1*
X1502163Y961073D1*
X1468701D1*
X824906Y1891666D2*
X756152D1*
Y2004656D1*
X2051590Y529811D2*
X2051591Y698543D1*
X2424738Y1477898D2*
X2464110D1*
Y1019126D1*
X2337257Y892273D1*
X2362244Y1654651D2*
X2424738Y1592157D1*
Y1477898D1*
X1962550Y1586073D2*
X2293667D1*
X2362244Y1654651D1*
X1730406Y954767D2*
X1719610D1*
Y954766D1*
X1687126D1*
X2051591Y698543D2*
X1963736D1*
X1938146Y724134D1*
Y804189D1*
X1912555Y829780D1*
X1835486D1*
X1443591Y1966971D2*
X1530299D1*
X1593575D1*
X1368598Y1654693D2*
Y1941376D1*
X1394193Y1966971D1*
X1443591D1*
X1124874Y673546D2*
Y634173D1*
X923615D1*
X898024Y659764D1*
Y817303D1*
X1274858Y642488D2*
X1205144D1*
X1174087Y673546D1*
X1124874D1*
X1281108Y1379722D2*
Y1348475D1*
X1230924D1*
X1687126Y954766D2*
X1644807D1*
Y886583D1*
X524906Y817302D2*
X824906D1*
X528126Y1223488D2*
Y1121627D1*
X499940Y1093441D1*
Y1042257D1*
Y973514D1*
X831094D1*
X2362244Y2054651D2*
X2311457Y2003864D1*
Y1829457D1*
X2285866Y1803866D1*
X1844141D1*
X1818551Y1778276D1*
Y1660942D1*
X1099866Y1517207D2*
X1029913D1*
X1004323Y1491617D1*
Y1079816D1*
X978732Y1054225D1*
Y1010916D1*
Y973514D1*
Y914334D1*
X937394Y872996D1*
Y784485D1*
X923614Y770705D1*
Y732601D1*
X1054008D1*
X978732Y1054225D2*
Y1093441D1*
X633798D1*
Y1042257D1*
X1862297Y985953D2*
Y1027292D1*
X1893795D1*
X1922669Y998417D1*
X2049682D1*
X978732Y1010916D2*
X937394D1*
X1493585Y1490396D2*
Y1537488D1*
X1276142D1*
X1250551Y1563079D1*
Y1577894D1*
X1099866D1*
Y1517207D1*
X1749951Y1586073D2*
X1639527D1*
X1543850Y1490396D1*
X1493585D1*
X1818551Y1660942D2*
Y1586073D1*
X1749951D1*
X937394Y973514D2*
X978732D1*
X937394D2*
X938886D1*
X2056026Y1135997D2*
Y1068040D1*
X2180504D1*
X2049682Y998417D2*
Y1037787D1*
X2008347Y1079123D1*
Y1135997D1*
X2056026D1*
X1481087Y1829457D2*
Y1892168D1*
X1443591D1*
X1656650Y1507921D2*
X1678497Y1486073D1*
X1749951D1*
X1803533Y1904667D2*
X1682484D1*
X1669985Y1892168D1*
X1593575D1*
X1749951Y1536073D2*
X1822788Y1536075D1*
X1118701Y961073D2*
Y791656D1*
X1124874D1*
X1274858Y717291D2*
X1430866D1*
X1490394Y657764D1*
X1612228D1*
Y789094D1*
X1124874Y791656D2*
X1249264D1*
X1274858Y766062D1*
Y717291D1*
X1087209Y1285878D2*
X1156121D1*
Y1348475D1*
X1749951Y1386073D2*
X1589032D1*
Y1378599D1*
X824906Y617302D2*
X524906D1*
X2237257Y892273D2*
X2187262Y842278D1*
X2124769D1*
X2237256Y981095D2*
X2219933Y998417D1*
X2116612D1*
X1939252Y891492D2*
X2049966D1*
Y842278D1*
X1731060Y1092252D2*
X1787493D1*
X1939252Y1046591D2*
Y1134134D1*
X2049966Y842278D2*
Y763505D1*
X2075557Y737914D1*
X2118520D1*
Y698543D1*
X2299751Y1473462D2*
Y1536073D1*
X1962550D1*
X1887888D1*
X1862297Y1510482D1*
Y1092252D1*
X2424738Y1410969D2*
X2299751D1*
Y1406533D1*
X2294283D1*
Y967078D1*
X2268693Y941488D1*
X1787493D1*
Y985953D1*
X1770370Y761040D2*
Y692294D1*
X1695988Y1008902D2*
Y1025633D1*
X1676303Y1045318D1*
X1649724D1*
X1759366Y1220394D2*
X1729247D1*
Y1167244D1*
X2035386Y1475445D2*
Y1455759D1*
X2015700Y1436073D1*
X1962550D1*
X1759492Y1639898D2*
X1750946Y1648444D1*
X1493585D1*
X1368598Y1587764D2*
X1301733D1*
X1276142Y1613355D1*
Y1917256D1*
X1493585Y1581514D2*
Y1587764D1*
X1368598D1*
X1218701Y1173672D2*
Y1232729D1*
X1250119D1*
X1353463Y1336073D1*
X1749951D1*
X1400197Y1246508D2*
Y1310979D1*
X1587325D1*
Y1279732D1*
X1168701Y1246508D2*
Y1173672D1*
X1587325Y1279732D2*
X1662318D1*
Y1167244D1*
X1768556Y829780D2*
X1600418D1*
X1574827Y855371D1*
Y954766D1*
X1612323D1*
Y1077123D1*
X1587325Y1102120D1*
Y1212803D1*
X1600418Y829780D2*
X1574827D1*
Y698543D1*
X1887357Y529811D2*
X1837299Y579869D1*
Y692294D1*
X1901670Y1173504D2*
Y1486073D1*
X1962550D1*
X1358071Y1087059D2*
X1368701Y1097689D1*
Y1173672D1*
X1379331Y1033910D2*
X1318701D1*
Y1173672D1*
X1976835Y1175370D2*
X1993520Y1192055D1*
X2139716D1*
X2165307Y1217646D1*
Y1360481D1*
X2139714Y1386073D1*
X1962550D1*
X1229331Y831028D2*
X1218701Y841658D1*
Y961073D1*
X1168701Y866524D2*
Y961073D1*
X1426729Y756662D2*
X1354366D1*
X1268701Y842327D1*
Y961073D1*
X1535457Y796032D2*
X1394291D1*
X1368701Y821622D1*
Y961073D1*
X1424843Y1079753D2*
Y1173672D1*
X1418701D1*
X1787357Y529811D2*
X1738144Y579024D1*
X1675225D1*
X1649630Y604619D1*
Y698543D1*
D38*
X1468701Y1249685D3*
X1822788Y1378595D3*
X1812302Y1429717D3*
X1318701Y888236D3*
X2060977Y1339225D3*
X1533662Y1038929D3*
X2041295Y1286075D3*
X898024Y817303D3*
X1644807Y886583D3*
X883961Y1167434D3*
X1466099Y618394D3*
X1527756Y886583D3*
X1281108Y1379722D3*
X824906Y1891666D3*
X2180504Y1068040D3*
X1481087Y1829457D3*
X1656650Y1507921D3*
X1822788Y1536075D3*
X1087209Y1285878D3*
X1589032Y1378599D3*
X2237256Y981095D3*
X1731060Y1092252D3*
X1939252Y1134134D3*
Y1046591D3*
Y891492D3*
X1695988Y1008902D3*
X1770370Y761040D3*
X1759366Y1220394D3*
X1759492Y1639898D3*
X2035386Y1475445D3*
X1276142Y1917256D3*
X1400197Y1246508D3*
X1168701D3*
X1358071Y1087059D3*
X1901670Y1173504D3*
X1379331Y1033910D3*
X1229331Y831028D3*
X1976835Y1175370D3*
X1168701Y866524D3*
X1426729Y756662D3*
X1535457Y796032D3*
X1424843Y1079753D3*
X448089Y2126608D2*
D15*
X1226082D1*
X2048559D2*
X2465306D1*
X448089Y2101739D2*
X687352D1*
X824945D2*
X1226082D1*
X2041598D2*
X2224559D1*
X2423513D2*
X2465306D1*
X448089Y2076870D2*
X673214D1*
X839083D2*
X1226082D1*
X1348638D2*
X1358989D1*
X1415742D2*
X1458970D1*
X1515751D2*
X1558979D1*
X1615724D2*
X1658989D1*
X1715734D2*
X1758998D1*
X1815743D2*
X1858971D1*
X1915716D2*
X1958980D1*
X2015725D2*
X2205325D1*
X2423513D2*
X2465306D1*
X448089Y2052001D2*
X673214D1*
X839083D2*
X1044867D1*
X1167387D2*
X1179504D1*
X1232768D2*
X2201019D1*
X2423513D2*
X2465306D1*
X448089Y2027133D2*
X673214D1*
X839083D2*
X1044867D1*
X1312682D2*
X2207801D1*
X2423513D2*
X2465306D1*
X448089Y2002264D2*
X673214D1*
X839083D2*
X1044867D1*
X1338268D2*
X1382322D1*
X1504878D2*
X1532282D1*
X1654838D2*
X2225277D1*
X2423513D2*
X2465306D1*
X448089Y1977395D2*
X673214D1*
X839083D2*
X1044867D1*
X1654838D2*
X2205541D1*
X2418956D2*
X2465306D1*
X448089Y1952526D2*
X673214D1*
X839083D2*
X1044867D1*
X1654838D2*
X1777693D1*
X1829379D2*
X1967700D1*
X2019386D2*
X2201019D1*
X2423477D2*
X2465306D1*
X448089Y1927657D2*
X673645D1*
X860542D2*
X1225831D1*
X1504878D2*
X1532282D1*
X1854067D2*
X1943012D1*
X2044074D2*
X2207550D1*
X2416946D2*
X2465306D1*
X448089Y1902789D2*
X718500D1*
X875075D2*
X1226907D1*
X1517115D2*
X1532282D1*
X1859234D2*
X1937809D1*
X2049241D2*
X2226030D1*
X2398466D2*
X2465306D1*
X448089Y1877920D2*
X717998D1*
X874357D2*
X1238498D1*
X1518729D2*
X1532282D1*
X1852093D2*
X1944986D1*
X2042064D2*
X2205756D1*
X2418705D2*
X2465306D1*
X448089Y1853051D2*
X705474D1*
X857456D2*
X1238498D1*
X1654838D2*
X1787956D1*
X1819116D2*
X1977963D1*
X2009123D2*
X2200983D1*
X2423513D2*
X2465306D1*
X448089Y1828182D2*
X707483D1*
X804814D2*
X1238498D1*
X1406268D2*
X1429653D1*
X1532509D2*
X1816233D1*
X2417234D2*
X2465306D1*
X448089Y1803314D2*
X727112D1*
X785185D2*
X1238498D1*
X1406268D2*
X1437224D1*
X1524937D2*
X1791365D1*
X2397713D2*
X2465306D1*
X448089Y1778445D2*
X1238498D1*
X1406268D2*
X1780887D1*
X2418489D2*
X2465306D1*
X448089Y1753576D2*
X1238498D1*
X1406268D2*
X1780887D1*
X1856220D2*
X2200983D1*
X2423513D2*
X2465306D1*
X448089Y1728707D2*
X1238498D1*
X1406268D2*
X1780887D1*
X1856220D2*
X2207012D1*
X2417485D2*
X2465306D1*
X448089Y1703839D2*
X1238498D1*
X1420048D2*
X1761223D1*
X1950703D2*
X2227574D1*
X2396923D2*
X2465306D1*
X448089Y1678970D2*
X1238498D1*
X1420048D2*
X1442140D1*
X1950703D2*
X2206222D1*
X2418238D2*
X2465306D1*
X448089Y1654101D2*
X1238498D1*
X1420048D2*
X1442140D1*
X1950703D2*
X2200983D1*
X2423513D2*
X2465306D1*
X448089Y1629232D2*
X1238498D1*
X1420048D2*
X1442140D1*
X1950703D2*
X2206761D1*
X2439876D2*
X2465306D1*
X448089Y1604364D2*
X1074220D1*
X1545033D2*
X1605593D1*
X448089Y1579495D2*
X707986D1*
X804311D2*
X1037116D1*
X1545033D2*
X1580725D1*
X2339293D2*
X2385177D1*
X448089Y1554626D2*
X699087D1*
X813210D2*
X1037116D1*
X1545033D2*
X1555857D1*
X2332116D2*
X2387079D1*
X448089Y1529757D2*
X702352D1*
X809945D2*
X990251D1*
X2337391D2*
X2387079D1*
X448089Y1504888D2*
X721263D1*
X791034D2*
X969259D1*
X2351171D2*
X2373299D1*
X448089Y1480020D2*
X693166D1*
X819131D2*
X966675D1*
X2086597D2*
X2248315D1*
X2351171D2*
X2373299D1*
X448089Y1455151D2*
X673358D1*
X838939D2*
X966675D1*
X2082398D2*
X2248315D1*
X2351171D2*
X2373299D1*
X448089Y1430282D2*
X673214D1*
X839083D2*
X966675D1*
X1041972D2*
X1218474D1*
X2062124D2*
X2248315D1*
X448089Y1405413D2*
X614866D1*
X839083D2*
X966675D1*
X1041972D2*
X1098765D1*
X2172575D2*
X2248315D1*
X448089Y1380545D2*
X590070D1*
X839083D2*
X966675D1*
X1041972D2*
X1098765D1*
X2196689D2*
X2248315D1*
X448089Y1355676D2*
X581028D1*
X839083D2*
X966675D1*
X1041972D2*
X1098765D1*
X2202969D2*
X2248315D1*
X2351171D2*
X2426444D1*
X448089Y1330807D2*
X581028D1*
X656325D2*
X673214D1*
X839083D2*
X966675D1*
X1041972D2*
X1065321D1*
X2111680D2*
X2127636D1*
X2202969D2*
X2256640D1*
X2331937D2*
X2426444D1*
X448089Y1305938D2*
X465301D1*
X838222D2*
X888627D1*
X2099336D2*
X2127636D1*
X2202969D2*
X2256640D1*
X2331937D2*
X2426444D1*
X448089Y1281070D2*
X462897D1*
X683884D2*
X718500D1*
X2092482D2*
X2127636D1*
X2202969D2*
X2256640D1*
X2331937D2*
X2426444D1*
X448089Y1256201D2*
X462897D1*
X683884D2*
X728081D1*
X1519698D2*
X1535906D1*
X2082542D2*
X2127636D1*
X2202969D2*
X2256640D1*
X2331937D2*
X2426444D1*
X448089Y1231332D2*
X462897D1*
X683884D2*
X752949D1*
X1041972D2*
X1075153D1*
X1516576D2*
X1535906D1*
X1809571D2*
X1824630D1*
X1939328D2*
X2126775D1*
X2202969D2*
X2256640D1*
X2331937D2*
X2426444D1*
X448089Y1206463D2*
X462897D1*
X683884D2*
X851953D1*
X1041972D2*
X1075153D1*
X1512270D2*
X1535906D1*
X1808781D2*
X1824630D1*
X2201139D2*
X2256640D1*
X2331937D2*
X2426444D1*
X448089Y1181594D2*
X462897D1*
X683884D2*
X834621D1*
X1041972D2*
X1075153D1*
X1512270D2*
X1535906D1*
X1791700D2*
X1824630D1*
X2188185D2*
X2256640D1*
X2331937D2*
X2426444D1*
X448089Y1156726D2*
X462897D1*
X683884D2*
X833724D1*
X1041972D2*
X1075153D1*
X1512270D2*
X1549685D1*
X1782658D2*
X1824630D1*
X2404782D2*
X2426444D1*
X448089Y1131857D2*
X471581D1*
X675236D2*
X847862D1*
X1041972D2*
X1075153D1*
X1512270D2*
X1549685D1*
X2404782D2*
X2426444D1*
X448089Y1106988D2*
X465014D1*
X562595D2*
X598862D1*
X1041972D2*
X1075153D1*
X1512270D2*
X1549685D1*
X2404782D2*
X2426444D1*
X547452Y1082119D2*
X586303D1*
X1041972D2*
X1281056D1*
X1476207D2*
X1508167D1*
X2404782D2*
X2426444D1*
X547452Y1057251D2*
X586303D1*
X681300D2*
X777709D1*
X1033790D2*
X1281056D1*
X2331937D2*
X2426444D1*
X547452Y1032382D2*
X586303D1*
X681300D2*
X777709D1*
X1016387D2*
X1281092D1*
X2331937D2*
X2425152D1*
X1016387Y1007513D2*
X1075153D1*
X2331937D2*
X2400284D1*
X1016387Y982644D2*
X1075153D1*
X2331937D2*
X2375416D1*
X448089Y957776D2*
X466019D1*
X1016387D2*
X1075153D1*
X2330681D2*
X2350549D1*
X2454984D2*
X2465306D1*
X448089Y932907D2*
X777709D1*
X1016387D2*
X1075153D1*
X2430116D2*
X2465306D1*
X448089Y908038D2*
X834765D1*
X1015813D2*
X1075153D1*
X2405248D2*
X2465306D1*
X448089Y883169D2*
X834765D1*
X999772D2*
X1081038D1*
X1406340D2*
X1476446D1*
X2397820D2*
X2465306D1*
X448089Y858301D2*
X480301D1*
X569521D2*
X780293D1*
X975048D2*
X1081038D1*
X1406340D2*
X1485309D1*
X2387737D2*
X2465306D1*
X448089Y833432D2*
X465875D1*
X975048D2*
X1063598D1*
X1409103D2*
X1501385D1*
X1961110D2*
X1992640D1*
X2230636D2*
X2299593D1*
X2374926D2*
X2465306D1*
X448089Y808563D2*
X464296D1*
X975048D2*
X1063598D1*
X1975535D2*
X1992640D1*
X2199704D2*
X2278134D1*
X2374208D2*
X2465306D1*
X448089Y783694D2*
X474200D1*
X1656776D2*
X1715147D1*
X1888875D2*
X1900489D1*
X1975786D2*
X1992640D1*
X2182120D2*
X2253267D1*
X2357702D2*
X2465306D1*
X448089Y758825D2*
X480803D1*
X569019D2*
X780795D1*
X1478108D2*
X1501170D1*
X1656776D2*
X1718987D1*
X1821735D2*
X1900489D1*
X1975786D2*
X2012627D1*
X2149286D2*
X2228399D1*
X2332834D2*
X2465306D1*
X448089Y733957D2*
X466055D1*
X583767D2*
X766046D1*
X1472582D2*
X1530272D1*
X1694167D2*
X1716977D1*
X1890705D2*
X1900502D1*
X1980523D2*
X1998202D1*
X2171929D2*
X2203531D1*
X2307966D2*
X2465306D1*
X448089Y709088D2*
X464225D1*
X585597D2*
X764216D1*
X1491278D2*
X1530272D1*
X1694167D2*
X1716977D1*
X1890705D2*
X1903862D1*
X2283098D2*
X2465306D1*
X448089Y684219D2*
X473842D1*
X575980D2*
X773833D1*
X1694167D2*
X1716977D1*
X1890705D2*
X1925859D1*
X2258231D2*
X2465306D1*
X448089Y659350D2*
X481341D1*
X568480D2*
X763642D1*
X1361449D2*
X1436578D1*
X1694167D2*
X1716977D1*
X1890705D2*
X1998202D1*
X2233327D2*
X2465306D1*
X448089Y634482D2*
X466198D1*
X1687277D2*
X1799655D1*
X1874952D2*
X2013919D1*
X2208459D2*
X2465306D1*
X448089Y609613D2*
X464153D1*
X886199D2*
X895947D1*
X1152531D2*
X1190198D1*
X1516720D2*
X1611980D1*
X1757969D2*
X1799655D1*
X1874952D2*
X2013919D1*
X2183592D2*
X2465306D1*
X448089Y584744D2*
X473483D1*
X886199D2*
X1226082D1*
X1510763D2*
X1563967D1*
X1910764D2*
X1963968D1*
X2158724D2*
X2465306D1*
X448089Y559875D2*
X509869D1*
X539916D2*
X763642D1*
X886199D2*
X1226082D1*
X2133856D2*
X2465306D1*
X448089Y535007D2*
X1226082D1*
X2108988D2*
X2465306D1*
X448089Y510138D2*
X1226082D1*
X2084121D2*
X2465306D1*
X448089Y485269D2*
X1226082D1*
X1428194D2*
X1446518D1*
X1528203D2*
X1546492D1*
X1628212D2*
X1646501D1*
X1728221D2*
X1746510D1*
X1828195D2*
X1846519D1*
X1928204D2*
X1946493D1*
X2028213D2*
X2465306D1*
X448089Y460400D2*
X2465306D1*
X900303Y1309573D2*
X969165D1*
X969278Y1494375D1*
X970141Y1499823D1*
X971845Y1505070D1*
X974349Y1509985D1*
X977592Y1514447D1*
X1005056Y1542065D1*
X1009251Y1545647D1*
X1013954Y1548529D1*
X1019050Y1550640D1*
X1024414Y1551928D1*
X1029924Y1552360D1*
X1039638Y1552361D1*
X1039621Y1587453D1*
X1066068D1*
X1067388Y1591347D1*
X1069893Y1596262D1*
X1073135Y1600724D1*
X1077036Y1604625D1*
X1081498Y1607867D1*
X1086413Y1610372D1*
X1091660Y1612076D1*
X1097108Y1612939D1*
X1154984Y1613047D1*
X1240999D1*
X1240988Y1883240D1*
X1236554Y1888494D1*
X1232542Y1895041D1*
X1229604Y1902135D1*
X1227811Y1909601D1*
X1227209Y1917256D1*
X1227811Y1924911D1*
X1229604Y1932377D1*
X1232542Y1939471D1*
X1236554Y1946018D1*
X1240492Y1950722D1*
X1232810Y1946037D1*
X1224289Y1942508D1*
X1215321Y1940355D1*
X1206126Y1939631D1*
X1196931Y1940355D1*
X1187963Y1942508D1*
X1179442Y1946037D1*
X1171579Y1950856D1*
X1164896Y1956540D1*
X1164902Y1939631D1*
X1047350D1*
Y2057182D1*
X1164902D1*
Y2040281D1*
X1171579Y2045957D1*
X1179442Y2050776D1*
X1187963Y2054306D1*
X1196931Y2056459D1*
X1206126Y2057182D1*
X1215321Y2056459D1*
X1224289Y2054306D1*
X1232810Y2050776D1*
X1240673Y2045957D1*
X1247687Y2039967D1*
X1253197Y2033563D1*
X1292679Y2033452D1*
X1298127Y2032589D1*
X1303374Y2030885D1*
X1308289Y2028380D1*
X1312751Y2025138D1*
X1340369Y1997673D1*
X1343952Y1993479D1*
X1346834Y1988775D1*
X1348945Y1983679D1*
X1350233Y1978315D1*
X1350557Y1975563D1*
X1356732Y1979225D1*
X1371363Y1993702D1*
X1375825Y1996945D1*
X1380740Y1999449D1*
X1383340Y2000407D1*
X1384815Y2003996D1*
Y2021810D1*
X1502366D1*
Y2002109D1*
X1534784Y2002125D1*
X1534799Y2021810D1*
X1652350D1*
Y1927327D1*
X1657626Y1929524D1*
X1661821Y1933107D1*
X1666524Y1935989D1*
X1671621Y1938100D1*
X1676984Y1939387D1*
X1682494Y1939820D1*
X1763546D1*
X1768951Y1945157D1*
X1775711Y1950068D1*
X1783156Y1953861D1*
X1791102Y1956443D1*
X1799355Y1957751D1*
X1807711D1*
X1815963Y1956443D1*
X1823910Y1953861D1*
X1831355Y1950068D1*
X1838115Y1945157D1*
X1844023Y1939248D1*
X1848934Y1932489D1*
X1852728Y1925044D1*
X1855310Y1917097D1*
X1856617Y1908844D1*
Y1900489D1*
X1855310Y1892236D1*
X1852728Y1884290D1*
X1848934Y1876845D1*
X1844023Y1870085D1*
X1838115Y1864177D1*
X1831355Y1859265D1*
X1823910Y1855472D1*
X1815963Y1852890D1*
X1807711Y1851583D1*
X1799355D1*
X1791102Y1852890D1*
X1783156Y1855472D1*
X1775711Y1859265D1*
X1768951Y1864177D1*
X1763564Y1869521D1*
X1697064Y1869513D1*
X1692815Y1865437D1*
X1688353Y1862195D1*
X1683438Y1859690D1*
X1678191Y1857986D1*
X1672743Y1857123D1*
X1652366Y1857014D1*
X1652350Y1837329D1*
X1534799D1*
Y1931812D1*
X1502345Y1931817D1*
X1502366Y1920119D1*
X1505944Y1917025D1*
X1509527Y1912831D1*
X1512409Y1908127D1*
X1514520Y1903031D1*
X1515808Y1897667D1*
X1516240Y1892157D1*
Y1863497D1*
X1520674Y1858219D1*
X1524686Y1851672D1*
X1527625Y1844578D1*
X1529417Y1837112D1*
X1530020Y1829457D1*
X1529417Y1821802D1*
X1527625Y1814336D1*
X1524686Y1807242D1*
X1520674Y1800695D1*
X1515688Y1794856D1*
X1509849Y1789869D1*
X1503302Y1785857D1*
X1496208Y1782919D1*
X1488742Y1781126D1*
X1481087Y1780524D1*
X1473432Y1781126D1*
X1465966Y1782919D1*
X1458872Y1785857D1*
X1452325Y1789869D1*
X1446486Y1794856D1*
X1441499Y1800695D1*
X1437487Y1807242D1*
X1434549Y1814336D1*
X1432756Y1821802D1*
X1432154Y1829457D1*
X1432800Y1837332D1*
X1403721Y1837329D1*
X1403752Y1705581D1*
X1417532Y1705594D1*
Y1622912D1*
X1444637Y1622917D1*
X1444652Y1699345D1*
X1542518D1*
Y1683592D1*
X1737490Y1683597D1*
X1744371Y1686436D1*
X1751837Y1688228D1*
X1759492Y1688831D1*
X1763704Y1688636D1*
X1763713Y1719718D1*
X1783413D1*
X1783506Y1781034D1*
X1784369Y1786483D1*
X1786074Y1791729D1*
X1788578Y1796644D1*
X1791820Y1801107D1*
X1819283Y1828723D1*
X1823478Y1832306D1*
X1828181Y1835188D1*
X1833278Y1837299D1*
X1838642Y1838587D1*
X1844152Y1839019D1*
X2205602D1*
X2204192Y1845456D1*
X2203469Y1854651D1*
X2204192Y1863845D1*
X2206345Y1872814D1*
X2209875Y1881334D1*
X2214694Y1889198D1*
X2220683Y1896212D1*
X2227697Y1902201D1*
X2231369Y1904655D1*
X2224072Y1909958D1*
X2217551Y1916479D1*
X2212130Y1923941D1*
X2207943Y1932158D1*
X2205092Y1940930D1*
X2203650Y1950039D1*
Y1959262D1*
X2205092Y1968372D1*
X2207943Y1977143D1*
X2212130Y1985361D1*
X2217551Y1992823D1*
X2224072Y1999344D1*
X2231369Y2004655D1*
X2224072Y2009958D1*
X2217551Y2016479D1*
X2212130Y2023941D1*
X2207943Y2032158D1*
X2205092Y2040930D1*
X2203650Y2050039D1*
Y2059262D1*
X2205092Y2068372D1*
X2207943Y2077143D1*
X2212130Y2085361D1*
X2217551Y2092823D1*
X2224072Y2099344D1*
X2231534Y2104765D1*
X2239752Y2108952D1*
X2248523Y2111803D1*
X2257633Y2113245D1*
X2266856D1*
X2275965Y2111803D1*
X2284737Y2108952D1*
X2292954Y2104765D1*
X2300416Y2099344D1*
X2303474Y2096517D1*
X2303469Y2113426D1*
X2421020D1*
Y1995875D1*
X2404119D1*
X2409795Y1989198D1*
X2414614Y1981334D1*
X2418143Y1972814D1*
X2420296Y1963845D1*
X2421020Y1954651D1*
X2420296Y1945456D1*
X2418143Y1936488D1*
X2414614Y1927967D1*
X2409795Y1920103D1*
X2403805Y1913090D1*
X2396792Y1907100D1*
X2393119Y1904647D1*
X2400416Y1899344D1*
X2406937Y1892823D1*
X2412359Y1885361D1*
X2416546Y1877143D1*
X2419396Y1868372D1*
X2420838Y1859262D1*
Y1850039D1*
X2419396Y1840930D1*
X2416546Y1832158D1*
X2412359Y1823941D1*
X2406937Y1816479D1*
X2400416Y1809958D1*
X2393119Y1804647D1*
X2400416Y1799344D1*
X2406937Y1792823D1*
X2412359Y1785361D1*
X2416546Y1777143D1*
X2419396Y1768372D1*
X2420838Y1759262D1*
Y1750039D1*
X2419396Y1740930D1*
X2416546Y1732158D1*
X2412359Y1723941D1*
X2406937Y1716479D1*
X2400416Y1709958D1*
X2393119Y1704647D1*
X2400416Y1699344D1*
X2406937Y1692823D1*
X2412359Y1685361D1*
X2416546Y1677143D1*
X2419396Y1668372D1*
X2420838Y1659262D1*
Y1650039D1*
X2420387Y1646226D1*
X2451469Y1614988D1*
X2454711Y1610525D1*
X2457215Y1605610D1*
X2458920Y1600364D1*
X2459783Y1594916D1*
X2459891Y1537039D1*
Y1528822D1*
X2467832Y1528799D1*
X2467815Y2151443D1*
X2041918Y2151476D1*
X2044509Y2143364D1*
X2045951Y2134255D1*
Y2125032D1*
X2044509Y2115922D1*
X2041659Y2107151D1*
X2037471Y2098933D1*
X2032050Y2091471D1*
X2025529Y2084950D1*
X2018067Y2079529D1*
X2009849Y2075341D1*
X2001078Y2072491D1*
X1991968Y2071049D1*
X1982745D1*
X1973636Y2072491D1*
X1964865Y2075341D1*
X1956647Y2079529D1*
X1949185Y2084950D1*
X1942664Y2091471D1*
X1937353Y2098768D1*
X1932050Y2091471D1*
X1925529Y2084950D1*
X1918067Y2079529D1*
X1909849Y2075341D1*
X1901078Y2072491D1*
X1891968Y2071049D1*
X1882745D1*
X1873636Y2072491D1*
X1864865Y2075341D1*
X1856647Y2079529D1*
X1849185Y2084950D1*
X1842664Y2091471D1*
X1837353Y2098768D1*
X1832050Y2091471D1*
X1825529Y2084950D1*
X1818067Y2079529D1*
X1809849Y2075341D1*
X1801078Y2072491D1*
X1791968Y2071049D1*
X1782745D1*
X1773636Y2072491D1*
X1764865Y2075341D1*
X1756647Y2079529D1*
X1749185Y2084950D1*
X1742664Y2091471D1*
X1737353Y2098768D1*
X1732050Y2091471D1*
X1725529Y2084950D1*
X1718067Y2079529D1*
X1709849Y2075341D1*
X1701078Y2072491D1*
X1691968Y2071049D1*
X1682745D1*
X1673636Y2072491D1*
X1664865Y2075341D1*
X1656647Y2079529D1*
X1649185Y2084950D1*
X1642664Y2091471D1*
X1637353Y2098768D1*
X1632050Y2091471D1*
X1625529Y2084950D1*
X1618067Y2079529D1*
X1609849Y2075341D1*
X1601078Y2072491D1*
X1591968Y2071049D1*
X1582745D1*
X1573636Y2072491D1*
X1564865Y2075341D1*
X1556647Y2079529D1*
X1549185Y2084950D1*
X1542664Y2091471D1*
X1537353Y2098768D1*
X1532050Y2091471D1*
X1525529Y2084950D1*
X1518067Y2079529D1*
X1509849Y2075341D1*
X1501078Y2072491D1*
X1491968Y2071049D1*
X1482745D1*
X1473636Y2072491D1*
X1464865Y2075341D1*
X1456647Y2079529D1*
X1449185Y2084950D1*
X1442664Y2091471D1*
X1437353Y2098768D1*
X1432050Y2091471D1*
X1425529Y2084950D1*
X1418067Y2079529D1*
X1409849Y2075341D1*
X1401078Y2072491D1*
X1391968Y2071049D1*
X1382745D1*
X1373636Y2072491D1*
X1364865Y2075341D1*
X1356647Y2079529D1*
X1349185Y2084950D1*
X1346127Y2087776D1*
X1346133Y2070867D1*
X1228581D1*
Y2151499D1*
X445574Y2151476D1*
X445571Y444227D1*
X2467812Y444193D1*
X2467815Y973149D1*
X2395413Y900714D1*
X2396033Y892273D1*
X2395309Y883078D1*
X2393156Y874110D1*
X2389627Y865589D1*
X2384808Y857726D1*
X2378818Y850712D1*
X2372413Y845202D1*
X2372302Y812720D1*
X2371440Y807272D1*
X2369735Y802026D1*
X2367231Y797111D1*
X2363988Y792648D1*
X2323140Y751647D1*
X2074420Y503080D1*
X2069958Y499838D1*
X2065043Y497333D1*
X2059796Y495629D1*
X2054348Y494766D1*
X2034473Y494657D1*
X2028918Y488250D1*
X2021904Y482261D1*
X2014041Y477442D1*
X2005520Y473912D1*
X1996551Y471759D1*
X1987357Y471035D1*
X1978162Y471759D1*
X1969194Y473912D1*
X1960673Y477442D1*
X1952810Y482261D1*
X1945796Y488250D1*
X1939807Y495264D1*
X1937353Y498936D1*
X1932050Y491639D1*
X1925529Y485118D1*
X1918067Y479697D1*
X1909849Y475509D1*
X1901078Y472659D1*
X1891968Y471217D1*
X1882745D1*
X1873636Y472659D1*
X1864865Y475509D1*
X1856647Y479697D1*
X1849185Y485118D1*
X1842664Y491639D1*
X1837353Y498936D1*
X1832050Y491639D1*
X1825529Y485118D1*
X1818067Y479697D1*
X1809849Y475509D1*
X1801078Y472659D1*
X1791968Y471217D1*
X1782745D1*
X1773636Y472659D1*
X1764865Y475509D1*
X1756647Y479697D1*
X1749185Y485118D1*
X1742664Y491639D1*
X1737353Y498936D1*
X1732050Y491639D1*
X1725529Y485118D1*
X1718067Y479697D1*
X1709849Y475509D1*
X1701078Y472659D1*
X1691968Y471217D1*
X1682745D1*
X1673636Y472659D1*
X1664865Y475509D1*
X1656647Y479697D1*
X1649185Y485118D1*
X1642664Y491639D1*
X1637353Y498936D1*
X1632050Y491639D1*
X1625529Y485118D1*
X1618067Y479697D1*
X1609849Y475509D1*
X1601078Y472659D1*
X1591968Y471217D1*
X1582745D1*
X1573636Y472659D1*
X1564865Y475509D1*
X1556647Y479697D1*
X1549185Y485118D1*
X1542664Y491639D1*
X1537353Y498936D1*
X1532050Y491639D1*
X1525529Y485118D1*
X1518067Y479697D1*
X1509849Y475509D1*
X1501078Y472659D1*
X1491968Y471217D1*
X1482745D1*
X1473636Y472659D1*
X1464865Y475509D1*
X1456647Y479697D1*
X1449185Y485118D1*
X1442664Y491639D1*
X1437353Y498936D1*
X1432050Y491639D1*
X1425529Y485118D1*
X1418067Y479697D1*
X1409849Y475509D1*
X1401078Y472659D1*
X1391968Y471217D1*
X1382745D1*
X1373636Y472659D1*
X1364865Y475509D1*
X1356647Y479697D1*
X1349185Y485118D1*
X1346127Y487944D1*
X1346133Y471035D1*
X1228582D1*
Y587643D1*
X1216083Y587649D1*
Y607350D1*
X1202386Y607443D1*
X1196938Y608306D1*
X1191692Y610011D1*
X1186777Y612515D1*
X1182314Y615757D1*
X1173309Y624609D1*
X1158710Y624613D1*
X1156196Y618213D1*
X1153314Y613510D1*
X1149731Y609316D1*
X1145537Y605733D1*
X1140833Y602851D1*
X1135737Y600740D1*
X1130373Y599452D1*
X1124874Y599019D1*
X920857Y599128D1*
X915408Y599991D1*
X910162Y601695D1*
X905247Y604200D1*
X900784Y607442D1*
X883660Y624413D1*
X883681Y558526D1*
X766130D1*
Y582174D1*
X572030Y582148D1*
X566466Y575741D1*
X559453Y569751D1*
X551589Y564932D1*
X543068Y561403D1*
X534100Y559250D1*
X524906Y558526D1*
X515711Y559250D1*
X506743Y561403D1*
X498222Y564932D1*
X490358Y569751D1*
X483345Y575741D1*
X477355Y582754D1*
X472536Y590618D1*
X469007Y599139D1*
X466854Y608107D1*
X466130Y617302D1*
X466854Y626496D1*
X469007Y635464D1*
X472536Y643985D1*
X477355Y651849D1*
X483345Y658862D1*
X490358Y664852D1*
X494030Y667306D1*
X486734Y672609D1*
X480212Y679130D1*
X474791Y686592D1*
X470604Y694809D1*
X467754Y703581D1*
X466311Y712690D1*
Y721913D1*
X467754Y731023D1*
X470604Y739794D1*
X474791Y748012D1*
X480212Y755474D1*
X486734Y761995D1*
X494030Y767306D1*
X486734Y772609D1*
X480212Y779130D1*
X474791Y786592D1*
X470604Y794809D1*
X467754Y803581D1*
X466311Y812690D1*
Y821913D1*
X467754Y831023D1*
X470604Y839794D1*
X474791Y848012D1*
X480212Y855474D1*
X486734Y861995D1*
X494195Y867416D1*
X502413Y871603D1*
X511185Y874453D1*
X520294Y875896D1*
X529517D1*
X538626Y874453D1*
X547398Y871603D1*
X555616Y867416D1*
X563077Y861995D1*
X569599Y855474D1*
X571976Y852458D1*
X777781Y852455D1*
X783345Y858862D1*
X790358Y864852D1*
X798222Y869671D1*
X806743Y873201D1*
X815711Y875354D1*
X824906Y876077D1*
X833330Y875445D1*
X837279Y883202D1*
Y932471D1*
X780193Y932455D1*
Y938376D1*
X497182Y938469D1*
X491733Y939332D1*
X486487Y941037D1*
X481572Y943541D1*
X477109Y946783D1*
X473209Y950684D1*
X469966Y955147D1*
X467462Y960062D1*
X465757Y965308D1*
X464894Y970756D1*
X464786Y973525D1*
X462259Y981513D1*
X454944D1*
Y1103001D1*
X466104D1*
X468618Y1109400D1*
X471500Y1114103D1*
X475090Y1118305D1*
X482720Y1125936D1*
X477470Y1128960D1*
X473980Y1131940D1*
X470999Y1135430D1*
X468601Y1139344D1*
X466845Y1143584D1*
X465773Y1148047D1*
X465413Y1152622D1*
X465503Y1296649D1*
X466221Y1301182D1*
X467640Y1305547D1*
X469723Y1309636D1*
X472421Y1313349D1*
X475666Y1316595D1*
X479379Y1319292D1*
X483469Y1321376D1*
X487834Y1322794D1*
X492367Y1323512D1*
X561591Y1323602D1*
X566166Y1323242D1*
X570629Y1322171D1*
X572791Y1321372D1*
X574020Y1321376D1*
X578385Y1322794D1*
X582927Y1323513D1*
X583523Y1324538D1*
X583632Y1359772D1*
X584495Y1365221D1*
X586199Y1370467D1*
X588704Y1375382D1*
X591946Y1379845D1*
X619414Y1407466D1*
X623609Y1411049D1*
X628312Y1413931D1*
X633409Y1416042D1*
X638773Y1417330D1*
X644283Y1417762D1*
X675742D1*
X675813Y1454589D1*
X676531Y1459122D1*
X677949Y1463487D1*
X680033Y1467576D1*
X682731Y1471289D1*
X685976Y1474534D1*
X689689Y1477232D1*
X693778Y1479316D1*
X698143Y1480734D1*
X702676Y1481452D1*
X787648Y1481542D1*
X809628Y1481452D1*
X814161Y1480734D1*
X818526Y1479316D1*
X822615Y1477232D1*
X826328Y1474534D1*
X829574Y1471289D1*
X832271Y1467576D1*
X834355Y1463487D1*
X835773Y1459122D1*
X836491Y1454589D1*
X836581Y1369617D1*
X836491Y1310629D1*
X835773Y1306096D1*
X834355Y1301731D1*
X832271Y1297642D1*
X829574Y1293929D1*
X826321Y1290678D1*
X827675Y1289888D1*
X891083D1*
X891117Y1309573D1*
X900303D1*
X891117Y1215865D2*
Y1219597D1*
X778986Y1219690D1*
X773537Y1220553D1*
X768291Y1222257D1*
X763376Y1224762D1*
X758913Y1228004D1*
X731295Y1255469D1*
X727712Y1259664D1*
X724830Y1264367D1*
X722719Y1269463D1*
X721431Y1274827D1*
X720999Y1280337D1*
X715470Y1283676D1*
X702676Y1283766D1*
X698143Y1284484D1*
X693778Y1285902D1*
X689689Y1287986D1*
X685976Y1290683D1*
X682725Y1293936D1*
X681390Y1294354D1*
X681300Y1150327D1*
X680582Y1145794D1*
X679163Y1141429D1*
X677080Y1137340D1*
X674382Y1133627D1*
X671137Y1130382D1*
X669326Y1128955D1*
X670543Y1128594D1*
X854163D1*
X849360Y1132833D1*
X844373Y1138672D1*
X840361Y1145219D1*
X837423Y1152313D1*
X835630Y1159779D1*
X835028Y1167434D1*
X835630Y1175089D1*
X837423Y1182555D1*
X840361Y1189649D1*
X844373Y1196196D1*
X849360Y1202035D1*
X855199Y1207022D1*
X861746Y1211034D1*
X868840Y1213972D1*
X876306Y1215765D1*
X883961Y1216367D1*
X891124Y1215823D1*
X1853674Y1719718D2*
X1948193D1*
Y1627101D1*
X2031168Y1627132D1*
Y1621211D1*
X2213919Y1621227D1*
X2209875Y1627967D1*
X2206345Y1636488D1*
X2204192Y1645456D1*
X2203469Y1654651D1*
X2204192Y1663845D1*
X2206345Y1672814D1*
X2209875Y1681334D1*
X2214694Y1689198D1*
X2220683Y1696212D1*
X2227697Y1702201D1*
X2231369Y1704655D1*
X2224072Y1709958D1*
X2217551Y1716479D1*
X2212130Y1723941D1*
X2207943Y1732158D1*
X2205092Y1740930D1*
X2203650Y1750039D1*
Y1759262D1*
X2205185Y1768701D1*
X1858736Y1768712D1*
X1853698Y1763708D1*
X1853705Y1719749D1*
X1333634Y682148D2*
Y676837D1*
X1339551Y674966D1*
X1344466Y672462D1*
X1348929Y669219D1*
X1364734Y653568D1*
X1432045Y653547D1*
X1437337Y657982D1*
X1439221Y659241D1*
X1416286Y682157D1*
X1333656Y682138D1*
X1110469Y1407251D2*
X1220977Y1407250D1*
X1220957Y1446955D1*
X1039621Y1446962D1*
X1039476Y1473244D1*
X1039628Y1297301D1*
X1042001Y1304604D1*
X1045486Y1311445D1*
X1050000Y1317657D1*
X1055429Y1323087D1*
X1061641Y1327600D1*
X1068483Y1331086D1*
X1075786Y1333459D1*
X1083370Y1334660D1*
X1091048D1*
X1098632Y1333459D1*
X1101275Y1332713D1*
X1101282Y1407251D1*
X1110469D1*
X2179608Y807145D2*
Y783502D1*
X2085104D1*
X2087815Y775371D1*
X2090124Y773062D1*
X2121278Y772959D1*
X2126726Y772096D1*
X2131972Y770392D1*
X2136887Y767887D1*
X2141350Y764645D1*
X2145251Y760744D1*
X2148493Y756282D1*
X2150997Y751367D1*
X2151956Y748767D1*
X2159482Y747476D1*
X2169422D1*
X2169639Y697574D1*
X2302116Y830052D1*
X2302104Y845154D1*
X2296028Y850406D1*
X2296033Y833497D1*
X2228176D1*
X2210093Y815547D1*
X2205630Y812305D1*
X2200715Y809801D1*
X2195469Y808096D1*
X2190021Y807233D1*
X2179619Y807125D1*
X2014843Y783502D2*
X1995127D1*
Y856311D1*
X1973281Y856338D1*
X1968014Y851904D1*
X1961467Y847892D1*
X1954373Y844954D1*
X1948570Y843492D1*
X1964877Y827019D1*
X1968119Y822557D1*
X1970624Y817642D1*
X1972328Y812395D1*
X1973191Y806947D1*
X1973299Y749071D1*
Y738700D1*
X1978304Y733691D1*
X2000661Y733697D1*
X2000689Y747476D1*
X2018644Y747545D1*
X2016533Y752642D1*
X2015245Y758006D1*
X2014813Y763516D1*
X2014812Y783492D1*
X2185668Y1188278D2*
Y1169833D1*
X2192066Y1167319D1*
X2196770Y1164437D1*
X2200971Y1160847D1*
X2205324Y1161943D1*
X2212786Y1167364D1*
X2221004Y1171551D1*
X2229775Y1174401D1*
X2238885Y1175844D1*
X2248108D1*
X2257217Y1174401D1*
X2259143Y1173858D1*
X2259129Y1355596D1*
X2250818Y1355631D1*
Y1500895D1*
X2077161Y1500920D1*
X2080594Y1494171D1*
X2082967Y1486868D1*
X2084168Y1479284D1*
Y1471606D1*
X2082967Y1464022D1*
X2080594Y1456719D1*
X2077108Y1449877D1*
X2072595Y1443665D1*
X2067165Y1438236D1*
X2064608Y1436220D1*
X2060243Y1430901D1*
X2050576Y1421234D1*
X2142472Y1421119D1*
X2147921Y1420256D1*
X2153167Y1418551D1*
X2158082Y1416047D1*
X2162545Y1412805D1*
X2190164Y1385338D1*
X2193747Y1381144D1*
X2196629Y1376440D1*
X2198740Y1371344D1*
X2200028Y1365980D1*
X2200460Y1360470D1*
X2200352Y1214888D1*
X2199489Y1209439D1*
X2197784Y1204193D1*
X2195280Y1199278D1*
X2192038Y1194815D1*
X2190156Y1192781D1*
X597988Y1103001D2*
X599962D1*
X602476Y1109400D1*
X605358Y1114104D1*
X608941Y1118298D1*
X613144Y1121887D1*
X606210Y1123374D1*
X582918Y1123464D1*
X578385Y1124182D1*
X574012Y1125604D1*
X572783Y1125600D1*
X568418Y1124182D1*
X563876Y1123464D1*
X563280Y1122438D1*
X562847Y1116128D1*
X561559Y1110764D1*
X559448Y1105668D1*
X556566Y1100964D1*
X552983Y1096770D1*
X544940Y1088726D1*
X544936Y1008662D1*
X588825Y1008668D1*
X588802Y1103001D1*
X597988D1*
X678794Y1058253D2*
Y1008662D1*
X780159Y1008668D1*
X780193Y1058321D1*
X678776Y1058287D1*
X836582Y2067517D2*
Y1939159D1*
X843632Y1936874D1*
X850473Y1933388D1*
X856685Y1928875D1*
X862115Y1923445D1*
X866628Y1917233D1*
X870114Y1910392D1*
X872487Y1903089D1*
X873688Y1895505D1*
Y1887827D1*
X872487Y1880243D1*
X870114Y1872940D1*
X866628Y1866098D1*
X862115Y1859886D1*
X856685Y1854457D1*
X850473Y1849944D1*
X843632Y1846458D1*
X836329Y1844085D1*
X828745Y1842884D1*
X821067D1*
X813483Y1844085D1*
X806180Y1846458D1*
X805021Y1846992D1*
X804934Y1840581D1*
X803733Y1832997D1*
X801360Y1825694D1*
X797875Y1818852D1*
X793361Y1812640D1*
X787932Y1807211D1*
X781720Y1802698D1*
X774878Y1799212D1*
X767575Y1796839D1*
X759991Y1795638D1*
X752313D1*
X744729Y1796839D1*
X737426Y1799212D1*
X730585Y1802698D1*
X724373Y1807211D1*
X718943Y1812640D1*
X714430Y1818852D1*
X710944Y1825694D1*
X708571Y1832997D1*
X707370Y1840581D1*
Y1848259D1*
X708571Y1855843D1*
X710944Y1863146D1*
X714430Y1869987D1*
X718943Y1876199D1*
X722907Y1880274D1*
X721431Y1886167D1*
X720999Y1891666D1*
Y1903328D1*
X702676Y1903451D1*
X698143Y1904169D1*
X693778Y1905587D1*
X689689Y1907671D1*
X685976Y1910368D1*
X682731Y1913614D1*
X680033Y1917327D1*
X677949Y1921416D1*
X676531Y1925781D1*
X675813Y1930314D1*
X675723Y1987727D1*
X675813Y2078998D1*
X676531Y2083531D1*
X677949Y2087896D1*
X680033Y2091985D1*
X682731Y2095698D1*
X685976Y2098944D1*
X689689Y2101641D1*
X693778Y2103725D1*
X698143Y2105143D1*
X702676Y2105861D1*
X787648Y2105951D1*
X809628Y2105861D1*
X814161Y2105143D1*
X818526Y2103725D1*
X822615Y2101642D1*
X826329Y2098944D1*
X829574Y2095699D1*
X832272Y2091986D1*
X834355Y2087896D1*
X835773Y2083531D1*
X836491Y2078998D1*
X836582Y2067517D1*
X675723Y1322110D2*
Y1347480D1*
X658798Y1347455D1*
X653829Y1342451D1*
X653831Y1323534D1*
X658970Y1322794D1*
X663334Y1321376D1*
X667424Y1319292D1*
X671137Y1316595D1*
X674388Y1313342D1*
X675723Y1312924D1*
Y1322110D1*
X810822Y1544842D2*
X809476Y1536343D1*
X806816Y1528159D1*
X802910Y1520491D1*
X797852Y1513530D1*
X791767Y1507445D1*
X784805Y1502387D1*
X777138Y1498480D1*
X768954Y1495821D1*
X760455Y1494475D1*
X751850D1*
X743350Y1495821D1*
X735166Y1498480D1*
X727499Y1502387D1*
X720537Y1507445D1*
X714453Y1513530D1*
X709395Y1520491D1*
X705488Y1528159D1*
X702829Y1536343D1*
X701483Y1544842D1*
Y1553447D1*
X702829Y1561946D1*
X705488Y1570130D1*
X709395Y1577797D1*
X714453Y1584759D1*
X720537Y1590844D1*
X727499Y1595902D1*
X735166Y1599809D1*
X743350Y1602468D1*
X751850Y1603814D1*
X760455D1*
X768954Y1602468D1*
X777138Y1599809D1*
X784805Y1595902D1*
X791767Y1590844D1*
X797852Y1584759D1*
X802910Y1577797D1*
X806816Y1570130D1*
X809476Y1561946D1*
X810822Y1553447D1*
Y1544842D1*
X1503108Y586390D2*
X1509849Y584113D1*
X1518067Y579925D1*
X1525529Y574504D1*
X1532050Y567983D1*
X1537361Y560686D1*
X1542664Y567983D1*
X1549185Y574504D1*
X1556647Y579925D1*
X1564865Y584113D1*
X1573636Y586963D1*
X1582745Y588405D1*
X1591968D1*
X1601078Y586963D1*
X1609849Y584113D1*
X1618067Y579925D1*
X1625529Y574504D1*
X1632050Y567983D1*
X1637361Y560686D1*
X1639974Y564571D1*
X1622899Y581788D1*
X1619657Y586251D1*
X1617152Y591166D1*
X1615448Y596412D1*
X1614585Y601861D1*
X1614476Y622668D1*
X1514875Y622610D1*
X1514881Y614555D1*
X1513680Y606971D1*
X1511307Y599668D1*
X1507821Y592826D1*
X1503135Y586427D1*
X1778932Y587954D2*
X1787357Y588587D1*
X1796551Y587863D1*
X1802136Y586664D1*
X1802146Y643348D1*
X1719469Y643361D1*
Y741227D1*
X1725605D1*
X1722789Y749617D1*
X1721588Y757201D1*
Y764879D1*
X1722789Y772463D1*
X1725162Y779766D1*
X1725658Y780842D1*
X1717655Y780846D1*
Y794662D1*
X1654265Y794626D1*
X1654272Y748476D1*
X1691674Y748460D1*
Y648626D1*
X1684748D1*
X1684783Y619203D1*
X1689788Y614176D1*
X1740902Y614069D1*
X1746351Y613206D1*
X1751597Y611501D1*
X1756512Y608997D1*
X1760975Y605755D1*
X1778911Y587972D1*
X1878932Y587954D2*
X1887357Y588587D1*
X1896551Y587863D1*
X1905520Y585710D1*
X1914041Y582180D1*
X1921904Y577361D1*
X1928918Y571372D1*
X1934907Y564358D1*
X1937361Y560686D1*
X1942664Y567983D1*
X1949185Y574504D1*
X1956647Y579925D1*
X1964865Y584113D1*
X1973636Y586963D1*
X1982745Y588405D1*
X1991968D1*
X2001078Y586963D1*
X2009849Y584113D1*
X2016447Y580833D1*
X2016437Y649628D1*
X2000689Y649610D1*
Y663354D1*
X1960978Y663498D1*
X1955530Y664361D1*
X1950284Y666066D1*
X1945369Y668570D1*
X1940906Y671812D1*
X1913288Y699276D1*
X1909706Y703471D1*
X1906824Y708174D1*
X1904713Y713271D1*
X1903425Y718635D1*
X1902992Y724134D1*
Y789622D1*
X1897988Y794632D1*
X1886396Y794626D1*
X1886387Y780846D1*
X1815085D1*
X1816908Y776161D1*
X1818700Y768695D1*
X1819303Y761040D1*
X1818700Y753385D1*
X1816908Y745919D1*
X1815082Y741237D1*
X1888201Y741227D1*
Y643361D1*
X1872448D1*
X1872453Y594438D1*
X1878929Y587954D1*
X2370669Y1596508D2*
X2362244Y1595875D1*
X2353819Y1596508D1*
X2321225Y1563917D1*
X2324608Y1560931D1*
X2328191Y1556736D1*
X2331073Y1552033D1*
X2333184Y1546937D1*
X2334472Y1541573D1*
X2334904Y1536063D1*
Y1524339D1*
X2348684Y1524363D1*
Y1446131D1*
X2375789Y1446122D1*
X2375805Y1528799D1*
X2389548D1*
X2389584Y1577620D1*
X2370675Y1596506D1*
X2324827Y949681D2*
X2332646Y950867D1*
X2341869D1*
X2345682Y950416D1*
X2428942Y1033673D1*
X2428956Y1360061D1*
X2375805Y1360067D1*
Y1375820D1*
X2348699Y1375815D1*
X2348684Y1355631D1*
X2329414D1*
X2329436Y1176049D1*
X2402272Y1176025D1*
Y1058473D1*
X2329463D1*
X2329328Y964320D1*
X2328465Y958871D1*
X2326760Y953625D1*
X2325600Y951109D1*
X1253197Y1963251D2*
X1248262Y1957468D1*
X1253927Y1960856D1*
X1259542Y1963249D1*
X1542519Y1613290D2*
Y1538750D1*
X1616705Y1612811D1*
X1613151Y1613290D1*
X1542495D1*
X1538416Y1228831D2*
X1538393Y1275803D1*
X1510067Y1275825D1*
X1513909Y1268411D1*
X1516282Y1261108D1*
X1517483Y1253524D1*
Y1245846D1*
X1516282Y1238262D1*
X1513909Y1230959D1*
X1510423Y1224117D1*
X1509764Y1223132D1*
X1509760Y1105054D1*
X1466735D1*
X1470051Y1098479D1*
X1472424Y1091176D1*
X1473625Y1083593D1*
Y1075914D1*
X1473408Y1074081D1*
X1499620Y1074082D1*
X1504900Y1078517D1*
X1511447Y1082529D1*
X1518541Y1085467D1*
X1526007Y1087259D1*
X1533662Y1087862D1*
X1541317Y1087259D1*
X1548783Y1085467D1*
X1555877Y1082529D1*
X1559766Y1080293D1*
X1556003Y1086161D1*
X1553892Y1091257D1*
X1552605Y1096621D1*
X1552172Y1102120D1*
Y1161867D1*
X1538393Y1161901D1*
Y1228825D1*
X1818570Y1250912D2*
Y1245014D1*
X1801668D1*
X1804574Y1239120D1*
X1806947Y1231817D1*
X1808148Y1224233D1*
Y1216555D1*
X1806947Y1208971D1*
X1804574Y1201668D1*
X1801088Y1194826D1*
X1796575Y1188614D1*
X1791145Y1183185D1*
X1784933Y1178672D1*
X1780150Y1176134D1*
X1780148Y1143153D1*
X1827159D1*
X1827143Y1251183D1*
X1818589Y1250920D1*
X2014697Y1245014D2*
X1936829D1*
X1936823Y1207576D1*
X1939626Y1207149D1*
X1945055Y1212579D1*
X1951267Y1217092D1*
X1958109Y1220578D1*
X1965412Y1222951D1*
X1972996Y1224152D1*
X1979309Y1224206D1*
X1985313Y1226237D1*
X1990762Y1227100D1*
X2048638Y1227208D1*
X2125179D1*
X2130159Y1232213D1*
X2130153Y1345932D1*
X2125149Y1350924D1*
X2108459Y1350920D1*
X2109759Y1343064D1*
Y1335386D1*
X2108558Y1327802D1*
X2106185Y1320499D1*
X2102699Y1313657D1*
X2098186Y1307445D1*
X2092756Y1302016D1*
X2088528Y1298828D1*
X2089625Y1293730D1*
X2090228Y1286075D1*
X2089625Y1278420D1*
X2087833Y1270954D1*
X2084894Y1263860D1*
X2080882Y1257313D1*
X2075896Y1251474D1*
X2070057Y1246487D1*
X2063510Y1242475D1*
X2056416Y1239537D1*
X2048950Y1237744D1*
X2041295Y1237142D1*
X2033640Y1237744D1*
X2026174Y1239537D1*
X2019080Y1242475D1*
X2014741Y1245011D1*
X977272Y805156D2*
X1063859D1*
X1066099Y807027D1*
Y840589D1*
X1083574D1*
X1083547Y892455D1*
X1077642D1*
Y1029692D1*
X1283801D1*
X1283547Y1033910D1*
Y1105068D1*
X1077642Y1105054D1*
Y1237875D1*
X1072088Y1239340D1*
X1064994Y1242278D1*
X1058447Y1246290D1*
X1052608Y1251277D1*
X1047621Y1257116D1*
X1043609Y1263663D1*
X1040671Y1270757D1*
X1039478Y1275205D1*
X1039368Y1077058D1*
X1038505Y1071609D1*
X1036800Y1066363D1*
X1034296Y1061448D1*
X1031054Y1056985D1*
X1013880Y1039658D1*
X1013777Y911576D1*
X1012914Y906127D1*
X1011209Y900881D1*
X1008705Y895966D1*
X1005463Y891503D1*
X972557Y858444D1*
X972661Y804796D1*
X977245Y805156D1*
X775316Y676077D2*
X783031D1*
X777355Y682754D1*
X772536Y690618D1*
X769007Y699139D1*
X766854Y708107D1*
X766130Y717302D1*
X766854Y726496D1*
X769007Y735464D1*
X772536Y743985D1*
X777355Y751849D1*
X783345Y758862D1*
X790358Y764852D1*
X794030Y767306D1*
X786734Y772609D1*
X780212Y779130D1*
X777835Y782146D1*
X572030Y782148D1*
X566466Y775741D1*
X559453Y769751D1*
X555781Y767298D1*
X563077Y761995D1*
X569599Y755474D1*
X575020Y748012D1*
X579207Y739794D1*
X582057Y731023D1*
X583500Y721913D1*
Y712690D1*
X582057Y703581D1*
X579207Y694809D1*
X575020Y686592D1*
X569599Y679130D1*
X563077Y672609D1*
X555781Y667298D1*
X563077Y661995D1*
X569599Y655474D1*
X571976Y652458D1*
X766155Y652455D1*
X766130Y676077D1*
X775316D1*
X1427644Y892455D2*
X1403888D1*
X1403854Y836161D1*
X1408859Y831179D1*
X1501405Y831186D1*
X1506695Y835620D1*
X1513528Y839763D1*
X1505541Y842983D1*
X1498994Y846995D1*
X1493155Y851982D1*
X1488168Y857821D1*
X1484156Y864368D1*
X1481218Y871462D1*
X1479425Y878928D1*
X1478823Y886583D1*
X1479215Y892464D1*
X1427642Y892491D1*
X2046617Y1900489D2*
X2045310Y1892236D1*
X2042728Y1884290D1*
X2038934Y1876845D1*
X2034023Y1870085D1*
X2028115Y1864177D1*
X2021355Y1859265D1*
X2013910Y1855472D1*
X2005963Y1852890D1*
X1997711Y1851583D1*
X1989355D1*
X1981102Y1852890D1*
X1973156Y1855472D1*
X1965711Y1859265D1*
X1958951Y1864177D1*
X1953043Y1870085D1*
X1948131Y1876845D1*
X1944338Y1884290D1*
X1941756Y1892236D1*
X1940449Y1900489D1*
Y1908844D1*
X1941756Y1917097D1*
X1944338Y1925044D1*
X1948131Y1932489D1*
X1953043Y1939248D1*
X1958951Y1945157D1*
X1965711Y1950068D1*
X1973156Y1953861D1*
X1981102Y1956443D1*
X1989355Y1957751D1*
X1997711D1*
X2005963Y1956443D1*
X2013910Y1953861D1*
X2021355Y1950068D1*
X2028115Y1945157D1*
X2034023Y1939248D1*
X2038934Y1932489D1*
X2042728Y1925044D1*
X2045310Y1917097D1*
X2046617Y1908844D1*
Y1900489D1*
X1532784Y692943D2*
Y747184D1*
X1527802Y747701D1*
X1520336Y749494D1*
X1513242Y752432D1*
X1506695Y756444D1*
X1501462Y760871D1*
X1475494Y760878D1*
X1475511Y752823D1*
X1474310Y745239D1*
X1471937Y737936D1*
X1468451Y731094D1*
X1467776Y730084D1*
X1504974Y692898D1*
X1532773Y692917D1*
D17*
X949892Y1254735D3*
Y1179932D3*
D18*
X1818551Y1660942D3*
X1893354D3*
D17*
X1362349Y1492210D3*
Y1417407D3*
X1274858Y717291D3*
Y642488D3*
D18*
X1156121Y1348475D3*
X1230924D3*
X2124769Y842278D3*
X2049966D3*
D20*
X1199866Y1517207D3*
X1099866D3*
D18*
X2056026Y1135997D3*
X2130829D3*
D22*
X633798Y1042257D3*
X499940D3*
D80*
X756152Y2004656D3*
D83*
Y1382609D3*
D23*
X1287357Y529811D3*
D24*
X1387357D3*
X1487357D3*
X1587357D3*
X1687357D3*
X1787357D3*
X1887357D3*
X1987357D3*
D23*
X2362244Y2054651D3*
D24*
X2262244D3*
X2362244Y1954651D3*
X2262244D3*
X2362244Y1854651D3*
X2262244D3*
X2362244Y1754651D3*
X2262244D3*
X2362244Y1654651D3*
X2262244D3*
D23*
X2237257Y892273D3*
D24*
X2337257D3*
D23*
X2343496Y1117249D3*
D24*
X2243496D3*
D23*
X1106126Y1998407D3*
D24*
X1206126D3*
D17*
X1593575Y1892168D3*
Y1966971D3*
X1443591Y1892168D3*
Y1966971D3*
D86*
X618677Y1223488D3*
D89*
X528126D3*
D25*
X2049682Y998417D3*
X2116612D3*
D26*
X2299751Y1473462D3*
Y1406533D3*
X2424738Y1410969D3*
Y1477898D3*
X1493585Y1648444D3*
Y1581514D3*
X1368598Y1654693D3*
Y1587764D3*
X1587325Y1279732D3*
Y1212803D3*
D25*
X1768556Y829780D3*
X1835486D3*
X1837299Y692294D3*
X1770370D3*
D26*
X1493585Y1423467D3*
Y1490396D3*
D25*
X2118520Y698543D3*
X2051591D3*
D27*
X1749951Y1586073D3*
Y1536073D3*
Y1486073D3*
Y1436073D3*
Y1386073D3*
Y1336073D3*
Y1286073D3*
X1962550D3*
Y1336073D3*
Y1386073D3*
Y1436073D3*
Y1486073D3*
Y1536073D3*
Y1586073D3*
D29*
X1124874Y673546D3*
D92*
X1054008Y732601D3*
D29*
X1124874Y791656D3*
D31*
X1612323Y954766D3*
X1687126D3*
X1649724Y1045318D3*
D33*
X937394Y973514D3*
Y1010916D3*
Y1048318D3*
X831094D3*
Y973514D3*
D35*
X1862297Y1092252D3*
X1824895D3*
X1787493D3*
Y985953D3*
X1862297D3*
D23*
X824906Y617302D3*
D24*
Y717302D3*
Y817302D3*
X524906D3*
Y717302D3*
Y617302D3*
D36*
X1118701Y961073D3*
X1168701D3*
X1218701D3*
X1268701D3*
X1318701D3*
X1368701D3*
X1418701D3*
X1468701D3*
Y1173672D3*
X1418701D3*
X1368701D3*
X1318701D3*
X1268701D3*
X1218701D3*
X1168701D3*
X1118701D3*
D37*
X1993533Y1904667D3*
X1803533D3*
D31*
X1574827Y698543D3*
X1649630D3*
X1612228Y789094D3*
D25*
X1662318Y1167244D3*
X1729247D3*
D23*
X1287357Y2129643D3*
D24*
X1387357D3*
X1487357D3*
X1587357D3*
X1687357D3*
X1787357D3*
X1887357D3*
X1987357D3*
M02*
