G04 DipTrace 3.2.0.1*
G04 TopSilk.gbr*
%MOIN*%
G04 #@! TF.FileFunction,Legend,Top*
G04 #@! TF.Part,Single*
%ADD10C,0.009843*%
%ADD16C,0.001312*%
%ADD19C,0.015743*%
%ADD21C,0.015746*%
%ADD28C,0.01542*%
%ADD30C,0.015404*%
%ADD32C,0.015395*%
%ADD34C,0.015401*%
%ADD75C,0.00772*%
%ADD76C,0.015439*%
%ADD77C,0.006176*%
%ADD78C,0.010807*%
%ADD79C,0.012351*%
%FSLAX26Y26*%
G04*
G70*
G90*
G75*
G01*
G04 TopSilk*
%LPD*%
X924322Y1296094D2*
D10*
X975463D1*
X1777192Y1635371D2*
Y1686513D1*
X1336778Y1533570D2*
X1387920D1*
X1249287Y758651D2*
X1300429D1*
X1114761Y1322904D2*
Y1374046D1*
X2166129Y867849D2*
Y816707D1*
D19*
X1051439Y1517207D3*
X1059860Y1464333D2*
D10*
X1239866D1*
X1059860Y1570081D2*
X1239866D1*
X2014667Y1110427D2*
Y1161568D1*
X602310Y1010759D2*
X531431D1*
X602310Y1073753D2*
X531431D1*
D21*
X671200Y1042256D3*
X826155Y1706652D2*
D10*
X686149D1*
X756172Y1776614D2*
Y1636614D1*
X1237357Y579811D2*
X2037357D1*
X1237357Y479811D2*
Y579811D1*
Y479811D2*
X2037357D1*
Y579811D1*
X2387257Y842273D2*
Y942273D1*
X2187257Y842273D2*
X2387257D1*
X2187257D2*
Y942273D1*
X2387257D1*
X2193496Y1167249D2*
Y1067249D1*
X2393496Y1167249D2*
X2193496D1*
X2393496D2*
Y1067249D1*
X2193496D1*
X1256126Y1948407D2*
Y2048407D1*
X1056126Y1948407D2*
X1256126D1*
X1056126D2*
Y2048407D1*
X1256126D1*
X1619146Y1850808D2*
X1568004D1*
X1469161D2*
X1418020D1*
X1805062Y1605370D2*
Y1266777D1*
X1907439Y1605370D2*
Y1266777D1*
X1805062D2*
X1907439D1*
X1805062Y1605370D2*
X1836556D1*
X1875945D2*
X1907439D1*
X1836556D2*
G03X1875945Y1605370I19694J-12D01*
G01*
X1085491Y644018D2*
X987085D1*
Y673558D1*
Y791643D2*
Y821184D1*
X1085491D1*
D28*
X1144121Y634921D3*
D30*
X1581474Y940058D3*
X1590675Y990199D2*
D10*
X1708780D1*
Y1009885D1*
X1590675D1*
Y990199D1*
D32*
X954019Y946601D3*
X899954Y951863D2*
D10*
Y1069971D1*
X868463Y951863D2*
Y1069971D1*
X899954D2*
X868463D1*
X899954Y951863D2*
X868463D1*
D34*
X1889210Y1108877D3*
X1883948Y1054812D2*
D10*
X1765840D1*
X1883948Y1023321D2*
X1765840D1*
Y1054812D2*
Y1023321D1*
X1883948Y1054812D2*
Y1023321D1*
X777272Y902341D2*
X572539D1*
X777272Y532262D2*
Y902341D1*
X572539Y532262D2*
Y902341D1*
X777272Y532262D2*
X698531D1*
X572539D2*
X651280D1*
X698531D2*
G03X651280Y532262I-23626J-15D01*
G01*
X1096866Y1016185D2*
X1490535D1*
X1096866Y1118561D2*
X1490535D1*
Y1016185D2*
Y1118561D1*
X1096866Y1016185D2*
Y1047678D1*
Y1087067D2*
Y1118561D1*
Y1047678D2*
G03X1096866Y1087067I-11J19694D01*
G01*
X2038197Y1997541D2*
X1758869D1*
X2038197Y1811793D2*
X1758869D1*
X2038197D2*
G03X2038197Y1997541I-8216J92874D01*
G01*
X1758869D2*
G03X1758869Y1811793I8216J-92874D01*
G01*
D30*
X1543978Y683834D3*
X1553179Y733976D2*
D10*
X1671283D1*
Y753662D1*
X1553179D1*
Y733976D1*
X1237357Y2179643D2*
X2037357D1*
X1237357Y2079643D2*
Y2179643D1*
Y2079643D2*
X2037357D1*
Y2179643D1*
X449953Y1690601D2*
D16*
G02X449953Y1690601I295276J0D01*
G01*
X859080Y1229437D2*
D75*
X854327Y1227060D1*
X849518Y1222252D1*
X847142Y1217498D1*
Y1207937D1*
X849518Y1203128D1*
X854327Y1198375D1*
X859080Y1195943D1*
X866265Y1193567D1*
X878259D1*
X885388Y1195943D1*
X890197Y1198375D1*
X894950Y1203128D1*
X897382Y1207937D1*
Y1217498D1*
X894950Y1222251D1*
X890197Y1227060D1*
X885388Y1229437D1*
X856759Y1244876D2*
X854327Y1249684D1*
X847197Y1256869D1*
X897382D1*
X1841537Y1751755D2*
X1839160Y1756508D1*
X1834352Y1761316D1*
X1829599Y1763693D1*
X1820037D1*
X1815229Y1761316D1*
X1810475Y1756508D1*
X1808044Y1751755D1*
X1805667Y1744570D1*
Y1732576D1*
X1808044Y1725446D1*
X1810475Y1720638D1*
X1815229Y1715885D1*
X1820037Y1713453D1*
X1829599D1*
X1834352Y1715885D1*
X1839160Y1720638D1*
X1841537Y1725446D1*
X1859408Y1751699D2*
Y1754076D1*
X1861785Y1758884D1*
X1864161Y1761261D1*
X1868970Y1763638D1*
X1878531D1*
X1883284Y1761261D1*
X1885661Y1758884D1*
X1888093Y1754076D1*
Y1749323D1*
X1885661Y1744514D1*
X1880908Y1737385D1*
X1856976Y1713453D1*
X1890469D1*
X1271537Y1456162D2*
X1266784Y1453785D1*
X1261975Y1448977D1*
X1259598Y1444223D1*
Y1434662D1*
X1261975Y1429853D1*
X1266783Y1425100D1*
X1271537Y1422668D1*
X1278722Y1420292D1*
X1290715D1*
X1297845Y1422668D1*
X1302653Y1425100D1*
X1307407Y1429853D1*
X1309839Y1434662D1*
Y1444223D1*
X1307407Y1448977D1*
X1302653Y1453785D1*
X1297845Y1456162D1*
X1259654Y1476409D2*
Y1502662D1*
X1278777Y1488348D1*
Y1495533D1*
X1281154Y1500286D1*
X1283530Y1502662D1*
X1290715Y1505094D1*
X1295468D1*
X1302653Y1502662D1*
X1307462Y1497909D1*
X1309838Y1490724D1*
Y1483539D1*
X1307462Y1476409D1*
X1305030Y1474033D1*
X1300277Y1471601D1*
X1184046Y680055D2*
X1179293Y677678D1*
X1174484Y672870D1*
X1172108Y668117D1*
Y658555D1*
X1174484Y653746D1*
X1179293Y648993D1*
X1184046Y646561D1*
X1191231Y644185D1*
X1203224D1*
X1210354Y646561D1*
X1215163Y648993D1*
X1219916Y653746D1*
X1222348Y658555D1*
Y668116D1*
X1219916Y672870D1*
X1215163Y677678D1*
X1210354Y680055D1*
X1222348Y719426D2*
X1172163D1*
X1205601Y695494D1*
Y731364D1*
X1179106Y1439287D2*
X1176730Y1444041D1*
X1171921Y1448849D1*
X1167168Y1451226D1*
X1157607D1*
X1152798Y1448849D1*
X1148045Y1444041D1*
X1145613Y1439287D1*
X1143237Y1432102D1*
Y1420109D1*
X1145613Y1412979D1*
X1148045Y1408171D1*
X1152798Y1403418D1*
X1157607Y1400986D1*
X1167168D1*
X1171921Y1403418D1*
X1176730Y1408171D1*
X1179106Y1412979D1*
X1223231Y1451170D2*
X1199354D1*
X1196978Y1429671D1*
X1199354Y1432047D1*
X1206539Y1434479D1*
X1213669D1*
X1220854Y1432047D1*
X1225662Y1427294D1*
X1228039Y1420109D1*
Y1415356D1*
X1225662Y1408171D1*
X1220854Y1403362D1*
X1213669Y1400986D1*
X1206539D1*
X1199354Y1403362D1*
X1196978Y1405794D1*
X1194546Y1410547D1*
X2089937Y933091D2*
X2087560Y937844D1*
X2082752Y942652D1*
X2077998Y945029D1*
X2068437D1*
X2063628Y942652D1*
X2058875Y937844D1*
X2056443Y933091D1*
X2054067Y925906D1*
Y913912D1*
X2056443Y906782D1*
X2058875Y901974D1*
X2063628Y897221D1*
X2068437Y894789D1*
X2077998D1*
X2082752Y897221D1*
X2087560Y901974D1*
X2089937Y906782D1*
X2134061Y937844D2*
X2131684Y942597D1*
X2124499Y944974D1*
X2119746D1*
X2112561Y942597D1*
X2107752Y935412D1*
X2105376Y923474D1*
Y911536D1*
X2107752Y901974D1*
X2112561Y897165D1*
X2119746Y894789D1*
X2122122D1*
X2129252Y897165D1*
X2134061Y901974D1*
X2136437Y909159D1*
Y911536D1*
X2134061Y918721D1*
X2129252Y923474D1*
X2122122Y925850D1*
X2119746D1*
X2112561Y923474D1*
X2107752Y918721D1*
X2105376Y911536D1*
X1135185Y1631366D2*
X1132809Y1636119D1*
X1128000Y1640928D1*
X1123247Y1643304D1*
X1113685D1*
X1108877Y1640928D1*
X1104124Y1636119D1*
X1101692Y1631366D1*
X1099315Y1624181D1*
Y1612188D1*
X1101692Y1605058D1*
X1104124Y1600249D1*
X1108877Y1595496D1*
X1113685Y1593064D1*
X1123247D1*
X1128000Y1595496D1*
X1132809Y1600249D1*
X1135185Y1605058D1*
X1160186Y1593064D2*
X1184118Y1643249D1*
X1150624D1*
X2079040Y1226810D2*
X2076663Y1231563D1*
X2071855Y1236371D1*
X2067101Y1238748D1*
X2057540D1*
X2052731Y1236371D1*
X2047978Y1231563D1*
X2045546Y1226810D1*
X2043170Y1219625D1*
Y1207631D1*
X2045546Y1200501D1*
X2047978Y1195693D1*
X2052731Y1190940D1*
X2057540Y1188508D1*
X2067101D1*
X2071855Y1190940D1*
X2076663Y1195693D1*
X2079040Y1200501D1*
X2106417Y1238693D2*
X2099287Y1236316D1*
X2096855Y1231563D1*
Y1226755D1*
X2099287Y1222001D1*
X2104040Y1219569D1*
X2113602Y1217193D1*
X2120787Y1214816D1*
X2125540Y1210008D1*
X2127917Y1205255D1*
Y1198070D1*
X2125540Y1193316D1*
X2123164Y1190885D1*
X2115979Y1188508D1*
X2106417D1*
X2099287Y1190885D1*
X2096855Y1193316D1*
X2094479Y1198070D1*
Y1205255D1*
X2096855Y1210008D1*
X2101664Y1214816D1*
X2108794Y1217193D1*
X2118355Y1219569D1*
X2123164Y1222001D1*
X2125540Y1226755D1*
Y1231563D1*
X2123164Y1236316D1*
X2115979Y1238693D1*
X2106417D1*
X551170Y1146976D2*
Y1096736D1*
X567916D1*
X575101Y1099168D1*
X579910Y1103921D1*
X582286Y1108730D1*
X584663Y1115860D1*
Y1127853D1*
X582286Y1135038D1*
X579910Y1139791D1*
X575101Y1144600D1*
X567916Y1146976D1*
X551170D1*
X600102Y1137359D2*
X604911Y1139791D1*
X612096Y1146921D1*
Y1096736D1*
X1572894Y653034D2*
Y602794D1*
X1601579D1*
X1652888Y641096D2*
X1650511Y645849D1*
X1645703Y650658D1*
X1640949Y653034D1*
X1631388D1*
X1626579Y650658D1*
X1621826Y645849D1*
X1619394Y641096D1*
X1617018Y633911D1*
Y621917D1*
X1619394Y614788D1*
X1621826Y609979D1*
X1626579Y605226D1*
X1631388Y602794D1*
X1640949D1*
X1645703Y605226D1*
X1650511Y609979D1*
X1652888Y614788D1*
X1668327Y653034D2*
Y602794D1*
X1685074D1*
X1692259Y605226D1*
X1697067Y609979D1*
X1699444Y614788D1*
X1701820Y621917D1*
Y633911D1*
X1699444Y641096D1*
X1697067Y645849D1*
X1692259Y650658D1*
X1685074Y653034D1*
X1668327D1*
X2249637Y799006D2*
X2271192D1*
X2278322Y801383D1*
X2280754Y803814D1*
X2283130Y808568D1*
Y815753D1*
X2280754Y820506D1*
X2278322Y822938D1*
X2271192Y825314D1*
X2249637D1*
Y775074D1*
X2298569Y825314D2*
Y775074D1*
Y799006D2*
X2305754Y806191D1*
X2310563Y808568D1*
X2317748D1*
X2322501Y806191D1*
X2324878Y799006D1*
Y775074D1*
X2231437Y1240472D2*
Y1190232D1*
X2260122D1*
X2306623Y1240472D2*
X2275561D1*
Y1190232D1*
X2306623D1*
X2275561Y1216541D2*
X2294684D1*
X2322062Y1240472D2*
Y1190232D1*
X2338808D1*
X2345994Y1192664D1*
X2350802Y1197417D1*
X2353179Y1202226D1*
X2355555Y1209356D1*
Y1221349D1*
X2353179Y1228534D1*
X2350802Y1233287D1*
X2345994Y1238096D1*
X2338808Y1240472D1*
X2322062D1*
X1120348Y2121630D2*
X1089231D1*
Y2071390D1*
Y2097698D2*
X1108354D1*
X1174089Y2071390D2*
X1154910Y2121630D1*
X1135787Y2071390D1*
X1142972Y2088137D2*
X1166904D1*
X1223021Y2121630D2*
Y2071390D1*
X1189528Y2121630D1*
Y2071390D1*
X1490824Y1909185D2*
X1529071D1*
X1536256Y1906808D1*
X1538632Y1904376D1*
X1541064Y1899623D1*
Y1894815D1*
X1538632Y1890061D1*
X1536256Y1887685D1*
X1529071Y1885253D1*
X1524318D1*
X1541064Y1934185D2*
X1490880Y1958117D1*
X1490879Y1924624D1*
X1340840Y1909212D2*
X1379086D1*
X1386272Y1906836D1*
X1388648Y1904404D1*
X1391080Y1899651D1*
Y1894842D1*
X1388648Y1890089D1*
X1386271Y1887713D1*
X1379086Y1885281D1*
X1374333D1*
X1340895Y1936590D2*
X1343272Y1929460D1*
X1348025Y1927028D1*
X1352833D1*
X1357587Y1929460D1*
X1360019Y1934213D1*
X1362395Y1943775D1*
X1364772Y1950960D1*
X1369580Y1955713D1*
X1374333Y1958090D1*
X1381518D1*
X1386272Y1955713D1*
X1388703Y1953336D1*
X1391080Y1946151D1*
Y1936590D1*
X1388703Y1929460D1*
X1386272Y1927028D1*
X1381518Y1924652D1*
X1374333D1*
X1369580Y1927028D1*
X1364772Y1931837D1*
X1362395Y1938966D1*
X1360019Y1948528D1*
X1357587Y1953336D1*
X1352833Y1955713D1*
X1348025D1*
X1343272Y1953336D1*
X1340895Y1946151D1*
Y1936590D1*
X545343Y1367577D2*
Y1317337D1*
X574028D1*
X589467Y1357961D2*
X594275Y1360392D1*
X601460Y1367522D1*
Y1317337D1*
X2052684Y1067394D2*
X2074184D1*
X2081369Y1069826D1*
X2083801Y1072202D1*
X2086177Y1076955D1*
Y1081764D1*
X2083801Y1086517D1*
X2081369Y1088949D1*
X2074184Y1091325D1*
X2052684D1*
Y1041085D1*
X2069431Y1067394D2*
X2086177Y1041085D1*
X2101617Y1081709D2*
X2106425Y1084140D1*
X2113610Y1091270D1*
Y1041085D1*
X2230774Y1398785D2*
Y1420284D1*
X2228342Y1427469D1*
X2225966Y1429901D1*
X2221213Y1432278D1*
X2216404D1*
X2211651Y1429901D1*
X2209219Y1427469D1*
X2206843Y1420284D1*
Y1398785D1*
X2257083D1*
X2230774Y1415531D2*
X2257083Y1432278D1*
X2218836Y1450149D2*
X2216460D1*
X2211651Y1452526D1*
X2209274Y1454902D1*
X2206898Y1459711D1*
Y1469272D1*
X2209274Y1474025D1*
X2211651Y1476402D1*
X2216460Y1478834D1*
X2221213D1*
X2226021Y1476402D1*
X2233151Y1471649D1*
X2257083Y1447717D1*
Y1481210D1*
X2355761Y1403220D2*
Y1424720D1*
X2353329Y1431905D1*
X2350953Y1434337D1*
X2346200Y1436714D1*
X2341391D1*
X2336638Y1434337D1*
X2334206Y1431905D1*
X2331829Y1424720D1*
Y1403220D1*
X2382069D1*
X2355761Y1419967D2*
X2382069Y1436713D1*
X2331885Y1456961D2*
Y1483214D1*
X2351008Y1468899D1*
Y1476084D1*
X2353385Y1480838D1*
X2355761Y1483214D1*
X2362946Y1485646D1*
X2367699D1*
X2374884Y1483214D1*
X2379693Y1478461D1*
X2382069Y1471276D1*
Y1464091D1*
X2379693Y1456961D1*
X2377261Y1454585D1*
X2372508Y1452153D1*
X1424609Y1573766D2*
Y1595266D1*
X1422177Y1602451D1*
X1419801Y1604883D1*
X1415047Y1607259D1*
X1410239D1*
X1405486Y1604883D1*
X1403054Y1602451D1*
X1400677Y1595266D1*
Y1573766D1*
X1450917D1*
X1424609Y1590513D2*
X1450917Y1607259D1*
X1400733Y1651384D2*
Y1627507D1*
X1422232Y1625131D1*
X1419856Y1627507D1*
X1417424Y1634692D1*
Y1641822D1*
X1419856Y1649007D1*
X1424609Y1653815D1*
X1431794Y1656192D1*
X1436547D1*
X1443732Y1653815D1*
X1448541Y1649007D1*
X1450917Y1641822D1*
Y1634692D1*
X1448541Y1627507D1*
X1446109Y1625131D1*
X1441356Y1622699D1*
X1299622Y1581231D2*
Y1602731D1*
X1297190Y1609916D1*
X1294814Y1612348D1*
X1290060Y1614725D1*
X1285252D1*
X1280499Y1612348D1*
X1278067Y1609916D1*
X1275690Y1602731D1*
Y1581231D1*
X1325930D1*
X1299622Y1597978D2*
X1325930Y1614725D1*
X1282875Y1658849D2*
X1278122Y1656472D1*
X1275746Y1649287D1*
Y1644534D1*
X1278122Y1637349D1*
X1285307Y1632541D1*
X1297245Y1630164D1*
X1309184D1*
X1318745Y1632541D1*
X1323554Y1637349D1*
X1325930Y1644534D1*
Y1646911D1*
X1323554Y1654040D1*
X1318745Y1658849D1*
X1311560Y1661225D1*
X1309184D1*
X1301999Y1658849D1*
X1297245Y1654040D1*
X1294869Y1646911D1*
Y1644534D1*
X1297245Y1637349D1*
X1301999Y1632541D1*
X1309184Y1630164D1*
X1518349Y1205055D2*
Y1226555D1*
X1515917Y1233740D1*
X1513541Y1236172D1*
X1508787Y1238548D1*
X1503979D1*
X1499226Y1236172D1*
X1496794Y1233740D1*
X1494417Y1226555D1*
Y1205055D1*
X1544657D1*
X1518349Y1221802D2*
X1544657Y1238548D1*
Y1263549D2*
X1494473Y1287481D1*
Y1253987D1*
X1760836Y898756D2*
X1782336D1*
X1789521Y901188D1*
X1791952Y903564D1*
X1794329Y908318D1*
Y913126D1*
X1791952Y917879D1*
X1789521Y920311D1*
X1782336Y922688D1*
X1760836D1*
Y872448D1*
X1777582Y898756D2*
X1794329Y872448D1*
X1821706Y922632D2*
X1814577Y920256D1*
X1812145Y915503D1*
Y910694D1*
X1814577Y905941D1*
X1819330Y903509D1*
X1828892Y901133D1*
X1836077Y898756D1*
X1840830Y893947D1*
X1843206Y889194D1*
Y882009D1*
X1840830Y877256D1*
X1838453Y874824D1*
X1831268Y872448D1*
X1821706D1*
X1814577Y874824D1*
X1812145Y877256D1*
X1809768Y882009D1*
Y889194D1*
X1812145Y893947D1*
X1816953Y898756D1*
X1824083Y901133D1*
X1833645Y903509D1*
X1838453Y905941D1*
X1840830Y910694D1*
Y915503D1*
X1838453Y920256D1*
X1831268Y922632D1*
X1821706D1*
X1763810Y761270D2*
X1785310D1*
X1792495Y763702D1*
X1794927Y766079D1*
X1797303Y770832D1*
Y775640D1*
X1794927Y780394D1*
X1792495Y782825D1*
X1785310Y785202D1*
X1763810D1*
Y734962D1*
X1780557Y761270D2*
X1797303Y734962D1*
X1843859Y768455D2*
X1841427Y761270D1*
X1836674Y756462D1*
X1829489Y754085D1*
X1827113D1*
X1819928Y756462D1*
X1815174Y761270D1*
X1812743Y768455D1*
Y770832D1*
X1815174Y778017D1*
X1819928Y782770D1*
X1827113Y785147D1*
X1829489D1*
X1836674Y782770D1*
X1841427Y778017D1*
X1843859Y768455D1*
Y756462D1*
X1841427Y744524D1*
X1836674Y737339D1*
X1829489Y734962D1*
X1824736D1*
X1817551Y737339D1*
X1815174Y742147D1*
X1424609Y1402003D2*
Y1423502D1*
X1422177Y1430687D1*
X1419801Y1433119D1*
X1415047Y1435496D1*
X1410239D1*
X1405486Y1433119D1*
X1403054Y1430687D1*
X1400677Y1423502D1*
Y1402003D1*
X1450917D1*
X1424609Y1418749D2*
X1450917Y1435496D1*
X1410294Y1450935D2*
X1407862Y1455744D1*
X1400733Y1462929D1*
X1450917D1*
X1400733Y1492738D2*
X1403109Y1485553D1*
X1410294Y1480744D1*
X1422232Y1478368D1*
X1429417D1*
X1441356Y1480744D1*
X1448541Y1485553D1*
X1450917Y1492738D1*
Y1497491D1*
X1448541Y1504676D1*
X1441356Y1509429D1*
X1429417Y1511861D1*
X1422232D1*
X1410294Y1509429D1*
X1403109Y1504676D1*
X1400733Y1497491D1*
Y1492738D1*
X1410294Y1509429D2*
X1441356Y1480744D1*
X2040876Y767520D2*
X2062376D1*
X2069561Y769952D1*
X2071992Y772328D1*
X2074369Y777081D1*
Y781890D1*
X2071992Y786643D1*
X2069561Y789075D1*
X2062376Y791451D1*
X2040876D1*
Y741211D1*
X2057622Y767520D2*
X2074369Y741211D1*
X2089808Y781835D2*
X2094617Y784266D1*
X2101802Y791396D1*
Y741211D1*
X2117241Y781835D2*
X2122049Y784266D1*
X2129235Y791396D1*
Y741211D1*
X1844865Y1397265D2*
X1868797D1*
X1875927Y1399641D1*
X1878359Y1404450D1*
Y1411635D1*
X1875927Y1416388D1*
X1868797Y1423573D1*
X1844865D2*
X1878359D1*
X1840057Y1474882D2*
X1835304Y1472506D1*
X1830495Y1467697D1*
X1828119Y1462944D1*
Y1453382D1*
X1830495Y1448574D1*
X1835304Y1443821D1*
X1840057Y1441389D1*
X1847242Y1439012D1*
X1859235D1*
X1866365Y1441389D1*
X1871173Y1443821D1*
X1875927Y1448574D1*
X1878359Y1453382D1*
Y1462944D1*
X1875927Y1467697D1*
X1871173Y1472506D1*
X1866365Y1474882D1*
X1012795Y894407D2*
Y858537D1*
X1015172Y851352D1*
X1019980Y846599D1*
X1027165Y844167D1*
X1031918D1*
X1039103Y846599D1*
X1043912Y851352D1*
X1046288Y858537D1*
Y894407D1*
X1064159Y882413D2*
Y884790D1*
X1066536Y889598D1*
X1068913Y891975D1*
X1073721Y894352D1*
X1083283D1*
X1088036Y891975D1*
X1090412Y889598D1*
X1092844Y884790D1*
Y880037D1*
X1090412Y875228D1*
X1085659Y868099D1*
X1061727Y844167D1*
X1095221D1*
X1598874Y1139210D2*
Y1103340D1*
X1601251Y1096155D1*
X1606059Y1091402D1*
X1613244Y1088970D1*
X1617998D1*
X1625183Y1091402D1*
X1629991Y1096155D1*
X1632368Y1103340D1*
Y1139210D1*
X1671739Y1088970D2*
Y1139155D1*
X1647807Y1105717D1*
X1683677D1*
X804995Y1133577D2*
X809803Y1136009D1*
X816988Y1143139D1*
Y1092954D1*
X856359D2*
Y1143139D1*
X832428Y1109701D1*
X868297D1*
X898107Y1143139D2*
X890922Y1140762D1*
X886113Y1133577D1*
X883737Y1121639D1*
Y1114454D1*
X886113Y1102516D1*
X890922Y1095331D1*
X898107Y1092954D1*
X902860D1*
X910045Y1095331D1*
X914798Y1102516D1*
X917230Y1114454D1*
Y1121639D1*
X914798Y1133577D1*
X910045Y1140762D1*
X902860Y1143139D1*
X898107D1*
X914798Y1133577D2*
X886113Y1102516D1*
X947039Y1143139D2*
X939854Y1140762D1*
X935046Y1133577D1*
X932669Y1121639D1*
Y1114454D1*
X935046Y1102516D1*
X939854Y1095331D1*
X947039Y1092954D1*
X951793D1*
X958978Y1095331D1*
X963731Y1102516D1*
X966163Y1114454D1*
Y1121639D1*
X963731Y1133577D1*
X958978Y1140762D1*
X951793Y1143139D1*
X947039D1*
X963731Y1133577D2*
X935046Y1102516D1*
X1799752Y1189798D2*
X1794943Y1187421D1*
X1790190Y1182613D1*
X1787758Y1177860D1*
X1785382Y1170675D1*
Y1158681D1*
X1787758Y1151551D1*
X1790190Y1146743D1*
X1794943Y1141990D1*
X1799752Y1139558D1*
X1809313D1*
X1814066Y1141990D1*
X1818875Y1146743D1*
X1821251Y1151551D1*
X1823628Y1158681D1*
Y1170675D1*
X1821251Y1177860D1*
X1818875Y1182613D1*
X1814066Y1187421D1*
X1809313Y1189798D1*
X1799752D1*
X1877369Y1139558D2*
X1858191Y1189798D1*
X1839067Y1139558D1*
X1846252Y1156305D2*
X1870184D1*
X560975Y975564D2*
Y925324D1*
Y951633D2*
X565783Y956441D1*
X570537Y958818D1*
X577722D1*
X582475Y956441D1*
X587283Y951633D1*
X589660Y944448D1*
Y939694D1*
X587283Y932509D1*
X582475Y927756D1*
X577722Y925324D1*
X570537D1*
X565783Y927756D1*
X560975Y932509D1*
X605099Y958818D2*
Y934886D1*
X607476Y927756D1*
X612284Y925324D1*
X619469D1*
X624222Y927756D1*
X631407Y934886D1*
Y958818D2*
Y925324D1*
X654032Y975564D2*
Y934886D1*
X656408Y927756D1*
X661217Y925324D1*
X665970D1*
X646847Y958818D2*
X663593D1*
X688594Y975564D2*
Y934886D1*
X690971Y927756D1*
X695779Y925324D1*
X700532D1*
X681409Y958818D2*
X698156D1*
X727910D2*
X723157Y956441D1*
X718348Y951633D1*
X715972Y944448D1*
Y939694D1*
X718348Y932509D1*
X723157Y927756D1*
X727910Y925324D1*
X735095D1*
X739903Y927756D1*
X744657Y932509D1*
X747088Y939694D1*
Y944448D1*
X744657Y951633D1*
X739903Y956441D1*
X735095Y958818D1*
X727910D1*
X762528D2*
Y925324D1*
Y949256D2*
X769713Y956441D1*
X774521Y958818D1*
X781651D1*
X786459Y956441D1*
X788836Y949256D1*
Y925324D1*
X1128968Y1095505D2*
Y1045265D1*
X1162461Y1095505D2*
Y1045265D1*
X1128968Y1071573D2*
X1162461D1*
X1213771Y1083567D2*
X1211394Y1088320D1*
X1206586Y1093128D1*
X1201832Y1095505D1*
X1192271D1*
X1187462Y1093128D1*
X1182709Y1088320D1*
X1180277Y1083567D1*
X1177901Y1076382D1*
Y1064388D1*
X1180277Y1057258D1*
X1182709Y1052450D1*
X1187462Y1047697D1*
X1192271Y1045265D1*
X1201832D1*
X1206586Y1047697D1*
X1211394Y1052450D1*
X1213771Y1057258D1*
X1260327Y1095505D2*
X1229210D1*
Y1045265D1*
Y1071573D2*
X1248333D1*
X1299698Y1045265D2*
Y1095450D1*
X1275766Y1062012D1*
X1311636D1*
X1341445Y1095450D2*
X1334260Y1093073D1*
X1329452Y1085888D1*
X1327075Y1073950D1*
Y1066765D1*
X1329452Y1054827D1*
X1334260Y1047641D1*
X1341445Y1045265D1*
X1346198D1*
X1353383Y1047641D1*
X1358136Y1054827D1*
X1360568Y1066765D1*
Y1073950D1*
X1358136Y1085888D1*
X1353383Y1093073D1*
X1346198Y1095450D1*
X1341445D1*
X1358136Y1085888D2*
X1329452Y1054827D1*
X1404692Y1095450D2*
X1380816D1*
X1378439Y1073950D1*
X1380816Y1076326D1*
X1388001Y1078758D1*
X1395131D1*
X1402316Y1076326D1*
X1407124Y1071573D1*
X1409501Y1064388D1*
Y1059635D1*
X1407124Y1052450D1*
X1402316Y1047641D1*
X1395131Y1045265D1*
X1388001D1*
X1380816Y1047641D1*
X1378439Y1050073D1*
X1376008Y1054827D1*
X1439310Y1095450D2*
X1432125Y1093073D1*
X1427317Y1085888D1*
X1424940Y1073950D1*
Y1066765D1*
X1427317Y1054827D1*
X1432125Y1047641D1*
X1439310Y1045265D1*
X1444063D1*
X1451248Y1047641D1*
X1456002Y1054827D1*
X1458434Y1066765D1*
Y1073950D1*
X1456002Y1085888D1*
X1451248Y1093073D1*
X1444063Y1095450D1*
X1439310D1*
X1456002Y1085888D2*
X1427317Y1054827D1*
X1865693Y2070764D2*
X1884816Y2046832D1*
Y2020524D1*
X1903940Y2070764D2*
X1884816Y2046832D1*
X1919379Y2061147D2*
X1924187Y2063579D1*
X1931372Y2070708D1*
Y2020524D1*
X1573316Y882987D2*
Y847117D1*
X1575693Y839932D1*
X1580502Y835179D1*
X1587687Y832747D1*
X1592440D1*
X1599625Y835179D1*
X1604433Y839932D1*
X1606810Y847117D1*
Y882987D1*
X1622249Y873370D2*
X1627058Y875802D1*
X1634243Y882932D1*
Y832747D1*
X1653381Y1236221D2*
X1674881D1*
X1682066Y1238652D1*
X1684498Y1241029D1*
X1686874Y1245782D1*
Y1250591D1*
X1684498Y1255344D1*
X1682066Y1257776D1*
X1674881Y1260152D1*
X1653381D1*
Y1209912D1*
X1670128Y1236221D2*
X1686874Y1209912D1*
X1726245D2*
Y1260097D1*
X1702313Y1226659D1*
X1738183D1*
X2174764Y1884718D2*
D76*
Y1784238D1*
X2063790Y642701D2*
D77*
X2038896D1*
Y602509D1*
Y623555D2*
X2054195D1*
X2076141Y642701D2*
Y602509D1*
X2098043Y629303D2*
X2094240Y627402D1*
X2090394Y623555D1*
X2088492Y617807D1*
Y614005D1*
X2090394Y608257D1*
X2094240Y604454D1*
X2098043Y602509D1*
X2103791D1*
X2107638Y604454D1*
X2111440Y608257D1*
X2113386Y614005D1*
Y617807D1*
X2111440Y623555D1*
X2107638Y627402D1*
X2103791Y629303D1*
X2098043D1*
X2125737D2*
X2133387Y602509D1*
X2141036Y629303D1*
X2148685Y602509D1*
X2156334Y629303D1*
X2168686D2*
Y602509D1*
Y621654D2*
X2174434Y627402D1*
X2178281Y629303D1*
X2183984D1*
X2187831Y627402D1*
X2189732Y621654D1*
Y602509D1*
Y621654D2*
X2195481Y627402D1*
X2199327Y629303D1*
X2205031D1*
X2208878Y627402D1*
X2210823Y621654D1*
Y602509D1*
X2223175Y617807D2*
X2246123D1*
Y621654D1*
X2244221Y625501D1*
X2242320Y627402D1*
X2238473Y629303D1*
X2232725D1*
X2228923Y627402D1*
X2225076Y623555D1*
X2223175Y617807D1*
Y614005D1*
X2225076Y608257D1*
X2228923Y604454D1*
X2232725Y602509D1*
X2238473D1*
X2242320Y604454D1*
X2246123Y608257D1*
X2264222Y642701D2*
Y610158D1*
X2266123Y604454D1*
X2269970Y602509D1*
X2273773D1*
X2258474Y629303D2*
X2271871D1*
X2286124Y617807D2*
X2309072D1*
Y621654D1*
X2307171Y625501D1*
X2305269Y627402D1*
X2301423Y629303D1*
X2295675D1*
X2291872Y627402D1*
X2288025Y623555D1*
X2286124Y617807D1*
Y614005D1*
X2288025Y608257D1*
X2291872Y604454D1*
X2295675Y602509D1*
X2301423D1*
X2305269Y604454D1*
X2309072Y608257D1*
X2321423Y629303D2*
Y602509D1*
Y617807D2*
X2323369Y623555D1*
X2327171Y627402D1*
X2331018Y629303D1*
X2336766D1*
X2387998D2*
X2399494Y602509D1*
X2410946Y629303D1*
X2425199Y606356D2*
X2423298Y604410D1*
X2425199Y602509D1*
X2427144Y604410D1*
X2425199Y606356D1*
X2439496Y635007D2*
X2443343Y636953D1*
X2449091Y642657D1*
Y602509D1*
X2463343Y606356D2*
X2461442Y604410D1*
X2463343Y602509D1*
X2465289Y604410D1*
X2463343Y606356D1*
X2481487Y642657D2*
X2502489D1*
X2491037Y627358D1*
X2496786D1*
X2500588Y625457D1*
X2502489Y623555D1*
X2504435Y617807D1*
Y614005D1*
X2502489Y608257D1*
X2498687Y604410D1*
X2492939Y602509D1*
X2487191D1*
X2481487Y604410D1*
X2479586Y606356D1*
X2477640Y610158D1*
X2113239Y527517D2*
Y567709D1*
X2097940Y527517D1*
X2082642Y567709D1*
Y527517D1*
X2125590Y567709D2*
X2127492Y565807D1*
X2129437Y567709D1*
X2127492Y569654D1*
X2125590Y567709D1*
X2127492Y554311D2*
Y527517D1*
X2141788Y567709D2*
Y527517D1*
X2160934Y554311D2*
X2141788Y535166D1*
X2149438Y542815D2*
X2162835Y527517D1*
X2175186Y567709D2*
Y527517D1*
Y546662D2*
X2180934Y552410D1*
X2184781Y554311D1*
X2190529D1*
X2194332Y552410D1*
X2196233Y546662D1*
Y527517D1*
X2231532Y554311D2*
Y527517D1*
Y548563D2*
X2227730Y552410D1*
X2223883Y554311D1*
X2218179D1*
X2214333Y552410D1*
X2210530Y548563D1*
X2208584Y542815D1*
Y539013D1*
X2210530Y533265D1*
X2214333Y529462D1*
X2218179Y527517D1*
X2223883D1*
X2227730Y529462D1*
X2231532Y533265D1*
X2243884Y567709D2*
X2245785Y565807D1*
X2247731Y567709D1*
X2245785Y569654D1*
X2243884Y567709D1*
X2245785Y554311D2*
Y527517D1*
X2260082Y567709D2*
Y527517D1*
X2311314Y567709D2*
Y527517D1*
X2323666Y554311D2*
X2335162Y527517D1*
X2346613Y554311D1*
X2381913D2*
Y527517D1*
Y548563D2*
X2378110Y552410D1*
X2374263Y554311D1*
X2368560D1*
X2364713Y552410D1*
X2360910Y548563D1*
X2358965Y542815D1*
Y539013D1*
X2360910Y533265D1*
X2364713Y529462D1*
X2368560Y527517D1*
X2374263D1*
X2378110Y529462D1*
X2381913Y533265D1*
X2394264Y554311D2*
Y527517D1*
Y546662D2*
X2400012Y552410D1*
X2403859Y554311D1*
X2409563D1*
X2413410Y552410D1*
X2415311Y546662D1*
Y527517D1*
X2437213Y554311D2*
X2433410Y552410D1*
X2429563Y548563D1*
X2427662Y542815D1*
Y539013D1*
X2429563Y533265D1*
X2433410Y529462D1*
X2437213Y527517D1*
X2442961D1*
X2446808Y529462D1*
X2450610Y533265D1*
X2452556Y539013D1*
Y542815D1*
X2450610Y548563D1*
X2446808Y552410D1*
X2442961Y554311D1*
X2437213D1*
X2464907D2*
X2476403Y527517D1*
X2487855Y554311D1*
X647229Y2051212D2*
D78*
Y2012524D1*
X609950Y1843042D2*
D79*
X617555Y1846845D1*
X625248Y1854538D1*
X629051Y1862143D1*
Y1877442D1*
X625248Y1885135D1*
X617555Y1892740D1*
X609950Y1896631D1*
X598454Y1900434D1*
X579264D1*
X567856Y1896631D1*
X560163Y1892740D1*
X552558Y1885135D1*
X548667Y1877442D1*
Y1862143D1*
X552558Y1854538D1*
X560163Y1846845D1*
X567856Y1843042D1*
X590760Y1818339D2*
Y1783940D1*
X594651Y1772443D1*
X598453Y1768553D1*
X606059Y1764750D1*
X613752D1*
X621357Y1768552D1*
X625248Y1772443D1*
X629051Y1783940D1*
Y1818339D1*
X548667D1*
X590760Y1791545D2*
X548667Y1764750D1*
X613664Y1740047D2*
X617555Y1732354D1*
X628962Y1720858D1*
X548667D1*
X609861Y1692264D2*
X613664D1*
X621357Y1688461D1*
X625160Y1684659D1*
X628962Y1676965D1*
Y1661667D1*
X625160Y1654062D1*
X621357Y1650259D1*
X613664Y1646368D1*
X606059D1*
X598365Y1650259D1*
X586957Y1657864D1*
X548667Y1696155D1*
Y1642565D1*
X609861Y1613972D2*
X613664D1*
X621357Y1610169D1*
X625160Y1606367D1*
X628962Y1598673D1*
Y1583374D1*
X625160Y1575769D1*
X621357Y1571967D1*
X613664Y1568076D1*
X606059D1*
X598365Y1571967D1*
X586957Y1579572D1*
X548667Y1617863D1*
Y1564273D1*
X628962Y1516578D2*
X625160Y1528074D1*
X613664Y1535768D1*
X594563Y1539571D1*
X583066D1*
X563965Y1535768D1*
X552469Y1528074D1*
X548667Y1516578D1*
Y1508973D1*
X552469Y1497477D1*
X563965Y1489872D1*
X583066Y1485981D1*
X594563D1*
X613664Y1489872D1*
X625160Y1497477D1*
X628962Y1508973D1*
Y1516578D1*
X613664Y1489872D2*
X563965Y1535768D1*
X885574Y1381280D2*
D75*
X842519D1*
X864019Y1402780D2*
Y1359725D1*
M02*
