G04 DipTrace 3.2.0.1*
G04 BottomMask.gbr*
%MOIN*%
G04 #@! TF.FileFunction,Soldermask,Bot*
G04 #@! TF.Part,Single*
%ADD38C,0.03937*%
%ADD40C,0.051181*%
%ADD46C,0.055874*%
%ADD63C,0.066929*%
%ADD65R,0.066929X0.066929*%
%FSLAX26Y26*%
G04*
G70*
G90*
G75*
G01*
G04 BotMask*
%LPD*%
D38*
X756153Y1844420D3*
D40*
Y1549144D3*
D65*
X1287357Y529811D3*
D63*
X1387357D3*
X1487357D3*
X1587357D3*
X1687357D3*
X1787357D3*
X1887357D3*
X1987357D3*
D65*
X2362244Y2054651D3*
D63*
X2262244D3*
X2362244Y1954651D3*
X2262244D3*
X2362244Y1854651D3*
X2262244D3*
X2362244Y1754651D3*
X2262244D3*
X2362244Y1654651D3*
X2262244D3*
D65*
X2237257Y892273D3*
D63*
X2337257D3*
D65*
X2343496Y1117249D3*
D63*
X2243496D3*
D65*
X1106126Y1998407D3*
D63*
X1206126D3*
D65*
X824906Y617302D3*
D63*
Y717302D3*
Y817302D3*
X524906D3*
Y717302D3*
Y617302D3*
D46*
X1993533Y1904667D3*
X1803533D3*
D65*
X1287357Y2129643D3*
D63*
X1387357D3*
X1487357D3*
X1587357D3*
X1687357D3*
X1787357D3*
X1887357D3*
X1987357D3*
M02*
