G04 DipTrace 3.2.0.1*
G04 Bottom.gbr*
%MOIN*%
G04 #@! TF.FileFunction,Copper,L2,Bot*
G04 #@! TF.Part,Single*
G04 #@! TA.AperFunction,Conductor*
%ADD14C,0.011811*%
G04 #@! TA.AperFunction,CopperBalancing*
%ADD15C,0.025*%
G04 #@! TA.AperFunction,ComponentPad*
%ADD23R,0.059055X0.059055*%
%ADD24C,0.059055*%
%ADD37C,0.048*%
G04 #@! TA.AperFunction,ViaPad*
%ADD38C,0.03937*%
%FSLAX26Y26*%
G04*
G70*
G90*
G75*
G01*
G04 Bottom*
%LPD*%
X1424843Y1317228D2*
D14*
X1650661D1*
Y1286075D1*
X1581764Y1354972D1*
Y2060900D1*
X2262244D1*
Y2054651D1*
X1673177Y1441980D2*
X1868311D1*
X2262244Y1835913D1*
Y1854651D1*
X1250197Y1067374D2*
Y1174669D1*
X1275787Y1200260D1*
X1844441D1*
X1874795Y1230614D1*
Y1317228D1*
X1944472D1*
X1982619Y1355375D1*
Y1456299D1*
X2237257Y1710937D1*
Y1754651D1*
X2262244D1*
X1418701Y884299D2*
Y1149079D1*
X1444291Y1174669D1*
X1938791D1*
X2099335Y1335213D1*
Y1491741D1*
X2262244Y1654651D1*
X1987357Y529811D2*
Y823530D1*
X2337257D1*
Y892273D1*
X1343601Y1798428D2*
Y1860932D1*
X1206126Y1998407D1*
X2362244Y1654651D2*
Y1754651D1*
X524906Y817302D2*
X824906D1*
X2362244Y1954651D2*
X2305990Y2010906D1*
X1681066D1*
X2362244Y1854651D2*
Y1954651D1*
Y1754651D2*
Y1854651D1*
X824906Y817302D2*
Y1073504D1*
X781160Y1117249D1*
X1849798Y1835924D2*
X1968535D1*
X1974785Y1842173D1*
X2362244Y2054651D2*
X2430987Y1985908D1*
Y1543298D1*
X2385866Y1498177D1*
X2211541D1*
X2185949Y1472585D1*
Y1174669D1*
X2160358Y1149079D1*
X1694972D1*
X1669382Y1123488D1*
Y1071311D1*
X1694972Y1045720D1*
X1831508D1*
X1853717Y1067929D1*
X1911512D1*
X1999782D1*
Y1067255D1*
X1668378Y1510492D2*
X1698768Y1540882D1*
Y1767087D1*
X1637744Y1828110D1*
X1757988Y1948354D1*
X1949845D1*
X1993533Y1904667D1*
X1803533D2*
Y1559274D1*
X1826724Y1536083D1*
X1787357Y529811D2*
Y596740D1*
X1787358D1*
X524906Y617302D2*
X824906D1*
X1042413Y834810D1*
Y1361953D1*
X2142642Y1473465D2*
Y1232063D1*
X1893543Y917270D2*
X1917773Y941500D1*
X2373961D1*
X2399551Y967091D1*
Y1264827D1*
X2373961Y1290417D1*
X2299748D1*
X1731060Y761037D2*
X1744051Y774028D1*
Y938835D1*
X1632646Y1050240D1*
Y1059430D1*
X1568577Y1123499D1*
X1738280Y1094673D2*
X1754843Y1111236D1*
X2144122D1*
X2187323Y1068035D1*
X2294282D1*
X2343496Y1117249D1*
X1843549Y1360974D2*
X1680495D1*
X1625071Y1416398D1*
Y1670161D1*
X1537331Y1710937D2*
X1155587D1*
X1106126Y1760398D1*
Y1998407D1*
X1512567Y1063437D2*
Y854777D1*
X1518583D1*
X1826724Y1279701D2*
X1772874Y1225850D1*
X1466226D1*
X1368598Y1323478D1*
X1318701Y1080169D2*
Y728000D1*
X1387357Y659344D1*
Y529811D1*
X2231008Y1354724D2*
X2425142D1*
Y468976D1*
X2399551Y443386D1*
X1362161D1*
X1336571Y468976D1*
Y625283D1*
X1218701Y743154D1*
Y801827D1*
X1168701Y866524D2*
Y555402D1*
X1194291Y529811D1*
X1287357D1*
X1487357D2*
Y762567D1*
X1487358D1*
X1368701Y805874D2*
X1561764D1*
X1587357Y780281D1*
Y529811D1*
X1555874Y1020130D2*
X1687357Y888647D1*
Y529811D1*
D38*
X1650661Y1286075D3*
X1424843Y1317228D3*
X1673177Y1441980D3*
X1250197Y1067374D3*
X1874795Y1317228D3*
X1418701Y884299D3*
X2099335Y1335213D3*
X1681066Y2010906D3*
X781160Y1117249D3*
X1343601Y1798428D3*
X1911512Y1067929D3*
X1999782Y1067255D3*
X1637744Y1828110D3*
X1668378Y1510492D3*
X1826724Y1536083D3*
X1787358Y596740D3*
X1042413Y1361953D3*
X2142642Y1232063D3*
Y1473465D3*
X2299748Y1290417D3*
X1893543Y917270D3*
X1625071Y1670161D3*
X1843549Y1360974D3*
X1537331Y1710937D3*
X1518583Y854777D3*
X1512567Y1063437D3*
X1368598Y1323478D3*
X1826724Y1279701D3*
X1218701Y801827D3*
X2231008Y1354724D3*
X1168701Y866524D3*
X1487358Y762567D3*
X1368701Y805874D3*
X1555874Y1020130D3*
X1318701Y1080169D3*
X1568577Y1123499D3*
X1731060Y761037D3*
X1738280Y1094673D3*
X1849798Y1835924D3*
X1974785Y1842173D3*
X448089Y2132867D2*
D15*
X1226082D1*
X2048559D2*
X2465306D1*
X448089Y2107999D2*
X1226082D1*
X2044504D2*
X2235073D1*
X2289414D2*
X2300957D1*
X2423513D2*
X2465306D1*
X448089Y2083130D2*
X1226082D1*
X1425789D2*
X1448923D1*
X1525799D2*
X1548932D1*
X2423513D2*
X2465306D1*
X448089Y2058261D2*
X1544123D1*
X2423513D2*
X2465306D1*
X448089Y2033392D2*
X1044867D1*
X1255842D2*
X1544123D1*
X2435714D2*
X2465306D1*
X448089Y2008524D2*
X1044867D1*
X1266535D2*
X1544123D1*
X1619420D2*
X1629707D1*
X448089Y1983655D2*
X1044867D1*
X1273102D2*
X1544123D1*
X1619420D2*
X1637925D1*
X448089Y1958786D2*
X1044867D1*
X1297970D2*
X1544123D1*
X1619420D2*
X1716188D1*
X1991611D2*
X2201127D1*
X448089Y1933917D2*
X1068478D1*
X1143776D2*
X1218403D1*
X1322838D2*
X1544123D1*
X1619420D2*
X1691320D1*
X2040521D2*
X2204751D1*
X448089Y1909049D2*
X1068478D1*
X1143776D2*
X1243270D1*
X1347705D2*
X1544123D1*
X1619420D2*
X1666452D1*
X1859091D2*
X1936947D1*
X2049098D2*
X2222657D1*
X448089Y1884180D2*
X725139D1*
X787194D2*
X1068478D1*
X1143776D2*
X1268138D1*
X1372465D2*
X1544123D1*
X1619420D2*
X1641585D1*
X1860419D2*
X1941900D1*
X2045186D2*
X2208914D1*
X448089Y1859311D2*
X707053D1*
X805280D2*
X1068478D1*
X1143776D2*
X1293006D1*
X1381257D2*
X1544123D1*
X1721152D2*
X1765888D1*
X2023943D2*
X2201163D1*
X448089Y1834442D2*
X705761D1*
X806572D2*
X1068478D1*
X1143776D2*
X1305960D1*
X1381257D2*
X1544123D1*
X1696284D2*
X1765888D1*
X2025594D2*
X2204536D1*
X448089Y1809573D2*
X719289D1*
X793008D2*
X1068478D1*
X1143776D2*
X1293436D1*
X1393745D2*
X1544123D1*
X1708485D2*
X1765888D1*
X2013788D2*
X2183687D1*
X448089Y1784705D2*
X1068478D1*
X1143776D2*
X1294118D1*
X1393063D2*
X1544123D1*
X1731702D2*
X1765888D1*
X1841185D2*
X2158819D1*
X448089Y1759836D2*
X1068478D1*
X1158919D2*
X1311020D1*
X1376197D2*
X1532999D1*
X1619420D2*
X1653821D1*
X1736439D2*
X1765888D1*
X1841185D2*
X2133952D1*
X448089Y1734967D2*
X1079351D1*
X1619420D2*
X1661106D1*
X1736439D2*
X1765888D1*
X1841185D2*
X2109084D1*
X448089Y1710098D2*
X1104219D1*
X1736439D2*
X1765888D1*
X1841185D2*
X2084216D1*
X448089Y1685230D2*
X1129123D1*
X1736439D2*
X1765888D1*
X1841185D2*
X2059348D1*
X448089Y1660361D2*
X1544123D1*
X1736439D2*
X1765888D1*
X1841185D2*
X2034481D1*
X448089Y1635492D2*
X1544123D1*
X1736439D2*
X1765888D1*
X1841185D2*
X2009613D1*
X448089Y1610623D2*
X1544123D1*
X1736439D2*
X1765888D1*
X1841185D2*
X1984745D1*
X2303696D2*
X2320801D1*
X448089Y1585755D2*
X712830D1*
X799467D2*
X1544123D1*
X1736439D2*
X1765888D1*
X1841185D2*
X1959877D1*
X2245564D2*
X2393323D1*
X448089Y1560886D2*
X700091D1*
X812206D2*
X1544123D1*
X1736439D2*
X1765888D1*
X1871399D2*
X1935010D1*
X2220696D2*
X2393323D1*
X448089Y1536017D2*
X700414D1*
X811883D2*
X1544123D1*
X1736080D2*
X1774679D1*
X1878145D2*
X1910142D1*
X2195828D2*
X2371505D1*
X448089Y1511148D2*
X714122D1*
X798211D2*
X1544123D1*
X1721260D2*
X1782107D1*
X1871327D2*
X1885274D1*
X2451036D2*
X2465306D1*
X448089Y1486280D2*
X1544123D1*
X1713401D2*
X1860407D1*
X2426169D2*
X2465306D1*
X448089Y1461411D2*
X1544123D1*
X2039947D2*
X2061681D1*
X2226976D2*
X2465306D1*
X448089Y1436542D2*
X1544123D1*
X1915070D2*
X1944950D1*
X2020283D2*
X2061681D1*
X2223602D2*
X2465306D1*
X448089Y1411673D2*
X1544123D1*
X1888624D2*
X1944950D1*
X2020283D2*
X2061681D1*
X2223602D2*
X2465306D1*
X448089Y1386804D2*
X997751D1*
X1087079D2*
X1544123D1*
X1887619D2*
X1944950D1*
X2020283D2*
X2061681D1*
X2442030D2*
X2465306D1*
X448089Y1361936D2*
X990969D1*
X1093861D2*
X1335851D1*
X1447248D2*
X1544123D1*
X1897200D2*
X1936947D1*
X2020283D2*
X2055832D1*
X448089Y1337067D2*
X997787D1*
X1087043D2*
X1319094D1*
X2015115D2*
X2047937D1*
X448089Y1312198D2*
X1004748D1*
X1080081D2*
X1318484D1*
X1694526D2*
X1787633D1*
X1991647D2*
X2024110D1*
X448089Y1287329D2*
X1004748D1*
X1080081D2*
X1333124D1*
X1702062D2*
X1775899D1*
X1965452D2*
X1999242D1*
X2223602D2*
X2248422D1*
X448089Y1262461D2*
X1004748D1*
X1080081D2*
X1377405D1*
X1481840D2*
X1605306D1*
X1696033D2*
X1757275D1*
X1912451D2*
X1974375D1*
X2078810D2*
X2101799D1*
X2223602D2*
X2257070D1*
X448089Y1237592D2*
X1004748D1*
X1080081D2*
X1402273D1*
X1912451D2*
X1949507D1*
X2053942D2*
X2091537D1*
X2223602D2*
X2361888D1*
X448089Y1212723D2*
X1004748D1*
X1080081D2*
X1236022D1*
X1907570D2*
X1924639D1*
X2029074D2*
X2095197D1*
X2223602D2*
X2361888D1*
X448089Y1187854D2*
X1004748D1*
X1080081D2*
X1215101D1*
X2004207D2*
X2119167D1*
X2223602D2*
X2361888D1*
X448089Y1162986D2*
X761274D1*
X801046D2*
X1004748D1*
X1080081D2*
X1212553D1*
X1290721D2*
X1383900D1*
X448089Y1138117D2*
X734397D1*
X827923D2*
X1004748D1*
X1080081D2*
X1212553D1*
X1287851D2*
X1381030D1*
X1459951D2*
X1519363D1*
X448089Y1113248D2*
X729875D1*
X837360D2*
X1004748D1*
X1080081D2*
X1212553D1*
X1357251D2*
X1381030D1*
X1456363D2*
X1518215D1*
X448089Y1088379D2*
X739133D1*
X859250D2*
X1004748D1*
X1080081D2*
X1203511D1*
X1369451D2*
X1381030D1*
X1456363D2*
X1467977D1*
X448089Y1063510D2*
X782697D1*
X862551D2*
X1004748D1*
X1080081D2*
X1198917D1*
X1367226D2*
X1381030D1*
X2051071D2*
X2139621D1*
X448089Y1038642D2*
X787254D1*
X862551D2*
X1004748D1*
X1080081D2*
X1208104D1*
X1356353D2*
X1381030D1*
X1456363D2*
X1467869D1*
X2041993D2*
X2165530D1*
X2316076D2*
X2361888D1*
X448089Y1013773D2*
X787254D1*
X862551D2*
X1004748D1*
X1080081D2*
X1281056D1*
X1356353D2*
X1381030D1*
X1456363D2*
X1474903D1*
X1848684D2*
X2361888D1*
X448089Y988904D2*
X787254D1*
X862551D2*
X1004748D1*
X1080081D2*
X1281056D1*
X1356353D2*
X1381030D1*
X1456363D2*
X1474903D1*
X1746199D2*
X2361888D1*
X448089Y964035D2*
X787254D1*
X862551D2*
X1004748D1*
X1080081D2*
X1281056D1*
X1356353D2*
X1381030D1*
X1456363D2*
X1474903D1*
X1550236D2*
X1559769D1*
X1771067D2*
X1876626D1*
X448089Y939167D2*
X787254D1*
X862551D2*
X1004748D1*
X1080081D2*
X1281056D1*
X1356353D2*
X1381030D1*
X1456363D2*
X1474903D1*
X1550236D2*
X1584637D1*
X1781689D2*
X1847273D1*
X448089Y914298D2*
X787254D1*
X862551D2*
X1004748D1*
X1080081D2*
X1155605D1*
X1181777D2*
X1281056D1*
X1356353D2*
X1377549D1*
X1459843D2*
X1474903D1*
X1550236D2*
X1609504D1*
X1781689D2*
X1842213D1*
X448089Y889429D2*
X787254D1*
X862551D2*
X1004748D1*
X1080081D2*
X1122951D1*
X1214431D2*
X1281056D1*
X1356353D2*
X1367537D1*
X1555618D2*
X1634372D1*
X1781689D2*
X1850790D1*
X1936278D2*
X2175972D1*
X448089Y864560D2*
X487478D1*
X562344D2*
X787254D1*
X862551D2*
X1004748D1*
X1080081D2*
X1117317D1*
X1220101D2*
X1281056D1*
X1356353D2*
X1371413D1*
X1569039D2*
X1649695D1*
X1781689D2*
X2175972D1*
X448089Y839692D2*
X468064D1*
X881749D2*
X995095D1*
X1080081D2*
X1125283D1*
X1252182D2*
X1281056D1*
X1573848D2*
X1649695D1*
X1781689D2*
X1953634D1*
X2374926D2*
X2387473D1*
X448089Y814823D2*
X463686D1*
X886127D2*
X970228D1*
X1073837D2*
X1131060D1*
X1268365D2*
X1281056D1*
X1605031D2*
X1649695D1*
X1781689D2*
X1949686D1*
X2373814D2*
X2387473D1*
X448089Y789954D2*
X470397D1*
X879417D2*
X945360D1*
X1049759D2*
X1131060D1*
X1268688D2*
X1281056D1*
X1623655D2*
X1649695D1*
X1781689D2*
X1949686D1*
X2350166D2*
X2387473D1*
X448089Y765085D2*
X488195D1*
X561626D2*
X788187D1*
X861618D2*
X920492D1*
X1024891D2*
X1131060D1*
X1256344D2*
X1281056D1*
X1398230D2*
X1436004D1*
X1538717D2*
X1549685D1*
X1625018D2*
X1649695D1*
X1782335D2*
X1949686D1*
X2025019D2*
X2387473D1*
X448089Y740217D2*
X468280D1*
X581542D2*
X768271D1*
X881534D2*
X895588D1*
X1000023D2*
X1131060D1*
X1358686D2*
X1441315D1*
X1533406D2*
X1549685D1*
X1625018D2*
X1649695D1*
X1777849D2*
X1949686D1*
X2025019D2*
X2387473D1*
X448089Y715348D2*
X463650D1*
X586135D2*
X763678D1*
X975156D2*
X1131060D1*
X1383554D2*
X1449712D1*
X1525009D2*
X1549685D1*
X1625018D2*
X1649695D1*
X1751079D2*
X1949686D1*
X2025019D2*
X2387473D1*
X448089Y690479D2*
X470110D1*
X579712D2*
X770101D1*
X950288D2*
X1131060D1*
X1206358D2*
X1219156D1*
X1408421D2*
X1449712D1*
X1525009D2*
X1549685D1*
X1625018D2*
X1649695D1*
X1725028D2*
X1949686D1*
X2025019D2*
X2387473D1*
X448089Y665610D2*
X488913D1*
X560873D2*
X763642D1*
X925420D2*
X1131060D1*
X1206358D2*
X1244024D1*
X1424462D2*
X1449712D1*
X1525009D2*
X1549685D1*
X1625018D2*
X1649695D1*
X1725028D2*
X1949686D1*
X2025019D2*
X2387473D1*
X448089Y640741D2*
X468495D1*
X900553D2*
X1131060D1*
X1206358D2*
X1268892D1*
X1425000D2*
X1449712D1*
X1525009D2*
X1549685D1*
X1625018D2*
X1649695D1*
X1725028D2*
X1763447D1*
X1811257D2*
X1949686D1*
X2025019D2*
X2387473D1*
X448089Y615873D2*
X463650D1*
X886199D2*
X1131060D1*
X1206358D2*
X1293759D1*
X1425000D2*
X1449712D1*
X1525009D2*
X1549685D1*
X1625018D2*
X1649695D1*
X1725028D2*
X1739836D1*
X1834905D2*
X1949686D1*
X2025019D2*
X2387473D1*
X448089Y591004D2*
X469858D1*
X886199D2*
X1131060D1*
X1206358D2*
X1298927D1*
X1425000D2*
X1449712D1*
X1525009D2*
X1549685D1*
X1625018D2*
X1649695D1*
X1725028D2*
X1736235D1*
X1838457D2*
X1949686D1*
X2025019D2*
X2387473D1*
X448089Y566135D2*
X493470D1*
X556316D2*
X763642D1*
X886199D2*
X1131060D1*
X1210197D2*
X1226082D1*
X2036072D2*
X2387473D1*
X448089Y541266D2*
X1134003D1*
X2047519D2*
X2387473D1*
X448089Y516398D2*
X1155498D1*
X2047088D2*
X2387473D1*
X448089Y491529D2*
X1226082D1*
X2034457D2*
X2387473D1*
X448089Y466660D2*
X1298998D1*
X804935Y1840581D2*
X803734Y1832997D1*
X801361Y1825694D1*
X797875Y1818852D1*
X793362Y1812640D1*
X787932Y1807211D1*
X781720Y1802698D1*
X774879Y1799212D1*
X767576Y1796839D1*
X759992Y1795638D1*
X752314D1*
X744730Y1796839D1*
X737427Y1799212D1*
X730585Y1802698D1*
X724373Y1807211D1*
X718944Y1812640D1*
X714431Y1818852D1*
X710945Y1825694D1*
X708572Y1832997D1*
X707371Y1840581D1*
Y1848259D1*
X708572Y1855843D1*
X710945Y1863146D1*
X714431Y1869987D1*
X718944Y1876199D1*
X724373Y1881629D1*
X730585Y1886142D1*
X737427Y1889628D1*
X744730Y1892001D1*
X752314Y1893202D1*
X759992D1*
X767576Y1892001D1*
X774879Y1889628D1*
X781720Y1886142D1*
X787932Y1881629D1*
X793362Y1876199D1*
X797875Y1869987D1*
X801361Y1863146D1*
X803734Y1855843D1*
X804935Y1848259D1*
Y1840581D1*
X810822Y1544842D2*
X809476Y1536343D1*
X806817Y1528159D1*
X802910Y1520491D1*
X797852Y1513530D1*
X791768Y1507445D1*
X784806Y1502387D1*
X777139Y1498480D1*
X768955Y1495821D1*
X760455Y1494475D1*
X751850D1*
X743351Y1495821D1*
X735167Y1498480D1*
X727500Y1502387D1*
X720538Y1507445D1*
X714453Y1513530D1*
X709395Y1520491D1*
X705489Y1528159D1*
X702829Y1536343D1*
X701483Y1544842D1*
Y1553447D1*
X702829Y1561946D1*
X705489Y1570130D1*
X709395Y1577797D1*
X714453Y1584759D1*
X720538Y1590844D1*
X727500Y1595902D1*
X735167Y1599809D1*
X743351Y1602468D1*
X751850Y1603814D1*
X760455D1*
X768955Y1602468D1*
X777139Y1599809D1*
X784806Y1595902D1*
X791768Y1590844D1*
X797852Y1584759D1*
X802910Y1577797D1*
X806817Y1570130D1*
X809476Y1561946D1*
X810822Y1553447D1*
Y1544842D1*
X1237768Y588587D2*
X1301390D1*
X1301417Y610755D1*
X1203849Y708291D1*
X1203854Y569941D1*
X1208859Y564958D1*
X1228561Y564965D1*
X1228581Y588587D1*
X1237768D1*
X1301385Y471035D2*
X1228581D1*
Y494683D1*
X1191533Y494766D1*
X1186085Y495629D1*
X1180839Y497333D1*
X1175924Y499838D1*
X1171461Y503080D1*
X1143843Y530544D1*
X1140261Y534739D1*
X1137379Y539442D1*
X1135268Y544539D1*
X1133980Y549902D1*
X1133548Y555412D1*
X1133547Y832463D1*
X1129113Y837761D1*
X1125101Y844308D1*
X1122163Y851402D1*
X1120370Y858869D1*
X1119768Y866524D1*
X1120370Y874178D1*
X1122163Y881645D1*
X1125101Y888739D1*
X1129113Y895286D1*
X1134100Y901125D1*
X1139939Y906111D1*
X1146486Y910123D1*
X1153580Y913062D1*
X1161046Y914854D1*
X1168701Y915457D1*
X1176356Y914854D1*
X1183822Y913062D1*
X1190916Y910123D1*
X1197463Y906111D1*
X1203302Y901125D1*
X1208288Y895286D1*
X1212300Y888739D1*
X1215239Y881645D1*
X1217031Y874178D1*
X1217634Y866524D1*
X1217031Y858869D1*
X1215239Y851402D1*
X1214953Y850628D1*
X1222540Y850609D1*
X1230124Y849408D1*
X1237427Y847035D1*
X1244268Y843549D1*
X1250480Y839036D1*
X1255910Y833606D1*
X1260423Y827394D1*
X1263909Y820553D1*
X1266282Y813250D1*
X1267483Y805666D1*
Y797988D1*
X1266282Y790404D1*
X1263909Y783101D1*
X1260423Y776259D1*
X1255910Y770047D1*
X1253862Y767832D1*
X1253854Y757725D1*
X1283522Y728047D1*
X1283547Y1031544D1*
X1278959Y1027786D1*
X1272412Y1023774D1*
X1265318Y1020836D1*
X1257852Y1019043D1*
X1250197Y1018441D1*
X1242542Y1019043D1*
X1235076Y1020836D1*
X1227982Y1023774D1*
X1221435Y1027786D1*
X1215596Y1032773D1*
X1210609Y1038612D1*
X1206597Y1045159D1*
X1203659Y1052253D1*
X1201866Y1059719D1*
X1201264Y1067374D1*
X1201866Y1075029D1*
X1203659Y1082495D1*
X1206597Y1089589D1*
X1210609Y1096136D1*
X1215036Y1101369D1*
X1215152Y1177427D1*
X1216014Y1182876D1*
X1217719Y1188122D1*
X1220223Y1193037D1*
X1223466Y1197500D1*
X1250930Y1225117D1*
X1255125Y1228700D1*
X1259828Y1231582D1*
X1264924Y1233693D1*
X1270288Y1234981D1*
X1275787Y1235414D1*
X1406944D1*
X1367809Y1274552D1*
X1360944Y1275147D1*
X1353477Y1276940D1*
X1346383Y1279878D1*
X1339836Y1283890D1*
X1333998Y1288877D1*
X1329011Y1294716D1*
X1324999Y1301263D1*
X1322060Y1308357D1*
X1320268Y1315823D1*
X1319665Y1323478D1*
X1320268Y1331133D1*
X1322060Y1338599D1*
X1324999Y1345693D1*
X1329011Y1352240D1*
X1333998Y1358079D1*
X1339836Y1363065D1*
X1346383Y1367077D1*
X1353477Y1370016D1*
X1360944Y1371808D1*
X1368598Y1372411D1*
X1376253Y1371808D1*
X1383720Y1370016D1*
X1390814Y1367077D1*
X1397361Y1363065D1*
X1401094Y1360024D1*
X1406117Y1362437D1*
X1413419Y1364809D1*
X1421003Y1366011D1*
X1428682D1*
X1436266Y1364809D1*
X1443568Y1362437D1*
X1450410Y1358951D1*
X1456622Y1354437D1*
X1458837Y1352390D1*
X1546741Y1352382D1*
X1546610Y1382531D1*
Y1662895D1*
X1541170Y1662155D1*
X1533491D1*
X1525908Y1663356D1*
X1518605Y1665729D1*
X1511763Y1669215D1*
X1505551Y1673728D1*
X1503336Y1675776D1*
X1152828Y1675892D1*
X1147380Y1676755D1*
X1142134Y1678459D1*
X1137219Y1680964D1*
X1132756Y1684206D1*
X1091755Y1725054D1*
X1079395Y1737567D1*
X1076153Y1742030D1*
X1073648Y1746945D1*
X1071944Y1752191D1*
X1071081Y1757640D1*
X1070972Y1815516D1*
Y1939639D1*
X1047350Y1939631D1*
Y2057182D1*
X1164902D1*
Y2040281D1*
X1171579Y2045957D1*
X1179442Y2050776D1*
X1187963Y2054306D1*
X1196931Y2056459D1*
X1206126Y2057182D1*
X1215321Y2056459D1*
X1224289Y2054306D1*
X1232810Y2050776D1*
X1240673Y2045957D1*
X1247687Y2039967D1*
X1253676Y2032954D1*
X1258495Y2025090D1*
X1262025Y2016569D1*
X1264178Y2007601D1*
X1264902Y1998407D1*
X1264269Y1989982D1*
X1370332Y1883762D1*
X1373574Y1879300D1*
X1376079Y1874384D1*
X1377783Y1869138D1*
X1378646Y1863690D1*
X1378755Y1832476D1*
X1383189Y1827190D1*
X1387201Y1820643D1*
X1390139Y1813549D1*
X1391932Y1806083D1*
X1392534Y1798428D1*
X1391932Y1790773D1*
X1390139Y1783307D1*
X1387201Y1776213D1*
X1383189Y1769666D1*
X1378202Y1763827D1*
X1372363Y1758840D1*
X1365816Y1754828D1*
X1358722Y1751890D1*
X1351256Y1750097D1*
X1343601Y1749495D1*
X1335946Y1750097D1*
X1328480Y1751890D1*
X1321386Y1754828D1*
X1314839Y1758840D1*
X1309000Y1763827D1*
X1304013Y1769666D1*
X1300001Y1776213D1*
X1297063Y1783307D1*
X1295270Y1790773D1*
X1294668Y1798428D1*
X1295270Y1806083D1*
X1297063Y1813549D1*
X1300001Y1820643D1*
X1304013Y1827190D1*
X1308440Y1832423D1*
X1308447Y1846405D1*
X1214584Y1940234D1*
X1206126Y1939631D1*
X1196931Y1940355D1*
X1187963Y1942508D1*
X1179442Y1946037D1*
X1171579Y1950856D1*
X1164896Y1956540D1*
X1164902Y1939631D1*
X1141254D1*
X1141280Y1774956D1*
X1170135Y1746103D1*
X1503268Y1746091D1*
X1508569Y1750525D1*
X1515116Y1754537D1*
X1522210Y1757475D1*
X1529676Y1759268D1*
X1537331Y1759870D1*
X1544986Y1759268D1*
X1546610Y1759172D1*
X1546719Y2063658D1*
X1547581Y2069107D1*
X1549286Y2074353D1*
X1551790Y2079268D1*
X1553331Y2081572D1*
X1545796Y2088082D1*
X1539807Y2095096D1*
X1537353Y2098768D1*
X1532050Y2091471D1*
X1525529Y2084950D1*
X1518067Y2079529D1*
X1509849Y2075341D1*
X1501078Y2072491D1*
X1491968Y2071049D1*
X1482745D1*
X1473636Y2072491D1*
X1464865Y2075341D1*
X1456647Y2079529D1*
X1449185Y2084950D1*
X1442664Y2091471D1*
X1437353Y2098768D1*
X1432050Y2091471D1*
X1425529Y2084950D1*
X1418067Y2079529D1*
X1409849Y2075341D1*
X1401078Y2072491D1*
X1391968Y2071049D1*
X1382745D1*
X1373636Y2072491D1*
X1364865Y2075341D1*
X1356647Y2079529D1*
X1349185Y2084950D1*
X1346127Y2087776D1*
X1346133Y2070867D1*
X1228581D1*
Y2157743D1*
X445574Y2157736D1*
X445571Y444171D1*
X1311623Y444193D1*
X1308131Y448314D1*
X1305249Y453017D1*
X1303138Y458113D1*
X1301850Y463477D1*
X1301417Y471022D1*
X1422513Y576882D2*
X1428918Y571372D1*
X1434907Y564358D1*
X1437361Y560686D1*
X1442664Y567983D1*
X1449185Y574504D1*
X1452201Y576882D1*
X1452203Y728502D1*
X1447771Y733805D1*
X1443759Y740352D1*
X1440820Y747446D1*
X1439028Y754912D1*
X1438425Y762567D1*
X1439124Y770708D1*
X1402761Y770720D1*
X1397463Y766286D1*
X1390916Y762274D1*
X1383822Y759336D1*
X1376356Y757543D1*
X1368701Y756941D1*
X1361046Y757543D1*
X1353854Y759258D1*
Y742535D1*
X1414088Y682174D1*
X1417330Y677712D1*
X1419835Y672797D1*
X1421539Y667550D1*
X1422402Y662102D1*
X1422511Y604226D1*
Y576918D1*
X1522513Y576882D2*
X1528918Y571372D1*
X1534907Y564358D1*
X1537361Y560686D1*
X1542664Y567983D1*
X1549185Y574504D1*
X1552201Y576882D1*
X1552203Y765750D1*
X1547199Y770724D1*
X1535604Y770720D1*
X1536291Y762567D1*
X1535689Y754912D1*
X1533896Y747446D1*
X1530958Y740352D1*
X1526946Y733805D1*
X1522520Y728572D1*
X1522511Y576938D1*
X1622513Y576882D2*
X1628918Y571372D1*
X1634907Y564358D1*
X1637361Y560686D1*
X1642664Y567983D1*
X1649185Y574504D1*
X1652201Y576882D1*
X1652203Y874120D1*
X1555092Y971198D1*
X1547733Y971896D1*
X1547721Y894100D1*
X1553184Y889378D1*
X1558170Y883539D1*
X1562182Y876992D1*
X1565121Y869898D1*
X1566913Y862432D1*
X1567516Y854777D1*
X1566913Y847122D1*
X1565451Y840826D1*
X1569970Y840056D1*
X1575217Y838352D1*
X1580132Y835847D1*
X1584594Y832605D1*
X1612214Y805138D1*
X1615797Y800944D1*
X1618679Y796240D1*
X1620790Y791144D1*
X1622078Y785780D1*
X1622511Y780281D1*
Y576925D1*
X1722513Y576882D2*
X1728918Y571372D1*
X1734907Y564358D1*
X1737361Y560686D1*
X1742664Y567983D1*
X1745637Y571200D1*
X1742150Y578014D1*
X1739777Y585317D1*
X1738576Y592901D1*
Y600579D1*
X1739777Y608163D1*
X1742150Y615466D1*
X1745636Y622308D1*
X1750149Y628520D1*
X1755579Y633949D1*
X1761791Y638462D1*
X1768632Y641948D1*
X1775935Y644321D1*
X1783519Y645522D1*
X1791198D1*
X1798781Y644321D1*
X1806084Y641948D1*
X1812926Y638462D1*
X1819138Y633949D1*
X1824567Y628520D1*
X1829081Y622308D1*
X1832567Y615466D1*
X1834939Y608163D1*
X1836140Y600579D1*
Y592901D1*
X1834939Y585317D1*
X1832567Y578014D1*
X1829088Y571186D1*
X1834907Y564358D1*
X1837361Y560686D1*
X1842664Y567983D1*
X1849185Y574504D1*
X1856647Y579925D1*
X1864865Y584113D1*
X1873636Y586963D1*
X1882745Y588405D1*
X1891968D1*
X1901078Y586963D1*
X1909849Y584113D1*
X1918067Y579925D1*
X1925529Y574504D1*
X1932050Y567983D1*
X1937361Y560686D1*
X1942664Y567983D1*
X1949185Y574504D1*
X1952201Y576882D1*
X1952312Y826288D1*
X1953175Y831737D1*
X1954879Y836983D1*
X1957384Y841898D1*
X1960626Y846361D1*
X1964526Y850261D1*
X1968989Y853504D1*
X1973904Y856008D1*
X1979150Y857713D1*
X1984599Y858575D1*
X2042475Y858684D1*
X2178512D1*
X2178482Y906378D1*
X1941233Y906346D1*
X1938752Y898544D1*
X1935266Y891703D1*
X1930752Y885491D1*
X1925323Y880061D1*
X1919111Y875548D1*
X1912269Y872062D1*
X1904967Y869689D1*
X1897383Y868488D1*
X1889704D1*
X1882120Y869689D1*
X1874817Y872062D1*
X1867976Y875548D1*
X1861764Y880061D1*
X1856334Y885491D1*
X1851821Y891703D1*
X1848335Y898544D1*
X1845962Y905847D1*
X1844761Y913431D1*
Y921110D1*
X1845962Y928694D1*
X1848335Y935996D1*
X1851821Y942838D1*
X1856334Y949050D1*
X1861764Y954479D1*
X1867976Y958993D1*
X1874817Y962479D1*
X1882120Y964851D1*
X1889704Y966053D1*
X1892916Y966357D1*
X1897110Y969940D1*
X1901814Y972822D1*
X1906910Y974933D1*
X1912274Y976221D1*
X1917773Y976654D1*
X2359400D1*
X2364404Y981658D1*
X2364397Y1058488D1*
X2334415Y1058474D1*
X2317113Y1041304D1*
X2312650Y1038062D1*
X2307735Y1035558D1*
X2302489Y1033853D1*
X2297040Y1032990D1*
X2239164Y1032882D1*
X2184565Y1032990D1*
X2179116Y1033853D1*
X2173870Y1035558D1*
X2168955Y1038062D1*
X2164492Y1041304D1*
X2129555Y1076088D1*
X2047917Y1076083D1*
X2048564Y1071094D1*
Y1063415D1*
X2047363Y1055831D1*
X2044990Y1048529D1*
X2041504Y1041687D1*
X2036991Y1035475D1*
X2031562Y1030046D1*
X2025350Y1025532D1*
X2018508Y1022046D1*
X2011205Y1019674D1*
X2003621Y1018472D1*
X1995943D1*
X1988359Y1019674D1*
X1981056Y1022046D1*
X1974215Y1025532D1*
X1968003Y1030046D1*
X1965069Y1032775D1*
X1945561Y1032776D1*
X1940274Y1028341D1*
X1933727Y1024329D1*
X1926633Y1021391D1*
X1919167Y1019599D1*
X1911512Y1018996D1*
X1903857Y1019599D1*
X1896391Y1021391D1*
X1889297Y1024329D1*
X1882750Y1028341D1*
X1877517Y1032768D1*
X1868271Y1032775D1*
X1854338Y1018989D1*
X1849876Y1015747D1*
X1844961Y1013243D1*
X1839714Y1011538D1*
X1834266Y1010675D1*
X1776390Y1010567D1*
X1722025D1*
X1770782Y961665D1*
X1774025Y957202D1*
X1776529Y952287D1*
X1778233Y947041D1*
X1779096Y941593D1*
X1779205Y883717D1*
X1779095Y771259D1*
X1779993Y761037D1*
X1779391Y753382D1*
X1777598Y745916D1*
X1774660Y738822D1*
X1770648Y732275D1*
X1765661Y726436D1*
X1759823Y721449D1*
X1753276Y717437D1*
X1746182Y714499D1*
X1738715Y712706D1*
X1731060Y712104D1*
X1723406Y712706D1*
X1722508Y712885D1*
X1722511Y576921D1*
X2045951Y525200D2*
X2044509Y516090D1*
X2041659Y507319D1*
X2037471Y499101D1*
X2032050Y491639D1*
X2025529Y485118D1*
X2018067Y479697D1*
X2016007Y478543D1*
X2384968Y478539D1*
X2389994Y483544D1*
X2389988Y866322D1*
X2387372Y861563D1*
X2381951Y854101D1*
X2375429Y847580D1*
X2372413Y845202D1*
X2372303Y820772D1*
X2371440Y815324D1*
X2369735Y810077D1*
X2367231Y805162D1*
X2363988Y800700D1*
X2360088Y796799D1*
X2355625Y793557D1*
X2350710Y791052D1*
X2345464Y789348D1*
X2340015Y788485D1*
X2282139Y788377D1*
X2022517D1*
X2022511Y576898D1*
X2028918Y571372D1*
X2034907Y564358D1*
X2039726Y556495D1*
X2043256Y547974D1*
X2045409Y539006D1*
X2046133Y529811D1*
X2045951Y525200D1*
X2312655Y2113426D2*
X2421020D1*
Y2045569D1*
X2457718Y2008739D1*
X2460960Y2004276D1*
X2463465Y1999361D1*
X2465169Y1994115D1*
X2466032Y1988666D1*
X2466140Y1930790D1*
X2466032Y1540540D1*
X2465169Y1535091D1*
X2463465Y1529845D1*
X2460960Y1524930D1*
X2457718Y1520467D1*
X2416870Y1479466D1*
X2408697Y1471446D1*
X2404234Y1468204D1*
X2399319Y1465699D1*
X2394073Y1463995D1*
X2388624Y1463132D1*
X2330748Y1463024D1*
X2226074D1*
X2221098Y1458019D1*
X2221102Y1402647D1*
X2227169Y1403507D1*
X2234847D1*
X2242431Y1402305D1*
X2249734Y1399933D1*
X2256575Y1396447D1*
X2262787Y1391933D1*
X2265003Y1389886D1*
X2427900Y1389770D1*
X2433348Y1388907D1*
X2438594Y1387202D1*
X2443509Y1384698D1*
X2447972Y1381455D1*
X2451873Y1377555D1*
X2455115Y1373092D1*
X2457619Y1368177D1*
X2459324Y1362931D1*
X2460187Y1357483D1*
X2460295Y1299606D1*
X2460187Y466218D1*
X2459324Y460770D1*
X2457619Y455524D1*
X2455115Y450609D1*
X2451865Y446138D1*
X2454068Y444193D1*
X2467812D1*
X2467815Y2157758D1*
X2038975Y2157736D1*
X2041659Y2152135D1*
X2044509Y2143364D1*
X2045951Y2134255D1*
Y2125032D1*
X2044509Y2115922D1*
X2041659Y2107151D1*
X2037471Y2098933D1*
X2035538Y2096040D1*
X2220683Y2096212D1*
X2227697Y2102201D1*
X2235561Y2107020D1*
X2244081Y2110550D1*
X2253050Y2112703D1*
X2262244Y2113427D1*
X2271439Y2112703D1*
X2280407Y2110550D1*
X2288928Y2107020D1*
X2296792Y2102201D1*
X2303474Y2096517D1*
X2303469Y2113426D1*
X2312655D1*
X2231369Y1904647D2*
X2224072Y1909958D1*
X2217551Y1916479D1*
X2212130Y1923941D1*
X2207943Y1932158D1*
X2205092Y1940930D1*
X2203650Y1950039D1*
Y1959262D1*
X2205092Y1968372D1*
X2207425Y1975740D1*
X1971872Y1975752D1*
X1981198Y1966716D1*
X1990104Y1957810D1*
X1997711Y1957751D1*
X2005963Y1956443D1*
X2013910Y1953861D1*
X2021355Y1950068D1*
X2028115Y1945157D1*
X2034023Y1939248D1*
X2038934Y1932489D1*
X2042728Y1925044D1*
X2045310Y1917097D1*
X2046617Y1908844D1*
Y1900489D1*
X2045310Y1892236D1*
X2042728Y1884290D1*
X2038934Y1876845D1*
X2034023Y1870085D1*
X2028115Y1864177D1*
X2021355Y1859265D1*
X2020771Y1858938D1*
X2022366Y1853596D1*
X2023567Y1846012D1*
Y1838334D1*
X2022366Y1830750D1*
X2019993Y1823447D1*
X2016507Y1816606D1*
X2011994Y1810394D1*
X2006564Y1804964D1*
X2000352Y1800451D1*
X1993511Y1796965D1*
X1986208Y1794592D1*
X1978624Y1793391D1*
X1970946D1*
X1963362Y1794592D1*
X1956059Y1796965D1*
X1948731Y1800776D1*
X1883813Y1800770D1*
X1878560Y1796336D1*
X1872013Y1792324D1*
X1864919Y1789386D1*
X1857453Y1787593D1*
X1849798Y1786991D1*
X1842143Y1787593D1*
X1838684Y1788281D1*
X1838686Y1583539D1*
X1845450Y1581291D1*
X1852292Y1577805D1*
X1858504Y1573292D1*
X1863933Y1567862D1*
X1868447Y1561650D1*
X1871933Y1554809D1*
X1874305Y1547506D1*
X1875507Y1539922D1*
Y1532243D1*
X1874305Y1524659D1*
X1871933Y1517357D1*
X1868447Y1510515D1*
X1863933Y1504303D1*
X1858504Y1498874D1*
X1852292Y1494360D1*
X1845450Y1490874D1*
X1838148Y1488502D1*
X1830564Y1487300D1*
X1822885D1*
X1815301Y1488502D1*
X1807999Y1490874D1*
X1801157Y1494360D1*
X1794945Y1498874D1*
X1789515Y1504303D1*
X1785002Y1510515D1*
X1781516Y1517357D1*
X1779143Y1524659D1*
X1777942Y1532243D1*
X1777823Y1535288D1*
X1773559Y1540907D1*
X1771055Y1545822D1*
X1769350Y1551068D1*
X1768488Y1556516D1*
X1768379Y1614392D1*
Y1864685D1*
X1763043Y1870085D1*
X1758131Y1876845D1*
X1754338Y1884290D1*
X1751727Y1892380D1*
X1687465Y1828116D1*
X1725499Y1789917D1*
X1728741Y1785454D1*
X1731245Y1780539D1*
X1732950Y1775293D1*
X1733813Y1769845D1*
X1733921Y1711969D1*
X1733813Y1538124D1*
X1732950Y1532675D1*
X1731245Y1527429D1*
X1728741Y1522514D1*
X1725499Y1518051D1*
X1723617Y1516017D1*
X1717160Y1506653D1*
X1715959Y1499069D1*
X1713586Y1491766D1*
X1710100Y1484925D1*
X1705556Y1478680D1*
X1709923Y1477134D1*
X1853782D1*
X2208204Y1831588D1*
X2206345Y1836488D1*
X2204192Y1845456D1*
X2203469Y1854651D1*
X2204192Y1863845D1*
X2206345Y1872814D1*
X2209875Y1881334D1*
X2214694Y1889198D1*
X2220683Y1896212D1*
X2227697Y1902201D1*
X2231369Y1904655D1*
X2395847Y1606469D2*
X2388928Y1602281D1*
X2380407Y1598752D1*
X2371439Y1596599D1*
X2362244Y1595875D1*
X2353050Y1596599D1*
X2344081Y1598752D1*
X2335561Y1602281D1*
X2327697Y1607100D1*
X2320683Y1613090D1*
X2314694Y1620103D1*
X2312240Y1623776D1*
X2306937Y1616479D1*
X2300416Y1609958D1*
X2292954Y1604536D1*
X2284737Y1600349D1*
X2275965Y1597499D1*
X2266856Y1596057D1*
X2257633D1*
X2253819Y1596508D1*
X2170813Y1513505D1*
X2174362Y1510720D1*
X2188710Y1524908D1*
X2193173Y1528151D1*
X2198088Y1530655D1*
X2203334Y1532359D1*
X2208783Y1533222D1*
X2266659Y1533331D1*
X2371333D1*
X2395847Y1557873D1*
X2395833Y1606418D1*
X2293907Y1176025D2*
X2364419D1*
X2364397Y1250253D1*
X2359393Y1255270D1*
X2333806Y1255264D1*
X2328510Y1250830D1*
X2321963Y1246818D1*
X2314869Y1243879D1*
X2307403Y1242087D1*
X2299748Y1241484D1*
X2292093Y1242087D1*
X2284627Y1243879D1*
X2277533Y1246818D1*
X2270986Y1250830D1*
X2265147Y1255816D1*
X2260160Y1261655D1*
X2256148Y1268202D1*
X2253210Y1275296D1*
X2251417Y1282763D1*
X2250815Y1290417D1*
X2251417Y1298072D1*
X2253210Y1305538D1*
X2256244Y1312803D1*
X2249734Y1309516D1*
X2242431Y1307143D1*
X2234847Y1305942D1*
X2227169D1*
X2221101Y1306842D1*
X2221004Y1171551D1*
X2229775Y1174401D1*
X2238885Y1175844D1*
X2248108D1*
X2257217Y1174401D1*
X2265989Y1171551D1*
X2274206Y1167364D1*
X2281668Y1161943D1*
X2284726Y1159116D1*
X2284721Y1176025D1*
X2293907D1*
X775316Y676077D2*
X783031D1*
X777355Y682754D1*
X772536Y690618D1*
X769007Y699139D1*
X766854Y708107D1*
X766130Y717302D1*
X766854Y726496D1*
X769007Y735464D1*
X772536Y743985D1*
X777355Y751849D1*
X783345Y758862D1*
X790358Y764852D1*
X794030Y767306D1*
X786734Y772609D1*
X780212Y779130D1*
X777835Y782146D1*
X572030Y782148D1*
X566466Y775741D1*
X559453Y769751D1*
X555781Y767298D1*
X563077Y761995D1*
X569599Y755474D1*
X575020Y748012D1*
X579207Y739794D1*
X582057Y731023D1*
X583500Y721913D1*
Y712690D1*
X582057Y703581D1*
X579207Y694809D1*
X575020Y686592D1*
X569599Y679130D1*
X563077Y672609D1*
X555781Y667298D1*
X563077Y661995D1*
X569599Y655474D1*
X571976Y652458D1*
X766155Y652455D1*
X766130Y676077D1*
X775316D1*
X883681Y626378D2*
Y558526D1*
X766130D1*
Y582174D1*
X572030Y582148D1*
X566466Y575741D1*
X559453Y569751D1*
X551589Y564932D1*
X543068Y561403D1*
X534100Y559250D1*
X524906Y558526D1*
X515711Y559250D1*
X506743Y561403D1*
X498222Y564932D1*
X490358Y569751D1*
X483345Y575741D1*
X477355Y582754D1*
X472536Y590618D1*
X469007Y599139D1*
X466854Y608107D1*
X466130Y617302D1*
X466854Y626496D1*
X469007Y635464D1*
X472536Y643985D1*
X477355Y651849D1*
X483345Y658862D1*
X490358Y664852D1*
X494030Y667306D1*
X486734Y672609D1*
X480212Y679130D1*
X474791Y686592D1*
X470604Y694809D1*
X467754Y703581D1*
X466311Y712690D1*
Y721913D1*
X467754Y731023D1*
X470604Y739794D1*
X474791Y748012D1*
X480212Y755474D1*
X486734Y761995D1*
X494030Y767306D1*
X486734Y772609D1*
X480212Y779130D1*
X474791Y786592D1*
X470604Y794809D1*
X467754Y803581D1*
X466311Y812690D1*
Y821913D1*
X467754Y831023D1*
X470604Y839794D1*
X474791Y848012D1*
X480212Y855474D1*
X486734Y861995D1*
X494195Y867416D1*
X502413Y871603D1*
X511185Y874453D1*
X520294Y875896D1*
X529517D1*
X538626Y874453D1*
X547398Y871603D1*
X555616Y867416D1*
X563077Y861995D1*
X569599Y855474D1*
X571976Y852458D1*
X777781Y852456D1*
X783345Y858862D1*
X789749Y864372D1*
X789752Y1058910D1*
X780383Y1068311D1*
X773505Y1068919D1*
X766039Y1070711D1*
X758945Y1073650D1*
X752398Y1077662D1*
X746559Y1082648D1*
X741572Y1088487D1*
X737560Y1095034D1*
X734622Y1102128D1*
X732829Y1109595D1*
X732227Y1117249D1*
X732829Y1124904D1*
X734622Y1132370D1*
X737560Y1139464D1*
X741572Y1146011D1*
X746559Y1151850D1*
X752398Y1156837D1*
X758945Y1160849D1*
X766039Y1163787D1*
X773505Y1165580D1*
X781160Y1166182D1*
X788815Y1165580D1*
X796281Y1163787D1*
X803375Y1160849D1*
X809922Y1156837D1*
X815761Y1151850D1*
X820748Y1146011D1*
X824760Y1139464D1*
X827698Y1132370D1*
X829491Y1124904D1*
X830061Y1118074D1*
X851636Y1096334D1*
X854879Y1091872D1*
X857383Y1086957D1*
X859088Y1081710D1*
X859951Y1076262D1*
X860059Y1018386D1*
Y864407D1*
X866466Y858862D1*
X872456Y851849D1*
X877275Y843985D1*
X880804Y835464D1*
X882957Y826496D1*
X883681Y817302D1*
X882957Y808107D1*
X880804Y799139D1*
X877275Y790618D1*
X872456Y782754D1*
X866466Y775741D1*
X859453Y769751D1*
X855781Y767298D1*
X863077Y761995D1*
X869599Y755474D1*
X875020Y748012D1*
X879207Y739794D1*
X882057Y731023D1*
X883108Y725225D1*
X1007277Y849388D1*
X1007260Y1327894D1*
X1002826Y1333191D1*
X998814Y1339738D1*
X995875Y1346832D1*
X994083Y1354298D1*
X993480Y1361953D1*
X994083Y1369608D1*
X995875Y1377074D1*
X998814Y1384168D1*
X1002826Y1390715D1*
X1007812Y1396554D1*
X1013651Y1401540D1*
X1020198Y1405552D1*
X1027292Y1408491D1*
X1034759Y1410283D1*
X1042413Y1410886D1*
X1050068Y1410283D1*
X1057535Y1408491D1*
X1064629Y1405552D1*
X1071176Y1401540D1*
X1077014Y1396554D1*
X1082001Y1390715D1*
X1086013Y1384168D1*
X1088952Y1377074D1*
X1090744Y1369608D1*
X1091346Y1361953D1*
X1090744Y1354298D1*
X1088952Y1346832D1*
X1086013Y1339738D1*
X1082001Y1333191D1*
X1077575Y1327958D1*
X1077459Y832052D1*
X1076596Y826603D1*
X1074891Y821357D1*
X1072387Y816442D1*
X1069144Y811979D1*
X1028296Y770978D1*
X883690Y626372D1*
X1945630Y1881486D2*
X1942891Y1888212D1*
X1940940Y1896337D1*
X1940285Y1904667D1*
X1940419Y1908077D1*
X1935309Y1913176D1*
X1856080Y1913201D1*
X1856781Y1904667D1*
X1856125Y1896337D1*
X1854175Y1888212D1*
X1852903Y1884765D1*
X1861221Y1883505D1*
X1868524Y1881132D1*
X1875365Y1877646D1*
X1881577Y1873133D1*
X1883793Y1871085D1*
X1935310Y1871077D1*
X1940184Y1876774D1*
X1945610Y1881436D1*
X1699444Y1282236D2*
X1698242Y1274652D1*
X1695870Y1267349D1*
X1692655Y1260992D1*
X1758287Y1261004D1*
X1777780Y1280471D1*
X1778394Y1287356D1*
X1780186Y1294822D1*
X1783125Y1301916D1*
X1787137Y1308463D1*
X1792124Y1314302D1*
X1797962Y1319288D1*
X1804509Y1323300D1*
X1809787Y1325569D1*
X1797617Y1325820D1*
X1684771D1*
X1685383Y1322717D1*
X1687870Y1317854D1*
X1692384Y1311642D1*
X1695870Y1304801D1*
X1698242Y1297498D1*
X1699444Y1289914D1*
Y1282236D1*
X1608668Y1260992D2*
X1605453Y1267349D1*
X1603080Y1274652D1*
X1601899Y1282072D1*
X1459722Y1282075D1*
X1480768Y1261023D1*
X1608650Y1261004D1*
X1892437Y1362837D2*
X1897010Y1360828D1*
X1903557Y1356816D1*
X1908790Y1352390D1*
X1929878Y1352382D1*
X1947450Y1369921D1*
X1947574Y1459057D1*
X1948437Y1464506D1*
X1950142Y1469752D1*
X1952646Y1474667D1*
X1955888Y1479130D1*
X1996736Y1520131D1*
X2202088Y1725482D1*
X2189666Y1713620D1*
X1891142Y1415249D1*
X1886679Y1412007D1*
X1881764Y1409503D1*
X1876517Y1407798D1*
X1871069Y1406935D1*
X1868300Y1406827D1*
X1865764Y1404573D1*
X1872311Y1400561D1*
X1878149Y1395575D1*
X1883136Y1389736D1*
X1887148Y1383189D1*
X1890087Y1376095D1*
X1891879Y1368629D1*
X1892407Y1362878D1*
X1467483Y880460D2*
X1466282Y872876D1*
X1463909Y865573D1*
X1460423Y858732D1*
X1455910Y852520D1*
X1450480Y847090D1*
X1444268Y842577D1*
X1441505Y841030D1*
X1471653Y841028D1*
X1470252Y847122D1*
X1469650Y854777D1*
X1470252Y862432D1*
X1472045Y869898D1*
X1474983Y876992D1*
X1477419Y881180D1*
X1477413Y1029425D1*
X1472979Y1034675D1*
X1468967Y1041222D1*
X1466029Y1048316D1*
X1464236Y1055782D1*
X1463634Y1063437D1*
X1464236Y1071092D1*
X1466029Y1078558D1*
X1468967Y1085652D1*
X1472979Y1092199D1*
X1477966Y1098038D1*
X1483805Y1103025D1*
X1490352Y1107037D1*
X1497446Y1109975D1*
X1504912Y1111768D1*
X1512567Y1112370D1*
X1520222Y1111768D1*
X1521120Y1111589D1*
X1519795Y1119659D1*
Y1127338D1*
X1520996Y1134922D1*
X1522367Y1139507D1*
X1458840Y1139516D1*
X1453848Y1134511D1*
X1453854Y918308D1*
X1458288Y913061D1*
X1462300Y906514D1*
X1465239Y899420D1*
X1467031Y891954D1*
X1467634Y884299D1*
X1467483Y880460D1*
X1380906Y853262D2*
X1376978Y858732D1*
X1373493Y865573D1*
X1371120Y872876D1*
X1369919Y880460D1*
Y888138D1*
X1371120Y895722D1*
X1373493Y903025D1*
X1376978Y909867D1*
X1381492Y916079D1*
X1383540Y918294D1*
X1383656Y1151837D1*
X1384518Y1157285D1*
X1386223Y1162531D1*
X1387384Y1165048D1*
X1290353Y1165106D1*
X1285344Y1160102D1*
X1285351Y1115999D1*
X1289939Y1119757D1*
X1296486Y1123769D1*
X1303580Y1126707D1*
X1311046Y1128500D1*
X1318701Y1129102D1*
X1326356Y1128500D1*
X1333822Y1126707D1*
X1340916Y1123769D1*
X1347463Y1119757D1*
X1353302Y1114770D1*
X1358288Y1108931D1*
X1362300Y1102384D1*
X1365239Y1095290D1*
X1367031Y1087824D1*
X1367634Y1080169D1*
X1367031Y1072514D1*
X1365239Y1065048D1*
X1362300Y1057954D1*
X1358288Y1051407D1*
X1353862Y1046175D1*
X1353854Y852484D1*
X1361046Y854205D1*
X1368701Y854807D1*
X1376356Y854205D1*
X1380890Y853239D1*
X2107475Y1286979D2*
X2100159Y1286312D1*
X1998122Y1184232D1*
X2132293D1*
X2127521Y1185525D1*
X2120427Y1188463D1*
X2113880Y1192475D1*
X2108041Y1197462D1*
X2103054Y1203301D1*
X2099042Y1209848D1*
X2096104Y1216942D1*
X2094311Y1224408D1*
X2093709Y1232063D1*
X2094311Y1239718D1*
X2096104Y1247184D1*
X2099042Y1254278D1*
X2103054Y1260825D1*
X2107480Y1266058D1*
X2107488Y1286930D1*
X2050434Y1336037D2*
X2051004Y1342867D1*
X2052797Y1350334D1*
X2055735Y1357428D1*
X2059747Y1363975D1*
X2064173Y1369207D1*
X2064181Y1488115D1*
X2017789Y1441754D1*
X2017665Y1352617D1*
X2016802Y1347169D1*
X2015097Y1341923D1*
X2012593Y1337008D1*
X2009350Y1332545D1*
X1969330Y1292371D1*
X1965135Y1288789D1*
X1960432Y1285906D1*
X1955335Y1283795D1*
X1949972Y1282508D1*
X1944462Y1282075D1*
X1909916D1*
X1909841Y1227856D1*
X1908978Y1222408D1*
X1907273Y1217161D1*
X1904769Y1212246D1*
X1903229Y1209943D1*
X1924242Y1209823D1*
X2050420Y1336013D1*
X1715060Y1975744D2*
X1709828Y1971318D1*
X1703281Y1967306D1*
X1696187Y1964367D1*
X1688720Y1962575D1*
X1681066Y1961972D1*
X1673411Y1962575D1*
X1665944Y1964367D1*
X1658850Y1967306D1*
X1652303Y1971318D1*
X1646465Y1976305D1*
X1641478Y1982143D1*
X1637466Y1988690D1*
X1634528Y1995784D1*
X1632735Y2003251D1*
X1632133Y2010906D1*
X1632735Y2018560D1*
X1634450Y2025752D1*
X1616939Y2025747D1*
X1616917Y1872401D1*
X1622623Y1874648D1*
X1630089Y1876441D1*
X1636919Y1877011D1*
X1735166Y1975092D1*
X1727249Y1975752D1*
X1715085D1*
X1636919Y1779210D2*
X1630089Y1779780D1*
X1622623Y1781572D1*
X1616906Y1783876D1*
X1616917Y1718386D1*
X1625071Y1719094D1*
X1632726Y1718492D1*
X1640192Y1716700D1*
X1647286Y1713761D1*
X1653833Y1709749D1*
X1659672Y1704762D1*
X1663609Y1700255D1*
X1663614Y1752491D1*
X1636941Y1779199D1*
X1860514Y1406831D2*
X1865764Y1404573D1*
X1603710Y1030272D2*
X1604656Y1023969D1*
X1604775Y1020955D1*
X1708895Y916824D1*
X1708898Y924275D1*
X1605915Y1027410D1*
X1604200Y1029586D1*
D23*
X1287357Y529811D3*
D24*
X1387357D3*
X1487357D3*
X1587357D3*
X1687357D3*
X1787357D3*
X1887357D3*
X1987357D3*
D23*
X2362244Y2054651D3*
D24*
X2262244D3*
X2362244Y1954651D3*
X2262244D3*
X2362244Y1854651D3*
X2262244D3*
X2362244Y1754651D3*
X2262244D3*
X2362244Y1654651D3*
X2262244D3*
D23*
X2237257Y892273D3*
D24*
X2337257D3*
D23*
X2343496Y1117249D3*
D24*
X2243496D3*
D23*
X1106126Y1998407D3*
D24*
X1206126D3*
D23*
X824906Y617302D3*
D24*
Y717302D3*
Y817302D3*
X524906D3*
Y717302D3*
Y617302D3*
D37*
X1993533Y1904667D3*
X1803533D3*
D23*
X1287357Y2129643D3*
D24*
X1387357D3*
X1487357D3*
X1587357D3*
X1687357D3*
X1787357D3*
X1887357D3*
X1987357D3*
M02*
