M48
INCH
T01C0.0197
T02C0.032
T03C0.0354
T04C0.0394
T05C0.0512
%
T01
X+016507Y+012861
X+016732Y+014420
X+016684Y+015105
X+018267Y+015361
X+018435Y+013610
X+018748Y+013172
X+018267Y+012797
X+017383Y+010947
X+015686Y+011235
X+015126Y+010634
X+015559Y+010201
X+015186Y+008548
X+014874Y+007626
X+013687Y+008059
X+014187Y+008843
X+012187Y+008018
X+011687Y+008665
X+012502Y+010674
X+013187Y+010802
X+013686Y+013235
X+014248Y+013172
X+010424Y+013620
X+007812Y+011172
X+013436Y+017984
X+015373Y+017109
X+016251Y+016702
X+016377Y+018281
X+016811Y+020109
X+018498Y+018359
X+019748Y+018422
X+021426Y+014735
X+020993Y+013352
X+021426Y+012321
X+022310Y+013547
X+022997Y+012904
X+019998Y+010673
X+019115Y+010679
X+018935Y+009173
X+017311Y+007610
X+017874Y+005967
T02
X+019935Y+019047
X+018035Y+019047
T03
X+012874Y+005298
X+013874Y+005298
X+014874Y+005298
X+015874Y+005298
X+016874Y+005298
X+017874Y+005298
X+018874Y+005298
X+019874Y+005298
X+022373Y+008923
X+023373Y+008923
X+023435Y+011172
X+022435Y+011172
X+022622Y+016547
X+023622Y+016547
X+023622Y+017547
X+022622Y+017547
X+022622Y+018547
X+023622Y+018547
X+023622Y+019547
X+022622Y+019547
X+022622Y+020547
X+023622Y+020547
X+019874Y+021296
X+018874Y+021296
X+017874Y+021296
X+016874Y+021296
X+015874Y+021296
X+014874Y+021296
X+013874Y+021296
X+012874Y+021296
X+012061Y+019984
X+011061Y+019984
X+008249Y+008173
X+008249Y+007173
X+008249Y+006173
X+005249Y+006173
X+005249Y+007173
X+005249Y+008173
T04
X+007562Y+018444
T05
X+007562Y+015491
T00
M30
