G04 DipTrace 3.2.0.1*
G04 Top.gbr*
%MOIN*%
G04 #@! TF.FileFunction,Copper,L1,Top*
G04 #@! TF.Part,Single*
%AMOUTLINE0*
4,1,4,
0.051181,0.072047,
0.051181,-0.072047,
-0.051181,-0.072047,
-0.051181,0.072047,
0.051181,0.072047,
0*%
%AMOUTLINE3*
4,1,4,
0.051181,0.069685,
0.051181,-0.069685,
-0.051181,-0.069685,
-0.051181,0.069685,
0.051181,0.069685,
0*%
%AMOUTLINE6*
4,1,4,
0.033465,-0.070866,
-0.033465,-0.070866,
-0.033465,0.070866,
0.033465,0.070866,
0.033465,-0.070866,
0*%
%AMOUTLINE9*
4,1,4,
-0.033465,-0.070866,
0.033465,-0.070866,
0.033465,0.070866,
-0.033465,0.070866,
-0.033465,-0.070866,
0*%
%AMOUTLINE12*
4,1,10,
0.100394,0.019685,
0.033465,0.019685,
0.009843,0.043307,
-0.076772,0.043307,
-0.100394,0.019685,
-0.100394,-0.019685,
-0.076772,-0.043307,
0.009843,-0.043307,
0.033465,-0.019685,
0.100394,-0.019685,
0.100394,0.019685,
0*%
G04 #@! TA.AperFunction,Conductor*
%ADD14C,0.011811*%
G04 #@! TA.AperFunction,CopperBalancing*
%ADD15C,0.025*%
%ADD17R,0.059055X0.051181*%
%ADD18R,0.051181X0.059055*%
%ADD20R,0.061995X0.081995*%
%ADD22R,0.031496X0.062992*%
G04 #@! TA.AperFunction,ComponentPad*
%ADD23R,0.059055X0.059055*%
%ADD24C,0.059055*%
%ADD25R,0.043307X0.03937*%
%ADD26R,0.03937X0.043307*%
%ADD27R,0.07874X0.023622*%
%ADD29R,0.059055X0.03937*%
%ADD31R,0.025591X0.041339*%
%ADD33R,0.043307X0.023622*%
%ADD35R,0.023622X0.043307*%
%ADD36R,0.023622X0.07874*%
G04 #@! TA.AperFunction,ComponentPad*
%ADD37C,0.048*%
G04 #@! TA.AperFunction,ViaPad*
%ADD38C,0.03937*%
%ADD80OUTLINE0*%
%ADD83OUTLINE3*%
%ADD86OUTLINE6*%
%ADD89OUTLINE9*%
%ADD92OUTLINE12*%
%FSLAX26Y26*%
G04*
G70*
G90*
G75*
G01*
G04 Top*
%LPD*%
X1749951Y1286073D2*
D14*
X1650661D1*
Y1286075D1*
X1424843Y1317228D2*
Y1260984D1*
X1468701Y1217126D1*
Y1173672D1*
X1362349Y1417407D2*
X1446035D1*
X1452096Y1423467D1*
X1493585D1*
X1673177Y1441980D2*
X1749951D1*
Y1436073D1*
X1493585Y1423467D2*
X1599832D1*
X1618345Y1441980D1*
X1673177D1*
X1250197Y1067374D2*
X1282248Y1035323D1*
X1318701D1*
Y961073D1*
X1874795Y1317228D2*
X1893640Y1336073D1*
X1962550D1*
X2099335Y1335213D2*
X2047197D1*
X2021606Y1309622D1*
Y1286073D1*
X1962550D1*
X1418701Y884299D2*
Y961073D1*
X949892Y1254735D2*
Y1248486D1*
X768661D1*
X743664Y1223488D1*
X618677D1*
X768661Y1248486D2*
Y1382609D1*
X756163D1*
X824906Y817302D2*
X874122Y768085D1*
Y659764D1*
X899713Y634173D1*
X1124874D1*
Y673546D1*
X1206126Y1998407D2*
X1333299D1*
X1364735Y1966971D1*
X1481087D1*
X1962550Y1586073D2*
X2293667D1*
X2362244Y1654651D1*
X1687126Y954766D2*
Y1051366D1*
X1824895D1*
Y1092252D1*
X2424738Y1477898D2*
X2462234D1*
Y1367223D1*
X2430987Y1335976D1*
Y1048681D1*
X2243496D1*
X2156421D1*
X2130829Y1074273D1*
Y1135997D1*
X1343601Y1798428D2*
X1368598Y1773430D1*
Y1654693D1*
X1687126Y954766D2*
Y935829D1*
X1668567Y917270D1*
X1468701D1*
Y961073D1*
X1835486Y829780D2*
Y869154D1*
X1738949D1*
X1713358Y894744D1*
Y954766D1*
X1687126D1*
X2051591Y698543D2*
Y744165D1*
X1842328D1*
X1835486Y751008D1*
Y829780D1*
X1987357Y529811D2*
Y698543D1*
X2051591D1*
X1274858Y642488D2*
X1336571D1*
Y479816D1*
X1937362D1*
X1987357Y529811D1*
X1124874Y673546D2*
X1174087D1*
X1205144Y642488D1*
X1274858D1*
X1681066Y2010906D2*
X1866972D1*
X1899793Y1978085D1*
Y1660942D1*
X1893354D1*
X1581076Y1973220D2*
Y2023404D1*
X1668567D1*
X1681066Y2010906D1*
X1481087Y1966971D2*
X1581076D1*
Y1973220D1*
X2337257Y892273D2*
X2430987D1*
Y1048681D1*
X2362244Y1654651D2*
X2424738Y1592157D1*
Y1477898D1*
X1343601Y1798428D2*
Y1792178D1*
X1199866Y1648444D1*
Y1517207D1*
X1230924Y1348475D2*
X1237362D1*
X1287357Y1398470D1*
Y1504709D1*
X1299856D1*
Y1748433D1*
X1343601Y1792178D1*
X1331102D1*
Y1798428D1*
X1343601D1*
X831094Y1048318D2*
X872433D1*
Y1135997D1*
X943643D1*
Y1151873D1*
X931144Y1164371D1*
Y1179932D1*
X949892D1*
X781160Y1117249D2*
X831094Y1067315D1*
Y1048318D1*
X1206126Y1998407D2*
X1125072Y2079461D1*
X906147D1*
X831343Y2004656D1*
X756153D1*
X2243496Y1048681D2*
Y1117249D1*
X1299856Y1504709D2*
X1362349D1*
Y1492210D1*
X524906Y817302D2*
X824906D1*
X1893354Y1660942D2*
Y1655269D1*
X1962550Y1586073D1*
X831094Y973514D2*
X499940D1*
Y1042257D1*
X528126Y1223488D2*
Y1120438D1*
X499940Y1092252D1*
Y1042257D1*
X1054008Y732601D2*
Y919394D1*
X999887Y973514D1*
X937394D1*
X1493585Y1490396D2*
Y1492210D1*
X1524832D1*
X1618572Y1585950D1*
X1617072D1*
X1668378Y1637256D1*
Y1726689D1*
X1596639Y1798428D1*
X1411001D1*
X1336009Y1873420D1*
X1187367D1*
X1093627Y1779680D1*
Y1567202D1*
X999106Y1472681D1*
Y1010916D1*
X937394D1*
Y973514D2*
X874122D1*
Y1011010D1*
X781160D1*
X762412Y1029759D1*
X646297D1*
X633798D1*
Y1042257D1*
X937394Y1010916D2*
X874122Y1011010D1*
X1099866Y1517207D2*
X1093627D1*
Y1567202D1*
X1749951Y1586073D2*
X1616136D1*
X1520459Y1490396D1*
X1493585D1*
X646297Y1029759D2*
X633798Y1042257D1*
X1749951Y1586073D2*
Y1592343D1*
X1818551Y1660942D1*
Y1804677D1*
X1849798Y1835924D1*
X1911512Y1067929D2*
Y1023509D1*
X1862297D1*
Y985953D1*
X2056026Y1135997D2*
Y1067255D1*
X1999782D1*
X2049682Y1017354D1*
Y998417D1*
X1974785Y1842173D2*
Y1848423D1*
X2112270D1*
X2137268Y1873420D1*
Y2054651D1*
X2199761Y2117144D1*
X2362244D1*
Y2054651D1*
X1637744Y1828110D2*
X1481087D1*
Y1892168D1*
X1668378Y1510492D2*
X1692797Y1486073D1*
X1749951D1*
X1803533Y1904667D2*
X1762307D1*
X1756058Y1898417D1*
X1581076D1*
X1749951Y1536073D2*
X1826724D1*
Y1536083D1*
X1787358Y596740D2*
X1571252D1*
X1450701Y717291D1*
X1274858D1*
X1124874Y791656D2*
Y831028D1*
X1118701Y837201D1*
Y961073D1*
X1274858Y717291D2*
X1199677D1*
X1174087Y742882D1*
Y791656D1*
X1124874D1*
X1042413Y1361953D2*
X1055891Y1348475D1*
X1156121D1*
Y1285982D1*
X1329403D1*
Y1367223D1*
X1506084D1*
X1518583Y1379722D1*
X1749951D1*
Y1386073D1*
X524906Y617302D2*
X824906D1*
X2116612Y998417D2*
Y842278D1*
X2124769D1*
X2187262D1*
X2237257Y892273D1*
X2118520Y698543D2*
Y764819D1*
X2092925Y790413D1*
X2049966D1*
Y842278D1*
X1956037D1*
Y1185213D1*
X2160358D1*
X2185949Y1210803D1*
Y1275370D1*
X2075520D1*
X2036543Y1236394D1*
X1813087D1*
X1787493Y1210801D1*
Y1092252D1*
X2299751Y1473462D2*
X2142642Y1473465D1*
Y1232063D2*
X2121382Y1210803D1*
X1887888D1*
X1862297Y1185211D1*
Y1092252D1*
X2142642Y1473465D2*
X2080033Y1536073D1*
X1962550D1*
X2299751Y1406533D2*
Y1410969D1*
X2424738D1*
X2299748Y1290417D2*
X2299751Y1406533D1*
X1893543Y917270D2*
X1812302D1*
X1787493Y942079D1*
Y985953D1*
X1731060Y761037D2*
Y692294D1*
X1770370D1*
X1568577Y1123499D2*
X1646759Y1045318D1*
X1649724D1*
X1738280Y1094673D2*
X1685501D1*
Y1167244D1*
X1625071Y1670161D2*
X1631071D1*
Y1723436D1*
X1587325Y1767181D1*
X1493585D1*
Y1648444D1*
X1843549Y1360974D2*
X1918648Y1436073D1*
X1962550D1*
X1368598Y1587764D2*
X1493585D1*
Y1581514D1*
Y1579701D1*
X1537331D1*
Y1710937D1*
X1549829Y1323478D2*
Y1336073D1*
X1607354D1*
X1749951D1*
X1607354D2*
Y1236579D1*
X1618572Y1225361D1*
Y1167244D1*
X1612323Y954766D2*
Y1023509D1*
X1572395Y1063437D1*
X1512567D1*
X1518583Y854777D2*
X1543580Y829780D1*
X1768556D1*
X1512567Y1063437D2*
Y1224707D1*
X1544408Y1256549D1*
X1549829D1*
X1887357Y529811D2*
Y672951D1*
X1868014Y692294D1*
X1837299D1*
X1368598Y1323478D2*
Y1173672D1*
X1368701D1*
X1826724Y1279701D2*
X1809008Y1297417D1*
Y1460480D1*
X1846987Y1498459D1*
X1962550D1*
Y1486073D1*
X1318701Y1080169D2*
Y1173672D1*
X1218701Y801827D2*
Y961073D1*
X1962550Y1386073D2*
X2231008D1*
Y1354724D1*
X1168701Y866524D2*
Y961073D1*
X1487358Y762567D2*
X1294291D1*
X1268701Y788157D1*
Y961073D1*
X1368701Y805874D2*
Y961073D1*
X1555874Y1020130D2*
X1444291D1*
X1418701Y1045720D1*
Y1173672D1*
D38*
X1650661Y1286075D3*
X1424843Y1317228D3*
X1673177Y1441980D3*
X1250197Y1067374D3*
X1874795Y1317228D3*
X1418701Y884299D3*
X2099335Y1335213D3*
X1681066Y2010906D3*
X781160Y1117249D3*
X1343601Y1798428D3*
X1911512Y1067929D3*
X1999782Y1067255D3*
X1637744Y1828110D3*
X1668378Y1510492D3*
X1826724Y1536083D3*
X1787358Y596740D3*
X1042413Y1361953D3*
X2142642Y1232063D3*
Y1473465D3*
X2299748Y1290417D3*
X1893543Y917270D3*
X1625071Y1670161D3*
X1843549Y1360974D3*
X1537331Y1710937D3*
X1518583Y854777D3*
X1512567Y1063437D3*
X1368598Y1323478D3*
X1826724Y1279701D3*
X1218701Y801827D3*
X2231008Y1354724D3*
X1168701Y866524D3*
X1487358Y762567D3*
X1368701Y805874D3*
X1555874Y1020130D3*
X1318701Y1080169D3*
X1568577Y1123499D3*
X1731060Y761037D3*
X1738280Y1094673D3*
X1849798Y1835924D3*
X1974785Y1842173D3*
X448089Y2126608D2*
D15*
X1226082D1*
X2048559D2*
X2157025D1*
X2398610D2*
X2465306D1*
X448089Y2101739D2*
X687352D1*
X824945D2*
X876211D1*
X1155007D2*
X1226082D1*
X2041598D2*
X2132157D1*
X2423513D2*
X2465306D1*
X448089Y2076870D2*
X673214D1*
X839083D2*
X851343D1*
X1179875D2*
X1226082D1*
X1348638D2*
X1358989D1*
X1415742D2*
X1458970D1*
X1515751D2*
X1558979D1*
X1615724D2*
X1658989D1*
X1715734D2*
X1758998D1*
X1815743D2*
X1858971D1*
X1915716D2*
X1958980D1*
X2015725D2*
X2107541D1*
X2423513D2*
X2465306D1*
X448089Y2052001D2*
X673214D1*
X1232768D2*
X1558118D1*
X1710136D2*
X2099611D1*
X2186821D2*
X2201019D1*
X2423513D2*
X2465306D1*
X448089Y2027133D2*
X673214D1*
X906043D2*
X1044867D1*
X1356066D2*
X1519794D1*
X1902977D2*
X2099611D1*
X2174908D2*
X2207801D1*
X2423513D2*
X2465306D1*
X448089Y2002264D2*
X673214D1*
X881175D2*
X1044867D1*
X1381652D2*
X1419820D1*
X1927809D2*
X2099611D1*
X2174908D2*
X2225277D1*
X2423513D2*
X2465306D1*
X448089Y1977395D2*
X673214D1*
X856020D2*
X1044867D1*
X1937462D2*
X2099611D1*
X2174908D2*
X2205541D1*
X2418956D2*
X2465306D1*
X448089Y1952526D2*
X673214D1*
X839083D2*
X1044867D1*
X1245364D2*
X1326952D1*
X1642350D2*
X1777693D1*
X1829379D2*
X1862129D1*
X1937462D2*
X1967700D1*
X2019386D2*
X2099611D1*
X2174908D2*
X2201019D1*
X2423477D2*
X2465306D1*
X448089Y1927657D2*
X673645D1*
X838652D2*
X1419820D1*
X1854067D2*
X1862169D1*
X2044074D2*
X2099611D1*
X2174908D2*
X2207550D1*
X2416946D2*
X2465306D1*
X448089Y1902789D2*
X1165545D1*
X1357825D2*
X1419820D1*
X2049241D2*
X2099611D1*
X2174908D2*
X2226030D1*
X2398466D2*
X2465306D1*
X448089Y1877920D2*
X717998D1*
X794335D2*
X1139637D1*
X1383733D2*
X1419820D1*
X2174908D2*
X2205756D1*
X2418705D2*
X2465306D1*
X448089Y1853051D2*
X705474D1*
X806823D2*
X1114769D1*
X1408601D2*
X1419820D1*
X1682361D2*
X1787956D1*
X2168413D2*
X2200983D1*
X2423513D2*
X2465306D1*
X448089Y1828182D2*
X707483D1*
X804814D2*
X1089901D1*
X1194336D2*
X1302264D1*
X1689179D2*
X1789894D1*
X2144263D2*
X2207263D1*
X2417234D2*
X2465306D1*
X448089Y1803314D2*
X727112D1*
X785185D2*
X1065105D1*
X1169469D2*
X1292396D1*
X1682433D2*
X1780887D1*
X2007006D2*
X2226784D1*
X2397713D2*
X2465306D1*
X448089Y1778445D2*
X1055991D1*
X1144601D2*
X1277647D1*
X1668833D2*
X1780887D1*
X1937462D2*
X2206007D1*
X2418489D2*
X2465306D1*
X448089Y1753576D2*
X1055991D1*
X1131288D2*
X1252780D1*
X1406268D2*
X1455920D1*
X1693701D2*
X1780887D1*
X1937462D2*
X2200983D1*
X2423513D2*
X2465306D1*
X448089Y1728707D2*
X1055991D1*
X1131288D2*
X1227912D1*
X1406268D2*
X1455920D1*
X1705973D2*
X1780887D1*
X1937462D2*
X2207012D1*
X2417485D2*
X2465306D1*
X448089Y1703839D2*
X1055991D1*
X1131288D2*
X1203044D1*
X1420048D2*
X1455920D1*
X1706045D2*
X1761223D1*
X1950703D2*
X2227574D1*
X2396923D2*
X2465306D1*
X448089Y1678970D2*
X1055991D1*
X1131288D2*
X1178176D1*
X1420048D2*
X1442140D1*
X1706045D2*
X1761223D1*
X1950703D2*
X2206222D1*
X2418238D2*
X2465306D1*
X448089Y1654101D2*
X1055991D1*
X1131288D2*
X1162674D1*
X1420048D2*
X1442140D1*
X1706045D2*
X1759500D1*
X1950703D2*
X2200983D1*
X2423513D2*
X2465306D1*
X448089Y1629232D2*
X1055991D1*
X1131288D2*
X1162208D1*
X1237505D2*
X1262217D1*
X1420048D2*
X1442140D1*
X1705112D2*
X1734632D1*
X1971624D2*
X2206761D1*
X2439876D2*
X2465306D1*
X448089Y1604364D2*
X1055991D1*
X1131288D2*
X1162208D1*
X1237505D2*
X1262217D1*
X448089Y1579495D2*
X707986D1*
X804311D2*
X1037116D1*
X1851806D2*
X1891446D1*
X2339293D2*
X2385177D1*
X448089Y1554626D2*
X699087D1*
X813210D2*
X1028826D1*
X1874521D2*
X1891446D1*
X2311878D2*
X2387079D1*
X448089Y1529757D2*
X702352D1*
X809945D2*
X1003959D1*
X1423636D2*
X1442140D1*
X2138557D2*
X2387079D1*
X448089Y1504888D2*
X721263D1*
X791034D2*
X979091D1*
X1423636D2*
X1442140D1*
X1589708D2*
X1617255D1*
X2351171D2*
X2373299D1*
X448089Y1480020D2*
X693166D1*
X819131D2*
X962225D1*
X1423636D2*
X1442140D1*
X1564841D2*
X1627590D1*
X2033667D2*
X2083857D1*
X2351171D2*
X2373299D1*
X448089Y1455151D2*
X673358D1*
X838939D2*
X961436D1*
X1423636D2*
X1434388D1*
X2033667D2*
X2094766D1*
X2351171D2*
X2373299D1*
X448089Y1430282D2*
X673214D1*
X839083D2*
X961436D1*
X1036769D2*
X1249694D1*
X2033667D2*
X2117122D1*
X2168161D2*
X2248315D1*
X448089Y1405413D2*
X673214D1*
X839083D2*
X961436D1*
X1067414D2*
X1098765D1*
X448089Y1380545D2*
X673214D1*
X839083D2*
X961436D1*
X448089Y1355676D2*
X673214D1*
X839083D2*
X961436D1*
X2351171D2*
X2399387D1*
X448089Y1330807D2*
X673214D1*
X839083D2*
X961436D1*
X1474341D2*
X1498407D1*
X2150578D2*
X2185804D1*
X2337391D2*
X2393323D1*
X448089Y1305938D2*
X465301D1*
X838222D2*
X888627D1*
X1036769D2*
X1098765D1*
X1474951D2*
X1498407D1*
X2205804D2*
X2224703D1*
X2237305D2*
X2250826D1*
X2348659D2*
X2393323D1*
X448089Y1281070D2*
X462897D1*
X683884D2*
X731024D1*
X1036769D2*
X1118824D1*
X1462499D2*
X1498407D1*
X2223136D2*
X2249212D1*
X2350274D2*
X2393323D1*
X448089Y1256201D2*
X462897D1*
X1036769D2*
X1134936D1*
X1481840D2*
X1491840D1*
X2223602D2*
X2262274D1*
X2337212D2*
X2393323D1*
X448089Y1231332D2*
X462897D1*
X1036769D2*
X1075153D1*
X1655699D2*
X1756450D1*
X2223602D2*
X2393323D1*
X448089Y1206463D2*
X462897D1*
X778869D2*
X888627D1*
X1036769D2*
X1075153D1*
X1738915D2*
X1749847D1*
X2223351D2*
X2393323D1*
X448089Y1181594D2*
X462897D1*
X683884D2*
X888627D1*
X1036769D2*
X1075153D1*
X1738915D2*
X1749847D1*
X2208962D2*
X2393323D1*
X448089Y1156726D2*
X462897D1*
X683884D2*
X749755D1*
X812564D2*
X841547D1*
X1036769D2*
X1075153D1*
X1738915D2*
X1749847D1*
X2188185D2*
X2197466D1*
X448089Y1131857D2*
X471581D1*
X675236D2*
X731957D1*
X1036769D2*
X1075153D1*
X448089Y1106988D2*
X465516D1*
X563098D2*
X730808D1*
X1036769D2*
X1075153D1*
X547452Y1082119D2*
X586303D1*
X681300D2*
X744588D1*
X1036769D2*
X1201035D1*
X547452Y1057251D2*
X586303D1*
X1036769D2*
X1199815D1*
X547452Y1032382D2*
X586303D1*
X1036769D2*
X1213486D1*
X1036589Y1007513D2*
X1075153D1*
X2170027D2*
X2393323D1*
X1042977Y982644D2*
X1075153D1*
X2170027D2*
X2393323D1*
X448089Y957776D2*
X466019D1*
X2170027D2*
X2393323D1*
X448089Y932907D2*
X777709D1*
X1993692D2*
X2078941D1*
X2154274D2*
X2175972D1*
X2382211D2*
X2393323D1*
X448089Y908038D2*
X1013145D1*
X1993692D2*
X2078941D1*
X2154274D2*
X2175972D1*
X448089Y883169D2*
X1016339D1*
X1306367D2*
X1331043D1*
X448089Y858301D2*
X480301D1*
X569521D2*
X780293D1*
X869513D2*
X1016339D1*
X1306367D2*
X1331043D1*
X1888875D2*
X1918395D1*
X2442532D2*
X2465306D1*
X448089Y833432D2*
X465875D1*
X883938D2*
X1016339D1*
X1306367D2*
X1325768D1*
X1411651D2*
X1472068D1*
X1888875D2*
X1919508D1*
X2230636D2*
X2465306D1*
X448089Y808563D2*
X464296D1*
X885876D2*
X1016339D1*
X1306367D2*
X1317335D1*
X1420048D2*
X1468156D1*
X1888875D2*
X1943586D1*
X2199704D2*
X2465306D1*
X448089Y783694D2*
X474200D1*
X908124D2*
X941161D1*
X1533980D2*
X1685184D1*
X1888875D2*
X1992640D1*
X2182120D2*
X2465306D1*
X448089Y758825D2*
X480803D1*
X569019D2*
X780795D1*
X911784D2*
X922609D1*
X1538645D2*
X1679694D1*
X2156176D2*
X2465306D1*
X448089Y733957D2*
X466055D1*
X583767D2*
X766046D1*
X911784D2*
X921856D1*
X1529566D2*
X1687804D1*
X2171929D2*
X2465306D1*
X448089Y709088D2*
X464225D1*
X585597D2*
X764216D1*
X911784D2*
X922107D1*
X1511122D2*
X1693402D1*
X2171929D2*
X2465306D1*
X448089Y684219D2*
X473842D1*
X575980D2*
X773833D1*
X911784D2*
X938434D1*
X1535990D2*
X1694335D1*
X1923144D2*
X1949686D1*
X2171929D2*
X2465306D1*
X448089Y659350D2*
X481341D1*
X568480D2*
X763642D1*
X1369918D2*
X1456422D1*
X1560857D2*
X1716296D1*
X1925010D2*
X1949686D1*
X2171929D2*
X2465306D1*
X448089Y634482D2*
X466198D1*
X1374224D2*
X1481290D1*
X1585725D2*
X1753723D1*
X1821018D2*
X1849713D1*
X1925010D2*
X1949686D1*
X2025019D2*
X2465306D1*
X448089Y609613D2*
X464153D1*
X1152531D2*
X1190198D1*
X1374224D2*
X1506158D1*
X1837058D2*
X1849713D1*
X1925010D2*
X1949686D1*
X2025019D2*
X2465306D1*
X448089Y584744D2*
X473483D1*
X886199D2*
X1226082D1*
X1410754D2*
X1463958D1*
X1510763D2*
X1531026D1*
X1837309D2*
X1849713D1*
X1925010D2*
X1949686D1*
X2025019D2*
X2465306D1*
X448089Y559875D2*
X509869D1*
X539916D2*
X763642D1*
X886199D2*
X1226082D1*
X2040378D2*
X2465306D1*
X448089Y535007D2*
X1226082D1*
X2048416D2*
X2465306D1*
X448089Y510138D2*
X1226082D1*
X2045258D2*
X2465306D1*
X448089Y485269D2*
X1226082D1*
X2028213D2*
X2465306D1*
X448089Y460400D2*
X1304776D1*
X1970152D2*
X2465306D1*
X900303Y1309573D2*
X963926D1*
X964061Y1475439D1*
X964924Y1480888D1*
X966629Y1486134D1*
X969133Y1491049D1*
X972375Y1495512D1*
X1013223Y1536513D1*
X1039638Y1562927D1*
X1039621Y1587453D1*
X1058460D1*
X1058582Y1782438D1*
X1059445Y1787886D1*
X1061150Y1793132D1*
X1063654Y1798048D1*
X1066896Y1802510D1*
X1107744Y1843512D1*
X1164537Y1900151D1*
X1169000Y1903393D1*
X1173915Y1905898D1*
X1179161Y1907602D1*
X1184609Y1908465D1*
X1242486Y1908574D1*
X1338767Y1908465D1*
X1344216Y1907602D1*
X1349462Y1905898D1*
X1354377Y1903393D1*
X1358840Y1900151D1*
X1399841Y1859303D1*
X1425545Y1833599D1*
X1445917Y1833581D1*
X1445933Y1837332D1*
X1422311Y1837329D1*
Y1931812D1*
X1361977Y1931926D1*
X1356528Y1932789D1*
X1351282Y1934493D1*
X1346367Y1936998D1*
X1341904Y1940240D1*
X1318741Y1963250D1*
X1253242Y1963253D1*
X1247687Y1956846D1*
X1240673Y1950856D1*
X1232810Y1946037D1*
X1224289Y1942508D1*
X1215321Y1940355D1*
X1206126Y1939631D1*
X1196931Y1940355D1*
X1187963Y1942508D1*
X1179442Y1946037D1*
X1171579Y1950856D1*
X1164896Y1956540D1*
X1164902Y1939631D1*
X1047350D1*
Y2044305D1*
X920712Y2044307D1*
X854173Y1977925D1*
X849710Y1974683D1*
X844795Y1972178D1*
X839549Y1970474D1*
X836831Y1969934D1*
X836582Y1957281D1*
X836492Y1930314D1*
X835774Y1925781D1*
X834356Y1921416D1*
X832272Y1917327D1*
X829574Y1913614D1*
X826329Y1910368D1*
X822616Y1907671D1*
X818527Y1905587D1*
X814162Y1904169D1*
X809629Y1903451D1*
X724657Y1903361D1*
X702677Y1903451D1*
X698144Y1904169D1*
X693779Y1905587D1*
X689690Y1907671D1*
X685977Y1910368D1*
X682731Y1913614D1*
X680034Y1917327D1*
X677950Y1921416D1*
X676532Y1925781D1*
X675814Y1930314D1*
X675724Y1987727D1*
X675814Y2078998D1*
X676532Y2083531D1*
X677950Y2087896D1*
X680034Y2091985D1*
X682731Y2095698D1*
X685977Y2098944D1*
X689690Y2101641D1*
X693779Y2103725D1*
X698144Y2105143D1*
X702677Y2105861D1*
X787649Y2105951D1*
X809629Y2105861D1*
X814162Y2105143D1*
X818527Y2103725D1*
X822616Y2101642D1*
X826329Y2098944D1*
X829574Y2095699D1*
X832272Y2091986D1*
X834356Y2087896D1*
X835774Y2083531D1*
X836492Y2078998D1*
X836582Y2059587D1*
X883317Y2106192D1*
X887779Y2109434D1*
X892694Y2111938D1*
X897941Y2113643D1*
X903389Y2114506D1*
X961265Y2114614D1*
X1127830Y2114506D1*
X1133279Y2113643D1*
X1138525Y2111938D1*
X1143440Y2109434D1*
X1147903Y2106192D1*
X1188904Y2065344D1*
X1197658Y2056590D1*
X1206126Y2057182D1*
X1215321Y2056459D1*
X1224289Y2054306D1*
X1232810Y2050776D1*
X1240673Y2045957D1*
X1247687Y2039967D1*
X1253197Y2033563D1*
X1336057Y2033452D1*
X1341506Y2032589D1*
X1346752Y2030885D1*
X1351667Y2028380D1*
X1356130Y2025138D1*
X1379293Y2002128D1*
X1422329Y2002125D1*
X1422311Y2021810D1*
X1522320D1*
X1522301Y2028059D1*
X1546235D1*
X1547643Y2034267D1*
X1549754Y2039364D1*
X1552636Y2044067D1*
X1556219Y2048262D1*
X1560413Y2051844D1*
X1565117Y2054726D1*
X1570213Y2056837D1*
X1575577Y2058125D1*
X1581076Y2058558D1*
X1668578Y2058557D1*
X1677226Y2059688D1*
X1684905D1*
X1692489Y2058487D1*
X1699791Y2056114D1*
X1706633Y2052628D1*
X1712845Y2048115D1*
X1715060Y2046067D1*
X1869731Y2045951D1*
X1875179Y2045088D1*
X1880425Y2043383D1*
X1885340Y2040879D1*
X1889803Y2037637D1*
X1924650Y2002943D1*
X1928233Y1998748D1*
X1931115Y1994045D1*
X1933226Y1988948D1*
X1934513Y1983585D1*
X1934946Y1978085D1*
Y1870612D1*
X1940184Y1876774D1*
X1945610Y1881436D1*
X1942891Y1888212D1*
X1940940Y1896337D1*
X1940285Y1904667D1*
X1940940Y1912996D1*
X1942891Y1921121D1*
X1946088Y1928841D1*
X1950454Y1935965D1*
X1955881Y1942319D1*
X1962234Y1947745D1*
X1969359Y1952111D1*
X1977078Y1955309D1*
X1985203Y1957259D1*
X1993533Y1957915D1*
X2001863Y1957259D1*
X2009987Y1955309D1*
X2017707Y1952111D1*
X2024831Y1947745D1*
X2031185Y1942319D1*
X2036611Y1935965D1*
X2040977Y1928841D1*
X2044175Y1921121D1*
X2046125Y1912996D1*
X2046781Y1904667D1*
X2046125Y1896337D1*
X2044175Y1888212D1*
X2042393Y1883563D1*
X2097688Y1883576D1*
X2102104Y1887972D1*
X2102223Y2057409D1*
X2103085Y2062857D1*
X2104790Y2068104D1*
X2107294Y2073019D1*
X2110537Y2077481D1*
X2151385Y2118483D1*
X2176931Y2143875D1*
X2181393Y2147118D1*
X2186308Y2149622D1*
X2191565Y2151329D1*
X2149606Y2151476D1*
X2041918D1*
X2044509Y2143364D1*
X2045951Y2134255D1*
Y2125032D1*
X2044509Y2115922D1*
X2041659Y2107151D1*
X2037471Y2098933D1*
X2032050Y2091471D1*
X2025529Y2084950D1*
X2018067Y2079529D1*
X2009849Y2075341D1*
X2001078Y2072491D1*
X1991968Y2071049D1*
X1982745D1*
X1973636Y2072491D1*
X1964865Y2075341D1*
X1956647Y2079529D1*
X1949185Y2084950D1*
X1942664Y2091471D1*
X1937353Y2098768D1*
X1932050Y2091471D1*
X1925529Y2084950D1*
X1918067Y2079529D1*
X1909849Y2075341D1*
X1901078Y2072491D1*
X1891968Y2071049D1*
X1882745D1*
X1873636Y2072491D1*
X1864865Y2075341D1*
X1856647Y2079529D1*
X1849185Y2084950D1*
X1842664Y2091471D1*
X1837353Y2098768D1*
X1832050Y2091471D1*
X1825529Y2084950D1*
X1818067Y2079529D1*
X1809849Y2075341D1*
X1801078Y2072491D1*
X1791968Y2071049D1*
X1782745D1*
X1773636Y2072491D1*
X1764865Y2075341D1*
X1756647Y2079529D1*
X1749185Y2084950D1*
X1742664Y2091471D1*
X1737353Y2098768D1*
X1732050Y2091471D1*
X1725529Y2084950D1*
X1718067Y2079529D1*
X1709849Y2075341D1*
X1701078Y2072491D1*
X1691968Y2071049D1*
X1682745D1*
X1673636Y2072491D1*
X1664865Y2075341D1*
X1656647Y2079529D1*
X1649185Y2084950D1*
X1642664Y2091471D1*
X1637353Y2098768D1*
X1632050Y2091471D1*
X1625529Y2084950D1*
X1618067Y2079529D1*
X1609849Y2075341D1*
X1601078Y2072491D1*
X1591968Y2071049D1*
X1582745D1*
X1573636Y2072491D1*
X1564865Y2075341D1*
X1556647Y2079529D1*
X1549185Y2084950D1*
X1542664Y2091471D1*
X1537353Y2098768D1*
X1532050Y2091471D1*
X1525529Y2084950D1*
X1518067Y2079529D1*
X1509849Y2075341D1*
X1501078Y2072491D1*
X1491968Y2071049D1*
X1482745D1*
X1473636Y2072491D1*
X1464865Y2075341D1*
X1456647Y2079529D1*
X1449185Y2084950D1*
X1442664Y2091471D1*
X1437353Y2098768D1*
X1432050Y2091471D1*
X1425529Y2084950D1*
X1418067Y2079529D1*
X1409849Y2075341D1*
X1401078Y2072491D1*
X1391968Y2071049D1*
X1382745D1*
X1373636Y2072491D1*
X1364865Y2075341D1*
X1356647Y2079529D1*
X1349185Y2084950D1*
X1346127Y2087776D1*
X1346133Y2070867D1*
X1228582D1*
Y2151499D1*
X445574Y2151476D1*
X445571Y444227D1*
X2467812Y444193D1*
X2467604Y1322879D1*
X2466157Y1321432D1*
X2466032Y889515D1*
X2465169Y884066D1*
X2463465Y878820D1*
X2460960Y873905D1*
X2457718Y869442D1*
X2453817Y865542D1*
X2449355Y862300D1*
X2444440Y859795D1*
X2439193Y858091D1*
X2433745Y857228D1*
X2384373Y857119D1*
X2378818Y850712D1*
X2371805Y844723D1*
X2363941Y839904D1*
X2355420Y836374D1*
X2346452Y834221D1*
X2337257Y833497D1*
X2328063Y834221D1*
X2319095Y836374D1*
X2310574Y839904D1*
X2302710Y844723D1*
X2296028Y850406D1*
X2296033Y833497D1*
X2228176D1*
X2210093Y815547D1*
X2205630Y812305D1*
X2200715Y809800D1*
X2195469Y808096D1*
X2190021Y807233D1*
X2187252Y807125D1*
X2179608Y800004D1*
Y783502D1*
X2148281D1*
X2150997Y778272D1*
X2152702Y773025D1*
X2153565Y767577D1*
X2153673Y747487D1*
X2169422Y747476D1*
Y649610D1*
X2022506D1*
X2022511Y576932D1*
X2028918Y571372D1*
X2034907Y564358D1*
X2039726Y556495D1*
X2043256Y547974D1*
X2045409Y539006D1*
X2046133Y529811D1*
X2045409Y520616D1*
X2043256Y511648D1*
X2039726Y503127D1*
X2034907Y495264D1*
X2028918Y488250D1*
X2021904Y482261D1*
X2014041Y477442D1*
X2005520Y473912D1*
X1996551Y471759D1*
X1987357Y471035D1*
X1978932Y471668D1*
X1960193Y453085D1*
X1955730Y449843D1*
X1950815Y447339D1*
X1945569Y445634D1*
X1940120Y444771D1*
X1882244Y444663D1*
X1333813Y444771D1*
X1328364Y445634D1*
X1323118Y447339D1*
X1318203Y449843D1*
X1313740Y453085D1*
X1309840Y456986D1*
X1306598Y461449D1*
X1304093Y466364D1*
X1303135Y468964D1*
X1300201Y471035D1*
X1228582D1*
Y587643D1*
X1216083Y587649D1*
Y607350D1*
X1202386Y607443D1*
X1196938Y608306D1*
X1191692Y610010D1*
X1186777Y612515D1*
X1182314Y615757D1*
X1173309Y624609D1*
X1158710Y624613D1*
X1156196Y618214D1*
X1153314Y613510D1*
X1149731Y609316D1*
X1145537Y605733D1*
X1140833Y602851D1*
X1135737Y600740D1*
X1130373Y599452D1*
X1124863Y599020D1*
X896954Y599128D1*
X891506Y599991D1*
X886260Y601696D1*
X883744Y602856D1*
X883681Y558526D1*
X766130D1*
Y582174D1*
X572030Y582148D1*
X566466Y575741D1*
X559453Y569751D1*
X551589Y564932D1*
X543068Y561403D1*
X534100Y559250D1*
X524906Y558526D1*
X515711Y559250D1*
X506743Y561403D1*
X498222Y564932D1*
X490358Y569751D1*
X483345Y575741D1*
X477355Y582754D1*
X472536Y590618D1*
X469007Y599139D1*
X466854Y608107D1*
X466130Y617302D1*
X466854Y626496D1*
X469007Y635464D1*
X472536Y643985D1*
X477355Y651849D1*
X483345Y658862D1*
X490358Y664852D1*
X494030Y667306D1*
X486734Y672609D1*
X480212Y679130D1*
X474791Y686592D1*
X470604Y694809D1*
X467754Y703581D1*
X466311Y712690D1*
Y721913D1*
X467754Y731023D1*
X470604Y739794D1*
X474791Y748012D1*
X480212Y755474D1*
X486734Y761995D1*
X494030Y767306D1*
X486734Y772609D1*
X480212Y779130D1*
X474791Y786592D1*
X470604Y794809D1*
X467754Y803581D1*
X466311Y812690D1*
Y821913D1*
X467754Y831023D1*
X470604Y839794D1*
X474791Y848012D1*
X480212Y855474D1*
X486734Y861995D1*
X494195Y867416D1*
X502413Y871603D1*
X511185Y874453D1*
X520294Y875896D1*
X529517D1*
X538626Y874453D1*
X547398Y871603D1*
X555616Y867416D1*
X563077Y861995D1*
X569599Y855474D1*
X571976Y852458D1*
X777781Y852455D1*
X783345Y858862D1*
X790358Y864852D1*
X798222Y869671D1*
X806743Y873201D1*
X815711Y875354D1*
X824906Y876077D1*
X834100Y875354D1*
X843068Y873201D1*
X851589Y869671D1*
X859453Y864852D1*
X866466Y858862D1*
X872456Y851849D1*
X877275Y843985D1*
X880804Y835464D1*
X882957Y826496D1*
X883681Y817302D1*
X883049Y808877D1*
X900853Y790916D1*
X904095Y786453D1*
X906600Y781538D1*
X908304Y776292D1*
X909167Y770843D1*
X909276Y712967D1*
Y674320D1*
X914280Y669321D1*
X955871Y669327D1*
X931374Y693921D1*
X928676Y697634D1*
X926592Y701723D1*
X925174Y706088D1*
X924456Y710621D1*
X924366Y752286D1*
X924726Y756862D1*
X925797Y761324D1*
X927554Y765564D1*
X929952Y769478D1*
X932939Y772974D1*
X958241Y798149D1*
X961954Y800846D1*
X966043Y802930D1*
X970408Y804348D1*
X974941Y805066D1*
X1018826Y805156D1*
X1018854Y904809D1*
X988273Y935414D1*
X988295Y932455D1*
X886492D1*
Y938376D1*
X881989Y938361D1*
X881996Y932455D1*
X780193D1*
Y938376D1*
X497182Y938469D1*
X491733Y939332D1*
X486487Y941037D1*
X481572Y943541D1*
X477109Y946783D1*
X473209Y950684D1*
X469966Y955147D1*
X467462Y960062D1*
X465757Y965308D1*
X464894Y970756D1*
X464786Y981517D1*
X454944Y981513D1*
Y1103001D1*
X466507Y1103115D1*
X468617Y1108211D1*
X471500Y1112915D1*
X475090Y1117117D1*
X483469Y1125600D1*
X479379Y1127684D1*
X475666Y1130382D1*
X472421Y1133627D1*
X469723Y1137340D1*
X467640Y1141429D1*
X466221Y1145794D1*
X465503Y1150327D1*
X465413Y1235299D1*
X465503Y1296649D1*
X466221Y1301182D1*
X467640Y1305547D1*
X469723Y1309636D1*
X472421Y1313349D1*
X475666Y1316595D1*
X479379Y1319292D1*
X483469Y1321376D1*
X487834Y1322794D1*
X492367Y1323512D1*
X561591Y1323602D1*
X566166Y1323242D1*
X570629Y1322171D1*
X572791Y1321372D1*
X574020Y1321376D1*
X578385Y1322794D1*
X582918Y1323512D1*
X652142Y1323602D1*
X656717Y1323242D1*
X661180Y1322171D1*
X665420Y1320415D1*
X669333Y1318017D1*
X672823Y1315036D1*
X674388Y1313342D1*
X675724Y1312924D1*
X675814Y1454589D1*
X676532Y1459122D1*
X677950Y1463487D1*
X680034Y1467576D1*
X682731Y1471289D1*
X685977Y1474534D1*
X689690Y1477232D1*
X693779Y1479316D1*
X698144Y1480734D1*
X702677Y1481452D1*
X787649Y1481542D1*
X809629Y1481452D1*
X814162Y1480734D1*
X818527Y1479316D1*
X822616Y1477232D1*
X826329Y1474534D1*
X829574Y1471289D1*
X832272Y1467576D1*
X834356Y1463487D1*
X835774Y1459122D1*
X836492Y1454589D1*
X836582Y1369617D1*
X836492Y1310629D1*
X835774Y1306096D1*
X834356Y1301731D1*
X832272Y1297642D1*
X829574Y1293929D1*
X826329Y1290683D1*
X822616Y1287986D1*
X818527Y1285902D1*
X814162Y1284484D1*
X809629Y1283766D1*
X805407Y1283639D1*
X891134D1*
X891117Y1309573D1*
X900303D1*
X891145Y1199896D2*
X891117Y1213353D1*
X783210Y1213332D1*
X766494Y1196757D1*
X762032Y1193515D1*
X757117Y1191011D1*
X751870Y1189306D1*
X746422Y1188443D1*
X688546Y1188335D1*
X681405D1*
X681300Y1150327D1*
X680582Y1145794D1*
X679163Y1141429D1*
X677080Y1137340D1*
X674382Y1133627D1*
X671137Y1130382D1*
X667424Y1127684D1*
X663334Y1125600D1*
X658970Y1124182D1*
X654437Y1123464D1*
X585213Y1123374D1*
X580637Y1123734D1*
X576174Y1124805D1*
X574012Y1125604D1*
X572783Y1125600D1*
X568418Y1124182D1*
X563876Y1123464D1*
X563280Y1122438D1*
X562847Y1114939D1*
X561559Y1109575D1*
X559448Y1104479D1*
X556566Y1099776D1*
X552983Y1095581D1*
X544940Y1087537D1*
X544936Y1008662D1*
X588825Y1008668D1*
X588802Y1103001D1*
X678794D1*
Y1064928D1*
X765170Y1064804D1*
X770619Y1063941D1*
X775865Y1062236D1*
X778381Y1061075D1*
X780193Y1062376D1*
Y1068297D1*
X773505Y1068919D1*
X766039Y1070711D1*
X758945Y1073650D1*
X752398Y1077662D1*
X746559Y1082648D1*
X741572Y1088487D1*
X737560Y1095034D1*
X734622Y1102128D1*
X732829Y1109595D1*
X732227Y1117249D1*
X732829Y1124904D1*
X734622Y1132370D1*
X737560Y1139464D1*
X741572Y1146011D1*
X746559Y1151850D1*
X752398Y1156837D1*
X758945Y1160849D1*
X766039Y1163787D1*
X773505Y1165580D1*
X781160Y1166182D1*
X788815Y1165580D1*
X796281Y1163787D1*
X803375Y1160849D1*
X809922Y1156837D1*
X815761Y1151850D1*
X820748Y1146011D1*
X824760Y1139464D1*
X827698Y1132370D1*
X829491Y1124904D1*
X830061Y1118074D1*
X837303Y1110821D1*
X837388Y1138756D1*
X838251Y1144204D1*
X839955Y1149450D1*
X842460Y1154365D1*
X845702Y1158828D1*
X849603Y1162728D1*
X854065Y1165971D1*
X858980Y1168475D1*
X864227Y1170180D1*
X869675Y1171043D1*
X891129Y1171151D1*
X891117Y1199912D1*
X1772899Y1719718D2*
X1783413D1*
X1783506Y1807435D1*
X1784369Y1812884D1*
X1786073Y1818130D1*
X1788578Y1823045D1*
X1791820Y1827508D1*
X1800875Y1836715D1*
X1801467Y1843579D1*
X1803400Y1851425D1*
X1795203Y1852074D1*
X1787078Y1854025D1*
X1779359Y1857222D1*
X1772234Y1861588D1*
X1767764Y1865274D1*
X1761557Y1863697D1*
X1756058Y1863264D1*
X1671766D1*
X1677332Y1856872D1*
X1681344Y1850325D1*
X1684282Y1843231D1*
X1686075Y1835765D1*
X1686677Y1828110D1*
X1686075Y1820455D1*
X1684282Y1812989D1*
X1681344Y1805895D1*
X1677332Y1799348D1*
X1672345Y1793509D1*
X1666506Y1788523D1*
X1660156Y1784621D1*
X1695109Y1749519D1*
X1698351Y1745057D1*
X1700856Y1740142D1*
X1702560Y1734895D1*
X1703423Y1729447D1*
X1703532Y1671571D1*
X1703423Y1634498D1*
X1702557Y1629039D1*
X1708892Y1627133D1*
X1735052D1*
X1763688Y1655794D1*
X1763713Y1719718D1*
X1772899D1*
X1838546Y1602167D2*
X1818595D1*
X1818570Y1584323D1*
X1826724Y1585016D1*
X1834379Y1584413D1*
X1841846Y1582621D1*
X1848940Y1579682D1*
X1855487Y1575670D1*
X1861325Y1570684D1*
X1866312Y1564845D1*
X1870324Y1558298D1*
X1873263Y1551204D1*
X1875055Y1543737D1*
X1875657Y1536083D1*
X1875560Y1533608D1*
X1893959Y1533613D1*
X1893932Y1602178D1*
X1838516Y1602202D1*
X1934937Y1719718D2*
X1948193D1*
Y1650138D1*
X1971218Y1627120D1*
X2031168Y1627132D1*
Y1621211D1*
X2213919Y1621227D1*
X2209875Y1627967D1*
X2206345Y1636488D1*
X2204192Y1645456D1*
X2203469Y1654651D1*
X2204192Y1663845D1*
X2206345Y1672814D1*
X2209875Y1681334D1*
X2214694Y1689198D1*
X2220683Y1696212D1*
X2227697Y1702201D1*
X2231369Y1704655D1*
X2224072Y1709958D1*
X2217551Y1716479D1*
X2212130Y1723941D1*
X2207943Y1732158D1*
X2205092Y1740930D1*
X2203650Y1750039D1*
Y1759262D1*
X2205092Y1768372D1*
X2207943Y1777143D1*
X2212130Y1785361D1*
X2217551Y1792823D1*
X2224072Y1799344D1*
X2231369Y1804655D1*
X2224072Y1809958D1*
X2217551Y1816479D1*
X2212130Y1823941D1*
X2207943Y1832158D1*
X2205092Y1840930D1*
X2203650Y1850039D1*
Y1859262D1*
X2205092Y1868372D1*
X2207943Y1877143D1*
X2212130Y1885361D1*
X2217551Y1892823D1*
X2224072Y1899344D1*
X2231369Y1904655D1*
X2224072Y1909958D1*
X2217551Y1916479D1*
X2212130Y1923941D1*
X2207943Y1932158D1*
X2205092Y1940930D1*
X2203650Y1950039D1*
Y1959262D1*
X2205092Y1968372D1*
X2207943Y1977143D1*
X2212130Y1985361D1*
X2217551Y1992823D1*
X2224072Y1999344D1*
X2231369Y2004655D1*
X2224072Y2009958D1*
X2217551Y2016479D1*
X2212130Y2023941D1*
X2207943Y2032158D1*
X2205092Y2040930D1*
X2203650Y2050039D1*
Y2059262D1*
X2205092Y2068372D1*
X2207050Y2074725D1*
X2172424Y2040093D1*
X2172313Y1870662D1*
X2171450Y1865213D1*
X2169746Y1859967D1*
X2167241Y1855052D1*
X2163999Y1850589D1*
X2137128Y1823565D1*
X2132933Y1819983D1*
X2128230Y1817100D1*
X2123133Y1814989D1*
X2117770Y1813702D1*
X2112260Y1813269D1*
X2014271D1*
X2009386Y1807572D1*
X2003547Y1802586D1*
X1997000Y1798574D1*
X1989906Y1795635D1*
X1982440Y1793843D1*
X1974785Y1793240D1*
X1967130Y1793843D1*
X1959664Y1795635D1*
X1952570Y1798574D1*
X1946023Y1802586D1*
X1940184Y1807572D1*
X1934939Y1813798D1*
X1934946Y1719683D1*
X1417553Y1547048D2*
X1421125D1*
Y1452545D1*
X1432359Y1452560D1*
X1436136Y1454789D1*
X1441233Y1456900D1*
X1443900Y1457652D1*
X1444653Y1464429D1*
X1444652Y1552610D1*
X1417547D1*
X1333634Y682148D2*
Y677626D1*
X1339329Y677533D1*
X1344777Y676670D1*
X1350024Y674966D1*
X1354939Y672462D1*
X1359401Y669219D1*
X1363302Y665319D1*
X1366544Y660856D1*
X1369049Y655941D1*
X1370753Y650695D1*
X1371616Y645246D1*
X1371724Y586473D1*
X1378162Y587863D1*
X1387357Y588587D1*
X1396551Y587863D1*
X1405520Y585710D1*
X1414041Y582180D1*
X1421904Y577361D1*
X1428918Y571372D1*
X1434907Y564358D1*
X1437361Y560686D1*
X1442664Y567983D1*
X1449185Y574504D1*
X1456647Y579925D1*
X1464865Y584113D1*
X1473636Y586963D1*
X1482745Y588405D1*
X1491968D1*
X1501078Y586963D1*
X1509849Y584113D1*
X1518067Y579925D1*
X1525529Y574504D1*
X1532050Y567983D1*
X1537361Y560686D1*
X1542664Y567983D1*
X1546366Y571898D1*
X1436145Y682133D1*
X1333611Y682138D1*
X1110469Y1407251D2*
X1246454Y1407250D1*
X1252215Y1413043D1*
X1252203Y1446949D1*
X1039621Y1446962D1*
Y1463504D1*
X1034260Y1445122D1*
Y1410207D1*
X1042413Y1410886D1*
X1050068Y1410283D1*
X1057535Y1408491D1*
X1064629Y1405552D1*
X1071176Y1401540D1*
X1077014Y1396554D1*
X1082001Y1390715D1*
X1086258Y1383636D1*
X1101285Y1383629D1*
X1101282Y1407251D1*
X1110469D1*
X1120998Y1289699D2*
X1101282D1*
Y1313347D1*
X1053122Y1313431D1*
X1050068Y1313622D1*
X1042413Y1313020D1*
X1034273Y1313719D1*
X1034152Y1008158D1*
X1033289Y1002710D1*
X1031584Y997463D1*
X1030423Y994947D1*
X1031240Y991876D1*
X1077645Y945472D1*
X1077642Y1029692D1*
X1218944D1*
X1212988Y1035595D1*
X1208475Y1041807D1*
X1204989Y1048648D1*
X1202616Y1055951D1*
X1201415Y1063535D1*
Y1071213D1*
X1202616Y1078797D1*
X1204989Y1086100D1*
X1208475Y1092941D1*
X1212988Y1099154D1*
X1218417Y1104583D1*
X1219018Y1105057D1*
X1077642Y1105054D1*
Y1242290D1*
X1333419D1*
X1333445Y1251074D1*
X1329392Y1250828D1*
X1153363Y1250936D1*
X1147914Y1251799D1*
X1142668Y1253504D1*
X1137753Y1256008D1*
X1133290Y1259251D1*
X1129390Y1263151D1*
X1126147Y1267614D1*
X1123643Y1272529D1*
X1121938Y1277775D1*
X1121076Y1283224D1*
X1120968Y1285992D1*
X2079117Y901054D2*
X2081449D1*
X2081458Y949464D1*
X1998781Y949484D1*
Y1018346D1*
X1991200Y1019108D1*
X1991190Y877434D1*
X1995115Y877432D1*
X1995127Y901054D1*
X2079117D1*
X2151782D2*
X2178496D1*
X2178482Y951048D1*
X2296033D1*
Y934147D1*
X2302710Y939823D1*
X2310574Y944642D1*
X2319095Y948172D1*
X2328063Y950325D1*
X2337257Y951049D1*
X2346452Y950325D1*
X2355420Y948172D1*
X2363941Y944642D1*
X2371805Y939823D1*
X2378818Y933834D1*
X2384328Y927429D1*
X2395856Y927427D1*
X2395833Y1013526D1*
X2167529Y1013528D1*
X2167513Y949484D1*
X2151760D1*
X2151765Y901064D1*
X2015489Y783502D2*
X1995127D1*
Y807150D1*
X1953279Y807233D1*
X1947830Y808096D1*
X1942584Y809800D1*
X1937669Y812305D1*
X1933206Y815547D1*
X1929306Y819448D1*
X1926063Y823910D1*
X1923559Y828825D1*
X1921854Y834072D1*
X1920991Y839520D1*
X1920883Y876691D1*
X1915758Y873671D1*
X1908664Y870732D1*
X1901198Y868940D1*
X1893543Y868337D1*
X1886380Y868882D1*
X1886387Y780846D1*
X1870634D1*
X1879073Y779319D1*
X2016618D1*
X2015781Y782217D1*
X1148807Y1587453D2*
X1164704D1*
X1164821Y1651202D1*
X1165684Y1656650D1*
X1167388Y1661896D1*
X1169893Y1666811D1*
X1173135Y1671274D1*
X1213983Y1712275D1*
X1294968Y1793260D1*
X1294668Y1798428D1*
X1295270Y1806083D1*
X1297063Y1813549D1*
X1300001Y1820643D1*
X1304013Y1827190D1*
X1309000Y1833029D1*
X1315226Y1838274D1*
X1201910Y1838266D1*
X1128770Y1765108D1*
X1128781Y1587448D1*
X1148807Y1587453D1*
X1235037D2*
X1260112D1*
Y1526916D1*
X1264535Y1531446D1*
X1264702Y1541454D1*
X1264527Y1663389D1*
X1235017Y1633880D1*
X1235020Y1587476D1*
X2185668Y1160790D2*
Y1127777D1*
X2187597Y1135412D1*
X2191127Y1143933D1*
X2195946Y1151797D1*
X2201935Y1158810D1*
X2208949Y1164800D1*
X2216813Y1169619D1*
X2225333Y1173148D1*
X2234302Y1175301D1*
X2243496Y1176025D1*
X2252691Y1175301D1*
X2261659Y1173148D1*
X2270180Y1169619D1*
X2278043Y1164800D1*
X2284726Y1159116D1*
X2284721Y1176025D1*
X2395843D1*
X2395942Y1338734D1*
X2396805Y1344183D1*
X2398509Y1349429D1*
X2401014Y1354344D1*
X2404263Y1358815D1*
X2400180Y1360067D1*
X2375805D1*
Y1375820D1*
X2348699Y1375815D1*
X2348684Y1355631D1*
X2334868D1*
X2334902Y1324465D1*
X2339336Y1319179D1*
X2343348Y1312632D1*
X2346286Y1305538D1*
X2348079Y1298072D1*
X2348681Y1290417D1*
X2348079Y1282763D1*
X2346286Y1275296D1*
X2343348Y1268202D1*
X2339336Y1261655D1*
X2334349Y1255816D1*
X2328510Y1250830D1*
X2321963Y1246818D1*
X2314869Y1243879D1*
X2307403Y1242087D1*
X2299748Y1241484D1*
X2292093Y1242087D1*
X2284627Y1243879D1*
X2277533Y1246818D1*
X2270986Y1250830D1*
X2265147Y1255816D1*
X2260160Y1261655D1*
X2256148Y1268202D1*
X2253210Y1275296D1*
X2251417Y1282763D1*
X2250815Y1290417D1*
X2251417Y1298072D1*
X2253210Y1305538D1*
X2256244Y1312803D1*
X2249734Y1309516D1*
X2242431Y1307143D1*
X2234847Y1305942D1*
X2227169D1*
X2219585Y1307143D1*
X2212282Y1309516D1*
X2205440Y1313002D1*
X2199228Y1317515D1*
X2193799Y1322945D1*
X2189286Y1329157D1*
X2185800Y1335999D1*
X2183427Y1343301D1*
X2182224Y1350930D1*
X2145711Y1350920D1*
X2147665Y1342867D1*
X2148268Y1335213D1*
X2147665Y1327558D1*
X2145873Y1320091D1*
X2142934Y1312997D1*
X2141548Y1310523D1*
X2188707Y1310415D1*
X2194155Y1309552D1*
X2199402Y1307848D1*
X2204317Y1305343D1*
X2208779Y1302101D1*
X2212680Y1298200D1*
X2215922Y1293738D1*
X2218426Y1288823D1*
X2220131Y1283577D1*
X2220994Y1278128D1*
X2221102Y1220252D1*
X2220994Y1208045D1*
X2220131Y1202597D1*
X2218426Y1197350D1*
X2215922Y1192435D1*
X2212680Y1187973D1*
X2185669Y1160808D1*
X2185668Y1106749D2*
Y1083822D1*
X2195140Y1083835D1*
X2191127Y1090566D1*
X2187597Y1099087D1*
X2185666Y1106941D1*
X733520Y1283676D2*
X702677Y1283766D1*
X698144Y1284484D1*
X693779Y1285902D1*
X689690Y1287986D1*
X685977Y1290683D1*
X682726Y1293936D1*
X681390Y1294354D1*
Y1258650D1*
X729093Y1258642D1*
X733498Y1263037D1*
X733508Y1283688D1*
X804935Y1840581D2*
X803734Y1832997D1*
X801361Y1825694D1*
X797875Y1818852D1*
X793362Y1812640D1*
X787932Y1807211D1*
X781720Y1802698D1*
X774879Y1799212D1*
X767576Y1796839D1*
X759992Y1795638D1*
X752314D1*
X744730Y1796839D1*
X737427Y1799212D1*
X730585Y1802698D1*
X724373Y1807211D1*
X718944Y1812640D1*
X714431Y1818852D1*
X710945Y1825694D1*
X708572Y1832997D1*
X707371Y1840581D1*
Y1848259D1*
X708572Y1855843D1*
X710945Y1863146D1*
X714431Y1869987D1*
X718944Y1876199D1*
X724373Y1881629D1*
X730585Y1886142D1*
X737427Y1889628D1*
X744730Y1892001D1*
X752314Y1893202D1*
X759992D1*
X767576Y1892001D1*
X774879Y1889628D1*
X781720Y1886142D1*
X787932Y1881629D1*
X793362Y1876199D1*
X797875Y1869987D1*
X801361Y1863146D1*
X803734Y1855843D1*
X804935Y1848259D1*
Y1840581D1*
X810822Y1544842D2*
X809476Y1536343D1*
X806817Y1528159D1*
X802910Y1520491D1*
X797852Y1513530D1*
X791768Y1507445D1*
X784806Y1502387D1*
X777139Y1498480D1*
X768955Y1495821D1*
X760455Y1494475D1*
X751850D1*
X743351Y1495821D1*
X735167Y1498480D1*
X727500Y1502387D1*
X720538Y1507445D1*
X714453Y1513530D1*
X709395Y1520491D1*
X705489Y1528159D1*
X702829Y1536343D1*
X701483Y1544842D1*
Y1553447D1*
X702829Y1561946D1*
X705489Y1570130D1*
X709395Y1577797D1*
X714453Y1584759D1*
X720538Y1590844D1*
X727500Y1595902D1*
X735167Y1599809D1*
X743351Y1602468D1*
X751850Y1603814D1*
X760455D1*
X768955Y1602468D1*
X777139Y1599809D1*
X784806Y1595902D1*
X791768Y1590844D1*
X797852Y1584759D1*
X802910Y1577797D1*
X806817Y1570130D1*
X809476Y1561946D1*
X810822Y1553447D1*
Y1544842D1*
X1829101Y571173D2*
X1834907Y564358D1*
X1837361Y560686D1*
X1842664Y567983D1*
X1849185Y574504D1*
X1852201Y576882D1*
X1852203Y643384D1*
X1802479Y643278D1*
X1809573Y640340D1*
X1816120Y636328D1*
X1821959Y631341D1*
X1826946Y625502D1*
X1830958Y618955D1*
X1833896Y611861D1*
X1835689Y604395D1*
X1836291Y596740D1*
X1835689Y589085D1*
X1833896Y581619D1*
X1830958Y574525D1*
X1829088Y571186D1*
X1922513Y576882D2*
X1928918Y571372D1*
X1934907Y564358D1*
X1937361Y560686D1*
X1942664Y567983D1*
X1949185Y574504D1*
X1952201Y576882D1*
X1952312Y701301D1*
X1953178Y706760D1*
X1950541Y709012D1*
X1900985D1*
X1914088Y695782D1*
X1917330Y691319D1*
X1919835Y686404D1*
X1921539Y681158D1*
X1922402Y675710D1*
X1922511Y617833D1*
Y576889D1*
X2397378Y2113426D2*
X2421020D1*
Y1995875D1*
X2404119D1*
X2409795Y1989198D1*
X2414614Y1981334D1*
X2418143Y1972814D1*
X2420296Y1963845D1*
X2421020Y1954651D1*
X2420296Y1945456D1*
X2418143Y1936488D1*
X2414614Y1927967D1*
X2409795Y1920103D1*
X2403805Y1913090D1*
X2396792Y1907100D1*
X2393119Y1904647D1*
X2400416Y1899344D1*
X2406937Y1892823D1*
X2412359Y1885361D1*
X2416546Y1877143D1*
X2419396Y1868372D1*
X2420838Y1859262D1*
Y1850039D1*
X2419396Y1840930D1*
X2416546Y1832158D1*
X2412359Y1823941D1*
X2406937Y1816479D1*
X2400416Y1809958D1*
X2393119Y1804647D1*
X2400416Y1799344D1*
X2406937Y1792823D1*
X2412359Y1785361D1*
X2416546Y1777143D1*
X2419396Y1768372D1*
X2420838Y1759262D1*
Y1750039D1*
X2419396Y1740930D1*
X2416546Y1732158D1*
X2412359Y1723941D1*
X2406937Y1716479D1*
X2400416Y1709958D1*
X2393119Y1704647D1*
X2400416Y1699344D1*
X2406937Y1692823D1*
X2412359Y1685361D1*
X2416546Y1677143D1*
X2419396Y1668372D1*
X2420838Y1659262D1*
Y1650039D1*
X2420387Y1646226D1*
X2451469Y1614988D1*
X2454711Y1610525D1*
X2457215Y1605610D1*
X2458920Y1600364D1*
X2459783Y1594916D1*
X2459891Y1537039D1*
Y1528822D1*
X2467832Y1528799D1*
X2467815Y2151443D1*
X2370451Y2151327D1*
X2375697Y2149622D1*
X2380612Y2147118D1*
X2385075Y2143875D1*
X2388975Y2139975D1*
X2392217Y2135512D1*
X2394722Y2130597D1*
X2396426Y2125351D1*
X2397289Y2119902D1*
X2397398Y2113448D1*
X2370669Y1596508D2*
X2362244Y1595875D1*
X2353819Y1596508D1*
X2316497Y1559342D1*
X2312034Y1556100D1*
X2307119Y1553596D1*
X2301873Y1551891D1*
X2296425Y1551028D1*
X2238549Y1550920D1*
X2114928D1*
X2143433Y1522388D1*
X2150297Y1521795D1*
X2157763Y1520003D1*
X2164857Y1517064D1*
X2171404Y1513052D1*
X2176636Y1508626D1*
X2250833Y1508616D1*
X2250818Y1524363D1*
X2348684D1*
Y1446131D1*
X2375789Y1446122D1*
X2375805Y1528799D1*
X2389548D1*
X2389584Y1577620D1*
X2370675Y1596506D1*
X1639852Y1984532D2*
Y1933576D1*
X1742304Y1933571D1*
X1746348Y1935989D1*
X1751444Y1938100D1*
X1756808Y1939387D1*
X1762318Y1939820D1*
X1765881Y1942319D1*
X1772234Y1947745D1*
X1779359Y1952111D1*
X1787078Y1955309D1*
X1795203Y1957259D1*
X1803533Y1957915D1*
X1811863Y1957259D1*
X1819987Y1955309D1*
X1827707Y1952111D1*
X1834831Y1947745D1*
X1841185Y1942319D1*
X1846611Y1935965D1*
X1850977Y1928841D1*
X1854175Y1921121D1*
X1856125Y1912996D1*
X1856781Y1904667D1*
X1856125Y1896337D1*
X1854175Y1888212D1*
X1852903Y1884765D1*
X1861221Y1883505D1*
X1864645Y1882539D1*
X1864639Y1963554D1*
X1852429Y1975735D1*
X1715075Y1975752D1*
X1709828Y1971318D1*
X1703281Y1967306D1*
X1696187Y1964367D1*
X1688720Y1962575D1*
X1681066Y1961972D1*
X1673411Y1962575D1*
X1665944Y1964367D1*
X1658850Y1967306D1*
X1652303Y1971318D1*
X1646465Y1976305D1*
X1641478Y1982143D1*
X1639852Y1984577D1*
X2250841Y1422560D2*
X2250818Y1438313D1*
X2176703Y1438310D1*
X2171404Y1433877D1*
X2164857Y1429865D1*
X2157763Y1426926D1*
X2150297Y1425134D1*
X2142642Y1424531D1*
X2134987Y1425134D1*
X2127521Y1426926D1*
X2120427Y1429865D1*
X2113880Y1433877D1*
X2108041Y1438864D1*
X2103054Y1444702D1*
X2099042Y1451249D1*
X2096104Y1458343D1*
X2094311Y1465810D1*
X2093741Y1472640D1*
X2065489Y1500903D1*
X2031194Y1500920D1*
X2031168Y1421261D1*
X2233766Y1421119D1*
X2239214Y1420256D1*
X2244461Y1418551D1*
X2249385Y1416041D1*
X2250818Y1419936D1*
Y1422555D1*
X1453839Y1699345D2*
X1458396D1*
X1458432Y1763296D1*
X1408243Y1763383D1*
X1405492Y1763709D1*
X1403752Y1755058D1*
Y1705573D1*
X1417532Y1705594D1*
Y1622912D1*
X1444637Y1622917D1*
X1444652Y1699345D1*
X1453839D1*
X1500920Y1272576D2*
X1500897Y1332036D1*
X1471456Y1332070D1*
X1473173Y1324883D1*
X1473776Y1317228D1*
X1473173Y1309574D1*
X1471381Y1302107D1*
X1468442Y1295013D1*
X1464430Y1288466D1*
X1460004Y1283234D1*
X1459996Y1275567D1*
X1486873Y1248669D1*
X1500879Y1262734D1*
X1500897Y1272571D1*
X1772505Y643361D2*
X1719469D1*
Y659114D1*
X1715101Y660972D1*
X1710398Y663854D1*
X1706203Y667437D1*
X1702621Y671631D1*
X1699738Y676335D1*
X1697627Y681431D1*
X1696340Y686795D1*
X1695907Y692305D1*
Y726994D1*
X1691473Y732275D1*
X1687461Y738822D1*
X1684522Y745916D1*
X1682730Y753382D1*
X1682127Y761037D1*
X1682730Y768692D1*
X1684522Y776158D1*
X1687461Y783252D1*
X1691473Y789799D1*
X1695532Y794635D1*
X1540822Y794734D1*
X1535374Y795597D1*
X1530127Y797302D1*
X1525212Y799806D1*
X1520750Y803049D1*
X1518715Y804930D1*
X1514743Y805995D1*
X1507645Y807099D1*
X1512926Y804289D1*
X1519138Y799776D1*
X1524567Y794346D1*
X1529081Y788134D1*
X1532567Y781293D1*
X1534939Y773990D1*
X1536140Y766406D1*
Y758728D1*
X1534939Y751144D1*
X1532567Y743841D1*
X1529081Y736999D1*
X1524567Y730787D1*
X1519138Y725358D1*
X1512926Y720845D1*
X1506084Y717359D1*
X1501858Y715854D1*
X1585808Y631899D1*
X1753292Y631894D1*
X1758596Y636328D1*
X1765143Y640340D1*
X1772540Y643364D1*
X1772028Y1245014D2*
X1681333D1*
Y1247921D1*
X1676229Y1244353D1*
X1669387Y1240867D1*
X1662085Y1238494D1*
X1654501Y1237293D1*
X1651666Y1237181D1*
X1653293Y1230860D1*
X1653726Y1225361D1*
Y1216210D1*
X1736403Y1216177D1*
Y1143583D1*
X1742119Y1143455D1*
X1746420Y1142907D1*
X1746435Y1143153D1*
X1752356D1*
X1752448Y1213559D1*
X1753311Y1219007D1*
X1755016Y1224253D1*
X1757520Y1229168D1*
X1760762Y1233631D1*
X1771999Y1245021D1*
X775316Y676077D2*
X783031D1*
X777355Y682754D1*
X772536Y690618D1*
X769007Y699139D1*
X766854Y708107D1*
X766130Y717302D1*
X766854Y726496D1*
X769007Y735464D1*
X772536Y743985D1*
X777355Y751849D1*
X783345Y758862D1*
X790358Y764852D1*
X794030Y767306D1*
X786734Y772609D1*
X780212Y779130D1*
X777835Y782146D1*
X572030Y782148D1*
X566466Y775741D1*
X559453Y769751D1*
X555781Y767298D1*
X563077Y761995D1*
X569599Y755474D1*
X575020Y748012D1*
X579207Y739794D1*
X582057Y731023D1*
X583500Y721913D1*
Y712690D1*
X582057Y703581D1*
X579207Y694809D1*
X575020Y686592D1*
X569599Y679130D1*
X563077Y672609D1*
X555781Y667298D1*
X563077Y661995D1*
X569599Y655474D1*
X571976Y652458D1*
X766155Y652455D1*
X766130Y676077D1*
X775316D1*
X1327644Y892455D2*
X1303888D1*
X1303854Y802717D1*
X1308859Y797714D1*
X1320451Y797721D1*
X1319768Y805874D1*
X1320370Y813529D1*
X1322163Y820995D1*
X1325101Y828089D1*
X1329113Y834636D1*
X1333540Y839869D1*
X1333547Y892463D1*
X1327642Y892491D1*
X1467548Y882125D2*
X1467031Y876644D1*
X1465239Y869178D1*
X1462300Y862084D1*
X1458288Y855537D1*
X1453302Y849698D1*
X1447463Y844712D1*
X1440916Y840700D1*
X1433822Y837761D1*
X1426356Y835969D1*
X1418701Y835366D1*
X1411046Y835969D1*
X1406512Y836934D1*
X1410423Y831441D1*
X1413909Y824600D1*
X1416282Y817297D1*
X1417483Y809713D1*
Y802035D1*
X1416935Y797733D1*
X1453294Y797721D1*
X1458596Y802155D1*
X1465143Y806167D1*
X1472237Y809105D1*
X1479703Y810898D1*
X1487358Y811500D1*
X1495013Y810898D1*
X1498296Y810245D1*
X1493015Y813055D1*
X1486803Y817568D1*
X1481374Y822997D1*
X1476860Y829209D1*
X1473374Y836051D1*
X1471002Y843354D1*
X1469800Y850938D1*
Y858616D1*
X1471002Y866200D1*
X1473374Y873503D1*
X1476860Y880344D1*
X1478053Y882129D1*
X1468690Y882117D1*
X1632626Y1477137D2*
X1628790Y1481730D1*
X1624778Y1488277D1*
X1621840Y1495371D1*
X1620047Y1502837D1*
X1619445Y1510492D1*
X1620047Y1518147D1*
X1621840Y1525613D1*
X1624778Y1532707D1*
X1628790Y1539254D1*
X1633777Y1545093D1*
X1639616Y1550080D1*
X1640876Y1550922D1*
X1633292Y1550920D1*
X1547662Y1465479D1*
X1543190Y1462231D1*
X1548703Y1458621D1*
X1585269D1*
X1595515Y1468711D1*
X1599977Y1471954D1*
X1604892Y1474458D1*
X1610139Y1476163D1*
X1615587Y1477026D1*
X1632591Y1477134D1*
X1559113Y882129D2*
X1562182Y876992D1*
X1565121Y869898D1*
X1566418Y864919D1*
X1693468Y864933D1*
X1686627Y871914D1*
X1683385Y876376D1*
X1680881Y881291D1*
X1679922Y883891D1*
X1674066Y882550D1*
X1668567Y882117D1*
X1559156D1*
X1034260Y1458148D2*
Y1445122D1*
D17*
X949892Y1254735D3*
Y1179932D3*
D18*
X1818551Y1660942D3*
X1893354D3*
D17*
X1362349Y1492210D3*
Y1417407D3*
X1274858Y717291D3*
Y642488D3*
D18*
X1156121Y1348475D3*
X1230924D3*
X2124769Y842278D3*
X2049966D3*
D20*
X1199866Y1517207D3*
X1099866D3*
D18*
X2056026Y1135997D3*
X2130829D3*
D22*
X633798Y1042257D3*
X499940D3*
D80*
X756153Y2004656D3*
D83*
Y1382609D3*
D23*
X1287357Y529811D3*
D24*
X1387357D3*
X1487357D3*
X1587357D3*
X1687357D3*
X1787357D3*
X1887357D3*
X1987357D3*
D23*
X2362244Y2054651D3*
D24*
X2262244D3*
X2362244Y1954651D3*
X2262244D3*
X2362244Y1854651D3*
X2262244D3*
X2362244Y1754651D3*
X2262244D3*
X2362244Y1654651D3*
X2262244D3*
D23*
X2237257Y892273D3*
D24*
X2337257D3*
D23*
X2343496Y1117249D3*
D24*
X2243496D3*
D23*
X1106126Y1998407D3*
D24*
X1206126D3*
D17*
X1581076Y1898417D3*
Y1973220D3*
X1481087Y1892168D3*
Y1966971D3*
D86*
X618677Y1223488D3*
D89*
X528126D3*
D25*
X2049682Y998417D3*
X2116612D3*
D26*
X2299751Y1473462D3*
Y1406533D3*
X2424738Y1410969D3*
Y1477898D3*
X1493585Y1648444D3*
Y1581514D3*
X1368598Y1654693D3*
Y1587764D3*
X1549829Y1323478D3*
Y1256549D3*
D25*
X1768556Y829780D3*
X1835486D3*
X1837299Y692294D3*
X1770370D3*
D26*
X1493585Y1423467D3*
Y1490396D3*
D25*
X2118520Y698543D3*
X2051591D3*
D27*
X1749951Y1586073D3*
Y1536073D3*
Y1486073D3*
Y1436073D3*
Y1386073D3*
Y1336073D3*
Y1286073D3*
X1962550D3*
Y1336073D3*
Y1386073D3*
Y1436073D3*
Y1486073D3*
Y1536073D3*
Y1586073D3*
D29*
X1124874Y673546D3*
D92*
X1054008Y732601D3*
D29*
X1124874Y791656D3*
D31*
X1612323Y954766D3*
X1687126D3*
X1649724Y1045318D3*
D33*
X937394Y973514D3*
Y1010916D3*
Y1048318D3*
X831094D3*
Y973514D3*
D35*
X1862297Y1092252D3*
X1824895D3*
X1787493D3*
Y985953D3*
X1862297D3*
D23*
X824906Y617302D3*
D24*
Y717302D3*
Y817302D3*
X524906D3*
Y717302D3*
Y617302D3*
D36*
X1118701Y961073D3*
X1168701D3*
X1218701D3*
X1268701D3*
X1318701D3*
X1368701D3*
X1418701D3*
X1468701D3*
Y1173672D3*
X1418701D3*
X1368701D3*
X1318701D3*
X1268701D3*
X1218701D3*
X1168701D3*
X1118701D3*
D37*
X1993533Y1904667D3*
X1803533D3*
D25*
X1618572Y1167244D3*
X1685501D3*
D23*
X1287357Y2129643D3*
D24*
X1387357D3*
X1487357D3*
X1587357D3*
X1687357D3*
X1787357D3*
X1887357D3*
X1987357D3*
M02*
