G04 DipTrace 3.2.0.1*
G04 TopMask.gbr*
%MOIN*%
G04 #@! TF.FileFunction,Soldermask,Top*
G04 #@! TF.Part,Single*
%AMOUTLINE1*
4,1,4,
0.055118,0.075984,
0.055118,-0.075984,
-0.055118,-0.075984,
-0.055118,0.075984,
0.055118,0.075984,
0*%
%AMOUTLINE4*
4,1,4,
0.055118,0.073622,
0.055118,-0.073622,
-0.055118,-0.073622,
-0.055118,0.073622,
0.055118,0.073622,
0*%
%AMOUTLINE7*
4,1,4,
0.037402,-0.074803,
-0.037402,-0.074803,
-0.037402,0.074803,
0.037402,0.074803,
0.037402,-0.074803,
0*%
%AMOUTLINE10*
4,1,4,
-0.037402,-0.074803,
0.037402,-0.074803,
0.037402,0.074803,
-0.037402,0.074803,
-0.037402,-0.074803,
0*%
%AMOUTLINE13*
4,1,10,
0.104331,0.023622,
0.035095,0.023622,
0.011473,0.047244,
-0.078402,0.047244,
-0.104331,0.021316,
-0.104331,-0.021316,
-0.078402,-0.047244,
0.011473,-0.047244,
0.035095,-0.023622,
0.104331,-0.023622,
0.104331,0.023622,
0*%
%ADD38C,0.03937*%
%ADD40C,0.051181*%
%ADD46C,0.055874*%
%ADD48R,0.031496X0.086614*%
%ADD50R,0.031496X0.051181*%
%ADD52R,0.051181X0.031496*%
%ADD54R,0.033465X0.049213*%
%ADD56R,0.066929X0.047244*%
%ADD57R,0.086614X0.031496*%
%ADD59R,0.047244X0.051181*%
%ADD61R,0.051181X0.047244*%
%ADD63C,0.066929*%
%ADD65R,0.066929X0.066929*%
%ADD67R,0.03937X0.070866*%
%ADD69R,0.069869X0.089869*%
%ADD71R,0.059055X0.066929*%
%ADD73R,0.066929X0.059055*%
%ADD81OUTLINE1*%
%ADD84OUTLINE4*%
%ADD87OUTLINE7*%
%ADD90OUTLINE10*%
%ADD93OUTLINE13*%
%FSLAX26Y26*%
G04*
G70*
G90*
G75*
G01*
G04 TopMask*
%LPD*%
D73*
X949892Y1254735D3*
Y1179932D3*
D71*
X1818551Y1660942D3*
X1893354D3*
D73*
X1362349Y1492210D3*
Y1417407D3*
X1274858Y717291D3*
Y642488D3*
D71*
X1156121Y1348475D3*
X1230924D3*
X2124769Y842278D3*
X2049966D3*
D69*
X1199866Y1517207D3*
X1099866D3*
D71*
X2056026Y1135997D3*
X2130829D3*
D67*
X633798Y1042257D3*
X499940D3*
D81*
X756153Y2004656D3*
D84*
Y1382609D3*
D38*
Y1844420D3*
D40*
Y1549144D3*
D65*
X1287357Y529811D3*
D63*
X1387357D3*
X1487357D3*
X1587357D3*
X1687357D3*
X1787357D3*
X1887357D3*
X1987357D3*
D65*
X2362244Y2054651D3*
D63*
X2262244D3*
X2362244Y1954651D3*
X2262244D3*
X2362244Y1854651D3*
X2262244D3*
X2362244Y1754651D3*
X2262244D3*
X2362244Y1654651D3*
X2262244D3*
D65*
X2237257Y892273D3*
D63*
X2337257D3*
D65*
X2343496Y1117249D3*
D63*
X2243496D3*
D65*
X1106126Y1998407D3*
D63*
X1206126D3*
D73*
X1581076Y1898417D3*
Y1973220D3*
X1481087Y1892168D3*
Y1966971D3*
D87*
X618677Y1223488D3*
D90*
X528126D3*
D61*
X2049682Y998417D3*
X2116612D3*
D59*
X2299751Y1473462D3*
Y1406533D3*
X2424738Y1410969D3*
Y1477898D3*
X1493585Y1648444D3*
Y1581514D3*
X1368598Y1654693D3*
Y1587764D3*
X1549829Y1323478D3*
Y1256549D3*
D61*
X1768556Y829780D3*
X1835486D3*
X1837299Y692294D3*
X1770370D3*
D59*
X1493585Y1423467D3*
Y1490396D3*
D61*
X2118520Y698543D3*
X2051591D3*
D57*
X1749951Y1586073D3*
Y1536073D3*
Y1486073D3*
Y1436073D3*
Y1386073D3*
Y1336073D3*
Y1286073D3*
X1962550D3*
Y1336073D3*
Y1386073D3*
Y1436073D3*
Y1486073D3*
Y1536073D3*
Y1586073D3*
D56*
X1124874Y673546D3*
D93*
X1054008Y732601D3*
D56*
X1124874Y791656D3*
D54*
X1612323Y954766D3*
X1687126D3*
X1649724Y1045318D3*
D52*
X937394Y973514D3*
Y1010916D3*
Y1048318D3*
X831094D3*
Y973514D3*
D50*
X1862297Y1092252D3*
X1824895D3*
X1787493D3*
Y985953D3*
X1862297D3*
D65*
X824906Y617302D3*
D63*
Y717302D3*
Y817302D3*
X524906D3*
Y717302D3*
Y617302D3*
D48*
X1118701Y961073D3*
X1168701D3*
X1218701D3*
X1268701D3*
X1318701D3*
X1368701D3*
X1418701D3*
X1468701D3*
Y1173672D3*
X1418701D3*
X1368701D3*
X1318701D3*
X1268701D3*
X1218701D3*
X1168701D3*
X1118701D3*
D46*
X1993533Y1904667D3*
X1803533D3*
D61*
X1618572Y1167244D3*
X1685501D3*
D65*
X1287357Y2129643D3*
D63*
X1387357D3*
X1487357D3*
X1587357D3*
X1687357D3*
X1787357D3*
X1887357D3*
X1987357D3*
M02*
