G04 DipTrace 3.2.0.1*
G04 BottomMask.gbr*
%MOIN*%
G04 #@! TF.FileFunction,Soldermask,Bot*
G04 #@! TF.Part,Single*
%ADD38C,0.047244*%
%ADD43C,0.055118*%
%ADD45C,0.055874*%
%ADD62C,0.066929*%
%ADD64R,0.066929X0.066929*%
%FSLAX26Y26*%
G04*
G70*
G90*
G75*
G01*
G04 BotMask*
%LPD*%
D43*
X1787304Y604803D3*
X1887294Y629801D3*
X2418488Y1579701D3*
X1899793Y1960911D3*
X1706063Y1998407D3*
X1349850Y711042D3*
X1543580Y686045D3*
X1487336Y636050D3*
X1387346D3*
D38*
X1468701Y1280165D3*
X1656567D3*
X1563173Y1503169D3*
X2039323Y1332728D3*
X1318701Y1067374D3*
X2021606Y1236858D3*
X1517913D3*
X1441780Y1548268D3*
X1519610Y887713D3*
X2049777Y654798D3*
X881150Y1223488D3*
X2429173Y2054650D3*
X1917417Y1110681D3*
X1636882Y1177929D3*
X1629720Y1492768D3*
X1673028Y1539421D3*
X1111157Y1361953D3*
X2368055Y1025984D3*
X1716335Y1635287D3*
X1874795Y1573451D3*
X1127335Y1942161D3*
X1877906Y1386075D3*
X1218701Y1067374D3*
X1168701Y866524D3*
X1381097Y861026D3*
X1418701Y1063437D3*
D64*
X1018635Y1610948D3*
D62*
Y1710948D3*
D64*
X1287357Y529811D3*
D62*
X1387357D3*
X1487357D3*
X1587357D3*
X1687357D3*
X1787357D3*
X1887357D3*
X1987357D3*
D64*
X2362244Y2054651D3*
D62*
X2262244D3*
X2362244Y1954651D3*
X2262244D3*
X2362244Y1854651D3*
X2262244D3*
X2362244Y1754651D3*
X2262244D3*
X2362244Y1654651D3*
X2262244D3*
D64*
X2324748Y792283D3*
D62*
Y892283D3*
D64*
Y1223488D3*
D62*
Y1123488D3*
D64*
X1024885Y1942163D3*
D62*
Y2042163D3*
D64*
X824906Y617302D3*
D62*
Y717302D3*
Y817302D3*
X524906D3*
Y717302D3*
Y617302D3*
D45*
X1993533Y2004656D3*
X1803533D3*
M02*
