M48
INCH
T01C0.0276
T02C0.032
T03C0.0354
%
T03
X+010186Y+016109
X+010186Y+017109
X+012874Y+005298
X+013874Y+005298
X+014874Y+005298
X+015874Y+005298
X+016874Y+005298
X+017874Y+005298
X+018874Y+005298
X+019874Y+005298
X+023622Y+020547
X+022622Y+020547
X+023622Y+019547
X+022622Y+019547
X+023622Y+018547
X+022622Y+018547
X+023622Y+017547
X+022622Y+017547
X+023622Y+016547
X+022622Y+016547
X+023247Y+007923
X+023247Y+008923
X+023247Y+012235
X+023247Y+011235
X+010249Y+019422
X+010249Y+020422
T01
X+017873Y+006048
X+018873Y+006298
X+024185Y+015797
X+018998Y+019609
X+017061Y+019984
X+013499Y+007110
X+015436Y+006860
X+014873Y+006360
X+013873Y+006360
T03
X+008249Y+006173
X+008249Y+007173
X+008249Y+008173
X+005249Y+008173
X+005249Y+007173
X+005249Y+006173
T01
X+014687Y+012802
X+016566Y+012802
X+015632Y+015032
X+020393Y+013327
X+013187Y+010674
X+020216Y+012369
X+015179Y+012369
X+014418Y+015483
X+015196Y+008877
X+020498Y+006548
X+008811Y+012235
X+024292Y+020546
X+019174Y+011107
X+016369Y+011779
X+016297Y+014928
X+016730Y+015394
X+011112Y+013620
X+023681Y+010260
X+017163Y+016353
X+018748Y+015735
X+011273Y+019422
X+018779Y+013861
X+012187Y+010674
X+011687Y+008665
X+013811Y+008610
X+014187Y+010634
T02
X+019935Y+020047
X+018035Y+020047
T00
M30
