G04 DipTrace 3.2.0.1*
G04 Top.gbr*
%MOIN*%
G04 #@! TF.FileFunction,Copper,L1,Top*
G04 #@! TF.Part,Single*
%AMOUTLINE0*
4,1,4,
0.070866,0.033465,
0.070866,-0.033465,
-0.070866,-0.033465,
-0.070866,0.033465,
0.070866,0.033465,
0*%
%AMOUTLINE3*
4,1,4,
0.070866,-0.033465,
0.070866,0.033465,
-0.070866,0.033465,
-0.070866,-0.033465,
0.070866,-0.033465,
0*%
%AMOUTLINE6*
4,1,10,
0.100394,0.019685,
0.033465,0.019685,
0.009843,0.043307,
-0.076772,0.043307,
-0.100394,0.019685,
-0.100394,-0.019685,
-0.076772,-0.043307,
0.009843,-0.043307,
0.033465,-0.019685,
0.100394,-0.019685,
0.100394,0.019685,
0*%
G04 #@! TA.AperFunction,Conductor*
%ADD13C,0.011811*%
G04 #@! TA.AperFunction,CopperBalancing*
%ADD14C,0.025*%
%ADD15R,0.059055X0.051181*%
%ADD16R,0.051181X0.059055*%
%ADD18R,0.061995X0.081995*%
%ADD20R,0.031496X0.062992*%
%ADD22R,0.055118X0.082677*%
G04 #@! TA.AperFunction,ComponentPad*
%ADD23R,0.059055X0.059055*%
%ADD24C,0.059055*%
%ADD25R,0.043307X0.03937*%
%ADD26R,0.03937X0.043307*%
%ADD27R,0.07874X0.023622*%
%ADD29R,0.059055X0.03937*%
%ADD31R,0.025591X0.041339*%
%ADD33R,0.043307X0.023622*%
%ADD35R,0.023622X0.043307*%
%ADD36R,0.023622X0.07874*%
G04 #@! TA.AperFunction,ComponentPad*
%ADD37C,0.048*%
G04 #@! TA.AperFunction,ViaPad*
%ADD38C,0.047244*%
%ADD78OUTLINE0*%
%ADD81OUTLINE3*%
%ADD84OUTLINE6*%
%FSLAX26Y26*%
G04*
G70*
G90*
G75*
G01*
G04 Top*
%LPD*%
X1468701Y1280165D2*
D13*
Y1173672D1*
X1749951Y1286073D2*
Y1280165D1*
X1656567D1*
X1749951Y1436073D2*
X1506084D1*
Y1479711D1*
X1442622D1*
X1424063Y1461152D1*
X1374848D1*
X1506084Y1479711D2*
Y1495459D1*
X1555463D1*
X1563173Y1503169D1*
X1318701Y1067374D2*
Y961073D1*
X2039323Y1332728D2*
X2035978Y1336073D1*
X1962550D1*
X2021606Y1236858D2*
Y1286073D1*
X1962550D1*
X1517913Y1236858D2*
Y1045720D1*
X1492323Y1020130D1*
X1418701D1*
Y961073D1*
X587430Y1679690D2*
X516218D1*
X490626Y1654098D1*
Y1410969D1*
X581181D1*
X671732D1*
X734226Y1348475D1*
X831155D1*
X1816738Y829780D2*
Y790409D1*
X1706467D1*
X1680877Y816000D1*
Y1011010D1*
X2424738Y1477898D2*
Y1579701D1*
X2405990D1*
Y1654651D1*
X2362244D1*
X1680877Y1011010D2*
Y1126748D1*
X1706467Y1152339D1*
X1824895D1*
Y1111000D1*
X2405990Y1654651D2*
Y1703866D1*
X2070461D1*
Y1685940D1*
Y1611664D1*
X2044870Y1586073D1*
X1962550D1*
X2324748Y1123488D2*
X2234398D1*
X2221888Y1135997D1*
X2130829D1*
X1519610Y887713D2*
X1468701D1*
Y961073D1*
X2051591Y704793D2*
Y656612D1*
X2049777Y654798D1*
X1680877Y1011010D2*
X1724220D1*
Y920335D1*
X1749811Y894744D1*
X1936571D1*
X1962161Y869154D1*
Y749134D1*
X2006503Y704793D1*
X2051591D1*
X2070461Y1685940D2*
X1937289D1*
X1899604Y1723625D1*
Y1729685D1*
X2418488Y1579701D2*
X2424738D1*
X1581076Y2073210D2*
Y2066961D1*
X1431092D1*
X831094Y1098312D2*
X843465D1*
X881150Y1135997D1*
Y1223488D1*
X1024885Y2042163D2*
X643675D1*
Y1973409D1*
X1293606Y1785929D2*
Y2016571D1*
X1268014Y2042163D1*
X1024885D1*
X1431092Y2066961D2*
X1358571D1*
X1332980Y2041370D1*
Y1812804D1*
X1306105Y1785929D1*
X1293606D1*
X1124874Y673546D2*
Y634173D1*
X899713D1*
X874122Y659764D1*
Y768085D1*
X824906Y817302D1*
X1274858Y642488D2*
X1218140D1*
X1187083Y673546D1*
X1124874D1*
X881150Y1223488D2*
X987388D1*
Y1423278D1*
X831155D1*
X1374848Y1535955D2*
X1231113D1*
Y1548265D1*
X1441780Y1548268D2*
X1429467Y1535955D1*
X1374848D1*
X1274858Y642488D2*
X1380908D1*
X1387346Y636050D1*
X524906Y817302D2*
X824906D1*
X581181Y1320417D2*
X470760D1*
Y1185115D1*
X506189Y1149685D1*
Y1098501D1*
Y1023509D1*
X831094D1*
X743675Y1973409D2*
Y1892951D1*
X769268Y1867358D1*
X1067850D1*
X1093441Y1841768D1*
Y1593543D1*
X1506084D1*
Y1546640D1*
X1093441Y1593543D2*
X1067850Y1567953D1*
Y1086501D1*
X1093441D1*
Y1049100D1*
X1067850Y1023509D1*
X937394D1*
X1067850Y1086501D2*
X1042260Y1060911D1*
X937394D1*
X1749951Y1586073D2*
X1824801D1*
Y1654693D1*
Y1729685D1*
X2049682Y998417D2*
Y1135997D1*
X2056026D1*
X1824801Y1729685D2*
Y1778286D1*
X1950381Y1903866D1*
X2403583D1*
X2429173Y1929457D1*
Y2054650D1*
X1636882Y1177929D2*
X1809008D1*
X1824801Y1193722D1*
Y1586073D1*
X1506084Y1546640D2*
X1545457D1*
X1584890Y1586073D1*
X1749951D1*
X937394Y1023509D2*
X899713D1*
Y758193D1*
X925304Y732601D1*
X1054008D1*
X937394Y1060911D2*
X764167D1*
X675392Y1149685D1*
X640047D1*
Y1098501D1*
X1917417Y1110681D2*
Y1046039D1*
X1862297D1*
Y1004701D1*
X2056026Y1135997D2*
X1942734D1*
X1917417Y1110681D1*
X1629720Y1492768D2*
X1636415Y1486073D1*
X1749951D1*
X1431092Y1992157D2*
Y1967160D1*
X1456089Y1942163D1*
X1868546D1*
X1887294Y1960911D1*
X1899793D1*
X1673028Y1539421D2*
X1676375Y1536073D1*
X1749951D1*
X1706063Y1998407D2*
X1718562D1*
X1581076D2*
X1706063D1*
X1118701Y961073D2*
Y855878D1*
X1124874Y849705D1*
Y791656D1*
X1174087D1*
X1248451Y717291D1*
X1274858D1*
X1343601D1*
X1349850Y711042D1*
X1543580Y686045D2*
X1612323Y617302D1*
X1774806D1*
X1787304Y604803D1*
X1787357D1*
X1111157Y1361953D2*
Y1447871D1*
X1136748Y1473462D1*
X1231113D1*
Y1411665D1*
X1256705Y1386073D1*
X1749951D1*
X524906Y617302D2*
X824906D1*
X2324748Y792283D2*
X2274753Y842278D1*
X2124769D1*
X2368055Y1025984D2*
X2340488Y998417D1*
X2116612D1*
X2118520Y704793D2*
Y762913D1*
X2075556D1*
X2049966Y788504D1*
Y842278D1*
Y894744D1*
X2024375Y920335D1*
X1775402D1*
X1749811Y945925D1*
Y1046039D1*
X1787493D1*
Y1111000D1*
X1962550Y1536073D2*
X2299751D1*
Y1473462D1*
X2239134D1*
Y1365193D1*
X2264724Y1339602D1*
X2348370D1*
X2373961Y1314012D1*
Y1172701D1*
X2225551D1*
X2206010Y1192241D1*
X1894919D1*
X1862297Y1159619D1*
Y1111000D1*
X2299751Y1406533D2*
X2339122D1*
X2337308Y1404719D1*
X2424738D1*
Y1410969D1*
Y1017260D1*
X2380992Y973514D1*
X2262255D1*
X2237257Y948517D1*
X1824801D1*
X1787493Y985824D1*
Y1004701D1*
X1962550Y1486073D2*
X2048320D1*
X2060932Y1473462D1*
X2174764D1*
X2324748Y1223488D2*
X2225354D1*
X2174764Y1274079D1*
Y1406533D1*
X1716335Y1635287D2*
X1559444Y1792178D1*
X1424843D1*
X1874795Y1573451D2*
Y1436073D1*
X1962550D1*
X1293606Y1719000D2*
X1424843D1*
Y1725249D1*
X1127335Y1942161D2*
Y1744591D1*
X1152925Y1719000D1*
X1293606D1*
X1018635Y1610948D2*
X740969D1*
Y1679690D1*
X1593575Y1317228D2*
X1632945D1*
X1651790Y1336073D1*
X1749951D1*
X1593575Y1250299D2*
Y1063864D1*
X1606073Y1051365D1*
Y1011010D1*
Y684169D1*
X1631664Y658579D1*
X1810980D1*
X1836571Y632988D1*
Y506190D1*
X1862161Y480598D1*
X1910980D1*
X1936571Y506189D1*
Y843564D1*
X1910980Y869154D1*
X1749808D1*
Y829780D1*
X1887294Y629801D2*
X1887357D1*
X1887294Y636050D1*
X1818551Y704793D1*
X1643475Y1101562D2*
Y749134D1*
X1687816Y704793D1*
X1751622D1*
X1962550Y1386073D2*
X1877906Y1386075D1*
X1218701Y1067374D2*
Y961073D1*
X1168701Y866524D2*
Y961073D1*
X1487336Y636050D2*
X1487357D1*
X1268701Y961073D2*
Y798533D1*
X1443591D1*
X1481087Y761037D1*
Y636050D1*
X1487336D1*
X1381097Y861026D2*
X1368598D1*
Y923520D1*
X1374848Y917270D1*
Y961073D1*
X1368701D1*
X1418701Y1063437D2*
Y1173672D1*
D38*
X1787304Y604803D3*
X1887294Y629801D3*
X2418488Y1579701D3*
X1899793Y1960911D3*
X1706063Y1998407D3*
X1349850Y711042D3*
X1543580Y686045D3*
X1487336Y636050D3*
X1387346D3*
X1468701Y1280165D3*
X1656567D3*
X1563173Y1503169D3*
X2039323Y1332728D3*
X1318701Y1067374D3*
X2021606Y1236858D3*
X1517913D3*
X1441780Y1548268D3*
X1519610Y887713D3*
X2049777Y654798D3*
X881150Y1223488D3*
X2429173Y2054650D3*
X1917417Y1110681D3*
X1636882Y1177929D3*
X1629720Y1492768D3*
X1673028Y1539421D3*
X1111157Y1361953D3*
X2368055Y1025984D3*
X1716335Y1635287D3*
X1874795Y1573451D3*
X1127335Y1942161D3*
X1877906Y1386075D3*
X1218701Y1067374D3*
X1168701Y866524D3*
X1381097Y861026D3*
X1418701Y1063437D3*
X448089Y2126608D2*
D14*
X1515846D1*
X1646298D2*
X2465306D1*
X448089Y2101739D2*
X1002810D1*
X1046961D2*
X1338220D1*
X1646298D2*
X2218315D1*
X448089Y2076870D2*
X623192D1*
X1288496D2*
X1310697D1*
X1646298D2*
X2201091D1*
X448089Y2052001D2*
X603348D1*
X1646298D2*
X1684718D1*
X1727396D2*
X1768974D1*
X1838098D2*
X1958945D1*
X2028105D2*
X2197072D1*
X448089Y2027133D2*
X577009D1*
X1858625D2*
X1938454D1*
X2048631D2*
X2203387D1*
X448089Y2002264D2*
X577009D1*
X810340D2*
X959677D1*
X1090093D2*
X1250125D1*
X2053152D2*
X2218925D1*
X448089Y1977395D2*
X577009D1*
X810340D2*
X959677D1*
X1174385D2*
X1252026D1*
X2046299D2*
X2201306D1*
X448089Y1952526D2*
X577009D1*
X810340D2*
X959677D1*
X1185688D2*
X1252026D1*
X1958490D2*
X1967524D1*
X2019529D2*
X2197072D1*
X448089Y1927657D2*
X577009D1*
X810340D2*
X959677D1*
X1184756D2*
X1252026D1*
X1374583D2*
X1412823D1*
X448089Y1902789D2*
X577009D1*
X1170797D2*
X1252026D1*
X1374583D2*
X1891518D1*
X448089Y1877920D2*
X705079D1*
X1168930D2*
X1252026D1*
X1374583D2*
X1866651D1*
X2435427D2*
X2465306D1*
X448089Y1853051D2*
X725785D1*
X1168930D2*
X1252026D1*
X1374583D2*
X1841782D1*
X1957341D2*
X2197035D1*
X2427425D2*
X2465306D1*
X448089Y1828182D2*
X1049244D1*
X1168930D2*
X1238247D1*
X1577185D2*
X1816915D1*
X1932474D2*
X2202886D1*
X2421612D2*
X2465306D1*
X448089Y1803314D2*
X1051864D1*
X1168930D2*
X1238247D1*
X1606108D2*
X1792262D1*
X1907606D2*
X2220181D1*
X2404315D2*
X2465306D1*
X448089Y1778445D2*
X1051864D1*
X1168930D2*
X1238247D1*
X1630975D2*
X1763520D1*
X1960894D2*
X2201738D1*
X2422760D2*
X2465306D1*
X448089Y1753576D2*
X524188D1*
X650690D2*
X677735D1*
X804203D2*
X970156D1*
X1655843D2*
X1763520D1*
X1960894D2*
X2197035D1*
X2427461D2*
X2465306D1*
X448089Y1728707D2*
X524188D1*
X650690D2*
X677735D1*
X804203D2*
X955982D1*
X1480226D2*
X1565115D1*
X1680710D2*
X1763520D1*
X1960894D2*
X2037782D1*
X2438656D2*
X2465306D1*
X448089Y1703839D2*
X482597D1*
X650690D2*
X677735D1*
X804203D2*
X953828D1*
X1480226D2*
X1589983D1*
X1705579D2*
X1763520D1*
X2447592D2*
X2465306D1*
X448089Y1678970D2*
X457966D1*
X650690D2*
X677735D1*
X804203D2*
X962189D1*
X1135020D2*
X1238247D1*
X1348962D2*
X1369475D1*
X1480226D2*
X1614887D1*
X1755134D2*
X1763534D1*
X2447592D2*
X2465306D1*
X650690Y1654101D2*
X677735D1*
X804203D2*
X953433D1*
X1135020D2*
X1639755D1*
X1772430D2*
X1783193D1*
X1866375D2*
X1912115D1*
X2112038D2*
X2197035D1*
X2447592D2*
X2465306D1*
X650690Y1629232D2*
X677735D1*
X1524542D2*
X1657337D1*
X2112038D2*
X2202419D1*
X2448811D2*
X2465306D1*
X532201Y1604364D2*
X699948D1*
X2111357D2*
X2222262D1*
X2302224D2*
X2322272D1*
X532201Y1579495D2*
X715270D1*
X2096070D2*
X2359197D1*
X532201Y1554626D2*
X953433D1*
X2336673D2*
X2365010D1*
X532201Y1529757D2*
X1026243D1*
X1109434D2*
X1165904D1*
X2341339D2*
X2369352D1*
X532201Y1504888D2*
X1026243D1*
X2355118D2*
X2369352D1*
X532201Y1480020D2*
X765938D1*
X896354D2*
X1026243D1*
X2355118D2*
X2369352D1*
X685965Y1455151D2*
X765938D1*
X1012512D2*
X1026243D1*
X2355118D2*
X2369352D1*
X710186Y1430282D2*
X765938D1*
X1152747D2*
X1165904D1*
X2037614D2*
X2119383D1*
X735055Y1405413D2*
X765938D1*
X1152747D2*
X1190018D1*
X2037614D2*
X2119383D1*
X448089Y1380545D2*
X463579D1*
X896354D2*
X945790D1*
X1167352D2*
X1204444D1*
X2072495D2*
X2119383D1*
X896354Y1355676D2*
X945790D1*
X1170114D2*
X1229634D1*
X2093773D2*
X2119383D1*
X896354Y1330807D2*
X945790D1*
X1161180D2*
X1440454D1*
X1496948D2*
X1538202D1*
X2098581D2*
X2133163D1*
X687723Y1305938D2*
X765938D1*
X896354D2*
X945790D1*
X1123106D2*
X1415587D1*
X1521815D2*
X1538202D1*
X1866375D2*
X1887499D1*
X2091908D2*
X2133163D1*
X2216354D2*
X2242358D1*
X687220Y1281070D2*
X945790D1*
X1109434D2*
X1409415D1*
X1866375D2*
X1887499D1*
X2065461D2*
X2133163D1*
X2225541D2*
X2259546D1*
X667018Y1256201D2*
X832217D1*
X1109434D2*
X1414689D1*
X1866375D2*
X1887499D1*
X2077518D2*
X2137504D1*
X512357Y1231332D2*
X822385D1*
X1688102D2*
X1783219D1*
X1866375D2*
X1892307D1*
X512357Y1206463D2*
X824466D1*
X532058Y1181594D2*
X614974D1*
X700462D2*
X839573D1*
X922728D2*
X1026243D1*
X557608Y1156726D2*
X588600D1*
X726119D2*
X839573D1*
X922728D2*
X1026243D1*
X557608Y1131857D2*
X588600D1*
X750987D2*
X773761D1*
X994748D2*
X1026243D1*
X557608Y1106988D2*
X588600D1*
X994748D2*
X1026243D1*
X557608Y1082119D2*
X588600D1*
X1135020D2*
X1161346D1*
X1969004D2*
X1994757D1*
X2192096D2*
X2275119D1*
X1135020Y1057251D2*
X1160306D1*
X1958992D2*
X2008106D1*
X2091261D2*
X2318109D1*
X448089Y1032382D2*
X464584D1*
X1956552D2*
X1992353D1*
X448089Y1007513D2*
X468029D1*
X1537497D2*
X1557580D1*
X1926554D2*
X1992353D1*
X448089Y982644D2*
X773761D1*
X994748D2*
X1071206D1*
X1516181D2*
X1557580D1*
X2447915D2*
X2465306D1*
X448089Y957776D2*
X858125D1*
X941318D2*
X1071206D1*
X1516181D2*
X1557580D1*
X2423047D2*
X2465306D1*
X448089Y932907D2*
X858125D1*
X941318D2*
X1071206D1*
X1556516D2*
X1564470D1*
X2375034D2*
X2465306D1*
X448089Y908038D2*
X858125D1*
X941318D2*
X1071206D1*
X2089217D2*
X2261556D1*
X2387951D2*
X2465306D1*
X448089Y883169D2*
X858125D1*
X941318D2*
X1077126D1*
X2186031D2*
X2260192D1*
X2389280D2*
X2465306D1*
X448089Y858301D2*
X474954D1*
X574867D2*
X774946D1*
X941318D2*
X1077126D1*
X2379950D2*
X2465306D1*
X448089Y833432D2*
X461820D1*
X941318D2*
X1059651D1*
X1463719D2*
X1500345D1*
X1538861D2*
X1564470D1*
X2389962D2*
X2465306D1*
X448089Y808563D2*
X460332D1*
X941318D2*
X968828D1*
X1491350D2*
X1564470D1*
X1874091D2*
X1894963D1*
X2389962D2*
X2465306D1*
X448089Y783694D2*
X469463D1*
X1515428D2*
X1564470D1*
X1874091D2*
X1894963D1*
X2186031D2*
X2259546D1*
X2389962D2*
X2465306D1*
X448089Y758825D2*
X475420D1*
X574402D2*
X775412D1*
X1383087D2*
X1425526D1*
X1522677D2*
X1564470D1*
X1842261D2*
X1894963D1*
X2160123D2*
X2259546D1*
X2389962D2*
X2465306D1*
X448089Y733957D2*
X461928D1*
X587858D2*
X761955D1*
X1404331D2*
X1439486D1*
X1875885D2*
X1894963D1*
X2175841D2*
X2259546D1*
X2389962D2*
X2465306D1*
X448089Y709088D2*
X460261D1*
X589580D2*
X760234D1*
X1409139D2*
X1439486D1*
X1875885D2*
X1894963D1*
X2175841D2*
X2465306D1*
X448089Y684219D2*
X469140D1*
X580681D2*
X769133D1*
X1419976D2*
X1439486D1*
X2175841D2*
X2465306D1*
X448089Y659350D2*
X475887D1*
X573934D2*
X759696D1*
X1978155D2*
X1990667D1*
X2175841D2*
X2465306D1*
X448089Y634482D2*
X462108D1*
X1978155D2*
X1994219D1*
X2105328D2*
X2465306D1*
X448089Y609613D2*
X460189D1*
X1157770D2*
X1194504D1*
X1978155D2*
X2012843D1*
X2086705D2*
X2465306D1*
X448089Y584744D2*
X468818D1*
X890110D2*
X1209647D1*
X2020104D2*
X2465306D1*
X448089Y559875D2*
X497202D1*
X552619D2*
X759696D1*
X890110D2*
X1222134D1*
X2044899D2*
X2465306D1*
X448089Y535007D2*
X1222134D1*
X2052364D2*
X2465306D1*
X448089Y510138D2*
X1222134D1*
X2049421D2*
X2465306D1*
X448089Y485269D2*
X1222134D1*
X2033991D2*
X2465306D1*
X448089Y460400D2*
X1824594D1*
X1948550D2*
X2465306D1*
X893867Y1364513D2*
Y1289699D1*
X768442D1*
Y1309400D1*
X731159Y1309505D1*
X725100Y1310465D1*
X719266Y1312360D1*
X713801Y1315144D1*
X708839Y1318751D1*
X685245Y1342173D1*
X685130Y1284349D1*
X684315Y1279206D1*
X682706Y1274253D1*
X680343Y1269614D1*
X677281Y1265400D1*
X673600Y1261719D1*
X669386Y1258657D1*
X664747Y1256294D1*
X659794Y1254685D1*
X654651Y1253870D1*
X587743Y1253768D1*
X510304D1*
X509850Y1246927D1*
Y1201318D1*
X535913Y1175072D1*
X539520Y1170110D1*
X542308Y1164633D1*
X549119Y1163182D1*
X555122D1*
Y1062598D1*
X591127Y1062600D1*
X591114Y1163182D1*
X603350D1*
X605217Y1167432D1*
X608423Y1172661D1*
X612406Y1177327D1*
X617071Y1181310D1*
X622301Y1184516D1*
X627967Y1186862D1*
X633932Y1188294D1*
X640059Y1188776D1*
X678459Y1188655D1*
X684518Y1187696D1*
X690352Y1185801D1*
X695818Y1183016D1*
X700780Y1179409D1*
X735512Y1144848D1*
X776238Y1104122D1*
X776256Y1143308D1*
X833205D1*
X842034Y1152165D1*
X842059Y1182252D1*
X837953Y1186594D1*
X832714Y1193807D1*
X828667Y1201749D1*
X825912Y1210227D1*
X824517Y1219031D1*
Y1227945D1*
X825912Y1236749D1*
X828667Y1245227D1*
X832714Y1253169D1*
X837953Y1260382D1*
X844256Y1266685D1*
X851469Y1271924D1*
X859411Y1275971D1*
X867888Y1278726D1*
X876693Y1280121D1*
X885606D1*
X894411Y1278726D1*
X902888Y1275971D1*
X910831Y1271924D1*
X918043Y1266685D1*
X922324Y1262570D1*
X948289Y1262579D1*
X948298Y1384214D1*
X893839Y1384188D1*
X893832Y1364503D1*
X768442Y1387555D2*
Y1482054D1*
X893867D1*
Y1462353D1*
X990455Y1462248D1*
X996514Y1461289D1*
X1002348Y1459394D1*
X1007814Y1456609D1*
X1012776Y1453003D1*
X1017113Y1448665D1*
X1020719Y1443703D1*
X1023504Y1438238D1*
X1025399Y1432404D1*
X1026358Y1426345D1*
X1026479Y1377346D1*
X1026358Y1220421D1*
X1025399Y1214362D1*
X1023504Y1208529D1*
X1020719Y1203063D1*
X1017113Y1198101D1*
X1012776Y1193764D1*
X1007814Y1190157D1*
X1002348Y1187373D1*
X996514Y1185478D1*
X990455Y1184518D1*
X941457Y1184398D1*
X922402D1*
X920231Y1182314D1*
X920240Y1143287D1*
X992232Y1143308D1*
Y1099996D1*
X1026063Y1100001D1*
X1028752Y1102685D1*
X1028760Y1548223D1*
X955923Y1548235D1*
Y1571883D1*
X737902Y1571978D1*
X731843Y1572937D1*
X726009Y1574832D1*
X720543Y1577617D1*
X715581Y1581223D1*
X711244Y1585560D1*
X707638Y1590522D1*
X704853Y1595988D1*
X702958Y1601822D1*
X702358Y1604844D1*
X700663Y1605167D1*
X680224D1*
Y1754214D1*
X801713D1*
Y1650042D1*
X955950Y1650038D1*
X955923Y1673660D1*
X968231D1*
X965164Y1678180D1*
X960697Y1686949D1*
X957655Y1696307D1*
X956115Y1706028D1*
Y1715867D1*
X957655Y1725588D1*
X960697Y1734946D1*
X965164Y1743715D1*
X970948Y1751676D1*
X977907Y1758635D1*
X985867Y1764419D1*
X994636Y1768886D1*
X1003995Y1771928D1*
X1013715Y1773467D1*
X1023555D1*
X1033276Y1771928D1*
X1042634Y1768886D1*
X1051403Y1764419D1*
X1054361Y1762442D1*
X1054350Y1825606D1*
X1051667Y1828260D1*
X766201Y1828388D1*
X760142Y1829348D1*
X754308Y1831243D1*
X748843Y1834028D1*
X743881Y1837634D1*
X716033Y1865310D1*
X712050Y1869975D1*
X708845Y1875205D1*
X706497Y1880871D1*
X705066Y1886836D1*
X704584Y1892963D1*
X697621Y1899227D1*
X579492D1*
Y2047592D1*
X604934D1*
X606497Y2054243D1*
X608845Y2059909D1*
X612050Y2065139D1*
X616033Y2069804D1*
X620698Y2073787D1*
X625928Y2076992D1*
X631594Y2079340D1*
X637559Y2080772D1*
X643686Y2081253D1*
X975854D1*
X980539Y2086508D1*
X988024Y2092898D1*
X996413Y2098041D1*
X1005505Y2101806D1*
X1015073Y2104104D1*
X1024885Y2104875D1*
X1034696Y2104104D1*
X1044264Y2101806D1*
X1053356Y2098041D1*
X1061745Y2092898D1*
X1069230Y2086508D1*
X1073870Y2081245D1*
X1271081Y2081133D1*
X1277140Y2080173D1*
X1282974Y2078278D1*
X1288440Y2075493D1*
X1293402Y2071887D1*
X1301356Y2064346D1*
X1305348Y2069020D1*
X1333184Y2096685D1*
X1338146Y2100291D1*
X1343612Y2103076D1*
X1349445Y2104971D1*
X1355504Y2105930D1*
X1368367Y2106051D1*
X1368379Y2125736D1*
X1493804D1*
Y2106035D1*
X1518398Y2106051D1*
X1518364Y2131986D1*
X1643789D1*
Y2037503D1*
X1664866Y2037497D1*
X1669169Y2041604D1*
X1676382Y2046843D1*
X1684324Y2050890D1*
X1692802Y2053644D1*
X1701606Y2055039D1*
X1710520D1*
X1719324Y2053644D1*
X1727802Y2050890D1*
X1735744Y2046843D1*
X1742957Y2041604D1*
X1749260Y2035301D1*
X1752689Y2030798D1*
X1757269Y2038269D1*
X1763097Y2045092D1*
X1769920Y2050920D1*
X1777571Y2055609D1*
X1785862Y2059042D1*
X1794587Y2061138D1*
X1803533Y2061841D1*
X1812479Y2061138D1*
X1821203Y2059042D1*
X1829495Y2055609D1*
X1837146Y2050920D1*
X1843969Y2045092D1*
X1849797Y2038269D1*
X1854486Y2030618D1*
X1857919Y2022327D1*
X1860014Y2013602D1*
X1860718Y2004656D1*
X1860615Y2002045D1*
X1866403Y2006869D1*
X1874003Y2011526D1*
X1882239Y2014937D1*
X1890906Y2017018D1*
X1899793Y2017718D1*
X1908680Y2017018D1*
X1917346Y2014937D1*
X1925583Y2011526D1*
X1933182Y2006869D1*
X1936344Y2004377D1*
X1937051Y2013602D1*
X1939147Y2022327D1*
X1942580Y2030618D1*
X1947269Y2038269D1*
X1953097Y2045092D1*
X1959920Y2050920D1*
X1967571Y2055609D1*
X1975862Y2059042D1*
X1984587Y2061138D1*
X1993533Y2061841D1*
X2002479Y2061138D1*
X2011203Y2059042D1*
X2019495Y2055609D1*
X2027146Y2050920D1*
X2033969Y2045092D1*
X2039797Y2038269D1*
X2044486Y2030618D1*
X2047919Y2022327D1*
X2050014Y2013602D1*
X2050718Y2004656D1*
X2050014Y1995710D1*
X2047919Y1986986D1*
X2044486Y1978694D1*
X2039797Y1971043D1*
X2033969Y1964220D1*
X2027146Y1958392D1*
X2019495Y1953703D1*
X2011203Y1950270D1*
X2002479Y1948175D1*
X1993533Y1947471D1*
X1984587Y1948175D1*
X1975862Y1950270D1*
X1967571Y1953703D1*
X1959920Y1958392D1*
X1956600Y1960911D1*
X1955900Y1952024D1*
X1953668Y1942948D1*
X2200601Y1942957D1*
X2199724Y1949731D1*
Y1959571D1*
X2201264Y1969291D1*
X2204306Y1978650D1*
X2208773Y1987419D1*
X2214556Y1995379D1*
X2221516Y2002339D1*
X2224430Y2004636D1*
X2217899Y2010306D1*
X2211509Y2017790D1*
X2206366Y2026180D1*
X2202601Y2035272D1*
X2200303Y2044840D1*
X2199531Y2054651D1*
X2200303Y2064462D1*
X2202601Y2074030D1*
X2206366Y2083122D1*
X2211509Y2091512D1*
X2217899Y2098996D1*
X2225383Y2105386D1*
X2233773Y2110529D1*
X2242865Y2114294D1*
X2252433Y2116592D1*
X2262244Y2117364D1*
X2272055Y2116592D1*
X2281623Y2114294D1*
X2290715Y2110529D1*
X2299105Y2105386D1*
X2299543Y2105041D1*
X2299531Y2117364D1*
X2424957D1*
Y2111299D1*
X2433630Y2111282D1*
X2442434Y2109887D1*
X2450912Y2107133D1*
X2458854Y2103085D1*
X2466067Y2097846D1*
X2467819Y2096226D1*
X2467815Y2151442D1*
X445573Y2151476D1*
X445571Y1350302D1*
X450335Y1353748D1*
X455801Y1356533D1*
X461634Y1358428D1*
X467693Y1359387D1*
X470772Y1359508D1*
X478047Y1361629D1*
X478757Y1364146D1*
X478755Y1367249D1*
X477537Y1372323D1*
X475667Y1374853D1*
X470201Y1377638D1*
X465239Y1381244D1*
X460902Y1385581D1*
X457295Y1390543D1*
X454510Y1396009D1*
X452615Y1401843D1*
X451656Y1407902D1*
X451535Y1456900D1*
X451656Y1657165D1*
X452615Y1663224D1*
X454510Y1669058D1*
X457295Y1674524D1*
X460902Y1679486D1*
X488576Y1707332D1*
X493241Y1711315D1*
X498471Y1714520D1*
X504138Y1716867D1*
X510102Y1718299D1*
X516230Y1718781D1*
X526660D1*
X526686Y1754214D1*
X648175D1*
Y1605167D1*
X529722D1*
X529717Y1477584D1*
X654651Y1477516D1*
X659794Y1476701D1*
X664747Y1475092D1*
X669386Y1472728D1*
X673600Y1469667D1*
X677281Y1465986D1*
X680343Y1461772D1*
X682706Y1457133D1*
X684315Y1452180D1*
X684825Y1449614D1*
X686692Y1447084D1*
X692157Y1444299D1*
X697119Y1440693D1*
X731852Y1406131D1*
X750400Y1387583D1*
X768424Y1387566D1*
X1775211Y1792398D2*
X1788381D1*
X1789971Y1796033D1*
X1793176Y1801262D1*
X1797159Y1805928D1*
X1895336Y1904278D1*
X1886531Y1905673D1*
X1884167Y1906340D1*
X1877672Y1904152D1*
X1871613Y1903193D1*
X1822614Y1903072D1*
X1453022Y1903193D1*
X1446963Y1904152D1*
X1441130Y1906047D1*
X1435664Y1908832D1*
X1430702Y1912438D1*
X1409596Y1933374D1*
X1372060Y1933382D1*
X1372071Y1846986D1*
X1477713Y1847017D1*
Y1831264D1*
X1562510Y1831148D1*
X1568570Y1830189D1*
X1574403Y1828294D1*
X1579869Y1825509D1*
X1584831Y1821903D1*
X1619563Y1787341D1*
X1714843Y1692062D1*
X1720791Y1691920D1*
X1729596Y1690525D1*
X1738073Y1687770D1*
X1746016Y1683723D1*
X1753228Y1678484D1*
X1759531Y1672181D1*
X1764770Y1664969D1*
X1768818Y1657026D1*
X1771572Y1648549D1*
X1772967Y1639744D1*
X1772975Y1631056D1*
X1785731Y1631070D1*
X1785710Y1667001D1*
X1766025Y1666972D1*
Y1792398D1*
X1775211D1*
X1894188D2*
X1958379D1*
Y1725043D1*
X2037585Y1725030D1*
X2040736Y1729253D1*
X2045073Y1733591D1*
X2050035Y1737197D1*
X2055501Y1739982D1*
X2061335Y1741877D1*
X2067394Y1742836D1*
X2116392Y1742957D1*
X2200613D1*
X2199724Y1749731D1*
Y1759571D1*
X2201264Y1769291D1*
X2204306Y1778650D1*
X2208773Y1787419D1*
X2214556Y1795379D1*
X2221516Y1802339D1*
X2224430Y1804636D1*
X2217899Y1810306D1*
X2211509Y1817790D1*
X2206366Y1826180D1*
X2202601Y1835272D1*
X2200303Y1844840D1*
X2199531Y1854651D1*
X2200303Y1864462D1*
X2200367Y1864782D1*
X1966549Y1864776D1*
X1894211Y1792415D1*
X1901000Y1666972D2*
X1863896D1*
X1863891Y1629180D1*
X1870339Y1630084D1*
X1879252D1*
X1888056Y1628689D1*
X1889986Y1628146D1*
X1889995Y1631070D1*
X2031362D1*
X2031370Y1646866D1*
X1934222Y1646970D1*
X1928163Y1647929D1*
X1922329Y1649824D1*
X1916864Y1652609D1*
X1911902Y1656215D1*
X1900995Y1666951D1*
X1224643Y583713D2*
X1212146D1*
X1212025Y603879D1*
X1206060Y605311D1*
X1200394Y607659D1*
X1195164Y610864D1*
X1190499Y614846D1*
X1184689Y620657D1*
X1161571Y620676D1*
X1159705Y616427D1*
X1156499Y611197D1*
X1152516Y606531D1*
X1147850Y602549D1*
X1142621Y599343D1*
X1136954Y596996D1*
X1130990Y595564D1*
X1124874Y595083D1*
X896646Y595203D1*
X890587Y596163D1*
X887622Y597000D1*
X887618Y554589D1*
X762193D1*
Y578238D1*
X573967Y578211D1*
X569251Y572957D1*
X561766Y566567D1*
X553377Y561424D1*
X544285Y557659D1*
X534717Y555361D1*
X524906Y554589D1*
X515094Y555361D1*
X505526Y557659D1*
X496434Y561424D1*
X488045Y566567D1*
X480560Y572957D1*
X474171Y580441D1*
X469028Y588831D1*
X465262Y597923D1*
X462965Y607491D1*
X462193Y617302D1*
X462965Y627113D1*
X465262Y636681D1*
X469028Y645773D1*
X474171Y654163D1*
X480560Y661647D1*
X487092Y667287D1*
X480560Y672957D1*
X474171Y680441D1*
X469028Y688831D1*
X465262Y697923D1*
X462965Y707491D1*
X462193Y717302D1*
X462965Y727113D1*
X465262Y736681D1*
X469028Y745773D1*
X474171Y754163D1*
X480560Y761647D1*
X487092Y767287D1*
X480560Y772957D1*
X474171Y780441D1*
X469028Y788831D1*
X465262Y797923D1*
X462965Y807491D1*
X462193Y817302D1*
X462965Y827113D1*
X465262Y836681D1*
X469028Y845773D1*
X474171Y854163D1*
X480560Y861647D1*
X488045Y868037D1*
X496434Y873180D1*
X505526Y876945D1*
X515094Y879243D1*
X524906Y880014D1*
X534717Y879243D1*
X544285Y876945D1*
X553377Y873180D1*
X561766Y868037D1*
X569251Y861647D1*
X573891Y856385D1*
X775844Y856392D1*
X780560Y861647D1*
X788045Y868037D1*
X796434Y873180D1*
X805526Y876945D1*
X815094Y879243D1*
X824906Y880014D1*
X834717Y879243D1*
X844285Y876945D1*
X853377Y873180D1*
X860631Y868797D1*
X860622Y978486D1*
X776256Y978513D1*
Y984434D1*
X503122Y984539D1*
X497063Y985499D1*
X491230Y987394D1*
X485764Y990178D1*
X480802Y993785D1*
X476465Y998122D1*
X472858Y1003084D1*
X470073Y1008550D1*
X468178Y1014383D1*
X467219Y1020442D1*
X467098Y1033808D1*
X457256Y1033820D1*
Y1143303D1*
X445573Y1155020D1*
X445571Y444227D1*
X1847949Y444193D1*
X1841736Y447268D1*
X1836774Y450874D1*
X1814294Y473185D1*
X1806736Y470168D1*
X1797168Y467870D1*
X1787357Y467098D1*
X1777546Y467870D1*
X1767978Y470168D1*
X1758886Y473933D1*
X1750496Y479076D1*
X1743012Y485466D1*
X1737371Y491997D1*
X1731702Y485466D1*
X1724218Y479076D1*
X1715828Y473933D1*
X1706736Y470168D1*
X1697168Y467870D1*
X1687357Y467098D1*
X1677546Y467870D1*
X1667978Y470168D1*
X1658886Y473933D1*
X1650496Y479076D1*
X1643012Y485466D1*
X1637371Y491997D1*
X1631702Y485466D1*
X1624218Y479076D1*
X1615828Y473933D1*
X1606736Y470168D1*
X1597168Y467870D1*
X1587357Y467098D1*
X1577546Y467870D1*
X1567978Y470168D1*
X1558886Y473933D1*
X1550496Y479076D1*
X1543012Y485466D1*
X1537371Y491997D1*
X1531702Y485466D1*
X1524218Y479076D1*
X1515828Y473933D1*
X1506736Y470168D1*
X1497168Y467870D1*
X1487357Y467098D1*
X1477546Y467870D1*
X1467978Y470168D1*
X1458886Y473933D1*
X1450496Y479076D1*
X1443012Y485466D1*
X1437371Y491997D1*
X1431702Y485466D1*
X1424218Y479076D1*
X1415828Y473933D1*
X1406736Y470168D1*
X1397168Y467870D1*
X1387357Y467098D1*
X1377546Y467870D1*
X1367978Y470168D1*
X1358886Y473933D1*
X1350496Y479076D1*
X1350058Y479421D1*
X1350070Y467098D1*
X1224644D1*
Y583686D1*
X1192022Y1414686D2*
X1168400D1*
Y1434387D1*
X1152921Y1434371D1*
X1150256Y1431688D1*
X1150248Y1403196D1*
X1154354Y1398846D1*
X1159593Y1391634D1*
X1163640Y1383692D1*
X1166395Y1375214D1*
X1167790Y1366409D1*
Y1357496D1*
X1166395Y1348692D1*
X1163640Y1340214D1*
X1159593Y1332272D1*
X1154354Y1325059D1*
X1148051Y1318756D1*
X1140839Y1313517D1*
X1132896Y1309470D1*
X1124419Y1306715D1*
X1115614Y1305320D1*
X1106927Y1305312D1*
X1106941Y1246251D1*
X1423117Y1246227D1*
X1418085Y1254375D1*
X1414675Y1262612D1*
X1412593Y1271278D1*
X1411894Y1280165D1*
X1412593Y1289052D1*
X1414675Y1297719D1*
X1418085Y1305955D1*
X1422743Y1313555D1*
X1428531Y1320335D1*
X1435311Y1326123D1*
X1442911Y1330781D1*
X1451147Y1334192D1*
X1459814Y1336273D1*
X1468701Y1336972D1*
X1477588Y1336273D1*
X1486255Y1334192D1*
X1494491Y1330781D1*
X1502091Y1326123D1*
X1508870Y1320335D1*
X1514659Y1313555D1*
X1519316Y1305955D1*
X1522727Y1297719D1*
X1523955Y1293341D1*
X1531175Y1292096D1*
X1539652Y1289341D1*
X1540713Y1288853D1*
X1540705Y1346969D1*
X1253638Y1347104D1*
X1247579Y1348063D1*
X1241745Y1349958D1*
X1236280Y1352743D1*
X1231318Y1356349D1*
X1203471Y1384024D1*
X1199488Y1388689D1*
X1196283Y1393919D1*
X1193936Y1399585D1*
X1192504Y1405550D1*
X1192022Y1411677D1*
X1168400Y1512542D2*
Y1554475D1*
X1109600Y1554453D1*
X1106949Y1551769D1*
X1106941Y1498948D1*
X1111361Y1503186D1*
X1116323Y1506793D1*
X1121789Y1509577D1*
X1127622Y1511472D1*
X1133681Y1512432D1*
X1168434Y1512552D1*
X2087703Y904991D2*
X2183545D1*
Y881343D1*
X2262959Y881369D1*
X2262228Y887364D1*
Y897203D1*
X2263768Y906924D1*
X2266810Y916282D1*
X2271277Y925051D1*
X2277060Y933012D1*
X2262644Y918793D1*
X2257682Y915186D1*
X2252217Y912402D1*
X2246383Y910507D1*
X2240324Y909547D1*
X2191325Y909427D1*
X2086220D1*
X2087147Y906812D1*
X2183545Y803188D2*
Y779566D1*
X2153869D1*
X2155697Y774993D1*
X2157129Y769029D1*
X2157610Y762902D1*
X2164731Y757663D1*
X2173358D1*
Y651923D1*
X2106507D1*
X2105885Y645911D1*
X2103803Y637244D1*
X2100392Y629008D1*
X2095735Y621408D1*
X2089946Y614629D1*
X2083167Y608840D1*
X2075567Y604182D1*
X2067331Y600772D1*
X2058664Y598690D1*
X2049777Y597991D1*
X2040890Y598690D1*
X2032223Y600772D1*
X2023987Y604182D1*
X2016387Y608840D1*
X2009608Y614629D1*
X2003819Y621408D1*
X1999161Y629008D1*
X1995751Y637244D1*
X1993669Y645911D1*
X1992970Y654798D1*
X1993669Y663685D1*
X1994423Y667615D1*
X1988756Y669962D1*
X1983526Y673168D1*
X1978853Y677160D1*
X1975661Y678210D1*
Y591406D1*
X1982437Y592331D1*
X1992277D1*
X2001997Y590791D1*
X2011356Y587749D1*
X2020125Y583282D1*
X2028085Y577499D1*
X2035045Y570539D1*
X2040828Y562579D1*
X2045295Y553810D1*
X2048337Y544451D1*
X2049877Y534731D1*
Y524891D1*
X2048337Y515171D1*
X2045295Y505812D1*
X2040828Y497043D1*
X2035045Y489083D1*
X2028085Y482123D1*
X2020125Y476340D1*
X2011356Y471873D1*
X2001997Y468831D1*
X1992277Y467291D1*
X1982437D1*
X1972717Y468831D1*
X1963358Y471873D1*
X1959358Y473717D1*
X1936367Y450874D1*
X1931406Y447268D1*
X1925928Y444479D1*
X1939633Y444193D1*
X2467812D1*
X2467815Y1356105D1*
X2463828Y1355850D1*
X2463707Y1014193D1*
X2462748Y1008134D1*
X2460853Y1002301D1*
X2458068Y996835D1*
X2454462Y991873D1*
X2419900Y957140D1*
X2406379Y943790D1*
X2401417Y940184D1*
X2395951Y937399D1*
X2390118Y935504D1*
X2384059Y934545D1*
X2371196Y934424D1*
X2375483Y929144D1*
X2380626Y920755D1*
X2384391Y911663D1*
X2386689Y902094D1*
X2387461Y892283D1*
X2386689Y882472D1*
X2384391Y872904D1*
X2380626Y863812D1*
X2375483Y855423D1*
X2375138Y854984D1*
X2387461Y854996D1*
Y729571D1*
X2262035D1*
Y799724D1*
X2256381Y803188D1*
X2183572D1*
X807857Y2003059D2*
Y1906459D1*
X962146Y1906449D1*
X962172Y2003070D1*
X807892Y2003072D1*
X2010559Y1073285D2*
X1997251D1*
Y1096932D1*
X1972524Y1096907D1*
X1969900Y1088942D1*
X1965853Y1081000D1*
X1960614Y1073787D1*
X1956499Y1069507D1*
X1956387Y1042972D1*
X1955428Y1036913D1*
X1953533Y1031080D1*
X1950748Y1025614D1*
X1947142Y1020652D1*
X1942804Y1016315D1*
X1937843Y1012709D1*
X1932377Y1009924D1*
X1926543Y1008029D1*
X1920484Y1007070D1*
X1907262Y1006949D1*
X1907478Y987608D1*
X1994856D1*
X1994844Y1051287D1*
X2010597D1*
X2010592Y1073307D1*
X2189605Y1096907D2*
Y1073285D1*
X2088807D1*
X2088773Y1051274D1*
X2171450Y1051287D1*
Y1037543D1*
X2312432Y1037508D1*
X2314029Y1043538D1*
X2317440Y1051774D1*
X2322097Y1059374D1*
X2323209Y1060783D1*
X2314937Y1061547D1*
X2305369Y1063845D1*
X2296277Y1067610D1*
X2287887Y1072753D1*
X2280403Y1079143D1*
X2275762Y1084406D1*
X2231331Y1084518D1*
X2225272Y1085478D1*
X2219438Y1087373D1*
X2213972Y1090157D1*
X2209010Y1093764D1*
X2205692Y1096912D1*
X2189629Y1096907D1*
X2424764Y1849731D2*
X2423224Y1840010D1*
X2420182Y1830652D1*
X2415715Y1821883D1*
X2409932Y1813923D1*
X2402972Y1806963D1*
X2400058Y1804665D1*
X2406589Y1798996D1*
X2412979Y1791512D1*
X2418122Y1783122D1*
X2421887Y1774030D1*
X2424185Y1764462D1*
X2424957Y1754651D1*
X2424185Y1744840D1*
X2422958Y1739067D1*
X2428966Y1735491D1*
X2433631Y1731508D1*
X2437614Y1726843D1*
X2440819Y1721613D1*
X2443167Y1715946D1*
X2444598Y1709982D1*
X2445080Y1703854D1*
Y1629927D1*
X2451878Y1625659D1*
X2458657Y1619870D1*
X2464446Y1613091D1*
X2467818Y1607786D1*
X2467782Y1923341D1*
X2466350Y1917377D1*
X2464003Y1911710D1*
X2460798Y1906480D1*
X2456806Y1901807D1*
X2428970Y1874142D1*
X2423997Y1870530D1*
X2423224Y1869291D1*
X2424764Y1859571D1*
Y1849731D1*
X2363031Y1591970D2*
X2357324Y1592131D1*
X2347604Y1593671D1*
X2338245Y1596713D1*
X2329476Y1601180D1*
X2321516Y1606963D1*
X2314556Y1613923D1*
X2312259Y1616837D1*
X2306589Y1610306D1*
X2299105Y1603916D1*
X2290715Y1598773D1*
X2281623Y1595008D1*
X2272055Y1592710D1*
X2262244Y1591938D1*
X2252433Y1592710D1*
X2242865Y1595008D1*
X2233773Y1598773D1*
X2225383Y1603916D1*
X2217899Y1610306D1*
X2211509Y1617790D1*
X2206366Y1626180D1*
X2202601Y1635272D1*
X2200303Y1644840D1*
X2199531Y1654651D1*
X2200303Y1664462D1*
X2200367Y1664782D1*
X2109550Y1664776D1*
X2109430Y1608597D1*
X2108471Y1602538D1*
X2106576Y1596705D1*
X2103791Y1591239D1*
X2100185Y1586277D1*
X2089247Y1575167D1*
X2302818Y1575043D1*
X2308877Y1574084D1*
X2314710Y1572189D1*
X2320176Y1569404D1*
X2325138Y1565798D1*
X2329475Y1561461D1*
X2333081Y1556499D1*
X2335866Y1551033D1*
X2337761Y1545199D1*
X2338720Y1539140D1*
X2338841Y1528286D1*
X2352621Y1528301D1*
Y1443824D1*
X2371865Y1443810D1*
X2371867Y1532736D1*
X2385612D1*
X2385647Y1533339D1*
X2378319Y1539531D1*
X2372530Y1546311D1*
X2367873Y1553911D1*
X2364462Y1562147D1*
X2362381Y1570814D1*
X2361681Y1579701D1*
X2362381Y1588588D1*
X2363050Y1591954D1*
X2271222Y1286201D2*
X2334845D1*
X2334870Y1297829D1*
X2332186Y1300504D1*
X2261657Y1300633D1*
X2255598Y1301592D1*
X2249765Y1303487D1*
X2244299Y1306272D1*
X2239337Y1309878D1*
X2213853Y1335192D1*
X2213854Y1290304D1*
X2241556Y1262568D1*
X2262064Y1262579D1*
X2262035Y1286201D1*
X2271222D1*
X1087597Y2003045D2*
Y1982735D1*
X1093945Y1988119D1*
X1101545Y1992777D1*
X1109781Y1996188D1*
X1118448Y1998269D1*
X1127335Y1998969D1*
X1136222Y1998269D1*
X1144888Y1996188D1*
X1153125Y1992777D1*
X1160724Y1988119D1*
X1167504Y1982331D1*
X1173293Y1975551D1*
X1177950Y1967951D1*
X1181361Y1959715D1*
X1183442Y1951049D1*
X1184142Y1942161D1*
X1183442Y1933274D1*
X1181361Y1924608D1*
X1177950Y1916371D1*
X1173293Y1908772D1*
X1167504Y1901992D1*
X1166416Y1900987D1*
X1166425Y1760766D1*
X1169109Y1758098D1*
X1240734Y1758091D1*
X1240736Y1840768D1*
X1254480D1*
X1254516Y2000409D1*
X1251832Y2003063D1*
X1087625Y2003072D1*
X2121912Y1418623D2*
X2121894Y1434377D1*
X2057865Y1434492D1*
X2051806Y1435451D1*
X2045972Y1437346D1*
X2040507Y1440131D1*
X2035535Y1443745D1*
X2035070Y1441077D1*
Y1391077D1*
X2039323Y1389535D1*
X2048210Y1388836D1*
X2056877Y1386755D1*
X2065113Y1383344D1*
X2072713Y1378686D1*
X2079492Y1372898D1*
X2085281Y1366118D1*
X2089938Y1358518D1*
X2093349Y1350282D1*
X2095430Y1341615D1*
X2096130Y1332728D1*
X2095430Y1323841D1*
X2093349Y1315175D1*
X2089938Y1306938D1*
X2085281Y1299339D1*
X2079492Y1292559D1*
X2072713Y1286770D1*
X2065113Y1282113D1*
X2060686Y1280106D1*
X2061776Y1277028D1*
X2067564Y1270248D1*
X2072222Y1262648D1*
X2075633Y1254412D1*
X2077714Y1245745D1*
X2078413Y1236858D1*
X2078113Y1231345D1*
X2162220Y1231332D1*
X2145039Y1248692D1*
X2141433Y1253654D1*
X2138648Y1259119D1*
X2136753Y1264953D1*
X2135794Y1271012D1*
X2135673Y1320010D1*
Y1351697D1*
X2121894Y1351694D1*
Y1418618D1*
X1477713Y1753067D2*
Y1670411D1*
X1371972D1*
Y1679920D1*
X1346508Y1679909D1*
X1346476Y1664161D1*
X1240736D1*
Y1679915D1*
X1149858Y1680030D1*
X1143799Y1680990D1*
X1137966Y1682885D1*
X1132531Y1685600D1*
Y1632598D1*
X1506084Y1632634D1*
X1512199Y1632152D1*
X1518164Y1630720D1*
X1523831Y1628373D1*
X1529060Y1625168D1*
X1533726Y1621185D1*
X1537709Y1616520D1*
X1540913Y1611290D1*
X1543261Y1605623D1*
X1544097Y1602657D1*
X1550294Y1606760D1*
X1559503Y1615798D1*
X1564465Y1619404D1*
X1569930Y1622189D1*
X1575764Y1624084D1*
X1581823Y1625043D1*
X1630822Y1625164D1*
X1660427D1*
X1659702Y1630831D1*
X1659585Y1636768D1*
X1543276Y1753064D1*
X1477735Y1753088D1*
X1871576Y830079D2*
Y776909D1*
X1853455D1*
X1850068Y769984D1*
X1846462Y765022D1*
X1842125Y760685D1*
X1839705Y758778D1*
X1846390Y757663D1*
X1873390D1*
Y705236D1*
X1892247Y686381D1*
X1897496Y685647D1*
X1897480Y827388D1*
X1894797Y830055D1*
X1871543Y830063D1*
X1406483Y706585D2*
X1405088Y697781D1*
X1402846Y690693D1*
X1409085Y688533D1*
X1417028Y684486D1*
X1424240Y679247D1*
X1430543Y672944D1*
X1435782Y665731D1*
X1437323Y662980D1*
X1441993Y670220D1*
X1441996Y744815D1*
X1427386Y759454D1*
X1379609Y759442D1*
X1386744Y754239D1*
X1393047Y747936D1*
X1398286Y740723D1*
X1402333Y732781D1*
X1405088Y724303D1*
X1406483Y715499D1*
Y706585D1*
X1520180Y737761D2*
X1526026Y740071D1*
X1534693Y742152D1*
X1543580Y742852D1*
X1552467Y742152D1*
X1561134Y740071D1*
X1566980Y737761D1*
X1566983Y856378D1*
X1562807Y850819D1*
X1556504Y844516D1*
X1549291Y839277D1*
X1541349Y835230D1*
X1532871Y832475D1*
X1524067Y831080D1*
X1515154D1*
X1506349Y832475D1*
X1497871Y835230D1*
X1489929Y839277D1*
X1482717Y844516D1*
X1478436Y848631D1*
X1465634Y848743D1*
X1459575Y849702D1*
X1453741Y851597D1*
X1448276Y854382D1*
X1443314Y857988D1*
X1438969Y862335D1*
X1437904Y861026D1*
X1437205Y852139D1*
X1435123Y843472D1*
X1432814Y837626D1*
X1446657Y837503D1*
X1452717Y836543D1*
X1458550Y834648D1*
X1464016Y831864D1*
X1468978Y828257D1*
X1503710Y793696D1*
X1510811Y786424D1*
X1514417Y781462D1*
X1517202Y775996D1*
X1519097Y770163D1*
X1520056Y764104D1*
X1520177Y737820D1*
X1785726Y1241077D2*
X1697812Y1241075D1*
X1693461Y1236969D1*
X1686248Y1231730D1*
X1678306Y1227682D1*
X1669828Y1224928D1*
X1669025Y1224768D1*
X1673776Y1221126D1*
X1678056Y1217010D1*
X1785694Y1217020D1*
X1785710Y1241052D1*
X1964951Y1241077D2*
X1889995D1*
Y1330584D1*
X1882362Y1329442D1*
X1873449D1*
X1864644Y1330837D1*
X1863890Y1331050D1*
X1863891Y1216503D1*
X1869531Y1221966D1*
X1874493Y1225572D1*
X1879959Y1228357D1*
X1885793Y1230252D1*
X1891852Y1231211D1*
X1940850Y1231332D1*
X1965072D1*
X1964799Y1236858D1*
X1964966Y1241089D1*
X977272Y809093D2*
X1062175D1*
X1062161Y844526D1*
X1081287D1*
X1080092Y849762D1*
X1079610Y855890D1*
Y888496D1*
X1073705Y888518D1*
Y984867D1*
X1067850Y984419D1*
X992243D1*
X992232Y978513D1*
X938801D1*
X938803Y784413D1*
X955684Y801142D1*
X959898Y804203D1*
X964537Y806567D1*
X969490Y808176D1*
X974633Y808991D1*
X977247Y809093D1*
X1566972Y957156D2*
X1560093D1*
Y1043673D1*
X1557455Y1048916D1*
X1556522Y1039605D1*
X1555091Y1033640D1*
X1552744Y1027974D1*
X1549538Y1022744D1*
X1545555Y1018079D1*
X1517710Y990406D1*
X1515290Y988499D1*
X1513697Y978510D1*
Y944241D1*
X1519610Y944520D1*
X1528497Y943820D1*
X1537164Y941739D1*
X1545400Y938328D1*
X1553000Y933671D1*
X1559780Y927882D1*
X1565568Y921102D1*
X1566991Y918974D1*
X1566983Y957140D1*
X771379Y680014D2*
X774501D1*
X771434Y684534D1*
X766967Y693303D1*
X763925Y702661D1*
X762386Y712382D1*
Y722222D1*
X763925Y731942D1*
X766967Y741301D1*
X771434Y750070D1*
X777218Y758030D1*
X784177Y764990D1*
X787092Y767287D1*
X780560Y772957D1*
X775920Y778219D1*
X573967Y778211D1*
X569251Y772957D1*
X562719Y767316D1*
X569251Y761647D1*
X575640Y754163D1*
X580783Y745773D1*
X584549Y736681D1*
X586846Y727113D1*
X587618Y717302D1*
X586846Y707491D1*
X584549Y697923D1*
X580783Y688831D1*
X575640Y680441D1*
X569251Y672957D1*
X562719Y667316D1*
X569251Y661647D1*
X573891Y656385D1*
X762207Y656392D1*
X762193Y680014D1*
X771379D1*
X1129361Y1033629D2*
X1172974D1*
X1168085Y1041584D1*
X1164675Y1049820D1*
X1162593Y1058487D1*
X1161894Y1067374D1*
X1162593Y1076261D1*
X1164675Y1084928D1*
X1168085Y1093164D1*
X1173013Y1101106D1*
X1129715Y1101117D1*
X1131451Y1095627D1*
X1132411Y1089568D1*
X1132531Y1049100D1*
X1132050Y1042984D1*
X1130618Y1037020D1*
X1129551Y1034130D1*
D15*
X831155Y1348475D3*
Y1423278D3*
D16*
X1824801Y1729685D3*
X1899604D3*
D15*
X1374848Y1535955D3*
Y1461152D3*
X1274858Y717291D3*
Y642488D3*
X1231113Y1473462D3*
Y1548265D3*
D16*
X2124769Y842278D3*
X2049966D3*
D18*
X643675Y1973409D3*
X743675D3*
D16*
X2056026Y1135997D3*
X2130829D3*
D20*
X506189Y1098501D3*
X640047D3*
D22*
X587430Y1679690D3*
X740969D3*
D23*
X1018635Y1610948D3*
D24*
Y1710948D3*
D23*
X1287357Y529811D3*
D24*
X1387357D3*
X1487357D3*
X1587357D3*
X1687357D3*
X1787357D3*
X1887357D3*
X1987357D3*
D23*
X2362244Y2054651D3*
D24*
X2262244D3*
X2362244Y1954651D3*
X2262244D3*
X2362244Y1854651D3*
X2262244D3*
X2362244Y1754651D3*
X2262244D3*
X2362244Y1654651D3*
X2262244D3*
D23*
X2324748Y792283D3*
D24*
Y892283D3*
D23*
Y1223488D3*
D24*
Y1123488D3*
D23*
X1024885Y1942163D3*
D24*
Y2042163D3*
D15*
X1581076Y1998407D3*
Y2073210D3*
X1431092Y1992157D3*
Y2066961D3*
D78*
X581181Y1410969D3*
D81*
Y1320417D3*
D25*
X2049682Y998417D3*
X2116612D3*
D26*
X2299751Y1473462D3*
Y1406533D3*
X2424738Y1410969D3*
Y1477898D3*
X2174764Y1473462D3*
Y1406533D3*
X1424843Y1792178D3*
Y1725249D3*
X1293606Y1785929D3*
Y1719000D3*
X1593575Y1317228D3*
Y1250299D3*
D25*
X1749808Y829780D3*
X1816738D3*
X1818551Y704793D3*
X1751622D3*
D26*
X1506084Y1479711D3*
Y1546640D3*
D25*
X2118520Y704793D3*
X2051591D3*
D27*
X1749951Y1586073D3*
Y1536073D3*
Y1486073D3*
Y1436073D3*
Y1386073D3*
Y1336073D3*
Y1286073D3*
X1962550D3*
Y1336073D3*
Y1386073D3*
Y1436073D3*
Y1486073D3*
Y1536073D3*
Y1586073D3*
D29*
X1124874Y673546D3*
D84*
X1054008Y732601D3*
D29*
X1124874Y791656D3*
D31*
X1606073Y1011010D3*
X1680877D3*
X1643475Y1101562D3*
D33*
X937394Y1023509D3*
Y1060911D3*
Y1098312D3*
X831094D3*
Y1023509D3*
D35*
X1862297Y1111000D3*
X1824895D3*
X1787493D3*
Y1004701D3*
X1862297D3*
D23*
X824906Y617302D3*
D24*
Y717302D3*
Y817302D3*
X524906D3*
Y717302D3*
Y617302D3*
D36*
X1118701Y961073D3*
X1168701D3*
X1218701D3*
X1268701D3*
X1318701D3*
X1368701D3*
X1418701D3*
X1468701D3*
Y1173672D3*
X1418701D3*
X1368701D3*
X1318701D3*
X1268701D3*
X1218701D3*
X1168701D3*
X1118701D3*
D37*
X1993533Y2004656D3*
X1803533D3*
M02*
