G04 DipTrace 3.2.0.1*
G04 TopMask.gbr*
%MOIN*%
G04 #@! TF.FileFunction,Soldermask,Top*
G04 #@! TF.Part,Single*
%AMOUTLINE1*
4,1,4,
0.074803,0.037402,
0.074803,-0.037402,
-0.074803,-0.037402,
-0.074803,0.037402,
0.074803,0.037402,
0*%
%AMOUTLINE4*
4,1,4,
0.074803,-0.037402,
0.074803,0.037402,
-0.074803,0.037402,
-0.074803,-0.037402,
0.074803,-0.037402,
0*%
%AMOUTLINE7*
4,1,10,
0.104331,0.023622,
0.035095,0.023622,
0.011473,0.047244,
-0.078402,0.047244,
-0.104331,0.021316,
-0.104331,-0.021316,
-0.078402,-0.047244,
0.011473,-0.047244,
0.035095,-0.023622,
0.104331,-0.023622,
0.104331,0.023622,
0*%
%ADD45C,0.055874*%
%ADD47R,0.031496X0.086614*%
%ADD49R,0.031496X0.051181*%
%ADD51R,0.051181X0.031496*%
%ADD53R,0.033465X0.049213*%
%ADD55R,0.066929X0.047244*%
%ADD56R,0.086614X0.031496*%
%ADD58R,0.047244X0.051181*%
%ADD60R,0.051181X0.047244*%
%ADD62C,0.066929*%
%ADD64R,0.066929X0.066929*%
%ADD66R,0.062992X0.090551*%
%ADD68R,0.03937X0.070866*%
%ADD70R,0.069869X0.089869*%
%ADD72R,0.059055X0.066929*%
%ADD74R,0.066929X0.059055*%
%ADD79OUTLINE1*%
%ADD82OUTLINE4*%
%ADD85OUTLINE7*%
%FSLAX26Y26*%
G04*
G70*
G90*
G75*
G01*
G04 TopMask*
%LPD*%
D74*
X831155Y1348475D3*
Y1423278D3*
D72*
X1824801Y1729685D3*
X1899604D3*
D74*
X1374848Y1535955D3*
Y1461152D3*
X1274858Y717291D3*
Y642488D3*
X1231113Y1473462D3*
Y1548265D3*
D72*
X2124769Y842278D3*
X2049966D3*
D70*
X643675Y1973409D3*
X743675D3*
D72*
X2056026Y1135997D3*
X2130829D3*
D68*
X506189Y1098501D3*
X640047D3*
D66*
X587430Y1679690D3*
X740969D3*
D64*
X1018635Y1610948D3*
D62*
Y1710948D3*
D64*
X1287357Y529811D3*
D62*
X1387357D3*
X1487357D3*
X1587357D3*
X1687357D3*
X1787357D3*
X1887357D3*
X1987357D3*
D64*
X2362244Y2054651D3*
D62*
X2262244D3*
X2362244Y1954651D3*
X2262244D3*
X2362244Y1854651D3*
X2262244D3*
X2362244Y1754651D3*
X2262244D3*
X2362244Y1654651D3*
X2262244D3*
D64*
X2324748Y792283D3*
D62*
Y892283D3*
D64*
Y1223488D3*
D62*
Y1123488D3*
D64*
X1024885Y1942163D3*
D62*
Y2042163D3*
D74*
X1581076Y1998407D3*
Y2073210D3*
X1431092Y1992157D3*
Y2066961D3*
D79*
X581181Y1410969D3*
D82*
Y1320417D3*
D60*
X2049682Y998417D3*
X2116612D3*
D58*
X2299751Y1473462D3*
Y1406533D3*
X2424738Y1410969D3*
Y1477898D3*
X2174764Y1473462D3*
Y1406533D3*
X1424843Y1792178D3*
Y1725249D3*
X1293606Y1785929D3*
Y1719000D3*
X1593575Y1317228D3*
Y1250299D3*
D60*
X1749808Y829780D3*
X1816738D3*
X1818551Y704793D3*
X1751622D3*
D58*
X1506084Y1479711D3*
Y1546640D3*
D60*
X2118520Y704793D3*
X2051591D3*
D56*
X1749951Y1586073D3*
Y1536073D3*
Y1486073D3*
Y1436073D3*
Y1386073D3*
Y1336073D3*
Y1286073D3*
X1962550D3*
Y1336073D3*
Y1386073D3*
Y1436073D3*
Y1486073D3*
Y1536073D3*
Y1586073D3*
D55*
X1124874Y673546D3*
D85*
X1054008Y732601D3*
D55*
X1124874Y791656D3*
D53*
X1606073Y1011010D3*
X1680877D3*
X1643475Y1101562D3*
D51*
X937394Y1023509D3*
Y1060911D3*
Y1098312D3*
X831094D3*
Y1023509D3*
D49*
X1862297Y1111000D3*
X1824895D3*
X1787493D3*
Y1004701D3*
X1862297D3*
D64*
X824906Y617302D3*
D62*
Y717302D3*
Y817302D3*
X524906D3*
Y717302D3*
Y617302D3*
D47*
X1118701Y961073D3*
X1168701D3*
X1218701D3*
X1268701D3*
X1318701D3*
X1368701D3*
X1418701D3*
X1468701D3*
Y1173672D3*
X1418701D3*
X1368701D3*
X1318701D3*
X1268701D3*
X1218701D3*
X1168701D3*
X1118701D3*
D45*
X1993533Y2004656D3*
X1803533D3*
M02*
