G04 DipTrace 3.2.0.1*
G04 TopSilk.gbr*
%MOIN*%
G04 #@! TF.FileFunction,Legend,Top*
G04 #@! TF.Part,Single*
%ADD10C,0.009843*%
%ADD17C,0.015743*%
%ADD19C,0.015746*%
%ADD21C,0.023631*%
%ADD28C,0.01542*%
%ADD30C,0.015404*%
%ADD32C,0.015395*%
%ADD34C,0.015401*%
%ADD76C,0.00772*%
%ADD77C,0.015439*%
%FSLAX26Y26*%
G04*
G70*
G90*
G75*
G01*
G04 TopSilk*
%LPD*%
X856726Y1307115D2*
D10*
X805584D1*
X1783441Y1704114D2*
Y1755256D1*
X1349277Y1577315D2*
X1400419D1*
X1249287Y758651D2*
X1300429D1*
X1256684Y1432102D2*
X1205542D1*
X2166129Y867849D2*
Y816707D1*
D17*
X792102Y1973409D3*
X783681Y2026283D2*
D10*
X603675D1*
X783681Y1920535D2*
X603675D1*
X2014667Y1110427D2*
Y1161568D1*
X537677Y1130000D2*
X608556D1*
X537677Y1067005D2*
X608556D1*
D19*
X468787Y1098503D3*
X577589Y1736779D2*
D10*
X750804D1*
X577589Y1622604D2*
X750804D1*
D21*
X538220Y1679686D3*
X1068635Y1760948D2*
D10*
X968635D1*
X1068635Y1560948D2*
Y1760948D1*
Y1560948D2*
X968635D1*
Y1760948D1*
X1237357Y579811D2*
X2037357D1*
X1237357Y479811D2*
Y579811D1*
Y479811D2*
X2037357D1*
Y579811D1*
X2374748Y942283D2*
X2274748D1*
X2374748Y742283D2*
Y942283D1*
Y742283D2*
X2274748D1*
Y942283D1*
Y1073488D2*
X2374748D1*
X2274748Y1273488D2*
Y1073488D1*
Y1273488D2*
X2374748D1*
Y1073488D1*
X1074885Y2092163D2*
X974885D1*
X1074885Y1892163D2*
Y2092163D1*
Y1892163D2*
X974885D1*
Y2092163D1*
X1606647Y1957047D2*
X1555505D1*
X1456663Y1950798D2*
X1405521D1*
X1805062Y1605370D2*
Y1266777D1*
X1907439Y1605370D2*
Y1266777D1*
X1805062D2*
X1907439D1*
X1805062Y1605370D2*
X1836556D1*
X1875945D2*
X1907439D1*
X1836556D2*
G03X1875945Y1605370I19694J-12D01*
G01*
X1085491Y644018D2*
X987085D1*
Y673558D1*
Y791643D2*
Y821184D1*
X1085491D1*
D28*
X1144121Y634921D3*
D30*
X1575225Y996302D3*
X1584425Y1046443D2*
D10*
X1702530D1*
Y1066129D1*
X1584425D1*
Y1046443D1*
D32*
X954019Y996595D3*
X899954Y1001858D2*
D10*
Y1119966D1*
X868463Y1001858D2*
Y1119966D1*
X899954D2*
X868463D1*
X899954Y1001858D2*
X868463D1*
D34*
X1889210Y1127625D3*
X1883948Y1073560D2*
D10*
X1765840D1*
X1883948Y1042069D2*
X1765840D1*
Y1073560D2*
Y1042069D1*
X1883948Y1073560D2*
Y1042069D1*
X777272Y902341D2*
X572539D1*
X777272Y532262D2*
Y902341D1*
X572539Y532262D2*
Y902341D1*
X777272Y532262D2*
X698531D1*
X572539D2*
X651280D1*
X698531D2*
G03X651280Y532262I-23626J-15D01*
G01*
X1096866Y1016185D2*
X1490535D1*
X1096866Y1118561D2*
X1490535D1*
Y1016185D2*
Y1118561D1*
X1096866Y1016185D2*
Y1047678D1*
Y1087067D2*
Y1118561D1*
Y1047678D2*
G03X1096866Y1087067I-11J19694D01*
G01*
X2038197Y2097530D2*
X1758869D1*
X2038197Y1911782D2*
X1758869D1*
X2038197D2*
G03X2038197Y2097530I-8216J92874D01*
G01*
X1758869D2*
G03X1758869Y1911782I8216J-92874D01*
G01*
X740342Y1382211D2*
D76*
X735589Y1379834D1*
X730781Y1375026D1*
X728404Y1370273D1*
Y1360711D1*
X730781Y1355903D1*
X735589Y1351149D1*
X740342Y1348718D1*
X747527Y1346341D1*
X759521D1*
X766651Y1348718D1*
X771459Y1351149D1*
X776212Y1355903D1*
X778644Y1360711D1*
Y1370273D1*
X776212Y1375026D1*
X771459Y1379834D1*
X766651Y1382211D1*
X738021Y1397650D2*
X735589Y1402458D1*
X728460Y1409644D1*
X778644Y1409643D1*
X1847786Y1820497D2*
X1845410Y1825251D1*
X1840601Y1830059D1*
X1835848Y1832436D1*
X1826286D1*
X1821478Y1830059D1*
X1816725Y1825251D1*
X1814293Y1820497D1*
X1811916Y1813312D1*
Y1801319D1*
X1814293Y1794189D1*
X1816725Y1789381D1*
X1821478Y1784628D1*
X1826286Y1782196D1*
X1835848D1*
X1840601Y1784628D1*
X1845410Y1789381D1*
X1847786Y1794189D1*
X1865657Y1820442D2*
Y1822819D1*
X1868034Y1827627D1*
X1870411Y1830004D1*
X1875219Y1832380D1*
X1884781D1*
X1889534Y1830004D1*
X1891910Y1827627D1*
X1894342Y1822819D1*
Y1818066D1*
X1891910Y1813257D1*
X1887157Y1806127D1*
X1863226Y1782196D1*
X1896719D1*
X1284035Y1499907D2*
X1279282Y1497531D1*
X1274474Y1492722D1*
X1272097Y1487969D1*
Y1478407D1*
X1274474Y1473599D1*
X1279282Y1468846D1*
X1284035Y1466414D1*
X1291220Y1464037D1*
X1303214D1*
X1310344Y1466414D1*
X1315152Y1468846D1*
X1319905Y1473599D1*
X1322337Y1478407D1*
Y1487969D1*
X1319905Y1492722D1*
X1315152Y1497530D1*
X1310344Y1499907D1*
X1272152Y1520155D2*
Y1546408D1*
X1291276Y1532093D1*
Y1539278D1*
X1293652Y1544031D1*
X1296029Y1546408D1*
X1303214Y1548840D1*
X1307967D1*
X1315152Y1546408D1*
X1319961Y1541655D1*
X1322337Y1534470D1*
Y1527284D1*
X1319961Y1520155D1*
X1317529Y1517778D1*
X1312776Y1515346D1*
X1184046Y680055D2*
X1179293Y677678D1*
X1174484Y672870D1*
X1172108Y668117D1*
Y658555D1*
X1174484Y653746D1*
X1179293Y648993D1*
X1184046Y646561D1*
X1191231Y644185D1*
X1203224D1*
X1210354Y646561D1*
X1215163Y648993D1*
X1219916Y653746D1*
X1222348Y658555D1*
Y668116D1*
X1219916Y672870D1*
X1215163Y677678D1*
X1210354Y680055D1*
X1222348Y719426D2*
X1172163D1*
X1205601Y695494D1*
Y731364D1*
X1140301Y1496448D2*
X1135547Y1494071D1*
X1130739Y1489263D1*
X1128362Y1484510D1*
Y1474948D1*
X1130739Y1470140D1*
X1135547Y1465386D1*
X1140300Y1462954D1*
X1147485Y1460578D1*
X1159479D1*
X1166609Y1462954D1*
X1171417Y1465386D1*
X1176170Y1470139D1*
X1178602Y1474948D1*
Y1484510D1*
X1176170Y1489263D1*
X1171417Y1494071D1*
X1166609Y1496448D1*
X1128418Y1540572D2*
Y1516695D1*
X1149917Y1514319D1*
X1147541Y1516695D1*
X1145109Y1523880D1*
Y1531010D1*
X1147541Y1538195D1*
X1152294Y1543004D1*
X1159479Y1545380D1*
X1164232D1*
X1171417Y1543004D1*
X1176226Y1538195D1*
X1178602Y1531010D1*
Y1523880D1*
X1176226Y1516695D1*
X1173794Y1514319D1*
X1169041Y1511887D1*
X2089937Y933091D2*
X2087560Y937844D1*
X2082752Y942652D1*
X2077998Y945029D1*
X2068437D1*
X2063628Y942652D1*
X2058875Y937844D1*
X2056443Y933091D1*
X2054067Y925906D1*
Y913912D1*
X2056443Y906782D1*
X2058875Y901974D1*
X2063628Y897221D1*
X2068437Y894789D1*
X2077998D1*
X2082752Y897221D1*
X2087560Y901974D1*
X2089937Y906782D1*
X2134061Y937844D2*
X2131684Y942597D1*
X2124499Y944974D1*
X2119746D1*
X2112561Y942597D1*
X2107752Y935412D1*
X2105376Y923474D1*
Y911536D1*
X2107752Y901974D1*
X2112561Y897165D1*
X2119746Y894789D1*
X2122122D1*
X2129252Y897165D1*
X2134061Y901974D1*
X2136437Y909159D1*
Y911536D1*
X2134061Y918721D1*
X2129252Y923474D1*
X2122122Y925850D1*
X2119746D1*
X2112561Y923474D1*
X2107752Y918721D1*
X2105376Y911536D1*
X695293Y2087568D2*
X692916Y2092322D1*
X688108Y2097130D1*
X683355Y2099507D1*
X673793D1*
X668985Y2097130D1*
X664231Y2092322D1*
X661799Y2087568D1*
X659423Y2080383D1*
Y2068390D1*
X661799Y2061260D1*
X664231Y2056452D1*
X668985Y2051698D1*
X673793Y2049267D1*
X683355D1*
X688108Y2051698D1*
X692916Y2056452D1*
X695293Y2061260D1*
X720294Y2049267D2*
X744225Y2099451D1*
X710732D1*
X2079040Y1226810D2*
X2076663Y1231563D1*
X2071855Y1236371D1*
X2067101Y1238748D1*
X2057540D1*
X2052731Y1236371D1*
X2047978Y1231563D1*
X2045546Y1226810D1*
X2043170Y1219625D1*
Y1207631D1*
X2045546Y1200501D1*
X2047978Y1195693D1*
X2052731Y1190940D1*
X2057540Y1188508D1*
X2067101D1*
X2071855Y1190940D1*
X2076663Y1195693D1*
X2079040Y1200501D1*
X2106417Y1238693D2*
X2099287Y1236316D1*
X2096855Y1231563D1*
Y1226755D1*
X2099287Y1222001D1*
X2104040Y1219569D1*
X2113602Y1217193D1*
X2120787Y1214816D1*
X2125540Y1210008D1*
X2127917Y1205255D1*
Y1198070D1*
X2125540Y1193316D1*
X2123164Y1190885D1*
X2115979Y1188508D1*
X2106417D1*
X2099287Y1190885D1*
X2096855Y1193316D1*
X2094479Y1198070D1*
Y1205255D1*
X2096855Y1210008D1*
X2101664Y1214816D1*
X2108794Y1217193D1*
X2118355Y1219569D1*
X2123164Y1222001D1*
X2125540Y1226755D1*
Y1231563D1*
X2123164Y1236316D1*
X2115979Y1238693D1*
X2106417D1*
X527891Y1203223D2*
Y1152983D1*
X544638D1*
X551823Y1155415D1*
X556631Y1160168D1*
X559008Y1164977D1*
X561385Y1172106D1*
Y1184100D1*
X559008Y1191285D1*
X556631Y1196038D1*
X551823Y1200846D1*
X544638Y1203223D1*
X527891D1*
X576824Y1193606D2*
X581632Y1196038D1*
X588817Y1203168D1*
Y1152983D1*
X606253Y1810002D2*
Y1759762D1*
X623000D1*
X630185Y1762194D1*
X634993Y1766947D1*
X637370Y1771755D1*
X639746Y1778885D1*
Y1790879D1*
X637370Y1798064D1*
X634993Y1802817D1*
X630185Y1807625D1*
X623000Y1810002D1*
X606253D1*
X657617Y1798008D2*
Y1800385D1*
X659994Y1805193D1*
X662371Y1807570D1*
X667179Y1809947D1*
X676741D1*
X681494Y1807570D1*
X683870Y1805193D1*
X686302Y1800385D1*
Y1795632D1*
X683870Y1790823D1*
X679117Y1783694D1*
X655186Y1759762D1*
X688679D1*
X1016885Y1834171D2*
Y1795924D1*
X1014508Y1788739D1*
X1012076Y1786362D1*
X1007323Y1783931D1*
X1002515D1*
X997761Y1786362D1*
X995385Y1788739D1*
X992953Y1795924D1*
Y1800677D1*
X1032324Y1824554D2*
X1037132Y1826986D1*
X1044317Y1834115D1*
Y1783931D1*
X1624857Y653034D2*
Y614788D1*
X1622480Y607603D1*
X1620048Y605226D1*
X1615295Y602794D1*
X1610486D1*
X1605733Y605226D1*
X1603357Y607603D1*
X1600925Y614788D1*
Y619541D1*
X1642728Y641041D2*
Y643417D1*
X1645104Y648226D1*
X1647481Y650602D1*
X1652289Y652979D1*
X1661851D1*
X1666604Y650602D1*
X1668981Y648226D1*
X1671413Y643417D1*
Y638664D1*
X1668981Y633856D1*
X1664227Y626726D1*
X1640296Y602794D1*
X1673789D1*
X2311059Y1015507D2*
Y977260D1*
X2308683Y970075D1*
X2306251Y967698D1*
X2301498Y965267D1*
X2296689D1*
X2291936Y967698D1*
X2289559Y970075D1*
X2287128Y977260D1*
Y982013D1*
X2350430Y965267D2*
Y1015451D1*
X2326499Y982013D1*
X2362368D1*
X2312248Y1346711D2*
Y1308465D1*
X2309871Y1301280D1*
X2307439Y1298903D1*
X2302686Y1296471D1*
X2297878D1*
X2293124Y1298903D1*
X2290748Y1301280D1*
X2288316Y1308465D1*
Y1313218D1*
X2356372Y1346656D2*
X2332495D1*
X2330119Y1325156D1*
X2332495Y1327533D1*
X2339680Y1329965D1*
X2346810D1*
X2353995Y1327533D1*
X2358804Y1322780D1*
X2361180Y1315595D1*
Y1310841D1*
X2358804Y1303656D1*
X2353995Y1298848D1*
X2346810Y1296471D1*
X2339680D1*
X2332495Y1298848D1*
X2330119Y1301280D1*
X2327687Y1306033D1*
X1013600Y2165386D2*
Y2127139D1*
X1011223Y2119954D1*
X1008792Y2117578D1*
X1004038Y2115146D1*
X999230D1*
X994477Y2117578D1*
X992100Y2119954D1*
X989668Y2127139D1*
Y2131892D1*
X1057724Y2158201D2*
X1055348Y2162954D1*
X1048163Y2165331D1*
X1043409D1*
X1036224Y2162954D1*
X1031416Y2155769D1*
X1029039Y2143831D1*
Y2131892D1*
X1031416Y2122331D1*
X1036224Y2117522D1*
X1043409Y2115146D1*
X1045786D1*
X1052916Y2117522D1*
X1057724Y2122331D1*
X1060101Y2129516D1*
Y2131892D1*
X1057724Y2139078D1*
X1052916Y2143831D1*
X1045786Y2146207D1*
X1043409D1*
X1036224Y2143831D1*
X1031416Y2139078D1*
X1029039Y2131892D1*
X1478326Y2015424D2*
X1516572D1*
X1523757Y2013047D1*
X1526134Y2010615D1*
X1528566Y2005862D1*
Y2001053D1*
X1526134Y1996300D1*
X1523757Y1993924D1*
X1516572Y1991492D1*
X1511819D1*
X1528566Y2040424D2*
X1478381Y2064356D1*
Y2030863D1*
X1328341Y2009202D2*
X1366588D1*
X1373773Y2006825D1*
X1376149Y2004393D1*
X1378581Y1999640D1*
Y1994832D1*
X1376149Y1990079D1*
X1373773Y1987702D1*
X1366588Y1985270D1*
X1361835D1*
X1328397Y2036579D2*
X1330773Y2029450D1*
X1335526Y2027018D1*
X1340335D1*
X1345088Y2029450D1*
X1347520Y2034203D1*
X1349896Y2043764D1*
X1352273Y2050949D1*
X1357081Y2055702D1*
X1361835Y2058079D1*
X1369020D1*
X1373773Y2055702D1*
X1376205Y2053326D1*
X1378581Y2046141D1*
Y2036579D1*
X1376205Y2029449D1*
X1373773Y2027018D1*
X1369020Y2024641D1*
X1361835D1*
X1357081Y2027018D1*
X1352273Y2031826D1*
X1349896Y2038956D1*
X1347520Y2048517D1*
X1345088Y2053326D1*
X1340335Y2055703D1*
X1335526D1*
X1330773Y2053326D1*
X1328397Y2046141D1*
Y2036579D1*
X553122Y1517656D2*
Y1467416D1*
X581807D1*
X597246Y1508039D2*
X602055Y1510471D1*
X609240Y1517601D1*
Y1467416D1*
X2052684Y1067394D2*
X2074184D1*
X2081369Y1069826D1*
X2083801Y1072202D1*
X2086177Y1076955D1*
Y1081764D1*
X2083801Y1086517D1*
X2081369Y1088949D1*
X2074184Y1091325D1*
X2052684D1*
Y1041085D1*
X2069431Y1067394D2*
X2086177Y1041085D1*
X2101617Y1081709D2*
X2106425Y1084140D1*
X2113610Y1091270D1*
Y1041085D1*
X2230774Y1398785D2*
Y1420284D1*
X2228342Y1427469D1*
X2225966Y1429901D1*
X2221213Y1432278D1*
X2216404D1*
X2211651Y1429901D1*
X2209219Y1427469D1*
X2206843Y1420284D1*
Y1398785D1*
X2257083D1*
X2230774Y1415531D2*
X2257083Y1432278D1*
X2218836Y1450149D2*
X2216460D1*
X2211651Y1452526D1*
X2209274Y1454902D1*
X2206898Y1459711D1*
Y1469272D1*
X2209274Y1474025D1*
X2211651Y1476402D1*
X2216460Y1478834D1*
X2221213D1*
X2226021Y1476402D1*
X2233151Y1471649D1*
X2257083Y1447717D1*
Y1481210D1*
X2355761Y1403220D2*
Y1424720D1*
X2353329Y1431905D1*
X2350953Y1434337D1*
X2346200Y1436714D1*
X2341391D1*
X2336638Y1434337D1*
X2334206Y1431905D1*
X2331829Y1424720D1*
Y1403220D1*
X2382069D1*
X2355761Y1419967D2*
X2382069Y1436713D1*
X2331885Y1456961D2*
Y1483214D1*
X2351008Y1468899D1*
Y1476084D1*
X2353385Y1480838D1*
X2355761Y1483214D1*
X2362946Y1485646D1*
X2367699D1*
X2374884Y1483214D1*
X2379693Y1478461D1*
X2382069Y1471276D1*
Y1464091D1*
X2379693Y1456961D1*
X2377261Y1454585D1*
X2372508Y1452153D1*
X2105787Y1397596D2*
Y1419096D1*
X2103356Y1426281D1*
X2100979Y1428713D1*
X2096226Y1431090D1*
X2091417D1*
X2086664Y1428713D1*
X2084232Y1426281D1*
X2081856Y1419096D1*
Y1397596D1*
X2132096D1*
X2105787Y1414343D2*
X2132096Y1431089D1*
Y1470460D2*
X2081911D1*
X2115349Y1446529D1*
Y1482399D1*
X1355866Y1717501D2*
Y1739001D1*
X1353434Y1746186D1*
X1351058Y1748618D1*
X1346305Y1750994D1*
X1341496D1*
X1336743Y1748618D1*
X1334311Y1746186D1*
X1331934Y1739001D1*
Y1717501D1*
X1382174D1*
X1355866Y1734248D2*
X1382174Y1750994D1*
X1331990Y1795118D2*
Y1771242D1*
X1353490Y1768865D1*
X1351113Y1771242D1*
X1348681Y1778427D1*
Y1785557D1*
X1351113Y1792742D1*
X1355866Y1797550D1*
X1363051Y1799927D1*
X1367804D1*
X1374989Y1797550D1*
X1379798Y1792742D1*
X1382174Y1785557D1*
Y1778427D1*
X1379798Y1771242D1*
X1377366Y1768865D1*
X1372613Y1766434D1*
X1224630Y1712468D2*
Y1733967D1*
X1222198Y1741153D1*
X1219822Y1743584D1*
X1215068Y1745961D1*
X1210260D1*
X1205507Y1743584D1*
X1203075Y1741153D1*
X1200698Y1733968D1*
Y1712468D1*
X1250938D1*
X1224630Y1729214D2*
X1250938Y1745961D1*
X1207883Y1790085D2*
X1203130Y1787708D1*
X1200754Y1780523D1*
Y1775770D1*
X1203130Y1768585D1*
X1210315Y1763777D1*
X1222253Y1761400D1*
X1234192D1*
X1243753Y1763777D1*
X1248562Y1768585D1*
X1250938Y1775770D1*
Y1778147D1*
X1248562Y1785277D1*
X1243753Y1790085D1*
X1236568Y1792462D1*
X1234192D1*
X1227007Y1790085D1*
X1222253Y1785277D1*
X1219877Y1778147D1*
Y1775770D1*
X1222253Y1768585D1*
X1227007Y1763777D1*
X1234192Y1761400D1*
X1524598Y1242551D2*
Y1264051D1*
X1522167Y1271236D1*
X1519790Y1273668D1*
X1515037Y1276044D1*
X1510228D1*
X1505475Y1273668D1*
X1503043Y1271236D1*
X1500667Y1264051D1*
Y1242551D1*
X1550907D1*
X1524598Y1259298D2*
X1550907Y1276044D1*
Y1301045D2*
X1500722Y1324977D1*
Y1291483D1*
X1742088Y898756D2*
X1763587D1*
X1770773Y901188D1*
X1773204Y903564D1*
X1775581Y908318D1*
Y913126D1*
X1773204Y917879D1*
X1770773Y920311D1*
X1763587Y922688D1*
X1742088D1*
Y872448D1*
X1758834Y898756D2*
X1775581Y872448D1*
X1802958Y922632D2*
X1795829Y920256D1*
X1793397Y915503D1*
Y910694D1*
X1795829Y905941D1*
X1800582Y903509D1*
X1810143Y901133D1*
X1817329Y898756D1*
X1822082Y893947D1*
X1824458Y889194D1*
Y882009D1*
X1822082Y877256D1*
X1819705Y874824D1*
X1812520Y872448D1*
X1802958D1*
X1795829Y874824D1*
X1793397Y877256D1*
X1791020Y882009D1*
Y889194D1*
X1793397Y893947D1*
X1798205Y898756D1*
X1805335Y901133D1*
X1814897Y903509D1*
X1819705Y905941D1*
X1822082Y910694D1*
Y915503D1*
X1819705Y920256D1*
X1812520Y922632D1*
X1802958D1*
X1745062Y773769D2*
X1766562D1*
X1773747Y776201D1*
X1776179Y778578D1*
X1778555Y783331D1*
Y788139D1*
X1776179Y792892D1*
X1773747Y795324D1*
X1766562Y797701D1*
X1745062D1*
Y747461D1*
X1761809Y773769D2*
X1778555Y747461D1*
X1825111Y780954D2*
X1822679Y773769D1*
X1817926Y768961D1*
X1810741Y766584D1*
X1808365D1*
X1801180Y768961D1*
X1796426Y773769D1*
X1793995Y780954D1*
Y783331D1*
X1796426Y790516D1*
X1801180Y795269D1*
X1808365Y797645D1*
X1810741D1*
X1817926Y795269D1*
X1822679Y790516D1*
X1825111Y780954D1*
Y768961D1*
X1822679Y757022D1*
X1817926Y749837D1*
X1810741Y747461D1*
X1805988D1*
X1798803Y749837D1*
X1796426Y754646D1*
X1437108Y1458247D2*
Y1479746D1*
X1434676Y1486932D1*
X1432299Y1489363D1*
X1427546Y1491740D1*
X1422738D1*
X1417984Y1489363D1*
X1415553Y1486932D1*
X1413176Y1479746D1*
Y1458247D1*
X1463416D1*
X1437108Y1474993D2*
X1463416Y1491740D1*
X1422793Y1507179D2*
X1420361Y1511988D1*
X1413231Y1519173D1*
X1463416D1*
X1413231Y1548982D2*
X1415608Y1541797D1*
X1422793Y1536988D1*
X1434731Y1534612D1*
X1441916D1*
X1453854Y1536988D1*
X1461039Y1541797D1*
X1463416Y1548982D1*
Y1553735D1*
X1461039Y1560920D1*
X1453854Y1565673D1*
X1441916Y1568105D1*
X1434731D1*
X1422793Y1565673D1*
X1415608Y1560920D1*
X1413231Y1553735D1*
Y1548982D1*
X1422793Y1565673D2*
X1453854Y1536988D1*
X2040876Y773769D2*
X2062376D1*
X2069561Y776201D1*
X2071992Y778578D1*
X2074369Y783331D1*
Y788139D1*
X2071992Y792892D1*
X2069561Y795324D1*
X2062376Y797701D1*
X2040876D1*
Y747461D1*
X2057622Y773769D2*
X2074369Y747461D1*
X2089808Y788084D2*
X2094617Y790516D1*
X2101802Y797645D1*
Y747461D1*
X2117241Y788084D2*
X2122049Y790516D1*
X2129235Y797645D1*
Y747461D1*
X1825788Y1678593D2*
Y1642723D1*
X1828164Y1635538D1*
X1832973Y1630785D1*
X1840158Y1628353D1*
X1844911D1*
X1852096Y1630785D1*
X1856904Y1635538D1*
X1859281Y1642723D1*
Y1678593D1*
X1874720Y1668976D2*
X1879529Y1671408D1*
X1886714Y1678538D1*
Y1628353D1*
X1012795Y894407D2*
Y858537D1*
X1015172Y851352D1*
X1019980Y846599D1*
X1027165Y844167D1*
X1031918D1*
X1039103Y846599D1*
X1043912Y851352D1*
X1046288Y858537D1*
Y894407D1*
X1064159Y882413D2*
Y884790D1*
X1066536Y889598D1*
X1068913Y891975D1*
X1073721Y894352D1*
X1083283D1*
X1088036Y891975D1*
X1090412Y889598D1*
X1092844Y884790D1*
Y880037D1*
X1090412Y875228D1*
X1085659Y868099D1*
X1061727Y844167D1*
X1095221D1*
X1592625Y1195454D2*
Y1159584D1*
X1595002Y1152399D1*
X1599810Y1147646D1*
X1606995Y1145214D1*
X1611748D1*
X1618933Y1147646D1*
X1623742Y1152399D1*
X1626118Y1159584D1*
Y1195454D1*
X1665489Y1145214D2*
Y1195399D1*
X1641558Y1161961D1*
X1677428D1*
X844366Y1193189D2*
Y1157319D1*
X846742Y1150134D1*
X851551Y1145381D1*
X858736Y1142949D1*
X863489D1*
X870674Y1145381D1*
X875483Y1150134D1*
X877859Y1157319D1*
Y1193189D1*
X921983Y1193134D2*
X898107D1*
X895730Y1171634D1*
X898107Y1174010D1*
X905292Y1176442D1*
X912422D1*
X919607Y1174010D1*
X924415Y1169257D1*
X926792Y1162072D1*
Y1157319D1*
X924415Y1150134D1*
X919607Y1145326D1*
X912422Y1142949D1*
X905292D1*
X898107Y1145326D1*
X895730Y1147757D1*
X893298Y1152511D1*
X1791378Y1208546D2*
Y1172676D1*
X1793755Y1165491D1*
X1798563Y1160738D1*
X1805748Y1158306D1*
X1810502D1*
X1817687Y1160738D1*
X1822495Y1165491D1*
X1824872Y1172676D1*
Y1208546D1*
X1868996Y1201361D2*
X1866619Y1206114D1*
X1859434Y1208491D1*
X1854681D1*
X1847496Y1206114D1*
X1842687Y1198929D1*
X1840311Y1186991D1*
Y1175053D1*
X1842687Y1165491D1*
X1847496Y1160682D1*
X1854681Y1158306D1*
X1857058D1*
X1864187Y1160682D1*
X1868996Y1165491D1*
X1871372Y1172676D1*
Y1175053D1*
X1868996Y1182238D1*
X1864187Y1186991D1*
X1857058Y1189367D1*
X1854681D1*
X1847496Y1186991D1*
X1842687Y1182238D1*
X1840311Y1175053D1*
X633693Y975564D2*
Y939694D1*
X636069Y932509D1*
X640878Y927756D1*
X648063Y925324D1*
X652816D1*
X660001Y927756D1*
X664809Y932509D1*
X667186Y939694D1*
Y975564D1*
X692187Y925324D2*
X716118Y975509D1*
X682625D1*
X1252515Y1286265D2*
Y1250395D1*
X1254892Y1243210D1*
X1259701Y1238457D1*
X1266886Y1236025D1*
X1271639D1*
X1278824Y1238457D1*
X1283632Y1243210D1*
X1286009Y1250395D1*
Y1286265D1*
X1313386Y1286210D2*
X1306256Y1283833D1*
X1303825Y1279080D1*
Y1274272D1*
X1306256Y1269518D1*
X1311010Y1267087D1*
X1320571Y1264710D1*
X1327756Y1262333D1*
X1332510Y1257525D1*
X1334886Y1252772D1*
Y1245587D1*
X1332510Y1240834D1*
X1330133Y1238402D1*
X1322948Y1236025D1*
X1313386D1*
X1306256Y1238402D1*
X1303825Y1240834D1*
X1301448Y1245587D1*
Y1252772D1*
X1303825Y1257525D1*
X1308633Y1262333D1*
X1315763Y1264710D1*
X1325324Y1267087D1*
X1330133Y1269518D1*
X1332510Y1274272D1*
Y1279080D1*
X1330133Y1283833D1*
X1322948Y1286210D1*
X1313386D1*
X1865693Y2170753D2*
X1884816Y2146822D1*
Y2120513D1*
X1903940Y2170753D2*
X1884816Y2146822D1*
X1919379Y2161136D2*
X1924187Y2163568D1*
X1931372Y2170698D1*
Y2120513D1*
X2187263Y1903466D2*
D77*
Y1802986D1*
X2108281Y614312D2*
D76*
X2077164D1*
Y564072D1*
Y590380D2*
X2096288D1*
X2123720Y614312D2*
Y564072D1*
X2151098Y597565D2*
X2146345Y595188D1*
X2141536Y590380D1*
X2139160Y583195D1*
Y578442D1*
X2141536Y571257D1*
X2146345Y566504D1*
X2151098Y564072D1*
X2158283D1*
X2163091Y566504D1*
X2167844Y571257D1*
X2170276Y578442D1*
Y583195D1*
X2167844Y590380D1*
X2163091Y595188D1*
X2158283Y597565D1*
X2151098D1*
X2185716D2*
X2195277Y564072D1*
X2204839Y597565D1*
X2214400Y564072D1*
X2223962Y597565D1*
X2239401D2*
Y564072D1*
Y588003D2*
X2246586Y595188D1*
X2251395Y597565D1*
X2258525D1*
X2263333Y595188D1*
X2265710Y588003D1*
Y564072D1*
Y588003D2*
X2272895Y595188D1*
X2277703Y597565D1*
X2284833D1*
X2289641Y595188D1*
X2292073Y588003D1*
Y564072D1*
X2307512Y583195D2*
X2336197D1*
Y588003D1*
X2333821Y592812D1*
X2331444Y595188D1*
X2326636Y597565D1*
X2319451D1*
X2314697Y595188D1*
X2309889Y590380D1*
X2307512Y583195D1*
Y578442D1*
X2309889Y571257D1*
X2314697Y566504D1*
X2319451Y564072D1*
X2326636D1*
X2331444Y566504D1*
X2336197Y571257D1*
X2358822Y614312D2*
Y573633D1*
X2361198Y566504D1*
X2366007Y564072D1*
X2370760D1*
X2351637Y597565D2*
X2368383D1*
X2386199Y583195D2*
X2414884D1*
Y588003D1*
X2412507Y592812D1*
X2410131Y595188D1*
X2405322Y597565D1*
X2398137D1*
X2393384Y595188D1*
X2388576Y590380D1*
X2386199Y583195D1*
Y578442D1*
X2388576Y571257D1*
X2393384Y566504D1*
X2398137Y564072D1*
X2405322D1*
X2410131Y566504D1*
X2414884Y571257D1*
X2430323Y597565D2*
Y564072D1*
Y583195D2*
X2432755Y590380D1*
X2437508Y595188D1*
X2442317Y597565D1*
X2449502D1*
X2133408Y522573D2*
X2147778Y489080D1*
X2162093Y522573D1*
X2177533Y529703D2*
X2182341Y532134D1*
X2189526Y539264D1*
Y489080D1*
X2207342Y493888D2*
X2204965Y491456D1*
X2207342Y489080D1*
X2209774Y491456D1*
X2207342Y493888D1*
X2239583Y539264D2*
X2232398Y536888D1*
X2227590Y529703D1*
X2225213Y517764D1*
Y510579D1*
X2227590Y498641D1*
X2232398Y491456D1*
X2239583Y489080D1*
X2244336D1*
X2251521Y491456D1*
X2256274Y498641D1*
X2258706Y510579D1*
Y517764D1*
X2256274Y529703D1*
X2251521Y536888D1*
X2244336Y539264D1*
X2239583D1*
X2256274Y529703D2*
X2227590Y498641D1*
X2360993Y489080D2*
Y539320D1*
X2341870Y489080D1*
X2322746Y539320D1*
Y489080D1*
X2376432Y539320D2*
Y489080D1*
M02*
