G04 DipTrace 3.2.0.1*
G04 BottomMask.gbr*
%MOIN*%
G04 #@! TF.FileFunction,Soldermask,Bot*
G04 #@! TF.Part,Single*
%ADD50C,0.055874*%
%ADD67C,0.066929*%
%ADD69R,0.066929X0.066929*%
%ADD71C,0.082677*%
%ADD72R,0.082677X0.082677*%
%FSLAX26Y26*%
G04*
G70*
G90*
G75*
G01*
G04 BotMask*
%LPD*%
D72*
X724916Y1573451D3*
D71*
Y1967152D3*
D69*
X1287357Y529811D3*
D67*
X1387357D3*
X1487357D3*
X1587357D3*
X1687357D3*
X1787357D3*
X1887357D3*
X1987357D3*
D69*
X2362244Y2054651D3*
D67*
X2262244D3*
X2362244Y1954651D3*
X2262244D3*
X2362244Y1854651D3*
X2262244D3*
X2362244Y1754651D3*
X2262244D3*
X2362244Y1654651D3*
X2262244D3*
D69*
X2243507Y798533D3*
D67*
Y898533D3*
D69*
Y1223488D3*
D67*
Y1123488D3*
D69*
X1074879Y2004656D3*
D67*
X1174879D3*
D69*
X824906Y617302D3*
D67*
Y717302D3*
Y817302D3*
X524906D3*
Y717302D3*
Y617302D3*
D50*
X1993533Y1904667D3*
X1803533D3*
D69*
X1287357Y2129643D3*
D67*
X1387357D3*
X1487357D3*
X1587357D3*
X1687357D3*
X1787357D3*
X1887357D3*
X1987357D3*
M02*
