G04 DipTrace 3.2.0.1*
G04 Bottom.gbr*
%MOIN*%
G04 #@! TF.FileFunction,Copper,L2,Bot*
G04 #@! TF.Part,Single*
G04 #@! TA.AperFunction,Conductor*
%ADD14C,0.011811*%
G04 #@! TA.AperFunction,CopperBalancing*
%ADD15C,0.025*%
G04 #@! TA.AperFunction,ComponentPad*
%ADD25R,0.074803X0.074803*%
%ADD26C,0.074803*%
%ADD27R,0.059055X0.059055*%
%ADD28C,0.059055*%
%ADD41C,0.048*%
G04 #@! TA.AperFunction,ViaPad*
%ADD42C,0.047244*%
%FSLAX26Y26*%
G04*
G70*
G90*
G75*
G01*
G04 Bottom*
%LPD*%
X1468701Y1286075D2*
D14*
X1650661D1*
X1581764Y1354972D1*
Y2060900D1*
X2262244D1*
Y2054651D1*
X1673177Y1441980D2*
X1868311D1*
X2262244Y1835913D1*
Y1854651D1*
X1250197Y1067374D2*
Y1174669D1*
X1275787Y1200260D1*
X1844441D1*
X1870031Y1225850D1*
Y1329783D1*
X1957028D1*
X1982619Y1355375D1*
Y1456299D1*
X2237257Y1710937D1*
Y1754651D1*
X2262244D1*
X1418701Y884299D2*
Y1149079D1*
X1444291Y1174669D1*
X1938791D1*
X2099335Y1335213D1*
Y1491741D1*
X2262244Y1654651D1*
X1987357Y529811D2*
Y866693D1*
X2019197Y898533D1*
X2243507D1*
X1235902Y1746028D2*
Y1943634D1*
X1174879Y2004656D1*
X2362244Y1654651D2*
Y1754651D1*
X524906Y817302D2*
X824906D1*
X1174879Y2004656D2*
X1100075Y2079461D1*
X837224D1*
X724916Y1967152D1*
X2362244Y1954651D2*
X2305990Y2010906D1*
X1681066D1*
X2362244Y1854651D2*
Y1954651D1*
Y1754651D2*
Y1854651D1*
X824906Y817302D2*
Y1051354D1*
X772039Y1104220D1*
X2362244Y2054651D2*
X2430987Y1985908D1*
Y1543298D1*
X2385866Y1498177D1*
X2211541D1*
X2185949Y1472585D1*
Y1174669D1*
X2160358Y1149079D1*
X1694972D1*
X1669382Y1123488D1*
Y1071311D1*
X1694972Y1045720D1*
X1831508D1*
X1853717Y1067929D1*
X1911512D1*
X2055587D1*
X1668378Y1510492D2*
X1698768Y1540882D1*
Y1767087D1*
X1637744Y1828110D1*
X1757988Y1948354D1*
X1949845D1*
X1993533Y1904667D1*
X1803533D2*
Y1559274D1*
X1826724Y1536083D1*
X1787357Y529811D2*
Y596740D1*
X1787358D1*
X524906Y617302D2*
X824906D1*
X1042413Y834810D1*
Y1361953D1*
X2142642Y1473465D2*
Y1232063D1*
X1794929Y920335D2*
X1816093Y941500D1*
X2373959D1*
X2399551Y967091D1*
Y1264827D1*
X2373961Y1290417D1*
X2299748D1*
X1751622Y767287D2*
Y941500D1*
X1777213Y967091D1*
X2348370D1*
X2373961Y992681D1*
Y1093034D1*
X2243507Y1223488D1*
X1738280Y1103669D2*
X1758098Y1123488D1*
X2243507D1*
X1852315Y1390807D2*
X1650661D1*
X1625071Y1416398D1*
Y1670161D1*
X1481933Y1655823D2*
X1100472D1*
X1074879Y1681416D1*
Y2004656D1*
X1512567Y1063437D2*
Y866740D1*
X1826724Y1279701D2*
X1772875Y1225850D1*
X1393295D1*
X1368701Y1250445D1*
X1318701Y1080169D2*
Y728000D1*
X1387357Y659344D1*
Y529811D1*
X2229256Y1386075D2*
X2399551D1*
X2425142Y1360484D1*
Y468976D1*
X2399551Y443386D1*
X1362161D1*
X1336571Y468976D1*
Y625283D1*
X1218701Y743154D1*
Y801827D1*
X1168701Y866524D2*
Y555402D1*
X1194291Y529811D1*
X1287357D1*
X1487357D2*
Y762567D1*
X1487358D1*
X1368701Y805874D2*
X1561764D1*
X1587357Y780281D1*
Y529811D1*
X1555874Y1020130D2*
X1687357Y888647D1*
Y529811D1*
D42*
X1650661Y1286075D3*
X1468701D3*
X1673177Y1441980D3*
X1250197Y1067374D3*
X1870031Y1329783D3*
X1418701Y884299D3*
X2099335Y1335213D3*
X1681066Y2010906D3*
X772039Y1104220D3*
X1235902Y1746028D3*
X1911512Y1067929D3*
X2055587D3*
X1637744Y1828110D3*
X1668378Y1510492D3*
X1826724Y1536083D3*
X1787358Y596740D3*
X1042413Y1361953D3*
X2142642Y1232063D3*
Y1473465D3*
X2299748Y1290417D3*
X1794929Y920335D3*
X1751622Y767287D3*
X1738280Y1103669D3*
X1625071Y1670161D3*
X1852315Y1390807D3*
X1481933Y1655823D3*
X1512567Y866740D3*
Y1063437D3*
X1368701Y1250445D3*
X1826724Y1279701D3*
X1218701Y801827D3*
X2229256Y1386075D3*
X1168701Y866524D3*
X1487358Y762567D3*
X1368701Y805874D3*
X1555874Y1020130D3*
X1318701Y1080169D3*
X448071Y2132867D2*
D15*
X1226082D1*
X2048559D2*
X2465306D1*
X448071Y2107999D2*
X814203D1*
X1123106D2*
X1226082D1*
X2044504D2*
X2235073D1*
X2289414D2*
X2300957D1*
X2423513D2*
X2465306D1*
X448071Y2083130D2*
X788689D1*
X1148620D2*
X1226082D1*
X1425789D2*
X1448923D1*
X1525799D2*
X1548932D1*
X2423513D2*
X2465306D1*
X448071Y2058261D2*
X763822D1*
X1201477D2*
X1544123D1*
X2423513D2*
X2465306D1*
X448071Y2033392D2*
X715055D1*
X843353D2*
X1013611D1*
X1228642D2*
X1544123D1*
X2435714D2*
X2465306D1*
X448071Y2008524D2*
X670164D1*
X818485D2*
X1013611D1*
X1236034D2*
X1544123D1*
X448071Y1983655D2*
X657856D1*
X793618D2*
X1013611D1*
X1248091D2*
X1544123D1*
X1619420D2*
X1633260D1*
X448071Y1958786D2*
X656277D1*
X793546D2*
X1013611D1*
X1270124D2*
X1544123D1*
X1619420D2*
X1669682D1*
X1692445D2*
X1716188D1*
X1991611D2*
X2201127D1*
X448071Y1933917D2*
X664638D1*
X785185D2*
X1037223D1*
X1112520D2*
X1193391D1*
X1273569D2*
X1544123D1*
X1619420D2*
X1691320D1*
X2040521D2*
X2204751D1*
X448071Y1909049D2*
X689757D1*
X760066D2*
X1037223D1*
X1112520D2*
X1198236D1*
X1273569D2*
X1544123D1*
X1619420D2*
X1666452D1*
X1859091D2*
X1936947D1*
X2049098D2*
X2222657D1*
X448071Y1884180D2*
X1037223D1*
X1112520D2*
X1198236D1*
X1273569D2*
X1544123D1*
X1619420D2*
X1641585D1*
X1855180D2*
X1941900D1*
X2045186D2*
X2208914D1*
X448071Y1859311D2*
X1037223D1*
X1112520D2*
X1198236D1*
X1273569D2*
X1544123D1*
X1721152D2*
X1765888D1*
X1841185D2*
X1963143D1*
X2023943D2*
X2201163D1*
X448071Y1834442D2*
X1037223D1*
X1112520D2*
X1198236D1*
X1273569D2*
X1544123D1*
X1696284D2*
X1765888D1*
X1841185D2*
X2204536D1*
X448071Y1809573D2*
X1037223D1*
X1112520D2*
X1198236D1*
X1273569D2*
X1544123D1*
X1708485D2*
X1765888D1*
X1841185D2*
X2183687D1*
X448071Y1784705D2*
X1037223D1*
X1112520D2*
X1197339D1*
X1274430D2*
X1544123D1*
X1731702D2*
X1765888D1*
X1841185D2*
X2158819D1*
X448071Y1759836D2*
X1037223D1*
X1112520D2*
X1182375D1*
X1289429D2*
X1544123D1*
X1619420D2*
X1653821D1*
X1736439D2*
X1765888D1*
X1841185D2*
X2133952D1*
X448071Y1734967D2*
X1037223D1*
X1112520D2*
X1181693D1*
X1290111D2*
X1544123D1*
X1619420D2*
X1661106D1*
X1736439D2*
X1765888D1*
X1841185D2*
X2109084D1*
X448071Y1710098D2*
X1037223D1*
X1112520D2*
X1194611D1*
X1277193D2*
X1544123D1*
X1736439D2*
X1765888D1*
X1841185D2*
X2084216D1*
X448071Y1685230D2*
X1037223D1*
X1528382D2*
X1544123D1*
X1736439D2*
X1765888D1*
X1841185D2*
X2059348D1*
X448071Y1660361D2*
X1044221D1*
X1736439D2*
X1765888D1*
X1841185D2*
X2034481D1*
X448071Y1635492D2*
X655774D1*
X794048D2*
X1068586D1*
X1533227D2*
X1544122D1*
X1736439D2*
X1765888D1*
X1841185D2*
X2009613D1*
X448071Y1610623D2*
X655774D1*
X794048D2*
X1452009D1*
X1511876D2*
X1544123D1*
X1736439D2*
X1765888D1*
X1841185D2*
X1984745D1*
X2303696D2*
X2320801D1*
X448071Y1585755D2*
X655774D1*
X794048D2*
X1544123D1*
X1736439D2*
X1765888D1*
X1847321D2*
X1959877D1*
X2245564D2*
X2393323D1*
X448071Y1560886D2*
X655774D1*
X794048D2*
X1544123D1*
X1736439D2*
X1765888D1*
X1875921D2*
X1935010D1*
X2220696D2*
X2393323D1*
X448071Y1536017D2*
X655774D1*
X794048D2*
X1544123D1*
X1736080D2*
X1771342D1*
X1882093D2*
X1910142D1*
X2195828D2*
X2371505D1*
X448071Y1511148D2*
X655774D1*
X794048D2*
X1544123D1*
X1723736D2*
X1777586D1*
X1875849D2*
X1885243D1*
X2451036D2*
X2465306D1*
X448071Y1486280D2*
X1544123D1*
X1717887D2*
X1806473D1*
X1846962D2*
X1860407D1*
X2426169D2*
X2465306D1*
X448071Y1461411D2*
X1544123D1*
X2039947D2*
X2061681D1*
X2226976D2*
X2465306D1*
X448071Y1436542D2*
X1544123D1*
X1915070D2*
X1944950D1*
X2020283D2*
X2061681D1*
X2247501D2*
X2465306D1*
X448071Y1411673D2*
X1021937D1*
X1062893D2*
X1544123D1*
X1903408D2*
X1944950D1*
X2020283D2*
X2061681D1*
X2426133D2*
X2465306D1*
X448071Y1386804D2*
X993265D1*
X1091564D2*
X1544123D1*
X1907535D2*
X1944950D1*
X2020283D2*
X2061681D1*
X2451036D2*
X2465306D1*
X448071Y1361936D2*
X987057D1*
X1097772D2*
X1544123D1*
X2020283D2*
X2051203D1*
X448071Y1337067D2*
X993265D1*
X1091564D2*
X1452224D1*
X1485178D2*
X1549004D1*
X1667111D2*
X1815157D1*
X2015115D2*
X2043990D1*
X2251592D2*
X2272357D1*
X2327128D2*
X2387473D1*
X448071Y1312198D2*
X1004748D1*
X1080081D2*
X1420251D1*
X1699119D2*
X1782538D1*
X1991647D2*
X2024110D1*
X2223602D2*
X2249068D1*
X448071Y1287329D2*
X1004748D1*
X1080081D2*
X1328316D1*
X1706009D2*
X1771916D1*
X1907678D2*
X1999242D1*
X2223602D2*
X2244475D1*
X448071Y1262461D2*
X1004748D1*
X1080081D2*
X1314716D1*
X1700483D2*
X1757275D1*
X1907678D2*
X1974375D1*
X2078810D2*
X2096883D1*
X448071Y1237592D2*
X1004748D1*
X1080081D2*
X1314931D1*
X1907678D2*
X1949507D1*
X2053942D2*
X2087553D1*
X2304772D2*
X2361888D1*
X448071Y1212723D2*
X1004748D1*
X1080081D2*
X1236022D1*
X1905130D2*
X1924639D1*
X2029074D2*
X2090927D1*
X2306495D2*
X2361888D1*
X448071Y1187854D2*
X1004748D1*
X1080081D2*
X1215101D1*
X2004207D2*
X2111129D1*
X2331363D2*
X2361888D1*
X448071Y1162986D2*
X1004748D1*
X1080081D2*
X1212553D1*
X1290721D2*
X1383900D1*
X448071Y1138117D2*
X728978D1*
X815112D2*
X1004748D1*
X1080081D2*
X1212553D1*
X1287851D2*
X1381030D1*
X1459951D2*
X1634910D1*
X448071Y1113248D2*
X717459D1*
X826631D2*
X1004748D1*
X1080081D2*
X1212553D1*
X1362454D2*
X1381030D1*
X1456363D2*
X1492342D1*
X1532796D2*
X1631717D1*
X448071Y1088379D2*
X719110D1*
X840088D2*
X1004748D1*
X1080081D2*
X1199169D1*
X1373434D2*
X1381030D1*
X1561683D2*
X1631717D1*
X2293146D2*
X2326399D1*
X448071Y1063510D2*
X735796D1*
X860398D2*
X1004748D1*
X1080081D2*
X1194970D1*
X1371389D2*
X1381030D1*
X1588596D2*
X1632614D1*
X2110783D2*
X2336303D1*
X448071Y1038642D2*
X785388D1*
X862551D2*
X1004748D1*
X1080081D2*
X1203331D1*
X1356353D2*
X1381030D1*
X1607902D2*
X1649838D1*
X2102099D2*
X2336303D1*
X448071Y1013773D2*
X787254D1*
X862551D2*
X1004748D1*
X1080081D2*
X1281056D1*
X1356353D2*
X1381030D1*
X1456363D2*
X1474903D1*
X1614433D2*
X1677792D1*
X1848684D2*
X2336303D1*
X448071Y988904D2*
X787254D1*
X862551D2*
X1004748D1*
X1080081D2*
X1281056D1*
X1356353D2*
X1381030D1*
X1456363D2*
X1474903D1*
X1639300D2*
X1746797D1*
X448071Y964035D2*
X787254D1*
X862551D2*
X1004748D1*
X1080081D2*
X1281056D1*
X1356353D2*
X1381030D1*
X1456363D2*
X1474903D1*
X1550236D2*
X1559769D1*
X1664168D2*
X1722145D1*
X448071Y939167D2*
X787254D1*
X862551D2*
X1004748D1*
X1080081D2*
X1281056D1*
X1356353D2*
X1381030D1*
X1456363D2*
X1474903D1*
X1550236D2*
X1584637D1*
X1689036D2*
X1713963D1*
X448071Y914298D2*
X787254D1*
X862551D2*
X1004748D1*
X1080081D2*
X1143548D1*
X1193834D2*
X1281056D1*
X1356353D2*
X1372669D1*
X1464724D2*
X1474903D1*
X1550236D2*
X1609504D1*
X448071Y889429D2*
X787254D1*
X862551D2*
X1004748D1*
X1080081D2*
X1118537D1*
X1218845D2*
X1281056D1*
X1562831D2*
X1634372D1*
X1840323D2*
X1958047D1*
X2304091D2*
X2387473D1*
X448071Y864560D2*
X487478D1*
X562344D2*
X787254D1*
X862551D2*
X1004748D1*
X1080081D2*
X1113370D1*
X1224048D2*
X1281056D1*
X1356353D2*
X1367142D1*
X1567891D2*
X1649695D1*
X1789260D2*
X1949686D1*
X2293971D2*
X2387473D1*
X448071Y839692D2*
X468064D1*
X881749D2*
X995095D1*
X1080081D2*
X1120654D1*
X1258103D2*
X1281056D1*
X1573848D2*
X1649695D1*
X1789260D2*
X1949686D1*
X2025019D2*
X2182216D1*
X2304772D2*
X2387473D1*
X448071Y814823D2*
X463686D1*
X886127D2*
X970228D1*
X1073837D2*
X1131060D1*
X1272456D2*
X1281056D1*
X1605031D2*
X1649695D1*
X1789260D2*
X1949686D1*
X2025019D2*
X2182216D1*
X2304772D2*
X2387473D1*
X448071Y789954D2*
X470397D1*
X879417D2*
X945360D1*
X1049759D2*
X1131060D1*
X1272707D2*
X1281056D1*
X1623655D2*
X1649695D1*
X1801892D2*
X1949686D1*
X2025019D2*
X2182216D1*
X2304772D2*
X2387473D1*
X448071Y765085D2*
X488195D1*
X561626D2*
X788187D1*
X861618D2*
X920492D1*
X1024891D2*
X1131060D1*
X1259215D2*
X1281056D1*
X1404833D2*
X1432057D1*
X1625018D2*
X1649695D1*
X1806951D2*
X1949686D1*
X2025019D2*
X2182216D1*
X2304772D2*
X2387473D1*
X448071Y740217D2*
X468280D1*
X581542D2*
X768271D1*
X881534D2*
X895588D1*
X1000023D2*
X1131060D1*
X1358686D2*
X1436937D1*
X1537784D2*
X1549721D1*
X1625018D2*
X1649695D1*
X1799523D2*
X1949686D1*
X2025019D2*
X2182216D1*
X2304772D2*
X2387473D1*
X448071Y715348D2*
X463650D1*
X586135D2*
X763678D1*
X975156D2*
X1131060D1*
X1383554D2*
X1449712D1*
X1525009D2*
X1549721D1*
X1625018D2*
X1649695D1*
X1725028D2*
X1739262D1*
X1763998D2*
X1949686D1*
X2025019D2*
X2387473D1*
X448071Y690479D2*
X470110D1*
X579712D2*
X770101D1*
X950288D2*
X1131060D1*
X1206358D2*
X1219156D1*
X1408421D2*
X1449712D1*
X1525009D2*
X1549721D1*
X1625018D2*
X1649695D1*
X1725028D2*
X1949686D1*
X2025019D2*
X2387473D1*
X448071Y665610D2*
X488913D1*
X560873D2*
X763642D1*
X925420D2*
X1131060D1*
X1206358D2*
X1244024D1*
X1424462D2*
X1449712D1*
X1525009D2*
X1549721D1*
X1625018D2*
X1649695D1*
X1725028D2*
X1949686D1*
X2025019D2*
X2387473D1*
X448071Y640741D2*
X468495D1*
X900553D2*
X1131060D1*
X1206358D2*
X1268892D1*
X1425000D2*
X1449712D1*
X1525009D2*
X1549721D1*
X1625018D2*
X1649695D1*
X1725028D2*
X1755553D1*
X1819152D2*
X1949686D1*
X2025019D2*
X2387473D1*
X448071Y615873D2*
X463650D1*
X886199D2*
X1131060D1*
X1206358D2*
X1293759D1*
X1425000D2*
X1449712D1*
X1525009D2*
X1549721D1*
X1625018D2*
X1649695D1*
X1725028D2*
X1735591D1*
X1839139D2*
X1949686D1*
X2025019D2*
X2387473D1*
X448071Y591004D2*
X469858D1*
X886199D2*
X1131060D1*
X1206358D2*
X1298927D1*
X1425000D2*
X1449712D1*
X1525009D2*
X1549721D1*
X1625018D2*
X1649695D1*
X1842405D2*
X1949686D1*
X2025019D2*
X2387473D1*
X448071Y566135D2*
X493470D1*
X556316D2*
X763642D1*
X886199D2*
X1131060D1*
X1210197D2*
X1226082D1*
X2036072D2*
X2387473D1*
X448071Y541266D2*
X1134003D1*
X2047519D2*
X2387473D1*
X448071Y516398D2*
X1155498D1*
X2047088D2*
X2387473D1*
X448071Y491529D2*
X1226082D1*
X2034457D2*
X2387473D1*
X448071Y466660D2*
X1298998D1*
X667453Y1640101D2*
X791566D1*
Y1506802D1*
X658266D1*
Y1640101D1*
X667453D1*
X791360Y1961923D2*
X789724Y1951593D1*
X786492Y1941647D1*
X781744Y1932328D1*
X775597Y1923867D1*
X768201Y1916471D1*
X759740Y1910324D1*
X750422Y1905576D1*
X740475Y1902344D1*
X730145Y1900708D1*
X719687D1*
X709357Y1902344D1*
X699410Y1905576D1*
X690092Y1910324D1*
X681631Y1916471D1*
X674235Y1923867D1*
X668088Y1932328D1*
X663340Y1941647D1*
X660108Y1951593D1*
X658472Y1961923D1*
Y1972381D1*
X660108Y1982711D1*
X663340Y1992658D1*
X668088Y2001977D1*
X674235Y2010438D1*
X681631Y2017833D1*
X690092Y2023980D1*
X699410Y2028728D1*
X709357Y2031960D1*
X719687Y2033596D1*
X730145D1*
X740094Y2032036D1*
X814394Y2106192D1*
X818857Y2109434D1*
X823772Y2111938D1*
X829018Y2113643D1*
X834466Y2114506D1*
X892343Y2114614D1*
X1102833Y2114506D1*
X1108281Y2113643D1*
X1113528Y2111938D1*
X1118443Y2109434D1*
X1122905Y2106192D1*
X1163907Y2065344D1*
X1166419Y2062832D1*
X1174879Y2063432D1*
X1184074Y2062708D1*
X1193042Y2060555D1*
X1201563Y2057026D1*
X1209427Y2052207D1*
X1216440Y2046217D1*
X1222430Y2039204D1*
X1227249Y2031340D1*
X1230778Y2022819D1*
X1232931Y2013851D1*
X1233655Y2004656D1*
X1233022Y1996231D1*
X1262633Y1966464D1*
X1265875Y1962002D1*
X1268379Y1957087D1*
X1270084Y1951840D1*
X1270947Y1946392D1*
X1271055Y1888516D1*
Y1785492D1*
X1276104Y1780364D1*
X1280981Y1773652D1*
X1284747Y1766260D1*
X1287311Y1758370D1*
X1288609Y1750176D1*
Y1741879D1*
X1287311Y1733685D1*
X1284747Y1725795D1*
X1280981Y1718403D1*
X1276104Y1711691D1*
X1270238Y1705825D1*
X1263526Y1700948D1*
X1256134Y1697182D1*
X1248244Y1694618D1*
X1240050Y1693320D1*
X1231753D1*
X1223559Y1694618D1*
X1215669Y1697182D1*
X1208277Y1700948D1*
X1201565Y1705825D1*
X1195699Y1711691D1*
X1190822Y1718403D1*
X1187056Y1725795D1*
X1184492Y1733685D1*
X1183194Y1741879D1*
Y1750176D1*
X1184492Y1758370D1*
X1187056Y1766260D1*
X1190822Y1773652D1*
X1195699Y1780364D1*
X1200744Y1785471D1*
X1200748Y1929073D1*
X1183310Y1946510D1*
X1174879Y1945881D1*
X1165685Y1946604D1*
X1156717Y1948757D1*
X1148196Y1952287D1*
X1140332Y1957106D1*
X1133650Y1962790D1*
X1133655Y1945880D1*
X1110007D1*
X1110033Y1695945D1*
X1115037Y1690973D1*
X1442413Y1690976D1*
X1447597Y1696026D1*
X1454309Y1700902D1*
X1461701Y1704668D1*
X1469591Y1707232D1*
X1477785Y1708530D1*
X1486081D1*
X1494275Y1707232D1*
X1502166Y1704668D1*
X1509558Y1700902D1*
X1516269Y1696026D1*
X1522136Y1690159D1*
X1527012Y1683447D1*
X1530779Y1676055D1*
X1533342Y1668165D1*
X1534640Y1659971D1*
Y1651675D1*
X1533342Y1643481D1*
X1530779Y1635590D1*
X1527012Y1628198D1*
X1522136Y1621486D1*
X1516269Y1615620D1*
X1509558Y1610744D1*
X1502166Y1606977D1*
X1494275Y1604414D1*
X1486081Y1603116D1*
X1477785D1*
X1469591Y1604414D1*
X1461701Y1606977D1*
X1454309Y1610744D1*
X1447597Y1615620D1*
X1442490Y1620665D1*
X1097714Y1620778D1*
X1092266Y1621640D1*
X1087020Y1623345D1*
X1082105Y1625849D1*
X1077642Y1629092D1*
X1050022Y1656559D1*
X1046439Y1660753D1*
X1043557Y1665457D1*
X1041446Y1670553D1*
X1040158Y1675917D1*
X1039726Y1681416D1*
Y1945847D1*
X1016104Y1945880D1*
Y2044311D1*
X851792Y2044307D1*
X789791Y1982313D1*
X791360Y1972381D1*
Y1961923D1*
X1237768Y588587D2*
X1301390D1*
X1301417Y610755D1*
X1203849Y708291D1*
X1203854Y569941D1*
X1208859Y564958D1*
X1228561Y564965D1*
X1228581Y588587D1*
X1237768D1*
X1301385Y471035D2*
X1228581D1*
Y494683D1*
X1191533Y494766D1*
X1186085Y495629D1*
X1180839Y497333D1*
X1175924Y499838D1*
X1171461Y503080D1*
X1143843Y530544D1*
X1140261Y534739D1*
X1137379Y539442D1*
X1135268Y544539D1*
X1133980Y549902D1*
X1133548Y555412D1*
X1133547Y827009D1*
X1128498Y832187D1*
X1123622Y838899D1*
X1119855Y846291D1*
X1117292Y854181D1*
X1115994Y862375D1*
Y870672D1*
X1117292Y878866D1*
X1119855Y886756D1*
X1123622Y894148D1*
X1128498Y900860D1*
X1134364Y906726D1*
X1141076Y911603D1*
X1148468Y915369D1*
X1156359Y917933D1*
X1164553Y919231D1*
X1172849D1*
X1181043Y917933D1*
X1188933Y915369D1*
X1196325Y911603D1*
X1203037Y906726D1*
X1208904Y900860D1*
X1213780Y894148D1*
X1217546Y886756D1*
X1220110Y878866D1*
X1221408Y870672D1*
Y862375D1*
X1220208Y854674D1*
X1226971Y854046D1*
X1235039Y852109D1*
X1242703Y848934D1*
X1249777Y844600D1*
X1256086Y839212D1*
X1261474Y832903D1*
X1265808Y825829D1*
X1268983Y818165D1*
X1270920Y810097D1*
X1271571Y801827D1*
X1270920Y793556D1*
X1268983Y785489D1*
X1265808Y777824D1*
X1261474Y770751D1*
X1256086Y764442D1*
X1253859Y762384D1*
X1256550Y755019D1*
X1283522Y728047D1*
X1283547Y1026377D1*
X1277821Y1022295D1*
X1270429Y1018528D1*
X1262539Y1015965D1*
X1254345Y1014667D1*
X1246049D1*
X1237855Y1015965D1*
X1229964Y1018528D1*
X1222572Y1022295D1*
X1215860Y1027171D1*
X1209994Y1033038D1*
X1205118Y1039749D1*
X1201351Y1047142D1*
X1198788Y1055032D1*
X1197490Y1063226D1*
Y1071522D1*
X1198788Y1079716D1*
X1201351Y1087607D1*
X1205118Y1094999D1*
X1209994Y1101710D1*
X1215039Y1106817D1*
X1215152Y1177427D1*
X1216014Y1182876D1*
X1217719Y1188122D1*
X1220223Y1193037D1*
X1223466Y1197500D1*
X1250930Y1225117D1*
X1255125Y1228700D1*
X1259828Y1231582D1*
X1264924Y1233693D1*
X1270288Y1234981D1*
X1275787Y1235414D1*
X1318023D1*
X1316482Y1242174D1*
X1315831Y1250445D1*
X1316482Y1258716D1*
X1318418Y1266783D1*
X1321593Y1274447D1*
X1325928Y1281521D1*
X1331316Y1287830D1*
X1337625Y1293218D1*
X1344698Y1297552D1*
X1352363Y1300727D1*
X1360430Y1302664D1*
X1368701Y1303315D1*
X1376971Y1302664D1*
X1385039Y1300727D1*
X1392703Y1297552D1*
X1399777Y1293218D1*
X1406086Y1287830D1*
X1411474Y1281521D1*
X1415808Y1274447D1*
X1418983Y1266783D1*
X1420468Y1260990D1*
X1422182Y1261004D1*
X1419855Y1265842D1*
X1417292Y1273733D1*
X1415994Y1281927D1*
Y1290223D1*
X1417292Y1298417D1*
X1419855Y1306307D1*
X1423622Y1313699D1*
X1428498Y1320411D1*
X1434364Y1326278D1*
X1441076Y1331154D1*
X1448468Y1334920D1*
X1456359Y1337484D1*
X1464553Y1338782D1*
X1472849D1*
X1481043Y1337484D1*
X1488933Y1334920D1*
X1496325Y1331154D1*
X1503037Y1326278D1*
X1508144Y1321233D1*
X1565768Y1321228D1*
X1555033Y1332142D1*
X1551790Y1336605D1*
X1549286Y1341520D1*
X1547581Y1346766D1*
X1546719Y1352214D1*
X1546610Y1410091D1*
X1546719Y2063658D1*
X1547581Y2069107D1*
X1549286Y2074353D1*
X1551790Y2079268D1*
X1553331Y2081572D1*
X1545796Y2088082D1*
X1539807Y2095096D1*
X1537353Y2098768D1*
X1532050Y2091471D1*
X1525529Y2084950D1*
X1518067Y2079529D1*
X1509849Y2075341D1*
X1501078Y2072491D1*
X1491968Y2071049D1*
X1482745D1*
X1473636Y2072491D1*
X1464865Y2075341D1*
X1456647Y2079529D1*
X1449185Y2084950D1*
X1442664Y2091471D1*
X1437353Y2098768D1*
X1432050Y2091471D1*
X1425529Y2084950D1*
X1418067Y2079529D1*
X1409849Y2075341D1*
X1401078Y2072491D1*
X1391968Y2071049D1*
X1382745D1*
X1373636Y2072491D1*
X1364865Y2075341D1*
X1356647Y2079529D1*
X1349185Y2084950D1*
X1346127Y2087776D1*
X1346133Y2070867D1*
X1228581D1*
Y2157743D1*
X445574Y2157736D1*
X445571Y444171D1*
X1311623Y444193D1*
X1308131Y448314D1*
X1305249Y453017D1*
X1303138Y458113D1*
X1301850Y463477D1*
X1301417Y471022D1*
X1422513Y576882D2*
X1428918Y571372D1*
X1434907Y564358D1*
X1437361Y560686D1*
X1442664Y567983D1*
X1449185Y574504D1*
X1452201Y576882D1*
X1452203Y723047D1*
X1447156Y728231D1*
X1442279Y734942D1*
X1438513Y742334D1*
X1435949Y750225D1*
X1434651Y758419D1*
Y766715D1*
X1435126Y770725D1*
X1408215Y770720D1*
X1403037Y765671D1*
X1396325Y760795D1*
X1388933Y757028D1*
X1381043Y754465D1*
X1372849Y753167D1*
X1364553D1*
X1356359Y754465D1*
X1353846Y755173D1*
X1353854Y742535D1*
X1414088Y682174D1*
X1417330Y677712D1*
X1419835Y672797D1*
X1421539Y667550D1*
X1422402Y662102D1*
X1422511Y604226D1*
Y576918D1*
X1522513Y576882D2*
X1528918Y571372D1*
X1534907Y564358D1*
X1537361Y560686D1*
X1542664Y567983D1*
X1549185Y574504D1*
X1552201Y576882D1*
X1552203Y765750D1*
X1547199Y770724D1*
X1539623Y770720D1*
X1540228Y762567D1*
X1539577Y754296D1*
X1537641Y746229D1*
X1534466Y738564D1*
X1530131Y731491D1*
X1524743Y725182D1*
X1522516Y723124D1*
X1522511Y576938D1*
X1622513Y576882D2*
X1628918Y571372D1*
X1634907Y564358D1*
X1637361Y560686D1*
X1642664Y567983D1*
X1649185Y574504D1*
X1652201Y576882D1*
X1652203Y874120D1*
X1558948Y967341D1*
X1551726Y967423D1*
X1547716Y967897D1*
X1547721Y906228D1*
X1552770Y901077D1*
X1557646Y894365D1*
X1561413Y886973D1*
X1563976Y879082D1*
X1565274Y870888D1*
Y862592D1*
X1563976Y854398D1*
X1561413Y846508D1*
X1558716Y841026D1*
X1564522Y840919D1*
X1569970Y840056D1*
X1575217Y838352D1*
X1580132Y835847D1*
X1584594Y832605D1*
X1612214Y805138D1*
X1615797Y800944D1*
X1618679Y796240D1*
X1620790Y791144D1*
X1622078Y785780D1*
X1622511Y780281D1*
Y576925D1*
X1722513Y576882D2*
X1728918Y571372D1*
X1734907Y564358D1*
X1737361Y560686D1*
X1742847Y568181D1*
X1740251Y572738D1*
X1737076Y580402D1*
X1735139Y588469D1*
X1734488Y596740D1*
X1735139Y605011D1*
X1737076Y613078D1*
X1740251Y620743D1*
X1744585Y627816D1*
X1749973Y634125D1*
X1756282Y639513D1*
X1763356Y643848D1*
X1771021Y647023D1*
X1779088Y648959D1*
X1787358Y649610D1*
X1795629Y648959D1*
X1803696Y647023D1*
X1811361Y643848D1*
X1818435Y639513D1*
X1824743Y634125D1*
X1830131Y627816D1*
X1834466Y620743D1*
X1837641Y613078D1*
X1839577Y605011D1*
X1840228Y596740D1*
X1839577Y588469D1*
X1837641Y580402D1*
X1834466Y572738D1*
X1831834Y568212D1*
X1837361Y560686D1*
X1842664Y567983D1*
X1849185Y574504D1*
X1856647Y579925D1*
X1864865Y584113D1*
X1873636Y586963D1*
X1882745Y588405D1*
X1891968D1*
X1901078Y586963D1*
X1909849Y584113D1*
X1918067Y579925D1*
X1925529Y574504D1*
X1932050Y567983D1*
X1937361Y560686D1*
X1942664Y567983D1*
X1949185Y574504D1*
X1952201Y576882D1*
X1952312Y869451D1*
X1953175Y874899D1*
X1954879Y880146D1*
X1957384Y885061D1*
X1960626Y889523D1*
X1977293Y906343D1*
X1845924Y906346D1*
X1843775Y900102D1*
X1840008Y892710D1*
X1835132Y885998D1*
X1829266Y880132D1*
X1822554Y875255D1*
X1815162Y871489D1*
X1807271Y868925D1*
X1799077Y867628D1*
X1790781D1*
X1786776Y868009D1*
Y806755D1*
X1791825Y801624D1*
X1796701Y794912D1*
X1800468Y787520D1*
X1803031Y779630D1*
X1804329Y771436D1*
Y763139D1*
X1803031Y754945D1*
X1800468Y747055D1*
X1796701Y739663D1*
X1791825Y732951D1*
X1785958Y727085D1*
X1779247Y722208D1*
X1771855Y718442D1*
X1763964Y715878D1*
X1755770Y714580D1*
X1747474D1*
X1739280Y715878D1*
X1731390Y718442D1*
X1723998Y722208D1*
X1722501Y723208D1*
X1722511Y576921D1*
X2045951Y525200D2*
X2044509Y516090D1*
X2041659Y507319D1*
X2037471Y499101D1*
X2032050Y491639D1*
X2025529Y485118D1*
X2018067Y479697D1*
X2016007Y478543D1*
X2384968Y478539D1*
X2389994Y483544D1*
X2389918Y910177D1*
X2384822Y908067D1*
X2379458Y906779D1*
X2373948Y906347D1*
X2301796Y906346D1*
X2302282Y898533D1*
X2301559Y889338D1*
X2299405Y880370D1*
X2295876Y871849D1*
X2291057Y863985D1*
X2285373Y857303D1*
X2302282Y857308D1*
Y739757D1*
X2184731D1*
Y857308D1*
X2201632D1*
X2196436Y863377D1*
X2033763Y863379D1*
X2022512Y852133D1*
X2022511Y576928D1*
X2028918Y571372D1*
X2034907Y564358D1*
X2039726Y556495D1*
X2043256Y547974D1*
X2045409Y539006D1*
X2046133Y529811D1*
X2045951Y525200D1*
X2312655Y2113426D2*
X2421020D1*
Y2045569D1*
X2457718Y2008739D1*
X2460960Y2004276D1*
X2463465Y1999361D1*
X2465169Y1994115D1*
X2466032Y1988666D1*
X2466140Y1930790D1*
X2466032Y1540540D1*
X2465169Y1535091D1*
X2463465Y1529845D1*
X2460960Y1524930D1*
X2457718Y1520467D1*
X2416870Y1479466D1*
X2408697Y1471446D1*
X2404234Y1468204D1*
X2399319Y1465699D1*
X2394073Y1463995D1*
X2388624Y1463132D1*
X2330748Y1463024D1*
X2226074D1*
X2221098Y1458019D1*
X2221102Y1438316D1*
X2229256Y1438945D1*
X2237527Y1438294D1*
X2245594Y1436357D1*
X2253258Y1433182D1*
X2260332Y1428848D1*
X2266641Y1423460D1*
X2268699Y1421233D1*
X2402309Y1421120D1*
X2407758Y1420257D1*
X2413004Y1418552D1*
X2417919Y1416048D1*
X2422382Y1412806D1*
X2449999Y1385342D1*
X2453582Y1381147D1*
X2456464Y1376444D1*
X2458575Y1371347D1*
X2459862Y1365983D1*
X2460295Y1360484D1*
X2460187Y466218D1*
X2459324Y460770D1*
X2457619Y455524D1*
X2455115Y450609D1*
X2451865Y446138D1*
X2454068Y444193D1*
X2467812D1*
X2467815Y2157758D1*
X2038975Y2157736D1*
X2041659Y2152135D1*
X2044509Y2143364D1*
X2045951Y2134255D1*
Y2125032D1*
X2044509Y2115922D1*
X2041659Y2107151D1*
X2037471Y2098933D1*
X2035538Y2096040D1*
X2220683Y2096212D1*
X2227697Y2102201D1*
X2235561Y2107020D1*
X2244081Y2110550D1*
X2253050Y2112703D1*
X2262244Y2113427D1*
X2271439Y2112703D1*
X2280407Y2110550D1*
X2288928Y2107020D1*
X2296792Y2102201D1*
X2303474Y2096517D1*
X2303469Y2113426D1*
X2312655D1*
X2231369Y1904647D2*
X2224072Y1909958D1*
X2217551Y1916479D1*
X2212130Y1923941D1*
X2207943Y1932158D1*
X2205092Y1940930D1*
X2203650Y1950039D1*
Y1959262D1*
X2205092Y1968372D1*
X2207425Y1975740D1*
X1971872Y1975752D1*
X1981198Y1966716D1*
X1990104Y1957810D1*
X1997711Y1957751D1*
X2005963Y1956443D1*
X2013910Y1953861D1*
X2021355Y1950068D1*
X2028115Y1945157D1*
X2034023Y1939248D1*
X2038934Y1932489D1*
X2042728Y1925044D1*
X2045310Y1917097D1*
X2046617Y1908844D1*
Y1900489D1*
X2045310Y1892236D1*
X2042728Y1884290D1*
X2038934Y1876845D1*
X2034023Y1870085D1*
X2028115Y1864177D1*
X2021355Y1859265D1*
X2013910Y1855472D1*
X2005963Y1852890D1*
X1997711Y1851583D1*
X1989355D1*
X1981102Y1852890D1*
X1973156Y1855472D1*
X1965711Y1859265D1*
X1958951Y1864177D1*
X1953043Y1870085D1*
X1948131Y1876845D1*
X1944338Y1884290D1*
X1941756Y1892236D1*
X1940449Y1900489D1*
X1940419Y1908077D1*
X1935309Y1913176D1*
X1856080Y1913201D1*
X1856781Y1904667D1*
X1856125Y1896337D1*
X1854175Y1888212D1*
X1850977Y1880493D1*
X1846611Y1873368D1*
X1841185Y1867015D1*
X1838678Y1864698D1*
X1838686Y1587558D1*
X1846957Y1584928D1*
X1854349Y1581162D1*
X1861061Y1576285D1*
X1866927Y1570419D1*
X1871804Y1563707D1*
X1875570Y1556315D1*
X1878134Y1548425D1*
X1879432Y1540231D1*
Y1531935D1*
X1878134Y1523740D1*
X1875570Y1515850D1*
X1871804Y1508458D1*
X1866927Y1501746D1*
X1861061Y1495880D1*
X1854349Y1491004D1*
X1846957Y1487237D1*
X1839067Y1484673D1*
X1830873Y1483376D1*
X1822576D1*
X1814382Y1484673D1*
X1806492Y1487237D1*
X1799100Y1491004D1*
X1792388Y1495880D1*
X1786522Y1501746D1*
X1781645Y1508458D1*
X1777879Y1515850D1*
X1775315Y1523740D1*
X1774017Y1531935D1*
X1774015Y1540182D1*
X1771055Y1545822D1*
X1769350Y1551068D1*
X1768488Y1556516D1*
X1768379Y1614392D1*
Y1864685D1*
X1763043Y1870085D1*
X1758131Y1876845D1*
X1754338Y1884290D1*
X1751727Y1892380D1*
X1690510Y1831161D1*
X1690495Y1825080D1*
X1725499Y1789917D1*
X1728741Y1785454D1*
X1731245Y1780539D1*
X1732950Y1775293D1*
X1733813Y1769845D1*
X1733921Y1711969D1*
X1733813Y1538124D1*
X1732950Y1532675D1*
X1731245Y1527429D1*
X1728741Y1522514D1*
X1725499Y1518051D1*
X1723617Y1516017D1*
X1721248Y1510492D1*
X1720597Y1502221D1*
X1718660Y1494154D1*
X1715486Y1486490D1*
X1710860Y1479047D1*
X1719109Y1477134D1*
X1853782D1*
X2208204Y1831588D1*
X2206345Y1836488D1*
X2204192Y1845456D1*
X2203469Y1854651D1*
X2204192Y1863845D1*
X2206345Y1872814D1*
X2209875Y1881334D1*
X2214694Y1889198D1*
X2220683Y1896212D1*
X2227697Y1902201D1*
X2231369Y1904655D1*
X2395847Y1606469D2*
X2388928Y1602281D1*
X2380407Y1598752D1*
X2371439Y1596599D1*
X2362244Y1595875D1*
X2353050Y1596599D1*
X2344081Y1598752D1*
X2335561Y1602281D1*
X2327697Y1607100D1*
X2320683Y1613090D1*
X2314694Y1620103D1*
X2312240Y1623776D1*
X2306937Y1616479D1*
X2300416Y1609958D1*
X2292954Y1604536D1*
X2284737Y1600349D1*
X2275965Y1597499D1*
X2266856Y1596057D1*
X2257633D1*
X2253819Y1596508D1*
X2173718Y1516237D1*
X2177157Y1513502D1*
X2188710Y1524908D1*
X2193173Y1528151D1*
X2198088Y1530655D1*
X2203334Y1532360D1*
X2208783Y1533222D1*
X2266659Y1533331D1*
X2371333D1*
X2395847Y1557873D1*
X2395833Y1606418D1*
X2221082Y1282264D2*
X2247492D1*
X2246878Y1290417D1*
X2247529Y1298688D1*
X2249466Y1306755D1*
X2252640Y1314420D1*
X2256975Y1321494D1*
X2262363Y1327802D1*
X2268672Y1333190D1*
X2275746Y1337525D1*
X2283410Y1340700D1*
X2291477Y1342636D1*
X2299748Y1343287D1*
X2308019Y1342636D1*
X2316086Y1340700D1*
X2323751Y1337525D1*
X2330824Y1333190D1*
X2337133Y1327802D1*
X2339191Y1325575D1*
X2376719Y1325463D1*
X2382167Y1324600D1*
X2387413Y1322895D1*
X2389929Y1321734D1*
X2389988Y1345950D1*
X2384984Y1350927D1*
X2268753Y1350921D1*
X2263592Y1345872D1*
X2256880Y1340996D1*
X2249488Y1337229D1*
X2241598Y1334666D1*
X2233404Y1333368D1*
X2225108D1*
X2221098Y1333842D1*
X2221102Y1282291D1*
X2302282Y1237588D2*
Y1214407D1*
X2364404Y1152305D1*
X2364397Y1250253D1*
X2359393Y1255270D1*
X2339261Y1255264D1*
X2334084Y1250215D1*
X2327373Y1245338D1*
X2319981Y1241572D1*
X2312090Y1239008D1*
X2303896Y1237710D1*
X2302292Y1237647D1*
X2301709Y1115565D2*
X2300658Y1109767D1*
X2297808Y1100996D1*
X2293621Y1092778D1*
X2288200Y1085316D1*
X2281678Y1078795D1*
X2274217Y1073374D1*
X2265999Y1069187D1*
X2257227Y1066337D1*
X2248118Y1064894D1*
X2238895D1*
X2229786Y1066337D1*
X2221014Y1069187D1*
X2212796Y1073374D1*
X2205335Y1078795D1*
X2198813Y1085316D1*
X2196436Y1088332D1*
X2104432Y1088162D1*
X2106996Y1080271D1*
X2108294Y1072077D1*
Y1063781D1*
X2106996Y1055587D1*
X2104432Y1047697D1*
X2100666Y1040305D1*
X2095789Y1033593D1*
X2089923Y1027726D1*
X2083211Y1022850D1*
X2075819Y1019084D1*
X2067929Y1016520D1*
X2059735Y1015222D1*
X2051438D1*
X2043244Y1016520D1*
X2035354Y1019084D1*
X2027962Y1022850D1*
X2021250Y1027726D1*
X2016143Y1032771D1*
X1950984Y1032776D1*
X1945848Y1027726D1*
X1939136Y1022850D1*
X1931744Y1019084D1*
X1923854Y1016520D1*
X1915660Y1015222D1*
X1907364D1*
X1899170Y1016520D1*
X1891279Y1019084D1*
X1883887Y1022850D1*
X1877175Y1027726D1*
X1872069Y1032771D1*
X1865582Y1030080D1*
X1854338Y1018989D1*
X1849876Y1015747D1*
X1844961Y1013243D1*
X1839714Y1011538D1*
X1834266Y1010675D1*
X1776390Y1010567D1*
X1692214Y1010675D1*
X1686766Y1011538D1*
X1681520Y1013243D1*
X1676605Y1015747D1*
X1672142Y1018989D1*
X1644524Y1046454D1*
X1640942Y1050648D1*
X1638060Y1055352D1*
X1635949Y1060448D1*
X1634661Y1065812D1*
X1634229Y1071322D1*
X1634337Y1126246D1*
X1635200Y1131695D1*
X1636904Y1136941D1*
X1638065Y1139457D1*
X1458840Y1139516D1*
X1453848Y1134511D1*
X1453854Y923762D1*
X1458904Y918636D1*
X1463780Y911924D1*
X1467546Y904532D1*
X1469780Y897812D1*
X1475182Y904125D1*
X1477409Y906183D1*
X1477413Y1023949D1*
X1472364Y1029101D1*
X1467488Y1035812D1*
X1463721Y1043205D1*
X1461158Y1051095D1*
X1459860Y1059289D1*
Y1067585D1*
X1461158Y1075779D1*
X1463721Y1083670D1*
X1467488Y1091062D1*
X1472364Y1097773D1*
X1478231Y1103640D1*
X1484942Y1108516D1*
X1492334Y1112283D1*
X1500225Y1114846D1*
X1508419Y1116144D1*
X1516715D1*
X1524909Y1114846D1*
X1532799Y1112283D1*
X1540191Y1108516D1*
X1546903Y1103640D1*
X1552770Y1097773D1*
X1557646Y1091062D1*
X1561413Y1083670D1*
X1563976Y1075779D1*
X1564675Y1072264D1*
X1572212Y1070412D1*
X1579877Y1067238D1*
X1586950Y1062903D1*
X1593259Y1057515D1*
X1598647Y1051206D1*
X1602982Y1044132D1*
X1606156Y1036468D1*
X1608093Y1028401D1*
X1608744Y1020130D1*
X1608625Y1017100D1*
X1714088Y911477D1*
X1715803Y909301D1*
X1716469Y914269D1*
X1716577Y944258D1*
X1717440Y949706D1*
X1719144Y954953D1*
X1721649Y959868D1*
X1724891Y964330D1*
X1752355Y991948D1*
X1756550Y995530D1*
X1761253Y998413D1*
X1766350Y1000524D1*
X1771713Y1001811D1*
X1777213Y1002244D1*
X2333812D1*
X2338813Y1007248D1*
X2338807Y1078480D1*
X2301730Y1115550D1*
X775316Y676077D2*
X783031D1*
X777355Y682754D1*
X772536Y690618D1*
X769007Y699139D1*
X766854Y708107D1*
X766130Y717302D1*
X766854Y726496D1*
X769007Y735464D1*
X772536Y743985D1*
X777355Y751849D1*
X783345Y758862D1*
X790358Y764852D1*
X794030Y767306D1*
X786734Y772609D1*
X780212Y779130D1*
X777835Y782146D1*
X572030Y782148D1*
X566466Y775741D1*
X559453Y769751D1*
X555781Y767298D1*
X563077Y761995D1*
X569599Y755474D1*
X575020Y748012D1*
X579207Y739794D1*
X582057Y731023D1*
X583500Y721913D1*
Y712690D1*
X582057Y703581D1*
X579207Y694809D1*
X575020Y686592D1*
X569599Y679130D1*
X563077Y672609D1*
X555781Y667298D1*
X563077Y661995D1*
X569599Y655474D1*
X571976Y652458D1*
X766155Y652455D1*
X766130Y676077D1*
X775316D1*
X883681Y626378D2*
Y558526D1*
X766130D1*
Y582174D1*
X572030Y582148D1*
X566466Y575741D1*
X559453Y569751D1*
X551589Y564932D1*
X543068Y561403D1*
X534100Y559250D1*
X524906Y558526D1*
X515711Y559250D1*
X506743Y561403D1*
X498222Y564932D1*
X490358Y569751D1*
X483345Y575741D1*
X477355Y582754D1*
X472536Y590618D1*
X469007Y599139D1*
X466854Y608107D1*
X466130Y617302D1*
X466854Y626496D1*
X469007Y635464D1*
X472536Y643985D1*
X477355Y651849D1*
X483345Y658862D1*
X490358Y664852D1*
X494030Y667306D1*
X486734Y672609D1*
X480212Y679130D1*
X474791Y686592D1*
X470604Y694809D1*
X467754Y703581D1*
X466311Y712690D1*
Y721913D1*
X467754Y731023D1*
X470604Y739794D1*
X474791Y748012D1*
X480212Y755474D1*
X486734Y761995D1*
X494030Y767306D1*
X486734Y772609D1*
X480212Y779130D1*
X474791Y786592D1*
X470604Y794809D1*
X467754Y803581D1*
X466311Y812690D1*
Y821913D1*
X467754Y831023D1*
X470604Y839794D1*
X474791Y848012D1*
X480212Y855474D1*
X486734Y861995D1*
X494195Y867416D1*
X502413Y871603D1*
X511185Y874453D1*
X520294Y875896D1*
X529517D1*
X538626Y874453D1*
X547398Y871603D1*
X555616Y867416D1*
X563077Y861995D1*
X569599Y855474D1*
X571976Y852458D1*
X777781Y852456D1*
X783345Y858862D1*
X789749Y864372D1*
X789752Y1036805D1*
X775106Y1051440D1*
X767891Y1051513D1*
X759697Y1052811D1*
X751807Y1055375D1*
X744415Y1059141D1*
X737703Y1064018D1*
X731837Y1069884D1*
X726960Y1076596D1*
X723194Y1083988D1*
X720630Y1091878D1*
X719332Y1100072D1*
Y1108369D1*
X720630Y1116563D1*
X723194Y1124453D1*
X726960Y1131845D1*
X731837Y1138557D1*
X737703Y1144423D1*
X744415Y1149300D1*
X751807Y1153066D1*
X759697Y1155630D1*
X767891Y1156928D1*
X776188D1*
X784382Y1155630D1*
X792272Y1153066D1*
X799664Y1149300D1*
X806376Y1144423D1*
X812242Y1138557D1*
X817119Y1131845D1*
X820885Y1124453D1*
X823449Y1116563D1*
X824746Y1108369D1*
X824790Y1101190D1*
X851637Y1074185D1*
X854879Y1069722D1*
X857383Y1064807D1*
X859088Y1059561D1*
X859951Y1054112D1*
X860059Y996236D1*
Y864434D1*
X866466Y858862D1*
X872456Y851849D1*
X877275Y843985D1*
X880804Y835464D1*
X882957Y826496D1*
X883681Y817302D1*
X882957Y808107D1*
X880804Y799139D1*
X877275Y790618D1*
X872456Y782754D1*
X866466Y775741D1*
X859453Y769751D1*
X855781Y767298D1*
X863077Y761995D1*
X869599Y755474D1*
X875020Y748012D1*
X879207Y739794D1*
X882057Y731023D1*
X883108Y725225D1*
X1007277Y849388D1*
X1007260Y1322440D1*
X1002211Y1327616D1*
X997334Y1334328D1*
X993568Y1341720D1*
X991004Y1349610D1*
X989706Y1357805D1*
Y1366101D1*
X991004Y1374295D1*
X993568Y1382185D1*
X997334Y1389577D1*
X1002211Y1396289D1*
X1008077Y1402155D1*
X1014789Y1407032D1*
X1022181Y1410798D1*
X1030071Y1413362D1*
X1038265Y1414660D1*
X1046562D1*
X1054756Y1413362D1*
X1062646Y1410798D1*
X1070038Y1407032D1*
X1076750Y1402155D1*
X1082616Y1396289D1*
X1087493Y1389577D1*
X1091259Y1382185D1*
X1093823Y1374295D1*
X1095120Y1366101D1*
Y1357805D1*
X1093823Y1349610D1*
X1091259Y1341720D1*
X1087493Y1334328D1*
X1082616Y1327616D1*
X1077571Y1322510D1*
X1077459Y832052D1*
X1076596Y826603D1*
X1074891Y821357D1*
X1072387Y816442D1*
X1069144Y811979D1*
X1028296Y770978D1*
X883690Y626372D1*
X1703369Y1281927D2*
X1702071Y1273733D1*
X1699507Y1265842D1*
X1697175Y1261011D1*
X1758345Y1261004D1*
X1773924Y1276615D1*
X1774017Y1283849D1*
X1775315Y1292043D1*
X1777879Y1299933D1*
X1781645Y1307325D1*
X1786522Y1314037D1*
X1792388Y1319904D1*
X1799100Y1324780D1*
X1806492Y1328546D1*
X1814382Y1331110D1*
X1817197Y1331670D1*
X1817812Y1338054D1*
X1819749Y1346121D1*
X1820619Y1348479D1*
X1814930Y1353422D1*
X1812872Y1355649D1*
X1647903Y1355762D1*
X1642455Y1356625D1*
X1637209Y1358329D1*
X1632294Y1360834D1*
X1627831Y1364076D1*
X1616898Y1374856D1*
X1616917Y1369520D1*
X1647600Y1338851D1*
X1654810Y1338782D1*
X1663004Y1337484D1*
X1670894Y1334920D1*
X1678286Y1331154D1*
X1684998Y1326278D1*
X1690864Y1320411D1*
X1695741Y1313699D1*
X1699507Y1306307D1*
X1702071Y1298417D1*
X1703369Y1290223D1*
Y1281927D1*
X1909475Y1294625D2*
X1905190Y1290340D1*
X1905077Y1223092D1*
X1904214Y1217644D1*
X1902509Y1212398D1*
X1901348Y1209882D1*
X1924242Y1209823D1*
X2046564Y1332156D1*
X2046628Y1339361D1*
X2047925Y1347555D1*
X2050489Y1355445D1*
X2054255Y1362837D1*
X2059132Y1369549D1*
X2064177Y1374656D1*
X2064181Y1488115D1*
X2017789Y1441754D1*
X2017665Y1352617D1*
X2016802Y1347169D1*
X2015097Y1341923D1*
X2012593Y1337008D1*
X2009350Y1332545D1*
X1981885Y1304926D1*
X1977690Y1301344D1*
X1972987Y1298461D1*
X1967891Y1296350D1*
X1962527Y1295063D1*
X1957017Y1294630D1*
X1909553D1*
X1901757Y1372044D2*
X1907416Y1367168D1*
X1909475Y1364941D1*
X1942482Y1364937D1*
X1947471Y1369941D1*
X1947574Y1459057D1*
X1948437Y1464506D1*
X1950142Y1469752D1*
X1952646Y1474667D1*
X1955888Y1479130D1*
X1996736Y1520131D1*
X2202088Y1725482D1*
X2189666Y1713620D1*
X1896261Y1420216D1*
X1899423Y1414810D1*
X1902597Y1407145D1*
X1904534Y1399078D1*
X1905185Y1390807D1*
X1904534Y1382536D1*
X1902597Y1374469D1*
X1901727Y1372111D1*
X1372536Y858613D2*
X1369855Y864067D1*
X1367292Y871957D1*
X1365994Y880151D1*
Y888447D1*
X1367292Y896641D1*
X1369855Y904532D1*
X1373622Y911924D1*
X1378498Y918636D1*
X1383543Y923742D1*
X1383656Y1151837D1*
X1384518Y1157285D1*
X1386223Y1162531D1*
X1387384Y1165048D1*
X1290353Y1165106D1*
X1285344Y1160102D1*
X1285351Y1121166D1*
X1291076Y1125248D1*
X1298468Y1129015D1*
X1306359Y1131579D1*
X1314553Y1132876D1*
X1322849D1*
X1331043Y1131579D1*
X1338933Y1129015D1*
X1346325Y1125248D1*
X1353037Y1120372D1*
X1358904Y1114506D1*
X1363780Y1107794D1*
X1367546Y1100402D1*
X1370110Y1092512D1*
X1371408Y1084317D1*
Y1076021D1*
X1370110Y1067827D1*
X1367546Y1059937D1*
X1363780Y1052545D1*
X1358904Y1045833D1*
X1353859Y1040726D1*
X1353854Y856647D1*
X1360430Y858093D1*
X1368701Y858744D1*
X1372509Y858594D1*
X2107493Y1282980D2*
X2099335Y1282343D1*
X2096305Y1282462D1*
X1998122Y1184232D1*
X2120092D1*
X2115017Y1186984D1*
X2108305Y1191860D1*
X2102439Y1197727D1*
X2097563Y1204438D1*
X2093796Y1211830D1*
X2091232Y1219721D1*
X2089935Y1227915D1*
Y1236211D1*
X2091232Y1244405D1*
X2093796Y1252295D1*
X2097563Y1259688D1*
X2102439Y1266399D1*
X2107484Y1271506D1*
X2107488Y1282983D1*
X1720509Y1975747D2*
X1715402Y1970703D1*
X1708690Y1965826D1*
X1701298Y1962060D1*
X1693408Y1959496D1*
X1685214Y1958198D1*
X1676917D1*
X1668723Y1959496D1*
X1660833Y1962060D1*
X1653441Y1965826D1*
X1646729Y1970703D1*
X1640863Y1976569D1*
X1635986Y1983281D1*
X1632220Y1990673D1*
X1629656Y1998563D1*
X1628359Y2006757D1*
Y2015054D1*
X1629656Y2023248D1*
X1630365Y2025761D1*
X1616939Y2025747D1*
X1616917Y1876707D1*
X1625402Y1879520D1*
X1633596Y1880817D1*
X1640774Y1880861D1*
X1735166Y1975092D1*
X1727249Y1975752D1*
X1720539D1*
X1640774Y1775359D2*
X1633596Y1775403D1*
X1625402Y1776701D1*
X1617512Y1779265D1*
X1616908Y1779543D1*
X1616917Y1722405D1*
X1625071Y1723031D1*
X1633342Y1722381D1*
X1641409Y1720444D1*
X1649073Y1717269D1*
X1656147Y1712934D1*
X1662456Y1707546D1*
X1663611Y1706296D1*
X1663614Y1752491D1*
X1640797Y1775342D1*
D25*
X724916Y1573451D3*
D26*
Y1967152D3*
D27*
X1287357Y529811D3*
D28*
X1387357D3*
X1487357D3*
X1587357D3*
X1687357D3*
X1787357D3*
X1887357D3*
X1987357D3*
D27*
X2362244Y2054651D3*
D28*
X2262244D3*
X2362244Y1954651D3*
X2262244D3*
X2362244Y1854651D3*
X2262244D3*
X2362244Y1754651D3*
X2262244D3*
X2362244Y1654651D3*
X2262244D3*
D27*
X2243507Y798533D3*
D28*
Y898533D3*
D27*
Y1223488D3*
D28*
Y1123488D3*
D27*
X1074879Y2004656D3*
D28*
X1174879D3*
D27*
X824906Y617302D3*
D28*
Y717302D3*
Y817302D3*
X524906D3*
Y717302D3*
Y617302D3*
D41*
X1993533Y1904667D3*
X1803533D3*
D27*
X1287357Y2129643D3*
D28*
X1387357D3*
X1487357D3*
X1587357D3*
X1687357D3*
X1787357D3*
X1887357D3*
X1987357D3*
M02*
