M48
INCH
T01C0.0276
T02C0.032
T03C0.0354
T04C0.0433
%
T01
X+016507Y+012861
X+016732Y+014420
X+016684Y+015105
X+018267Y+015361
X+018523Y+013908
X+018700Y+013298
X+018267Y+012797
X+017383Y+011037
X+019115Y+010679
X+020556Y+010679
X+021426Y+012321
X+020993Y+013352
X+022293Y+013861
X+022997Y+012904
X+021426Y+014735
X+016251Y+016702
X+014819Y+016558
X+016377Y+018281
X+016811Y+020109
X+012359Y+017460
X+010424Y+013620
X+013687Y+012504
X+014687Y+012861
X+015126Y+010634
X+015559Y+010201
X+015126Y+008667
X+014187Y+008843
X+013687Y+008059
X+014874Y+007626
X+017516Y+007673
X+017949Y+009203
X+017874Y+005967
X+012187Y+008018
X+011687Y+008665
X+012502Y+010674
X+013187Y+010802
X+007720Y+011042
T02
X+019935Y+019047
X+018035Y+019047
T03
X+012874Y+005298
X+013874Y+005298
X+014874Y+005298
X+015874Y+005298
X+016874Y+005298
X+017874Y+005298
X+018874Y+005298
X+019874Y+005298
X+022435Y+007985
X+022435Y+008985
X+022435Y+011235
X+022435Y+012235
X+022622Y+016547
X+023622Y+016547
X+023622Y+017547
X+022622Y+017547
X+022622Y+018547
X+023622Y+018547
X+023622Y+019547
X+022622Y+019547
X+022622Y+020547
X+023622Y+020547
X+019874Y+021296
X+018874Y+021296
X+017874Y+021296
X+016874Y+021296
X+015874Y+021296
X+014874Y+021296
X+013874Y+021296
X+012874Y+021296
X+011749Y+020047
X+010749Y+020047
X+008249Y+008173
X+008249Y+007173
X+008249Y+006173
X+005249Y+006173
X+005249Y+007173
X+005249Y+008173
T04
X+007249Y+015735
X+007249Y+019672
T00
M30
