G04 DipTrace 3.2.0.1*
G04 Top.gbr*
%MOIN*%
G04 #@! TF.FileFunction,Copper,L1,Top*
G04 #@! TF.Part,Single*
%AMOUTLINE0*
4,1,4,
0.070866,0.033465,
0.070866,-0.033465,
-0.070866,-0.033465,
-0.070866,0.033465,
0.070866,0.033465,
0*%
%AMOUTLINE3*
4,1,4,
0.070866,-0.033465,
0.070866,0.033465,
-0.070866,0.033465,
-0.070866,-0.033465,
0.070866,-0.033465,
0*%
%AMOUTLINE6*
4,1,10,
0.100394,0.019685,
0.033465,0.019685,
0.009843,0.043307,
-0.076772,0.043307,
-0.100394,0.019685,
-0.100394,-0.019685,
-0.076772,-0.043307,
0.009843,-0.043307,
0.033465,-0.019685,
0.100394,-0.019685,
0.100394,0.019685,
0*%
G04 #@! TA.AperFunction,Conductor*
%ADD14C,0.011811*%
G04 #@! TA.AperFunction,CopperBalancing*
%ADD15C,0.025*%
%ADD16R,0.059055X0.051181*%
%ADD17R,0.051181X0.059055*%
%ADD19R,0.081995X0.061995*%
%ADD21R,0.031496X0.062992*%
%ADD23R,0.082677X0.055118*%
G04 #@! TA.AperFunction,ComponentPad*
%ADD25R,0.074803X0.074803*%
%ADD26C,0.074803*%
%ADD27R,0.059055X0.059055*%
%ADD28C,0.059055*%
%ADD29R,0.043307X0.03937*%
%ADD30R,0.03937X0.043307*%
%ADD31R,0.07874X0.023622*%
%ADD33R,0.059055X0.03937*%
%ADD35R,0.025591X0.041339*%
%ADD37R,0.043307X0.023622*%
%ADD39R,0.023622X0.043307*%
%ADD40R,0.023622X0.07874*%
G04 #@! TA.AperFunction,ComponentPad*
%ADD41C,0.048*%
G04 #@! TA.AperFunction,ViaPad*
%ADD42C,0.047244*%
%ADD86OUTLINE0*%
%ADD89OUTLINE3*%
%ADD92OUTLINE6*%
%FSLAX26Y26*%
G04*
G70*
G90*
G75*
G01*
G04 Top*
%LPD*%
X1749951Y1286073D2*
D14*
X1650661Y1286075D1*
X1468701D2*
Y1173672D1*
X1374848Y1461152D2*
X1445657D1*
X1464217Y1479711D1*
X1506084D1*
X1673177Y1441980D2*
X1749951D1*
Y1436073D1*
X1506084Y1479711D2*
X1580614D1*
X1618345Y1441980D1*
X1673177D1*
X1250197Y1067374D2*
X1282248Y1035323D1*
X1318701D1*
Y961073D1*
X1870031Y1329783D2*
X1876322Y1336073D1*
X1962550D1*
X2099335Y1335213D2*
X2047197D1*
X2021606Y1309622D1*
Y1286073D1*
X1962550D1*
X1418701Y884299D2*
Y961073D1*
X949892Y1323478D2*
X737415D1*
Y1329727D1*
Y1317228D1*
X543685D1*
X824906Y817302D2*
X874122Y768085D1*
Y659764D1*
X899713Y634173D1*
X1124874D1*
Y673546D1*
X1174879Y2004656D2*
X1327050D1*
X1364735Y1966971D1*
X1481087D1*
X1962550Y1586073D2*
X2293667D1*
X2362244Y1654651D1*
X1374848Y1535955D2*
X1231113D1*
Y1548265D1*
X1680877Y1011010D2*
Y1051366D1*
X1824895D1*
Y1111000D1*
X2424738Y1477898D2*
X2464110D1*
Y1188047D1*
X2324744Y1048681D1*
X2243507D1*
X2156421D1*
X2130829Y1074273D1*
Y1135997D1*
X1235902Y1746028D2*
X1293606D1*
Y1704688D1*
X1680877Y1011010D2*
Y961073D1*
X1468701D1*
X1816738Y829780D2*
Y869154D1*
X1738949D1*
X1713358Y894744D1*
Y1011010D1*
X1680877D1*
X2051591Y704793D2*
Y744165D1*
X1842328D1*
X1816738Y769756D1*
Y829780D1*
X1987357Y529811D2*
Y704793D1*
X2051591D1*
X1274858Y642488D2*
X1336571D1*
Y454819D1*
X1912365D1*
X1987357Y529811D1*
X1124874Y673546D2*
X1174087D1*
X1205144Y642488D1*
X1274858D1*
X1681066Y2010906D2*
X1866972D1*
X1899604Y1978274D1*
Y1729685D1*
X1581076Y1973220D2*
Y2023404D1*
X1668567D1*
X1681066Y2010906D1*
X1481087Y1966971D2*
X1581076D1*
Y1973220D1*
X2243507Y898533D2*
Y1048681D1*
X2362244Y1654651D2*
X2424738Y1592157D1*
Y1477898D1*
X1235902Y1746028D2*
X1081129D1*
Y1692189D1*
X1231113Y1548265D2*
Y1741239D1*
X1235902Y1746028D1*
X831094Y1098312D2*
X872433D1*
Y1223083D1*
X898025Y1248675D1*
X949892D1*
X772039Y1104220D2*
X777948Y1098312D1*
X831094D1*
X524906Y817302D2*
X824906D1*
X831094Y1023509D2*
X506189D1*
Y1098501D1*
Y1213583D1*
X531782Y1239176D1*
X737415D1*
X1054008Y732601D2*
Y997920D1*
X1028419Y1023509D1*
X937394D1*
X2362244Y2054651D2*
X2311459Y2003866D1*
X2213028D1*
X2187437Y1978276D1*
Y1706059D1*
X2161846Y1680469D1*
X1850394D1*
Y1611665D1*
X1824802Y1586073D1*
X1749951D1*
X1911512Y1067929D2*
X1862297D1*
Y1004701D1*
X2056026Y1135997D2*
X2055587Y1067929D1*
X1506084Y1546640D2*
Y1611665D1*
X1642787D1*
X1668378Y1637256D1*
Y1726689D1*
X1642787Y1752280D1*
X1457150D1*
X1420094Y1789335D1*
X1024697D1*
X999106Y1763744D1*
Y1592193D1*
Y1060911D1*
X937394D1*
X1850394Y1680469D2*
X1824801D1*
Y1729685D1*
X937394Y1023509D2*
X874122D1*
Y1060911D1*
X731260D1*
X687420Y1104751D1*
X640047D1*
Y1098501D1*
X937394Y1060911D2*
X874122D1*
X1081129Y1592189D2*
X999106Y1592193D1*
X1749951Y1586073D2*
X1584890D1*
X1545457Y1546640D1*
X1506084D1*
X2055587Y1067929D2*
X2049682Y1062025D1*
Y998417D1*
X1637744Y1828110D2*
X1481087D1*
Y1892168D1*
X1668378Y1510492D2*
X1692797Y1486073D1*
X1749951D1*
X1803533Y1904667D2*
X1762307D1*
X1756058Y1898417D1*
X1581076D1*
X1749951Y1536073D2*
X1826724Y1536083D1*
X1787358Y596740D2*
X1571252D1*
X1450701Y717291D1*
X1274858D1*
X1124874Y791656D2*
Y831028D1*
X1118701Y837201D1*
Y961073D1*
X1274858Y717291D2*
X1199677D1*
X1174087Y742882D1*
Y791656D1*
X1124874D1*
X1042413Y1361953D2*
X1153923Y1473462D1*
X1231113D1*
Y1411665D1*
X1256705Y1386073D1*
X1749951D1*
X524906Y617302D2*
X824906D1*
X2116612Y998417D2*
Y842278D1*
X2124769D1*
X2199761D1*
X2243507Y798533D1*
X2118520Y704793D2*
Y764819D1*
X2092925Y790413D1*
X2049966D1*
Y842278D1*
X2004689D1*
Y1185213D1*
X2160358D1*
X2185949Y1210803D1*
Y1275370D1*
X2075520D1*
X2036543Y1236394D1*
X1813087D1*
X1787493Y1210801D1*
Y1111000D1*
X2299751Y1473462D2*
X2142642Y1473465D1*
Y1232063D2*
X2121382Y1210803D1*
X1887888D1*
X1862297Y1185211D1*
Y1111000D1*
X2142642Y1473465D2*
X2080033Y1536073D1*
X1962550D1*
X2299751Y1406533D2*
Y1410969D1*
X2424738D1*
X2299748Y1290417D2*
X2299751Y1406533D1*
X1794929Y920335D2*
X1787493Y927770D1*
Y1004701D1*
X1751622Y767287D2*
Y704793D1*
X1738280Y1103669D2*
X1736172Y1101562D1*
X1643475D1*
X1625071Y1670161D2*
X1584295Y1710937D1*
X1424843D1*
X1852315Y1390807D2*
X1897581Y1436073D1*
X1962550D1*
X1293606Y1637759D2*
X1345416D1*
X1351665Y1644008D1*
X1424843D1*
X1470118D1*
X1481933Y1655823D1*
X724916Y1573451D2*
X622231Y1470766D1*
X543685D1*
X1593575Y1317228D2*
Y1329382D1*
X1632945D1*
X1639636Y1336073D1*
X1749951D1*
X1606073Y1011010D2*
Y1063437D1*
X1512567D1*
Y866740D2*
X1549528Y829780D1*
X1749808D1*
X1512567Y1063437D2*
Y1224707D1*
X1538159Y1250299D1*
X1593575D1*
X1887357Y529811D2*
Y679201D1*
X1861765Y704793D1*
X1818551D1*
X1368701Y1250445D2*
Y1173672D1*
X1826724Y1279701D2*
X1809008Y1297417D1*
Y1460480D1*
X1834601Y1486073D1*
X1962550D1*
X1318701Y1080169D2*
Y1173672D1*
X1218701Y801827D2*
Y961073D1*
X1962550Y1386073D2*
X2229256Y1386075D1*
X1168701Y866524D2*
Y961073D1*
X1487358Y762567D2*
X1294291D1*
X1268701Y788157D1*
Y961073D1*
X1368701Y805874D2*
Y961073D1*
X1555874Y1020130D2*
X1444291D1*
X1418701Y1045720D1*
Y1173672D1*
D42*
X1650661Y1286075D3*
X1468701D3*
X1673177Y1441980D3*
X1250197Y1067374D3*
X1870031Y1329783D3*
X1418701Y884299D3*
X2099335Y1335213D3*
X1681066Y2010906D3*
X772039Y1104220D3*
X1235902Y1746028D3*
X1911512Y1067929D3*
X2055587D3*
X1637744Y1828110D3*
X1668378Y1510492D3*
X1826724Y1536083D3*
X1787358Y596740D3*
X1042413Y1361953D3*
X2142642Y1232063D3*
Y1473465D3*
X2299748Y1290417D3*
X1794929Y920335D3*
X1751622Y767287D3*
X1738280Y1103669D3*
X1625071Y1670161D3*
X1852315Y1390807D3*
X1481933Y1655823D3*
X1512567Y866740D3*
Y1063437D3*
X1368701Y1250445D3*
X1826724Y1279701D3*
X1218701Y801827D3*
X2229256Y1386075D3*
X1168701Y866524D3*
X1487358Y762567D3*
X1368701Y805874D3*
X1555874Y1020130D3*
X1318701Y1080169D3*
X448089Y2126608D2*
D15*
X1226081D1*
X2048559D2*
X2465306D1*
X448089Y2101739D2*
X1226081D1*
X2041598D2*
X2224559D1*
X2423513D2*
X2465306D1*
X448089Y2076870D2*
X1226081D1*
X1348638D2*
X1358988D1*
X1415741D2*
X1458970D1*
X1515751D2*
X1558979D1*
X1615724D2*
X1658988D1*
X1715734D2*
X1758997D1*
X1815743D2*
X1858971D1*
X1915717D2*
X1958980D1*
X2015726D2*
X2205325D1*
X2423513D2*
X2465306D1*
X448089Y2052001D2*
X1013612D1*
X1212206D2*
X1558118D1*
X1716810D2*
X2201020D1*
X2423513D2*
X2465306D1*
X448089Y2027133D2*
X693345D1*
X756478D2*
X1013612D1*
X1356783D2*
X1519794D1*
X1902978D2*
X2184081D1*
X2423513D2*
X2465306D1*
X448089Y2002264D2*
X665751D1*
X784072D2*
X1013612D1*
X1381652D2*
X1419820D1*
X1927810D2*
X2159251D1*
X2423513D2*
X2465306D1*
X448089Y1977395D2*
X656564D1*
X793259D2*
X1013612D1*
X1937247D2*
X2149777D1*
X2418955D2*
X2465306D1*
X448089Y1952526D2*
X657390D1*
X792433D2*
X1013612D1*
X1136168D2*
X1145235D1*
X1204528D2*
X1326953D1*
X1642350D2*
X1777693D1*
X1829379D2*
X1861950D1*
X1937247D2*
X1967701D1*
X2019386D2*
X2149777D1*
X2423478D2*
X2465306D1*
X448089Y1927657D2*
X668728D1*
X781094D2*
X1419820D1*
X1854067D2*
X1861959D1*
X2044073D2*
X2149777D1*
X2416946D2*
X2465306D1*
X448089Y1902789D2*
X705115D1*
X744707D2*
X1419820D1*
X2049241D2*
X2149777D1*
X2398466D2*
X2465306D1*
X448089Y1877920D2*
X1419820D1*
X1852093D2*
X1861950D1*
X1937247D2*
X1944980D1*
X2042064D2*
X2149777D1*
X2418705D2*
X2465306D1*
X448089Y1853051D2*
X1419820D1*
X1686846D2*
X1787957D1*
X1819115D2*
X1861950D1*
X1937247D2*
X1977963D1*
X2009122D2*
X2149777D1*
X2423513D2*
X2465306D1*
X448089Y1828182D2*
X1443432D1*
X1693126D2*
X1861950D1*
X1937247D2*
X2149777D1*
X2417234D2*
X2465306D1*
X448089Y1803314D2*
X986448D1*
X1686954D2*
X1861950D1*
X1937247D2*
X2149777D1*
X2397713D2*
X2465306D1*
X448089Y1778445D2*
X964665D1*
X1668761D2*
X1767466D1*
X1956948D2*
X2149777D1*
X2418490D2*
X2465306D1*
X448089Y1753576D2*
X961436D1*
X1345050D2*
X1373423D1*
X1693701D2*
X1767466D1*
X1956948D2*
X2149777D1*
X2423513D2*
X2465306D1*
X448089Y1728707D2*
X961436D1*
X1345050D2*
X1373423D1*
X1705972D2*
X1767466D1*
X1956948D2*
X2149777D1*
X2417484D2*
X2465306D1*
X448089Y1703839D2*
X961436D1*
X1153860D2*
X1193463D1*
X1345050D2*
X1373423D1*
X1706045D2*
X1767466D1*
X2396923D2*
X2465306D1*
X448089Y1678970D2*
X961436D1*
X1153860D2*
X1193463D1*
X1706045D2*
X1767466D1*
X2418239D2*
X2465306D1*
X448089Y1654101D2*
X961436D1*
X1153860D2*
X1193463D1*
X1706045D2*
X1799045D1*
X2187610D2*
X2200983D1*
X2423513D2*
X2465306D1*
X448089Y1629232D2*
X655774D1*
X794049D2*
X961436D1*
X1153860D2*
X1193463D1*
X1705112D2*
X1812752D1*
X1888050D2*
X2206761D1*
X2439877D2*
X2465306D1*
X448089Y1604364D2*
X655774D1*
X794049D2*
X961436D1*
X1153860D2*
X1193463D1*
X1358902D2*
X1373423D1*
X448089Y1579495D2*
X655774D1*
X794049D2*
X961436D1*
X1153860D2*
X1169852D1*
X1436123D2*
X1454664D1*
X1870430D2*
X1891446D1*
X2339293D2*
X2385177D1*
X448089Y1554626D2*
X653873D1*
X794049D2*
X961436D1*
X1153860D2*
X1169852D1*
X1436123D2*
X1454664D1*
X1878719D2*
X1891446D1*
X2311878D2*
X2387079D1*
X448089Y1529757D2*
X629005D1*
X794049D2*
X961436D1*
X1036769D2*
X1169852D1*
X1436123D2*
X1454664D1*
X1881698D2*
X1891417D1*
X2138556D2*
X2387079D1*
X448089Y1504888D2*
X470612D1*
X708572D2*
X961436D1*
X1036769D2*
X1135654D1*
X2351171D2*
X2373299D1*
X448089Y1480020D2*
X470612D1*
X683705D2*
X961436D1*
X1036769D2*
X1108274D1*
X1292371D2*
X1313567D1*
X2033668D2*
X2083857D1*
X2351171D2*
X2373299D1*
X448089Y1455151D2*
X470612D1*
X658837D2*
X961436D1*
X1036769D2*
X1083407D1*
X1292371D2*
X1313567D1*
X2033668D2*
X2090531D1*
X2351171D2*
X2373299D1*
X448089Y1430282D2*
X470612D1*
X616781D2*
X961436D1*
X1036769D2*
X1058538D1*
X1292371D2*
X1313567D1*
X1557520D2*
X1577819D1*
X2033668D2*
X2109622D1*
X2175661D2*
X2197753D1*
X448089Y1405413D2*
X961436D1*
X1138106D2*
X1194037D1*
X448089Y1380545D2*
X640488D1*
X834310D2*
X961436D1*
X1113202D2*
X1210005D1*
X448089Y1355676D2*
X470612D1*
X616781D2*
X634818D1*
X1097413D2*
X1236560D1*
X2351171D2*
X2426444D1*
X448089Y1330807D2*
X470612D1*
X1087652D2*
X1438013D1*
X1499388D2*
X1542150D1*
X2154525D2*
X2262094D1*
X2337391D2*
X2426444D1*
X448089Y1305938D2*
X470612D1*
X1036769D2*
X1417201D1*
X1520201D2*
X1542150D1*
X2205804D2*
X2246699D1*
X2352786D2*
X2426444D1*
X448089Y1281070D2*
X470612D1*
X1036769D2*
X1323113D1*
X2354293D2*
X2426444D1*
X448089Y1256201D2*
X496592D1*
X1036769D2*
X1313639D1*
X2342559D2*
X2426444D1*
X448089Y1231332D2*
X473339D1*
X1036769D2*
X1075152D1*
X1645005D2*
X1756450D1*
X2304773D2*
X2426444D1*
X448089Y1206463D2*
X468530D1*
X1036769D2*
X1075152D1*
X1645005D2*
X1749848D1*
X2304773D2*
X2426444D1*
X448089Y1181594D2*
X468530D1*
X543828D2*
X647486D1*
X910097D2*
X961436D1*
X1036769D2*
X1075152D1*
X1550236D2*
X1749848D1*
X2304773D2*
X2405451D1*
X448089Y1156726D2*
X458684D1*
X553696D2*
X592546D1*
X687545D2*
X763356D1*
X780735D2*
X834765D1*
X910097D2*
X961436D1*
X1036769D2*
X1075152D1*
X1550236D2*
X1743927D1*
X1905848D2*
X1967018D1*
X2294474D2*
X2380584D1*
X448089Y1131857D2*
X458684D1*
X553696D2*
X592546D1*
X712304D2*
X724457D1*
X1036769D2*
X1075152D1*
X1550236D2*
X1598919D1*
X1905848D2*
X1967018D1*
X2304198D2*
X2355717D1*
X448089Y1106988D2*
X458684D1*
X553696D2*
X592546D1*
X1036769D2*
X1075152D1*
X1550236D2*
X1598919D1*
X1949627D2*
X1967018D1*
X2302404D2*
X2330848D1*
X2435283D2*
X2465306D1*
X448089Y1082119D2*
X458684D1*
X553696D2*
X592546D1*
X1036769D2*
X1196908D1*
X2410379D2*
X2465306D1*
X448089Y1057251D2*
X458684D1*
X1040787D2*
X1195795D1*
X2385512D2*
X2465306D1*
X448089Y1032382D2*
X468530D1*
X1071756D2*
X1208068D1*
X1953143D2*
X1967018D1*
X2360644D2*
X2465306D1*
X448089Y1007513D2*
X472370D1*
X1905848D2*
X1967018D1*
X2170028D2*
X2205864D1*
X2281160D2*
X2465306D1*
X448089Y982644D2*
X777709D1*
X990802D2*
X1016339D1*
X1905848D2*
X1967018D1*
X2170028D2*
X2205864D1*
X2281160D2*
X2465306D1*
X448089Y957776D2*
X1016339D1*
X1905848D2*
X1967018D1*
X2170028D2*
X2205864D1*
X2281160D2*
X2465306D1*
X448089Y932907D2*
X1016339D1*
X1848793D2*
X1967018D1*
X2154274D2*
X2193340D1*
X2293684D2*
X2465306D1*
X448089Y908038D2*
X1016339D1*
X1548083D2*
X1675710D1*
X1848864D2*
X1967018D1*
X2154274D2*
X2183005D1*
X2304018D2*
X2465306D1*
X448089Y883169D2*
X1016339D1*
X1306366D2*
X1331043D1*
X1565307D2*
X1677648D1*
X1851483D2*
X1967018D1*
X2302727D2*
X2465306D1*
X448089Y858301D2*
X480301D1*
X569521D2*
X780293D1*
X869513D2*
X1016339D1*
X1306366D2*
X1331043D1*
X1870143D2*
X1967018D1*
X2288840D2*
X2465306D1*
X448089Y833432D2*
X465875D1*
X883938D2*
X1016339D1*
X1306366D2*
X1321067D1*
X1435622D2*
X1469017D1*
X1870143D2*
X1968167D1*
X2304773D2*
X2465306D1*
X448089Y808563D2*
X464297D1*
X885875D2*
X1016339D1*
X1423995D2*
X1458791D1*
X1870143D2*
X1992245D1*
X2304773D2*
X2465306D1*
X448089Y783694D2*
X474201D1*
X908125D2*
X941161D1*
X1538322D2*
X1696416D1*
X1870143D2*
X1992639D1*
X2304773D2*
X2465306D1*
X448089Y758825D2*
X480803D1*
X569018D2*
X780795D1*
X911785D2*
X922609D1*
X1542592D2*
X1696919D1*
X2156176D2*
X2182217D1*
X2304773D2*
X2465306D1*
X448089Y733957D2*
X466055D1*
X583766D2*
X766046D1*
X911785D2*
X921856D1*
X1534303D2*
X1698210D1*
X2171929D2*
X2465306D1*
X448089Y709088D2*
X464224D1*
X585597D2*
X764217D1*
X911785D2*
X922106D1*
X1511122D2*
X1698210D1*
X2171929D2*
X2465306D1*
X448089Y684219D2*
X473841D1*
X575980D2*
X773833D1*
X911785D2*
X938434D1*
X1535990D2*
X1698210D1*
X1924651D2*
X1949686D1*
X2171929D2*
X2465306D1*
X448089Y659350D2*
X481341D1*
X568480D2*
X763642D1*
X1369917D2*
X1456423D1*
X1560857D2*
X1698210D1*
X1925010D2*
X1949686D1*
X2171929D2*
X2465306D1*
X448089Y634482D2*
X466198D1*
X1374224D2*
X1481290D1*
X1585726D2*
X1747837D1*
X1826867D2*
X1849713D1*
X1925010D2*
X1949686D1*
X2025020D2*
X2465306D1*
X448089Y609613D2*
X464152D1*
X1152531D2*
X1190198D1*
X1374224D2*
X1506157D1*
X1841148D2*
X1849713D1*
X1925010D2*
X1949686D1*
X2025020D2*
X2465306D1*
X448089Y584744D2*
X473483D1*
X886199D2*
X1226081D1*
X1410753D2*
X1463958D1*
X1510762D2*
X1531025D1*
X1841364D2*
X1849713D1*
X1925010D2*
X1949686D1*
X2025020D2*
X2465306D1*
X448089Y559875D2*
X509869D1*
X539916D2*
X763642D1*
X886199D2*
X1226081D1*
X2040378D2*
X2465306D1*
X448089Y535007D2*
X1226081D1*
X2048416D2*
X2465306D1*
X448089Y510138D2*
X1226081D1*
X2045259D2*
X2465306D1*
X448089Y485269D2*
X1226081D1*
X2028213D2*
X2465306D1*
X448089Y460400D2*
X1298927D1*
X1970152D2*
X2465306D1*
X900303Y1378316D2*
X963925D1*
X964062Y1766503D1*
X964924Y1771950D1*
X966629Y1777197D1*
X969133Y1782112D1*
X972375Y1786575D1*
X999840Y1814192D1*
X1004034Y1817774D1*
X1008738Y1820656D1*
X1013833Y1822768D1*
X1019198Y1824055D1*
X1024707Y1824488D1*
X1422853Y1824379D1*
X1428301Y1823517D1*
X1433547Y1821812D1*
X1438462Y1819308D1*
X1442925Y1816066D1*
X1471722Y1787423D1*
X1603951Y1787433D1*
X1598301Y1792953D1*
X1478328Y1793066D1*
X1472881Y1793928D1*
X1467634Y1795633D1*
X1462719Y1798136D1*
X1458256Y1801379D1*
X1454356Y1805280D1*
X1451113Y1809743D1*
X1448609Y1814657D1*
X1446904Y1819904D1*
X1446042Y1825352D1*
X1445933Y1837332D1*
X1422311Y1837329D1*
Y1931812D1*
X1361976Y1931927D1*
X1356529Y1932789D1*
X1351282Y1934493D1*
X1346367Y1936997D1*
X1341904Y1940240D1*
X1312499Y1969492D1*
X1222017Y1969503D1*
X1216440Y1963096D1*
X1209427Y1957106D1*
X1201563Y1952286D1*
X1193042Y1948757D1*
X1184073Y1946604D1*
X1174879Y1945881D1*
X1165685Y1946604D1*
X1156717Y1948757D1*
X1148196Y1952286D1*
X1140332Y1957106D1*
X1133650Y1962790D1*
X1133655Y1945881D1*
X1016104D1*
Y2063432D1*
X1133655D1*
Y2046530D1*
X1140332Y2052206D1*
X1148196Y2057026D1*
X1156717Y2060555D1*
X1165685Y2062709D1*
X1174879Y2063432D1*
X1184073Y2062709D1*
X1193042Y2060555D1*
X1201563Y2057026D1*
X1209427Y2052206D1*
X1216440Y2046217D1*
X1221950Y2039812D1*
X1329808Y2039701D1*
X1335256Y2038839D1*
X1340503Y2037134D1*
X1345417Y2034630D1*
X1349881Y2031387D1*
X1379286Y2002135D1*
X1422329Y2002125D1*
X1422311Y2021810D1*
X1522320D1*
X1522301Y2028059D1*
X1546235D1*
X1547643Y2034268D1*
X1549755Y2039364D1*
X1552636Y2044067D1*
X1556219Y2048261D1*
X1560413Y2051844D1*
X1565117Y2054726D1*
X1570213Y2056837D1*
X1575577Y2058125D1*
X1581076Y2058558D1*
X1658192D1*
X1664728Y2061188D1*
X1672795Y2063125D1*
X1681066Y2063776D1*
X1689336Y2063125D1*
X1697403Y2061188D1*
X1705068Y2058013D1*
X1712142Y2053678D1*
X1718450Y2048290D1*
X1720509Y2046063D1*
X1869731Y2045950D1*
X1875178Y2045088D1*
X1880425Y2043383D1*
X1885340Y2040879D1*
X1889803Y2037636D1*
X1924461Y2003131D1*
X1928043Y1998937D1*
X1930925Y1994234D1*
X1933037Y1989138D1*
X1934324Y1983773D1*
X1934757Y1978274D1*
Y1788483D1*
X1954442Y1788461D1*
Y1715651D1*
X2147264Y1715622D1*
X2152290Y1720626D1*
X2152391Y1981034D1*
X2153255Y1986482D1*
X2154959Y1991728D1*
X2157463Y1996643D1*
X2160706Y2001106D1*
X2188171Y2028723D1*
X2192365Y2032306D1*
X2197068Y2035188D1*
X2202164Y2037299D1*
X2204832Y2038051D1*
X2205092Y2040930D1*
X2203650Y2050039D1*
Y2059262D1*
X2205092Y2068371D1*
X2207942Y2077143D1*
X2212130Y2085361D1*
X2217551Y2092823D1*
X2224072Y2099344D1*
X2231534Y2104765D1*
X2239752Y2108953D1*
X2248524Y2111803D1*
X2257633Y2113245D1*
X2266856D1*
X2275965Y2111803D1*
X2284736Y2108953D1*
X2292954Y2104765D1*
X2300416Y2099344D1*
X2303474Y2096517D1*
X2303469Y2113427D1*
X2421020D1*
Y1995875D1*
X2404118D1*
X2409794Y1989198D1*
X2414614Y1981335D1*
X2418143Y1972814D1*
X2420297Y1963845D1*
X2421020Y1954651D1*
X2420297Y1945457D1*
X2418143Y1936488D1*
X2414614Y1927967D1*
X2409794Y1920104D1*
X2403804Y1913091D1*
X2396791Y1907101D1*
X2393119Y1904647D1*
X2400416Y1899344D1*
X2406937Y1892823D1*
X2412358Y1885361D1*
X2416546Y1877143D1*
X2419396Y1868371D1*
X2420839Y1859262D1*
Y1850039D1*
X2419396Y1840930D1*
X2416546Y1832159D1*
X2412358Y1823941D1*
X2406937Y1816479D1*
X2400416Y1809958D1*
X2393119Y1804647D1*
X2400416Y1799344D1*
X2406937Y1792823D1*
X2412358Y1785361D1*
X2416546Y1777143D1*
X2419396Y1768371D1*
X2420839Y1759262D1*
Y1750039D1*
X2419396Y1740930D1*
X2416546Y1732159D1*
X2412358Y1723941D1*
X2406937Y1716479D1*
X2400416Y1709958D1*
X2393119Y1704647D1*
X2400416Y1699344D1*
X2406937Y1692823D1*
X2412358Y1685361D1*
X2416546Y1677143D1*
X2419396Y1668371D1*
X2420839Y1659262D1*
Y1650039D1*
X2420387Y1646226D1*
X2451469Y1614988D1*
X2454711Y1610525D1*
X2457215Y1605610D1*
X2458920Y1600364D1*
X2459782Y1594916D1*
X2459891Y1537039D1*
Y1528822D1*
X2467832Y1528799D1*
X2467815Y2151442D1*
X2041917Y2151476D1*
X2044509Y2143364D1*
X2045951Y2134255D1*
Y2125031D1*
X2044509Y2115923D1*
X2041659Y2107151D1*
X2037471Y2098933D1*
X2032050Y2091471D1*
X2025529Y2084950D1*
X2018067Y2079529D1*
X2009849Y2075341D1*
X2001077Y2072491D1*
X1991969Y2071049D1*
X1982745D1*
X1973636Y2072491D1*
X1964865Y2075341D1*
X1956647Y2079529D1*
X1949185Y2084950D1*
X1942664Y2091471D1*
X1937353Y2098768D1*
X1932050Y2091471D1*
X1925529Y2084950D1*
X1918067Y2079529D1*
X1909849Y2075341D1*
X1901077Y2072491D1*
X1891969Y2071049D1*
X1882745D1*
X1873636Y2072491D1*
X1864865Y2075341D1*
X1856647Y2079529D1*
X1849185Y2084950D1*
X1842664Y2091471D1*
X1837353Y2098768D1*
X1832050Y2091471D1*
X1825529Y2084950D1*
X1818067Y2079529D1*
X1809849Y2075341D1*
X1801077Y2072491D1*
X1791969Y2071049D1*
X1782745D1*
X1773636Y2072491D1*
X1764865Y2075341D1*
X1756647Y2079529D1*
X1749185Y2084950D1*
X1742664Y2091471D1*
X1737353Y2098768D1*
X1732050Y2091471D1*
X1725529Y2084950D1*
X1718067Y2079529D1*
X1709849Y2075341D1*
X1701077Y2072491D1*
X1691969Y2071049D1*
X1682745D1*
X1673636Y2072491D1*
X1664865Y2075341D1*
X1656647Y2079529D1*
X1649185Y2084950D1*
X1642664Y2091471D1*
X1637353Y2098768D1*
X1632050Y2091471D1*
X1625529Y2084950D1*
X1618067Y2079529D1*
X1609849Y2075341D1*
X1601077Y2072491D1*
X1591969Y2071049D1*
X1582745D1*
X1573636Y2072491D1*
X1564865Y2075341D1*
X1556647Y2079529D1*
X1549185Y2084950D1*
X1542664Y2091471D1*
X1537353Y2098768D1*
X1532050Y2091471D1*
X1525529Y2084950D1*
X1518067Y2079529D1*
X1509849Y2075341D1*
X1501077Y2072491D1*
X1491969Y2071049D1*
X1482745D1*
X1473636Y2072491D1*
X1464865Y2075341D1*
X1456647Y2079529D1*
X1449185Y2084950D1*
X1442664Y2091471D1*
X1437353Y2098768D1*
X1432050Y2091471D1*
X1425529Y2084950D1*
X1418067Y2079529D1*
X1409849Y2075341D1*
X1401077Y2072491D1*
X1391969Y2071049D1*
X1382745D1*
X1373636Y2072491D1*
X1364865Y2075341D1*
X1356647Y2079529D1*
X1349185Y2084950D1*
X1346127Y2087777D1*
X1346133Y2070867D1*
X1228581D1*
Y2151499D1*
X445573Y2151476D1*
X445571Y444227D1*
X1303083Y444193D1*
X1301850Y449320D1*
X1301417Y454829D1*
Y471003D1*
X1228581Y471035D1*
Y587643D1*
X1216083Y587650D1*
Y607350D1*
X1202386Y607444D1*
X1196938Y608306D1*
X1191692Y610010D1*
X1186777Y612514D1*
X1182314Y615757D1*
X1173310Y624609D1*
X1158710Y624613D1*
X1156196Y618214D1*
X1153314Y613510D1*
X1149731Y609316D1*
X1145537Y605734D1*
X1140833Y602852D1*
X1135738Y600740D1*
X1130373Y599453D1*
X1124864Y599020D1*
X896954Y599129D1*
X891507Y599991D1*
X886260Y601696D1*
X883744Y602857D1*
X883681Y558526D1*
X766130D1*
Y582175D1*
X572030Y582148D1*
X566466Y575741D1*
X559453Y569752D1*
X551589Y564932D1*
X543068Y561403D1*
X534100Y559249D1*
X524906Y558526D1*
X515711Y559249D1*
X506743Y561403D1*
X498222Y564932D1*
X490358Y569752D1*
X483345Y575741D1*
X477356Y582755D1*
X472535Y590618D1*
X469007Y599139D1*
X466853Y608108D1*
X466130Y617302D1*
X466853Y626496D1*
X469007Y635465D1*
X472535Y643986D1*
X477356Y651849D1*
X483345Y658862D1*
X490358Y664852D1*
X494030Y667306D1*
X486734Y672609D1*
X480213Y679130D1*
X474791Y686592D1*
X470604Y694810D1*
X467753Y703581D1*
X466311Y712690D1*
Y721913D1*
X467753Y731022D1*
X470604Y739794D1*
X474791Y748012D1*
X480213Y755474D1*
X486734Y761995D1*
X494030Y767306D1*
X486734Y772609D1*
X480213Y779130D1*
X474791Y786592D1*
X470604Y794810D1*
X467753Y803581D1*
X466311Y812690D1*
Y821913D1*
X467753Y831022D1*
X470604Y839794D1*
X474791Y848012D1*
X480213Y855474D1*
X486734Y861995D1*
X494196Y867416D1*
X502413Y871604D1*
X511185Y874454D1*
X520294Y875896D1*
X529517D1*
X538626Y874454D1*
X547398Y871604D1*
X555615Y867416D1*
X563077Y861995D1*
X569598Y855474D1*
X571976Y852458D1*
X777781Y852455D1*
X783345Y858862D1*
X790358Y864852D1*
X798222Y869672D1*
X806743Y873201D1*
X815711Y875354D1*
X824906Y876077D1*
X834100Y875354D1*
X843068Y873201D1*
X851589Y869672D1*
X859453Y864852D1*
X866466Y858862D1*
X872455Y851849D1*
X877276Y843986D1*
X880804Y835465D1*
X882958Y826496D1*
X883681Y817302D1*
X883049Y808877D1*
X900853Y790916D1*
X904096Y786453D1*
X906600Y781538D1*
X908304Y776291D1*
X909167Y770844D1*
X909276Y712967D1*
Y674320D1*
X914280Y669320D1*
X955871Y669327D1*
X931374Y693921D1*
X928676Y697634D1*
X926592Y701723D1*
X925175Y706088D1*
X924457Y710621D1*
X924366Y752286D1*
X924726Y756861D1*
X925798Y761324D1*
X927554Y765564D1*
X929951Y769478D1*
X932940Y772974D1*
X958241Y798148D1*
X961954Y800846D1*
X966043Y802930D1*
X970408Y804348D1*
X974941Y805066D1*
X1018825Y805156D1*
X1018854Y983324D1*
X1013850Y988364D1*
X988264Y988356D1*
X988295Y982450D1*
X886492D1*
Y988371D1*
X881990Y988356D1*
X881996Y982450D1*
X780193D1*
Y988371D1*
X503430Y988465D1*
X497983Y989327D1*
X492736Y991031D1*
X487822Y993535D1*
X483358Y996778D1*
X479458Y1000678D1*
X476215Y1005142D1*
X473711Y1010056D1*
X472007Y1015303D1*
X471144Y1020751D1*
X471035Y1037755D1*
X461193Y1037757D1*
Y1159245D1*
X471062D1*
X471144Y1216341D1*
X472007Y1221789D1*
X473711Y1227035D1*
X476215Y1231950D1*
X479458Y1236413D1*
X503323Y1260432D1*
X473098Y1260421D1*
Y1374035D1*
X614272D1*
Y1352396D1*
X637307Y1352382D1*
X637391Y1365487D1*
X638109Y1370020D1*
X639526Y1374385D1*
X641610Y1378474D1*
X644308Y1382186D1*
X647554Y1385432D1*
X651266Y1388130D1*
X655356Y1390214D1*
X659720Y1391631D1*
X664253Y1392349D1*
X749226Y1392440D1*
X810576Y1392349D1*
X815109Y1391631D1*
X819474Y1390214D1*
X823563Y1388130D1*
X827276Y1385432D1*
X830521Y1382186D1*
X833219Y1378474D1*
X835303Y1374385D1*
X836720Y1370020D1*
X837438Y1365487D1*
X837529Y1363182D1*
X838465Y1358631D1*
X891106D1*
X891117Y1378316D1*
X900303D1*
X963920Y1193836D2*
X907583D1*
X907587Y1139365D1*
X963966Y1139371D1*
X963953Y1193862D1*
X1779148Y1788461D2*
X1864445D1*
X1864450Y1963686D1*
X1852392Y1975772D1*
X1720529Y1975752D1*
X1715402Y1970703D1*
X1708690Y1965827D1*
X1701298Y1962060D1*
X1693408Y1959496D1*
X1685214Y1958198D1*
X1676917D1*
X1668723Y1959496D1*
X1660833Y1962060D1*
X1653441Y1965827D1*
X1646730Y1970703D1*
X1640864Y1976570D1*
X1639849Y1977856D1*
X1639852Y1933576D1*
X1742303Y1933571D1*
X1746348Y1935988D1*
X1751444Y1938100D1*
X1756808Y1939387D1*
X1762318Y1939820D1*
X1765881Y1942319D1*
X1772235Y1947745D1*
X1779358Y1952112D1*
X1787079Y1955308D1*
X1795203Y1957259D1*
X1803533Y1957915D1*
X1811862Y1957259D1*
X1819987Y1955308D1*
X1827707Y1952112D1*
X1834831Y1947745D1*
X1841185Y1942319D1*
X1846612Y1935965D1*
X1850978Y1928841D1*
X1854175Y1921121D1*
X1856125Y1912996D1*
X1856781Y1904667D1*
X1856125Y1896337D1*
X1854175Y1888213D1*
X1850978Y1880492D1*
X1846612Y1873369D1*
X1841185Y1867014D1*
X1834831Y1861588D1*
X1827707Y1857222D1*
X1819987Y1854025D1*
X1811862Y1852075D1*
X1803533Y1851419D1*
X1795203Y1852075D1*
X1787079Y1854025D1*
X1779358Y1857222D1*
X1772235Y1861588D1*
X1767764Y1865274D1*
X1761556Y1863697D1*
X1756058Y1863264D1*
X1677220D1*
X1680517Y1859186D1*
X1684852Y1852113D1*
X1688026Y1844448D1*
X1689963Y1836381D1*
X1690614Y1828110D1*
X1689963Y1819840D1*
X1688026Y1811773D1*
X1684852Y1804108D1*
X1680517Y1797034D1*
X1675129Y1790726D1*
X1668820Y1785337D1*
X1662469Y1781407D1*
X1667652Y1777129D1*
X1695109Y1749520D1*
X1698352Y1745056D1*
X1700856Y1740142D1*
X1702560Y1734895D1*
X1703423Y1729448D1*
X1703531Y1671571D1*
X1703423Y1634497D1*
X1702558Y1629039D1*
X1708892Y1627133D1*
X1815234D1*
X1815240Y1646652D1*
X1808841Y1649147D1*
X1804138Y1652029D1*
X1799944Y1655612D1*
X1796361Y1659806D1*
X1793479Y1664509D1*
X1791365Y1669615D1*
X1787776Y1670909D1*
X1769962D1*
Y1788461D1*
X1779148D1*
X1342518Y1590794D2*
X1433623D1*
X1433791Y1499001D1*
X1441386Y1506442D1*
X1445849Y1509685D1*
X1450764Y1512189D1*
X1456021Y1513895D1*
X1457151Y1520673D1*
Y1593092D1*
X1375909Y1593106D1*
Y1608860D1*
X1365454Y1608854D1*
X1361375Y1606437D1*
X1356280Y1604325D1*
X1350915Y1603038D1*
X1345406Y1602605D1*
X1342539Y1596797D1*
Y1590803D1*
X1316101Y1481117D2*
X1316072Y1500818D1*
X1289909Y1500802D1*
X1289888Y1421218D1*
X1316093Y1421227D1*
X1316072Y1481133D1*
X1433623Y1426029D2*
Y1421220D1*
X1589387Y1421227D1*
X1566059Y1444552D1*
X1555029Y1444558D1*
X1555017Y1428810D1*
X1459110Y1428675D1*
X1453864Y1426970D1*
X1448416Y1426106D1*
X1433636Y1425999D1*
X1333634Y682147D2*
Y677626D1*
X1339329Y677534D1*
X1344777Y676671D1*
X1350024Y674966D1*
X1354938Y672462D1*
X1359402Y669219D1*
X1363302Y665319D1*
X1366545Y660856D1*
X1369049Y655941D1*
X1370753Y650694D1*
X1371617Y645247D1*
X1371724Y586472D1*
X1378163Y587864D1*
X1387357Y588587D1*
X1396551Y587864D1*
X1405520Y585710D1*
X1414041Y582181D1*
X1421904Y577361D1*
X1428917Y571371D1*
X1434907Y564358D1*
X1437361Y560686D1*
X1442664Y567983D1*
X1449185Y574504D1*
X1456647Y579925D1*
X1464865Y584113D1*
X1473636Y586963D1*
X1482745Y588406D1*
X1491969D1*
X1501077Y586963D1*
X1509849Y584113D1*
X1518067Y579925D1*
X1525529Y574504D1*
X1532050Y567983D1*
X1537361Y560686D1*
X1542664Y567983D1*
X1546366Y571898D1*
X1436144Y682133D1*
X1333610Y682138D1*
X1195980Y1418623D2*
X1172337D1*
Y1438324D1*
X1165789Y1435613D1*
X1095173Y1364997D1*
X1095121Y1357804D1*
X1093823Y1349610D1*
X1091259Y1341720D1*
X1087492Y1334328D1*
X1082615Y1327617D1*
X1076749Y1321751D1*
X1070038Y1316874D1*
X1062646Y1313108D1*
X1054756Y1310543D1*
X1046562Y1309245D1*
X1038265D1*
X1034256Y1309720D1*
X1034260Y1060900D1*
X1036625Y1057692D1*
X1041871Y1055987D1*
X1046786Y1053483D1*
X1051249Y1050240D1*
X1077650Y1023993D1*
X1077642Y1029692D1*
X1209760Y1029656D1*
X1212812Y1029990D1*
X1207424Y1036298D1*
X1203089Y1043371D1*
X1199915Y1051037D1*
X1197978Y1059104D1*
X1197327Y1067374D1*
X1197978Y1075644D1*
X1199915Y1083711D1*
X1203089Y1091377D1*
X1207424Y1098450D1*
X1213134Y1105056D1*
X1077642Y1105054D1*
Y1242290D1*
X1316433D1*
X1315831Y1250445D1*
X1316482Y1258715D1*
X1318419Y1266782D1*
X1321593Y1274448D1*
X1325928Y1281521D1*
X1331316Y1287829D1*
X1337625Y1293218D1*
X1344698Y1297552D1*
X1352364Y1300727D1*
X1360430Y1302664D1*
X1368701Y1303315D1*
X1376971Y1302664D1*
X1385038Y1300727D1*
X1392703Y1297552D1*
X1399777Y1293218D1*
X1406085Y1287829D1*
X1411474Y1281521D1*
X1415808Y1274448D1*
X1418983Y1266782D1*
X1420920Y1258715D1*
X1421571Y1250445D1*
X1420933Y1242287D1*
X1433563Y1242290D1*
X1431316Y1248690D1*
X1425928Y1254999D1*
X1421593Y1262072D1*
X1418419Y1269738D1*
X1416482Y1277804D1*
X1415831Y1286075D1*
X1416482Y1294345D1*
X1418419Y1302412D1*
X1421593Y1310077D1*
X1425928Y1317151D1*
X1431316Y1323459D1*
X1437625Y1328848D1*
X1444698Y1333182D1*
X1452364Y1336357D1*
X1460430Y1338294D1*
X1468701Y1338945D1*
X1476971Y1338294D1*
X1485038Y1336357D1*
X1492703Y1333182D1*
X1499777Y1328848D1*
X1506085Y1323459D1*
X1511474Y1317151D1*
X1515808Y1310077D1*
X1518983Y1302412D1*
X1520920Y1294345D1*
X1521571Y1286075D1*
X1521319Y1281169D1*
X1527295Y1283732D1*
X1532660Y1285020D1*
X1538159Y1285453D1*
X1544654D1*
X1544642Y1350906D1*
X1253946Y1351029D1*
X1248499Y1351891D1*
X1243252Y1353596D1*
X1238337Y1356100D1*
X1233874Y1359343D1*
X1206256Y1386808D1*
X1202673Y1391003D1*
X1199791Y1395706D1*
X1197680Y1400802D1*
X1196392Y1406167D1*
X1195959Y1411676D1*
X1172337Y1508585D2*
Y1603104D1*
X1195986D1*
X1195959Y1710857D1*
X1151394Y1710874D1*
X1151374Y1531944D1*
X1034285D1*
X1034260Y1414172D1*
X1042413Y1414823D1*
X1045444Y1414703D1*
X1131092Y1500193D1*
X1135555Y1503436D1*
X1140470Y1505940D1*
X1145717Y1507644D1*
X1151164Y1508507D1*
X1172331Y1508615D1*
X2151782Y901054D2*
X2179608D1*
Y877406D1*
X2188678Y877432D1*
X2186354Y884812D1*
X2184912Y893921D1*
Y903144D1*
X2186354Y912253D1*
X2189205Y921025D1*
X2193392Y929243D1*
X2198814Y936705D1*
X2205335Y943226D1*
X2208350Y945604D1*
X2208353Y1013542D1*
X2167539Y1013528D1*
X2167513Y949484D1*
X2151760D1*
X2151765Y901063D1*
X2179608Y807144D2*
Y783503D1*
X2148281D1*
X2150997Y778272D1*
X2152702Y773025D1*
X2153566Y767577D1*
X2153673Y753731D1*
X2169421Y753726D1*
Y655860D1*
X2022507D1*
X2022510Y576937D1*
X2028917Y571371D1*
X2034907Y564358D1*
X2039727Y556495D1*
X2043256Y547974D1*
X2045409Y539005D1*
X2046133Y529811D1*
X2045409Y520617D1*
X2043256Y511648D1*
X2039727Y503127D1*
X2034907Y495264D1*
X2028917Y488251D1*
X2021904Y482261D1*
X2014041Y477441D1*
X2005520Y473912D1*
X1996551Y471759D1*
X1987357Y471035D1*
X1978932Y471668D1*
X1951444Y444182D1*
X2467812Y444193D1*
X2467815Y1142021D1*
X2347575Y1021950D1*
X2343112Y1018707D1*
X2338197Y1016203D1*
X2332950Y1014499D1*
X2327503Y1013635D1*
X2278633Y1013528D1*
X2278660Y945657D1*
X2285067Y940093D1*
X2291056Y933080D1*
X2295877Y925217D1*
X2299406Y916696D1*
X2301559Y907727D1*
X2302282Y898533D1*
X2301559Y889339D1*
X2299406Y880370D1*
X2295877Y871849D1*
X2291056Y863986D1*
X2285373Y857303D1*
X2302282Y857308D1*
Y739757D1*
X2184731D1*
Y807112D1*
X2179630Y807125D1*
X2015490Y783503D2*
X1995127D1*
Y808442D1*
X1988730Y810957D1*
X1984026Y813839D1*
X1979832Y817421D1*
X1976249Y821615D1*
X1973367Y826319D1*
X1971256Y831415D1*
X1969969Y836780D1*
X1969535Y842278D1*
Y1175678D1*
X1902453Y1175650D1*
X1897445Y1170646D1*
X1897450Y1161923D1*
X1903356Y1161902D1*
Y1120168D1*
X1911512Y1120799D1*
X1919782Y1120148D1*
X1927849Y1118211D1*
X1935514Y1115037D1*
X1942588Y1110702D1*
X1948896Y1105314D1*
X1954285Y1099005D1*
X1958619Y1091932D1*
X1961794Y1084266D1*
X1963731Y1076199D1*
X1964382Y1067929D1*
X1963731Y1059659D1*
X1961794Y1051592D1*
X1958619Y1043927D1*
X1954285Y1036853D1*
X1948896Y1030545D1*
X1942588Y1025156D1*
X1935514Y1020822D1*
X1927849Y1017647D1*
X1919782Y1015710D1*
X1911512Y1015059D1*
X1903354Y1015697D1*
X1903356Y953799D1*
X1835858D1*
X1840008Y947959D1*
X1843774Y940567D1*
X1846339Y932677D1*
X1847636Y924483D1*
Y916186D1*
X1846339Y907992D1*
X1843774Y900102D1*
X1841046Y894563D1*
X1845177Y889816D1*
X1848059Y885113D1*
X1850173Y880007D1*
X1857699Y878713D1*
X1867639D1*
Y780846D1*
X1855331D1*
X1860701Y779319D1*
X2016618D1*
X2015781Y782218D1*
X541323Y1159245D2*
X551185D1*
Y1058661D1*
X595073Y1058663D1*
X595051Y1159245D1*
X685043D1*
Y1139904D1*
X692919Y1139471D1*
X698283Y1138184D1*
X703379Y1136072D1*
X708083Y1133190D1*
X712285Y1129600D1*
X721640Y1120245D1*
X724932Y1128223D1*
X729266Y1135297D1*
X734655Y1141605D1*
X740963Y1146993D1*
X748037Y1151328D1*
X755702Y1154503D1*
X763769Y1156440D1*
X772039Y1157091D1*
X780310Y1156440D1*
X788377Y1154503D1*
X796042Y1151328D1*
X803115Y1146993D1*
X809424Y1141605D1*
X811483Y1139378D1*
X837285Y1139371D1*
X837169Y1201136D1*
X836097Y1196673D1*
X834341Y1192433D1*
X831944Y1188520D1*
X828962Y1185030D1*
X825472Y1182049D1*
X821559Y1179651D1*
X817319Y1177895D1*
X812856Y1176823D1*
X808281Y1176463D1*
X664253Y1176554D1*
X659720Y1177272D1*
X655356Y1178689D1*
X651266Y1180773D1*
X647554Y1183471D1*
X644308Y1186717D1*
X641610Y1190429D1*
X639526Y1194518D1*
X638109Y1198883D1*
X637390Y1203425D1*
X636365Y1204022D1*
X546332D1*
X541339Y1199018D1*
X541343Y1159218D1*
X482285Y1527573D2*
X614272D1*
Y1512538D1*
X658245Y1556496D1*
X658266Y1640101D1*
X791566D1*
Y1506802D1*
X707991D1*
X645062Y1444035D1*
X640598Y1440793D1*
X635684Y1438289D1*
X630437Y1436584D1*
X624990Y1435722D1*
X614301Y1435613D1*
X614272Y1413959D1*
X473098D1*
Y1527573D1*
X482285D1*
X791360Y1961923D2*
X789724Y1951593D1*
X786492Y1941647D1*
X781744Y1932328D1*
X775597Y1923866D1*
X768202Y1916471D1*
X759740Y1910324D1*
X750421Y1905576D1*
X740475Y1902344D1*
X730146Y1900709D1*
X719686D1*
X709357Y1902344D1*
X699411Y1905576D1*
X690092Y1910324D1*
X681630Y1916471D1*
X674235Y1923866D1*
X668088Y1932328D1*
X663340Y1941647D1*
X660108Y1951593D1*
X658472Y1961923D1*
Y1972382D1*
X660108Y1982711D1*
X663340Y1992657D1*
X668088Y2001976D1*
X674235Y2010438D1*
X681630Y2017833D1*
X690092Y2023980D1*
X699411Y2028728D1*
X709357Y2031961D1*
X719686Y2033596D1*
X730146D1*
X740475Y2031961D1*
X750421Y2028728D1*
X759740Y2023980D1*
X768202Y2017833D1*
X775597Y2010438D1*
X781744Y2001976D1*
X786492Y1992657D1*
X789724Y1982711D1*
X791360Y1972382D1*
Y1961923D1*
X1831866Y568181D2*
X1837361Y560686D1*
X1842664Y567983D1*
X1849185Y574504D1*
X1852201Y576882D1*
X1852203Y655873D1*
X1700720Y655860D1*
Y752999D1*
X1699403Y759017D1*
X1698752Y767287D1*
X1699403Y775558D1*
X1700551Y780832D1*
X1698907Y780846D1*
Y794661D1*
X1546769Y794734D1*
X1541322Y795597D1*
X1536075Y797302D1*
X1531160Y799806D1*
X1526697Y803049D1*
X1515612Y813980D1*
X1508419Y814033D1*
X1500224Y815331D1*
X1492335Y817895D1*
X1484942Y821661D1*
X1478231Y826538D1*
X1472365Y832404D1*
X1467488Y839115D1*
X1463722Y846508D1*
X1461488Y853227D1*
X1456085Y846915D1*
X1449777Y841526D1*
X1442703Y837192D1*
X1435038Y834017D1*
X1426971Y832080D1*
X1418701Y831429D1*
X1414892Y831579D1*
X1417546Y826106D1*
X1420110Y818217D1*
X1421408Y810022D1*
Y801726D1*
X1420933Y797717D1*
X1447840Y797720D1*
X1453022Y802769D1*
X1459734Y807646D1*
X1467126Y811412D1*
X1475016Y813976D1*
X1483210Y815274D1*
X1491507D1*
X1499701Y813976D1*
X1507591Y811412D1*
X1514983Y807646D1*
X1521694Y802769D1*
X1527560Y796903D1*
X1532437Y790192D1*
X1536203Y782799D1*
X1538768Y774909D1*
X1540066Y766715D1*
Y758419D1*
X1538768Y750224D1*
X1536203Y742335D1*
X1532437Y734942D1*
X1527560Y728231D1*
X1521694Y722365D1*
X1514983Y717488D1*
X1507591Y713722D1*
X1504959Y712751D1*
X1585808Y631899D1*
X1747839Y631894D1*
X1753022Y636942D1*
X1759734Y641819D1*
X1767126Y645585D1*
X1775016Y648150D1*
X1783210Y649448D1*
X1791507D1*
X1799701Y648150D1*
X1807591Y645585D1*
X1814983Y641819D1*
X1821694Y636942D1*
X1827560Y631076D1*
X1832437Y624365D1*
X1836203Y616972D1*
X1838768Y609083D1*
X1840066Y600888D1*
Y592592D1*
X1838768Y584398D1*
X1836203Y576508D1*
X1832437Y569115D1*
X1831833Y568213D1*
X1922513Y576882D2*
X1928917Y571371D1*
X1934907Y564358D1*
X1937361Y560686D1*
X1942664Y567983D1*
X1949185Y574504D1*
X1952201Y576882D1*
X1952312Y707562D1*
X1950541Y709012D1*
X1907228D1*
X1914088Y702031D1*
X1917331Y697568D1*
X1919835Y692654D1*
X1921539Y687407D1*
X1922402Y681959D1*
X1922510Y624083D1*
Y576895D1*
X2370669Y1596508D2*
X2362244Y1595875D1*
X2353819Y1596508D1*
X2316497Y1559343D1*
X2312034Y1556100D1*
X2307119Y1553596D1*
X2301873Y1551891D1*
X2296425Y1551029D1*
X2238549Y1550920D1*
X2114928D1*
X2139576Y1526244D1*
X2146790Y1526172D1*
X2154984Y1524874D1*
X2162874Y1522310D1*
X2170266Y1518543D1*
X2176978Y1513667D1*
X2182085Y1508622D1*
X2250833Y1508617D1*
X2250818Y1524364D1*
X2348684D1*
Y1446131D1*
X2375789Y1446122D1*
X2375804Y1528799D1*
X2389549D1*
X2389584Y1577619D1*
X2370675Y1596505D1*
X2213942Y1621228D2*
X2209874Y1627967D1*
X2206345Y1636488D1*
X2204192Y1645457D1*
X2203469Y1654651D1*
X2204192Y1663845D1*
X2206345Y1672814D1*
X2207774Y1676686D1*
X2184677Y1653738D1*
X2180214Y1650495D1*
X2175299Y1647991D1*
X2170052Y1646286D1*
X2164605Y1645423D1*
X2106728Y1645315D1*
X1885573D1*
X1885440Y1608907D1*
X1884576Y1603459D1*
X1882871Y1598213D1*
X1880367Y1593298D1*
X1877125Y1588835D1*
X1862996Y1574552D1*
X1866927Y1570419D1*
X1871803Y1563707D1*
X1875570Y1556315D1*
X1878134Y1548425D1*
X1879432Y1540231D1*
Y1531934D1*
X1878134Y1523740D1*
X1877425Y1521227D1*
X1893917D1*
X1893932Y1627133D1*
X2031168D1*
Y1621211D1*
X2213919Y1621227D1*
X2220436Y1282264D2*
X2247492D1*
X2246878Y1290417D1*
X2247529Y1298688D1*
X2249466Y1306755D1*
X2252640Y1314420D1*
X2256975Y1321493D1*
X2262364Y1327802D1*
X2264591Y1329861D1*
X2264596Y1346720D1*
X2260332Y1343302D1*
X2253259Y1338967D1*
X2245593Y1335793D1*
X2237526Y1333856D1*
X2229256Y1333205D1*
X2220986Y1333856D1*
X2212919Y1335793D1*
X2205253Y1338967D1*
X2198180Y1343302D1*
X2191871Y1348690D1*
X2189812Y1350917D1*
X2149844Y1350921D1*
X2151554Y1343483D1*
X2152205Y1335213D1*
X2151554Y1326942D1*
X2149617Y1318875D1*
X2146442Y1311210D1*
X2146054Y1310517D1*
X2188707Y1310415D1*
X2194155Y1309552D1*
X2199402Y1307848D1*
X2204316Y1305344D1*
X2208780Y1302101D1*
X2212680Y1298201D1*
X2215923Y1293738D1*
X2218427Y1288823D1*
X2220133Y1283566D1*
X2302282Y1237588D2*
Y1164713D1*
X2285381D1*
X2291056Y1158035D1*
X2295877Y1150172D1*
X2299406Y1141651D1*
X2301559Y1132682D1*
X2302282Y1123488D1*
X2301559Y1114294D1*
X2299406Y1105325D1*
X2295877Y1096804D1*
X2291056Y1088941D1*
X2286841Y1083846D1*
X2310215Y1083835D1*
X2428965Y1202615D1*
X2428957Y1360041D1*
X2375804Y1360067D1*
Y1375820D1*
X2348699Y1375815D1*
X2348684Y1355631D1*
X2334869D1*
X2334903Y1329919D1*
X2339950Y1324753D1*
X2344827Y1318042D1*
X2348593Y1310650D1*
X2351157Y1302760D1*
X2352455Y1294566D1*
Y1286269D1*
X2351157Y1278075D1*
X2348593Y1270185D1*
X2344827Y1262793D1*
X2339950Y1256081D1*
X2334084Y1250215D1*
X2327373Y1245339D1*
X2319980Y1241572D1*
X2312091Y1239008D1*
X2303896Y1237710D1*
X2302293Y1237647D1*
X1375909Y1679161D2*
Y1754160D1*
X1342549Y1754181D1*
X1342539Y1677930D1*
X1348907Y1679052D1*
X1375887Y1679161D1*
X1642508Y1233846D2*
Y1199398D1*
X1547714D1*
X1547720Y1102953D1*
X1552010Y1098594D1*
X1601451Y1098591D1*
X1601432Y1151479D1*
X1685518D1*
Y1136731D1*
X1696979Y1136715D1*
X1700895Y1141054D1*
X1707203Y1146442D1*
X1714277Y1150777D1*
X1721942Y1153951D1*
X1730009Y1155888D1*
X1738280Y1156539D1*
X1746437Y1155902D1*
X1746434Y1161902D1*
X1752356D1*
X1752449Y1213559D1*
X1753311Y1219007D1*
X1755016Y1224253D1*
X1757520Y1229168D1*
X1760762Y1233631D1*
X1771999Y1245021D1*
X1683996Y1245014D1*
X1678286Y1240996D1*
X1670894Y1237230D1*
X1663004Y1234665D1*
X1654810Y1233367D1*
X1646513D1*
X1642504Y1233843D1*
X2031168Y1445016D2*
Y1421261D1*
X2134371Y1421245D1*
X2126304Y1423182D1*
X2118639Y1426357D1*
X2111566Y1430692D1*
X2105257Y1436080D1*
X2099869Y1442388D1*
X2095534Y1449462D1*
X2092360Y1457127D1*
X2090423Y1465194D1*
X2089772Y1473465D1*
X2089891Y1476495D1*
X2065488Y1500903D1*
X2031194Y1500920D1*
X2031133Y1445014D1*
X775316Y676077D2*
X783031D1*
X777356Y682755D1*
X772535Y690618D1*
X769007Y699139D1*
X766853Y708108D1*
X766130Y717302D1*
X766853Y726496D1*
X769007Y735465D1*
X772535Y743986D1*
X777356Y751849D1*
X783345Y758862D1*
X790358Y764852D1*
X794030Y767306D1*
X786734Y772609D1*
X780213Y779130D1*
X777835Y782146D1*
X572030Y782148D1*
X566466Y775741D1*
X559453Y769752D1*
X555781Y767298D1*
X563077Y761995D1*
X569598Y755474D1*
X575020Y748012D1*
X579207Y739794D1*
X582058Y731022D1*
X583500Y721913D1*
Y712690D1*
X582058Y703581D1*
X579207Y694810D1*
X575020Y686592D1*
X569598Y679130D1*
X563077Y672609D1*
X555781Y667298D1*
X563077Y661995D1*
X569598Y655474D1*
X571976Y652458D1*
X766155Y652455D1*
X766130Y676077D1*
X775316D1*
X1327643Y892455D2*
X1303888D1*
X1303854Y802717D1*
X1308858Y797714D1*
X1316432Y797720D1*
X1315831Y805874D1*
X1316482Y814144D1*
X1318419Y822211D1*
X1321593Y829877D1*
X1325928Y836950D1*
X1331316Y843259D1*
X1333543Y845318D1*
X1333547Y892462D1*
X1327642Y892491D1*
X2046617Y1900490D2*
X2045310Y1892236D1*
X2042727Y1884290D1*
X2038934Y1876845D1*
X2034022Y1870085D1*
X2028114Y1864177D1*
X2021354Y1859265D1*
X2013909Y1855472D1*
X2005963Y1852890D1*
X1997710Y1851583D1*
X1989356D1*
X1981102Y1852890D1*
X1973156Y1855472D1*
X1965711Y1859265D1*
X1958951Y1864177D1*
X1953043Y1870085D1*
X1948131Y1876845D1*
X1944339Y1884290D1*
X1941756Y1892236D1*
X1940449Y1900490D1*
Y1908844D1*
X1941756Y1917097D1*
X1944339Y1925043D1*
X1948131Y1932488D1*
X1953043Y1939248D1*
X1958951Y1945156D1*
X1965711Y1950068D1*
X1973156Y1953861D1*
X1981102Y1956444D1*
X1989356Y1957751D1*
X1997710D1*
X2005963Y1956444D1*
X2013909Y1953861D1*
X2021354Y1950068D1*
X2028114Y1945156D1*
X2034022Y1939248D1*
X2038934Y1932488D1*
X2042727Y1925043D1*
X2045310Y1917097D1*
X2046617Y1908844D1*
Y1900490D1*
X2182085Y1438307D2*
X2176978Y1433262D1*
X2170266Y1428386D1*
X2162874Y1424619D1*
X2154984Y1422055D1*
X2150768Y1421228D1*
X2189732D1*
X2194920Y1426277D1*
X2201631Y1431154D1*
X2209024Y1434920D1*
X2216913Y1437484D1*
X2221130Y1438311D1*
X2182157Y1438310D1*
X1509764Y919500D2*
X1516715Y919448D1*
X1524909Y918150D1*
X1532799Y915585D1*
X1540192Y911819D1*
X1546903Y906942D1*
X1552769Y901076D1*
X1557646Y894365D1*
X1561412Y886972D1*
X1563976Y879083D1*
X1565274Y870888D1*
X1565366Y864941D1*
X1693459Y864933D1*
X1686627Y871913D1*
X1683385Y876377D1*
X1680881Y881291D1*
X1679176Y886538D1*
X1678314Y891986D1*
X1678205Y925928D1*
X1509745Y925920D1*
X2237382Y1438311D2*
X2245593Y1436357D1*
X2250828Y1434303D1*
X2244633Y1438310D1*
X2237419D1*
D16*
X949892Y1323478D3*
Y1248675D3*
D17*
X1824801Y1729685D3*
X1899604D3*
D16*
X1374848Y1535955D3*
Y1461152D3*
X1274858Y717291D3*
Y642488D3*
X1231113Y1473462D3*
Y1548265D3*
D17*
X2124769Y842278D3*
X2049966D3*
D19*
X1081129Y1692189D3*
Y1592189D3*
D17*
X2056026Y1135997D3*
X2130829D3*
D21*
X506189Y1098501D3*
X640047D3*
D23*
X543685Y1317228D3*
Y1470766D3*
D25*
X724916Y1573451D3*
D26*
Y1967152D3*
D27*
X1287357Y529811D3*
D28*
X1387357D3*
X1487357D3*
X1587357D3*
X1687357D3*
X1787357D3*
X1887357D3*
X1987357D3*
D27*
X2362244Y2054651D3*
D28*
X2262244D3*
X2362244Y1954651D3*
X2262244D3*
X2362244Y1854651D3*
X2262244D3*
X2362244Y1754651D3*
X2262244D3*
X2362244Y1654651D3*
X2262244D3*
D27*
X2243507Y798533D3*
D28*
Y898533D3*
D27*
Y1223488D3*
D28*
Y1123488D3*
D27*
X1074879Y2004656D3*
D28*
X1174879D3*
D16*
X1581076Y1898417D3*
Y1973220D3*
X1481087Y1892168D3*
Y1966971D3*
D86*
X737415Y1329727D3*
D89*
Y1239176D3*
D29*
X2049682Y998417D3*
X2116612D3*
D30*
X2299751Y1473462D3*
Y1406533D3*
X2424738Y1410969D3*
Y1477898D3*
X1424843Y1710937D3*
Y1644008D3*
X1293606Y1704688D3*
Y1637759D3*
X1593575Y1317228D3*
Y1250299D3*
D29*
X1749808Y829780D3*
X1816738D3*
X1818551Y704793D3*
X1751622D3*
D30*
X1506084Y1479711D3*
Y1546640D3*
D29*
X2118520Y704793D3*
X2051591D3*
D31*
X1749951Y1586073D3*
Y1536073D3*
Y1486073D3*
Y1436073D3*
Y1386073D3*
Y1336073D3*
Y1286073D3*
X1962550D3*
Y1336073D3*
Y1386073D3*
Y1436073D3*
Y1486073D3*
Y1536073D3*
Y1586073D3*
D33*
X1124874Y673546D3*
D92*
X1054008Y732601D3*
D33*
X1124874Y791656D3*
D35*
X1606073Y1011010D3*
X1680877D3*
X1643475Y1101562D3*
D37*
X937394Y1023509D3*
Y1060911D3*
Y1098312D3*
X831094D3*
Y1023509D3*
D39*
X1862297Y1111000D3*
X1824895D3*
X1787493D3*
Y1004701D3*
X1862297D3*
D27*
X824906Y617302D3*
D28*
Y717302D3*
Y817302D3*
X524906D3*
Y717302D3*
Y617302D3*
D40*
X1118701Y961073D3*
X1168701D3*
X1218701D3*
X1268701D3*
X1318701D3*
X1368701D3*
X1418701D3*
X1468701D3*
Y1173672D3*
X1418701D3*
X1368701D3*
X1318701D3*
X1268701D3*
X1218701D3*
X1168701D3*
X1118701D3*
D41*
X1993533Y1904667D3*
X1803533D3*
D27*
X1287357Y2129643D3*
D28*
X1387357D3*
X1487357D3*
X1587357D3*
X1687357D3*
X1787357D3*
X1887357D3*
X1987357D3*
M02*
